<?xml version="1.0" encoding="UTF-8"?>
<svg version="1.1" xmlns="http://www.w3.org/2000/svg" width="500" height="500">
<path d="M0 0 C1.17876709 -0.02231689 2.35753418 -0.04463379 3.57202148 -0.06762695 C23.90470334 -0.01726147 43.80135083 5.51980348 63.375 10.5 C103.36149229 20.63824446 134.7517897 21.12963121 174.81671143 11.71932983 C183.22658552 9.76020998 191.01194119 9.22502967 199.625 9.1875 C200.78515625 9.166875 201.9453125 9.14625 203.140625 9.125 C218.02890521 9.05838577 230.83448162 12.8007879 241.8125 23.25 C248.61928883 30.70159282 253.66766922 39.18355487 258.375 48.0625 C259.41873264 49.9976862 260.46300769 51.93257995 261.5078125 53.8671875 C262.93665715 56.52594674 264.36458467 59.18519555 265.79199219 61.84472656 C274.45721112 77.91310244 285.07185671 89.50416525 298.9375 101.1875 C307.42882715 108.58836198 313.54780726 119.25071937 314.72265625 130.58569336 C315.47739979 145.70821639 313.34196815 157.46479647 303.5 169.4375 C302.92636719 170.13617188 302.35273438 170.83484375 301.76171875 171.5546875 C290.76983209 183.652824 273.97418486 188.73933127 259.10546875 194.33935547 C244.21410591 199.94864403 230.51967267 206.64565122 216.75 214.625 C200.53699439 223.98499628 185.61339006 228.97981613 166.6875 228.9375 C165.57697266 228.96585938 164.46644531 228.99421875 163.32226562 229.0234375 C142.02583826 229.07057956 121.17841165 222.18160178 101.0625 215.875 C69.02942209 205.89612834 35.34651608 196.61381463 2.5 208.4375 C1.14155098 208.92056298 -0.21702055 209.4032815 -1.57568359 209.88574219 C-7.87466785 212.12938389 -14.16922566 214.38333791 -20.43603516 216.71557617 C-39.86735853 223.92978813 -62.35783159 231.69061639 -82.9375 224.375 C-88.2109871 221.93369778 -91.86779797 218.92873182 -95.5 214.4375 C-101.54825539 206.98763379 -108.55344247 201.65003758 -116.34863281 196.12792969 C-134.49248351 183.25554047 -148.19409533 169.14529443 -153.109375 146.6484375 C-155.73771134 125.04351282 -151.78824205 106.12494951 -138.25 88.6875 C-131.02472142 80.28431886 -122.2094612 74.03935673 -113.03686523 67.9453125 C-110.83636875 66.4719642 -108.6669097 64.95993821 -106.5 63.4375 C-105.951091 63.05605835 -105.40218201 62.6746167 -104.8366394 62.28161621 C-92.48937717 53.6300286 -82.2461476 43.49947651 -71.85180664 32.63183594 C-59.42932635 19.69278303 -47.08098149 8.64197828 -29.5 3.4375 C-28.48035156 3.12039062 -27.46070313 2.80328125 -26.41015625 2.4765625 C-17.68391982 0.25681975 -8.96500115 0.09791939 0 0 Z " fill="#68DEFD" transform="translate(169.5,126.5625)"/>
<path d="M0 0 C0.7022168 -0.02674805 1.40443359 -0.05349609 2.12792969 -0.08105469 C4.1484375 -0.06640625 4.1484375 -0.06640625 7.625 0.5625 C10.38775716 3.88000561 10.99110213 6.29130844 10.625 10.5625 C11.8625 10.6553125 11.8625 10.6553125 13.125 10.75 C17.49757022 11.76506094 21.23119962 13.58215753 24.625 16.5625 C24.625 17.5525 24.625 18.5425 24.625 19.5625 C22.315 20.2225 20.005 20.8825 17.625 21.5625 C17.769375 22.19414062 17.91375 22.82578125 18.0625 23.4765625 C19.67106729 31.22896318 19.83255772 38.66377559 19.625 46.5625 C7.67543647 45.49557468 7.67543647 45.49557468 3.625 42.5625 C2.08459305 39.66200129 1.2710217 36.77242034 0.625 33.5625 C-0.07367188 33.7790625 -0.77234375 33.995625 -1.4921875 34.21875 C-2.40226562 34.4971875 -3.31234375 34.775625 -4.25 35.0625 C-5.15492188 35.3409375 -6.05984375 35.619375 -6.9921875 35.90625 C-9.375 36.5625 -9.375 36.5625 -11.375 36.5625 C-12.365 39.0375 -12.365 39.0375 -13.375 41.5625 C-17.80312854 41.05642817 -20.26492311 39.76556922 -23.375 36.5625 C-23.81616419 33.82296292 -23.94969708 31.77695062 -23.8125 29.0625 C-23.7820459 28.00434082 -23.7820459 28.00434082 -23.75097656 26.92480469 C-23.12486794 10.6386145 -23.12486794 10.6386145 -19.53125 6.375 C-13.57986876 1.37238968 -7.60944671 0.16059452 0 0 Z " fill="#5D5E5D" transform="translate(265.375,176.4375)"/>
<path d="M0 0 C1.134375 0.020625 2.26875 0.04125 3.4375 0.0625 C4.68296405 2.55342811 4.2142578 3.47330733 3.4375 6.0625 C4.4275 6.0625 5.4175 6.0625 6.4375 6.0625 C6.47617188 7.59003906 6.47617188 7.59003906 6.515625 9.1484375 C7.21309129 28.55700122 10.33061424 47.64824459 24.94921875 61.546875 C27.23045191 63.87002058 27.43350184 64.8625922 27.5 68.1875 C27.479375 69.13625 27.45875 70.085 27.4375 71.0625 C21.8297715 72.52451493 17.68129183 71.29500543 12.4375 69.0625 C4.1943968 62.61137575 0.69541803 52.17638562 -0.5625 42.0625 C-1.02667735 33.07038256 -0.81738462 24.05894673 -0.5625 15.0625 C-1.5525 15.0625 -2.5425 15.0625 -3.5625 15.0625 C-3.5625 13.7425 -3.5625 12.4225 -3.5625 11.0625 C-3.82437699 8.43970118 -4.13098992 5.82449242 -4.44140625 3.20703125 C-4.48136719 2.49933594 -4.52132812 1.79164063 -4.5625 1.0625 C-3.5625 0.0625 -3.5625 0.0625 0 0 Z " fill="#4FAABF" transform="translate(221.5625,210.9375)"/>
<path d="M0 0 C1.32 0.33 2.64 0.66 4 1 C-2.33833462 9.79505346 -9.19913768 17.98266654 -16.35351562 26.11962891 C-18.94634645 29.08077704 -21.50510842 32.07074711 -24.0625 35.0625 C-25.04942594 36.21619137 -26.03640507 37.36983724 -27.0234375 38.5234375 C-27.51166992 39.09416992 -27.99990234 39.66490234 -28.50292969 40.25292969 C-30.03286759 42.03835624 -31.56670801 43.82036145 -33.1015625 45.6015625 C-38.39187162 51.74676156 -43.65184713 57.89236184 -48.625 64.30078125 C-50.48066354 66.40976727 -51.99289511 67.82738132 -54.1875 69.48046875 C-59.26389199 73.57317938 -62.47596037 76.9826908 -63.62695312 83.60986328 C-64.55349529 92.69688153 -64.3405887 101.88588 -64 111 C-63.47432434 110.83734146 -62.94864868 110.67468292 -62.40704346 110.50709534 C-59.38680652 109.87081764 -56.57531752 109.88058146 -53.48730469 109.88647461 C-52.52082504 109.88625557 -52.52082504 109.88625557 -51.53482056 109.8860321 C-49.41380397 109.8867265 -47.29287617 109.89449664 -45.171875 109.90234375 C-43.69785612 109.90420961 -42.22383662 109.90563272 -40.74981689 109.90663147 C-36.87661008 109.91044339 -33.00344097 109.92026235 -29.13024902 109.93133545 C-25.17537954 109.94157807 -21.22050394 109.9461352 -17.265625 109.95117188 C-9.51039951 109.96188582 -1.75520504 109.97894631 6 110 C6.02948491 113.14581302 6.04695916 116.29158963 6.0625 119.4375 C6.07087891 120.31599609 6.07925781 121.19449219 6.08789062 122.09960938 C6.09111328 122.97294922 6.09433594 123.84628906 6.09765625 124.74609375 C6.10289307 125.53685303 6.10812988 126.3276123 6.11352539 127.14233398 C5.95593722 131.10915017 5.4384071 135.05433606 5 139 C14.9 139 24.8 139 35 139 C35.33 139.66 35.66 140.32 36 141 C24.12 141 12.24 141 0 141 C0.2165625 136.0809375 0.2165625 136.0809375 0.4375 131.0625 C0.48060303 130.04808838 0.52370605 129.03367676 0.56811523 127.98852539 C0.60622314 127.15828857 0.64433105 126.32805176 0.68359375 125.47265625 C0.72025146 124.64000244 0.75690918 123.80734863 0.79467773 122.94946289 C1.07269301 118.95576184 1.55790217 114.97888051 2 111 C-32.65 111.495 -32.65 111.495 -68 112 C-68 81 -68 81 -59 71 C-57.48170209 69.18179139 -55.97690348 67.35199007 -54.5 65.5 C-51.5918662 61.9052235 -48.61458668 58.41739372 -45.5 55 C-42.47717579 51.68010514 -39.57487839 48.30235888 -36.75 44.8125 C-33.12735352 40.33783736 -29.40486942 35.9664058 -25.625 31.625 C-12.25306337 16.26124289 -12.25306337 16.26124289 0 0 Z " fill="#4595A8" transform="translate(118,169)"/>
<path d="M0 0 C1.57043101 0.01330874 3.14079971 0.03717648 4.7109375 0.0703125 C5.51273437 0.07933594 6.31453125 0.08835938 7.140625 0.09765625 C9.12252273 0.12125027 11.10426731 0.15712185 13.0859375 0.1953125 C14.48842662 3.00029073 14.25572806 5.38032615 14.2734375 8.5078125 C14.28761719 9.63832031 14.30179687 10.76882812 14.31640625 11.93359375 C14.0862446 15.19096628 13.61866775 17.32648516 12.0859375 20.1953125 C7.3881908 23.51136899 3.77437283 24.73095043 -1.9140625 25.1953125 C-2.9040625 27.6703125 -2.9040625 27.6703125 -3.9140625 30.1953125 C-8.30046231 29.69400966 -10.90491356 28.46238849 -13.9140625 25.1953125 C-14.27033534 21.75134175 -14.47836498 19.32391745 -12.9140625 16.1953125 C-11.9240625 16.1953125 -10.9340625 16.1953125 -9.9140625 16.1953125 C-10.2440625 13.2253125 -10.5740625 10.2553125 -10.9140625 7.1953125 C-9.9240625 7.5253125 -8.9340625 7.8553125 -7.9140625 8.1953125 C-7.6253125 7.2465625 -7.3365625 6.2978125 -7.0390625 5.3203125 C-5.40484234 0.78081205 -4.91596502 0.24530764 0 0 Z " fill="#F9A871" transform="translate(255.9140625,187.8046875)"/>
<path d="M0 0 C3.465 1.98 3.465 1.98 7 4 C7 4.99 7 5.98 7 7 C9.94729537 8.15811388 9.94729537 8.15811388 13 8 C14.79362465 16.74392018 15.23737365 25.08530089 15 34 C12.29240089 33.75825008 9.6776662 33.44097389 7 33 C6.27167969 32.88527344 5.54335938 32.77054688 4.79296875 32.65234375 C2.41112112 32.05577709 0.92440998 31.54395192 -1 30 C-2.57978707 26.42302393 -3.37260608 22.84932312 -4 19 C-3.34 19 -2.68 19 -2 19 C-1.0672582 14.900639 -0.71174738 10.87956712 -0.4375 6.6875 C-0.35371094 5.43324219 -0.26992188 4.17898437 -0.18359375 2.88671875 C-0.12300781 1.93410156 -0.06242187 0.98148438 0 0 Z " fill="#060706" transform="translate(270,189)"/>
<path d="M0 0 C0.99 0 1.98 0 3 0 C3 9.24 3 18.48 3 28 C12.9 28 22.8 28 33 28 C33.495 28.99 33.495 28.99 34 30 C22.12 30 10.24 30 -2 30 C-1.855625 26.720625 -1.71125 23.44125 -1.5625 20.0625 C-1.49784546 18.54088257 -1.49784546 18.54088257 -1.43188477 16.98852539 C-1.17020915 11.28753764 -0.69144147 5.66517174 0 0 Z " fill="#3A7E8E" transform="translate(120,280)"/>
<path d="M0 0 C0 13.86 0 27.72 0 42 C-1.32 42 -2.64 42 -4 42 C-4.07420941 36.66148922 -4.12863002 31.32327933 -4.16479492 25.984375 C-4.17987262 24.16856658 -4.20033798 22.35279453 -4.22631836 20.53710938 C-4.2627468 17.92568992 -4.27973638 15.31475235 -4.29296875 12.703125 C-4.30845261 11.89256653 -4.32393646 11.08200806 -4.33988953 10.24688721 C-4.34090528 6.83784279 -4.25753035 4.4500195 -2.54418945 1.45605469 C-1 0 -1 0 0 0 Z " fill="#387A8A" transform="translate(124,210)"/>
<path d="M0 0 C6.70449145 -0.74494349 10.37985787 0.90940126 16.09375 4.39453125 C16.7228125 4.92433594 17.351875 5.45414063 18 6 C18 6.99 18 7.98 18 9 C13.46298506 10.45184478 9.81938524 11.23509196 5 11 C5 10.01 5 9.02 5 8 C3.11361341 5.86209519 1.55711823 4.27855912 -1 3 C-0.67 2.01 -0.34 1.02 0 0 Z " fill="#F3A772" transform="translate(272,187)"/>
<path d="M0 0 C1.134375 0.020625 2.26875 0.04125 3.4375 0.0625 C4.4375 2.0625 4.4375 2.0625 3.9375 4.375 C3.39685156 7.28098539 3.70783934 9.22493077 4.4375 12.0625 C-0.1875 15.0625 -0.1875 15.0625 -3.5625 15.0625 C-3.5625 13.7425 -3.5625 12.4225 -3.5625 11.0625 C-3.82437699 8.43970118 -4.13098992 5.82449242 -4.44140625 3.20703125 C-4.48136719 2.49933594 -4.52132812 1.79164063 -4.5625 1.0625 C-3.5625 0.0625 -3.5625 0.0625 0 0 Z " fill="#F3AC79" transform="translate(221.5625,210.9375)"/>
<path d="M0 0 C0 0.99 0 1.98 0 3 C-0.33 3.33 -0.66 3.66 -1 4 C-1.15888092 6.28988781 -1.25138073 8.58443441 -1.31640625 10.87890625 C-1.33718735 11.5655687 -1.35796844 12.25223114 -1.37937927 12.95970154 C-1.44494143 15.16052935 -1.50379015 17.36147975 -1.5625 19.5625 C-1.60567892 21.05144514 -1.649293 22.54037773 -1.69335938 24.02929688 C-1.8006293 27.68606553 -1.90187772 31.34297318 -2 35 C-2.99 35 -3.98 35 -5 35 C-5.12381526 30.6584654 -5.21443558 26.31787163 -5.2746582 21.97509766 C-5.29976737 20.49867854 -5.33386255 19.02238332 -5.37719727 17.54638672 C-5.438018 15.4212386 -5.46624209 13.29773606 -5.48828125 11.171875 C-5.51446533 9.8940918 -5.54064941 8.61630859 -5.56762695 7.29980469 C-5 4 -5 4 -2.46948242 1.55175781 C-1.65455322 1.03967773 -0.83962402 0.52759766 0 0 Z " fill="#408C9D" transform="translate(56,245)"/>
<path d="M0 0 C1.4540625 0.0309375 1.4540625 0.0309375 2.9375 0.0625 C1.9475 2.0425 0.9575 4.0225 -0.0625 6.0625 C-1.7125 5.7325 -3.3625 5.4025 -5.0625 5.0625 C-3.9375 0.08035714 -3.9375 0.08035714 0 0 Z " fill="#100D0A" transform="translate(252.0625,211.9375)"/>
<path d="M0 0 C1.134375 0.020625 2.26875 0.04125 3.4375 0.0625 C3.7675 0.7225 4.0975 1.3825 4.4375 2.0625 C1.8720406 4.6279594 -0.03936668 4.60296087 -3.5625 5.0625 C-4.125 3.125 -4.125 3.125 -4.5625 1.0625 C-3.5625 0.0625 -3.5625 0.0625 0 0 Z " fill="#EDB081" transform="translate(221.5625,210.9375)"/>
<path d="M0 0 C0.33 0 0.66 0 1 0 C1.33 2.97 1.66 5.94 2 9 C0.68 8.67 -0.64 8.34 -2 8 C-2.125 5.125 -2.125 5.125 -2 2 C-1.34 1.34 -0.68 0.68 0 0 Z " fill="#646D6E" transform="translate(244,195)"/>
</svg>
