<?xml version="1.0" encoding="UTF-8"?>
<svg version="1.1" xmlns="http://www.w3.org/2000/svg" width="500" height="500">
<path d="M0 0 C12.65940194 7.82591406 25.28864321 14.50604157 39.20233154 19.78890991 C42.10052803 20.89043676 44.98925232 22.01591152 47.87887573 23.13969421 C49.99838358 23.96365203 52.11900477 24.78469195 54.23974609 25.60546875 C73.72317675 33.16231748 93.16012208 41.19101778 109.05322266 55.08740234 C109.66149902 55.61881836 110.26977539 56.15023437 110.89648438 56.69775391 C123.43634207 67.78449505 133.74641749 79.43382469 142.05322266 94.08740234 C142.74351562 95.28042969 142.74351562 95.28042969 143.44775391 96.49755859 C156.40344318 120.47586605 158.25651817 148.10000288 151.05322266 174.08740234 C146.257939 189.55685374 138.21018734 201.63025027 127.05322266 213.08740234 C126.46927734 213.75642578 125.88533203 214.42544922 125.28369141 215.11474609 C110.4146286 231.71539597 83.89894549 236.58822215 63.13916016 241.00146484 C61.93675186 241.25783218 61.93675186 241.25783218 60.71005249 241.51937866 C56.66438415 242.38010472 52.61683659 243.22907234 48.56445312 244.05761719 C35.70134497 246.72642959 23.31503163 250.29424734 11.30322266 255.71240234 C10.56064209 256.04594727 9.81806152 256.37949219 9.05297852 256.72314453 C-5.1580193 263.27588606 -18.29940332 271.87087695 -31.47802734 280.25146484 C-71.79062305 305.86604709 -113.10984716 321.85575689 -161.32177734 321.52490234 C-162.25600525 321.5221933 -163.19023315 321.51948425 -164.152771 321.51669312 C-178.41669718 321.45413604 -192.07920301 320.67135604 -205.94677734 317.08740234 C-206.70941895 316.9054834 -207.47206055 316.72356445 -208.2578125 316.53613281 C-221.97404027 313.23609865 -236.40003111 307.71277856 -246.94677734 298.08740234 C-247.43823242 297.64219238 -247.9296875 297.19698242 -248.43603516 296.73828125 C-262.33432889 283.97859409 -272.3971367 268.89075283 -281.58251953 252.51757812 C-282.54758328 250.79849357 -283.52035768 249.08372699 -284.49853516 247.37207031 C-295.79302634 227.56476745 -304.68280217 207.31844121 -309.94677734 185.08740234 C-310.24197266 183.84087891 -310.53716797 182.59435547 -310.84130859 181.31005859 C-314.54590635 164.21051132 -315.27662033 147.05938757 -315.20751953 129.61010742 C-315.19684695 126.42070251 -315.20745828 123.23186793 -315.22021484 120.04248047 C-315.25217176 72.54400661 -308.91455955 31.15046855 -274.32568359 -3.54150391 C-267.15877543 -10.34633944 -259.34345783 -15.76559881 -250.94677734 -20.91259766 C-250.26760254 -21.33041504 -249.58842773 -21.74823242 -248.88867188 -22.17871094 C-168.10410813 -71.13163264 -74.98961103 -46.53445636 0 0 Z " fill="#68DDFD" transform="translate(326.94677734375,84.91259765625)"/>
<path d="M0 0 C2.79533294 1.77624432 5.39171175 3.77447403 8 5.8125 C9.04800781 6.61397461 9.04800781 6.61397461 10.1171875 7.43164062 C11.47512947 8.4731565 12.82579906 9.52423832 14.16821289 10.58569336 C15.7271789 11.78935724 17.35600287 12.90164467 18.99609375 13.9921875 C21 16 21 16 21.41015625 18.92578125 C18.61927658 46.11333943 6.28953597 71.07580276 -11 92 C-11.4734082 92.58555664 -11.94681641 93.17111328 -12.43457031 93.77441406 C-18.96862625 101.84386532 -25.64006115 108.75978691 -34 115 C-35.20464239 115.90726627 -36.40905605 116.81483631 -37.61328125 117.72265625 C-39.59839138 119.21566239 -41.5859599 120.70491681 -43.58032227 122.18554688 C-47.37928472 125.00909399 -51.1355878 127.87644592 -54.8515625 130.80859375 C-55.65779053 131.44385986 -56.46401855 132.07912598 -57.29467773 132.73364258 C-58.85804394 133.96937342 -60.41763304 135.20990201 -61.97290039 136.45581055 C-65.51037011 139.24850778 -68.61845391 141.66911618 -73 143 C-73.93199219 142.24976563 -74.86398438 141.49953125 -75.82421875 140.7265625 C-83.27595596 134.74059576 -90.77124446 128.8299902 -98.390625 123.05859375 C-100.43016307 121.44955698 -102.19588737 119.85056623 -104 118 C-103.14450562 116.30472168 -103.14450562 116.30472168 -102.27172852 114.57519531 C-100.15617338 110.38029377 -98.04592009 106.18274406 -95.93725586 101.984375 C-95.02398697 100.16789275 -94.10928311 98.35213121 -93.19311523 96.53710938 C-91.8762599 93.92766597 -90.56459192 91.31567166 -89.25390625 88.703125 C-88.63824547 87.48728729 -88.63824547 87.48728729 -88.01014709 86.24688721 C-87.43966896 85.10615753 -87.43966896 85.10615753 -86.85766602 83.94238281 C-86.35469749 82.9431076 -86.35469749 82.9431076 -85.84156799 81.92364502 C-84.98595353 79.96789276 -84.45579628 78.08203551 -84 76 C-83.14277344 75.96261719 -82.28554687 75.92523438 -81.40234375 75.88671875 C-72.12383273 75.68215966 -72.12383273 75.68215966 -64 72 C-61.15867331 66.51355076 -59 61.21495642 -59 55 C-62.96 54.67 -66.92 54.34 -71 54 C-69.33627751 49.84069377 -68.08914549 47.55505088 -65.375 44.1875 C-64.42753906 43.00220703 -64.42753906 43.00220703 -63.4609375 41.79296875 C-62.97882813 41.20128906 -62.49671875 40.60960937 -62 40 C-64.31 39.34 -66.62 38.68 -69 38 C-69.625 35.6875 -69.625 35.6875 -70 33 C-69.34 32.01 -68.68 31.02 -68 30 C-66.68 30 -65.36 30 -64 30 C-64.13277344 29.29875 -64.26554687 28.5975 -64.40234375 27.875 C-65.44761202 22.2595442 -66.3574719 16.67566491 -67 11 C-65.35 10.67 -63.7 10.34 -62 10 C-60.03015861 12.95476209 -59.65107622 14.24308144 -59.125 17.625 C-58.17575802 22.83052055 -56.34841754 27.28036475 -54 32 C-53.26910156 31.21689453 -53.26910156 31.21689453 -52.5234375 30.41796875 C-42.48201196 19.99314332 -15.55985909 -5.75783332 0 0 Z " fill="#F0F2F2" transform="translate(236,107)"/>
<path d="M0 0 C3.21147516 0.60720422 5.18812152 1.66015158 7.7578125 3.66015625 C8.46172119 4.20325439 9.16562988 4.74635254 9.89086914 5.3059082 C10.62813232 5.8855835 11.36539551 6.46525879 12.125 7.0625 C12.87966553 7.64797607 13.63433105 8.23345215 14.41186523 8.83666992 C19.98414168 13.16999961 25.52348949 17.54613027 31 22 C29.74027897 24.66561759 28.37876572 26.97020238 26.56640625 29.29296875 C26.08800293 29.91413574 25.60959961 30.53530273 25.11669922 31.17529297 C24.60381348 31.83932129 24.09092773 32.50334961 23.5625 33.1875 C7.32209729 54.57813612 -9.13294956 78.96234405 -13 106 C-13.11601563 106.75925781 -13.23203125 107.51851563 -13.3515625 108.30078125 C-13.98487557 116.35052369 -8.96371964 125.93323155 -4 132 C4.81259081 140.76105519 13.07096089 144.86281764 25 148 C26.14984375 148.30292969 27.2996875 148.60585938 28.484375 148.91796875 C46.36738828 152.93598756 65.12793999 151.89157231 83.05078125 148.65625 C86.07490474 148.11118385 88.91607963 147.85226729 92 148 C89.52655827 150.47344173 87.894518 150.6843749 84.50390625 151.47265625 C83.38693359 151.73240234 82.26996094 151.99214844 81.11914062 152.25976562 C79.94544922 152.52466797 78.77175781 152.78957031 77.5625 153.0625 C76.42361328 153.33126953 75.28472656 153.60003906 74.11132812 153.87695312 C44.13585273 160.74169649 10.93339788 157.5760224 -15.9453125 141.9375 C-16.95335938 141.298125 -17.96140625 140.65875 -19 140 C-19.58362305 139.63003906 -20.16724609 139.26007813 -20.76855469 138.87890625 C-33.08397636 130.94186745 -42.31545769 121.6336649 -46.54199219 107.14160156 C-49.20163179 94.70537628 -47.48358083 80.72736612 -43 69 C-42.5875 67.82824219 -42.175 66.65648437 -41.75 65.44921875 C-34.34362541 45.52354619 -22.37577289 27.41706342 -9 11 C-7.79923828 9.52273437 -7.79923828 9.52273437 -6.57421875 8.015625 C-4.38946123 5.33819277 -2.19802746 2.66654124 0 0 Z " fill="#4D91A6" transform="translate(126,234)"/>
<path d="M0 0 C4.19921875 2.734375 4.19921875 2.734375 6 4 C6.89203125 4.57621094 7.7840625 5.15242188 8.703125 5.74609375 C11 8 11 8 11.41015625 10.92578125 C8.61927658 38.11333943 -3.71046403 63.07580276 -21 84 C-21.4734082 84.58555664 -21.94681641 85.17111328 -22.43457031 85.77441406 C-28.96862625 93.84386532 -35.64006115 100.75978691 -44 107 C-45.20464239 107.90726627 -46.40905605 108.81483631 -47.61328125 109.72265625 C-49.59839138 111.21566239 -51.5859599 112.70491681 -53.58032227 114.18554688 C-57.37928472 117.00909399 -61.1355878 119.87644592 -64.8515625 122.80859375 C-66.06090454 123.76149292 -66.06090454 123.76149292 -67.29467773 124.73364258 C-68.85804394 125.96937342 -70.41763304 127.20990201 -71.97290039 128.45581055 C-75.51037011 131.24850778 -78.61845391 133.66911618 -83 135 C-85.04305638 133.48195811 -87.05588403 131.93993625 -89.0625 130.375 C-89.64322266 129.94832031 -90.22394531 129.52164063 -90.82226562 129.08203125 C-92.47265625 127.7734375 -92.47265625 127.7734375 -95 125 C-95.09021345 120.25090607 -92.96794836 115.98318645 -91.0625 111.6875 C-90.75820068 110.99817383 -90.45390137 110.30884766 -90.14038086 109.59863281 C-86.39656247 101.36241811 -81.78208948 93.66685469 -77 86 C-76.61070312 85.36884277 -76.22140625 84.73768555 -75.8203125 84.08740234 C-71.1898796 76.62482104 -71.1898796 76.62482104 -69 74 C-68.01 74 -67.02 74 -66 74 C-65.16180842 75.62249941 -64.3295884 77.24808497 -63.5 78.875 C-63.0359375 79.77992188 -62.571875 80.68484375 -62.09375 81.6171875 C-61 84 -61 84 -61 86 C-58.56212615 85.8590651 -56.12482147 85.71245458 -53.6875 85.5625 C-52.99720703 85.52318359 -52.30691406 85.48386719 -51.59570312 85.44335938 C-48.52838465 85.25072585 -45.93031848 84.97677283 -43 84 C-42.67 82.35 -42.34 80.7 -42 79 C-41.34 79 -40.68 79 -40 79 C-40 78.34 -40 77.68 -40 77 C-43.63 77 -47.26 77 -51 77 C-53.68329247 70.1619321 -55.51970541 64.32449246 -56 57 C-55.34 57 -54.68 57 -54 57 C-53.566875 57.7425 -53.13375 58.485 -52.6875 59.25 C-50.47869827 62.84952875 -47.77115628 65.11442186 -44 67 C-38.31668392 67.59106487 -33.85222997 67.27243416 -29 64 C-24.119981 58.59241137 -23.64094958 55.14161533 -23.7265625 47.984375 C-24.09872728 43.92246227 -25.15749081 41.91539404 -28 39 C-30.28040276 37.44717757 -32.52027168 36.23986416 -35 35 C-33.46488177 31.35839901 -31.28003346 29.03556785 -28.4921875 26.26171875 C-27.58726562 25.35873047 -26.68234375 24.45574219 -25.75 23.52539062 C-25.04037109 22.82506714 -25.04037109 22.82506714 -24.31640625 22.1105957 C-22.89541817 20.70765879 -21.48279557 19.29626507 -20.0703125 17.88476562 C-13.68326399 11.53831277 -7.25333318 5.35279644 0 0 Z " fill="#FDFEFE" transform="translate(246,115)"/>
<path d="M0 0 C13.99860608 0.4153889 13.99860608 0.4153889 19 5 C20.51816358 8.03632717 20.49607651 9.58947399 20 13 C18.31098055 15.39840762 16.49133724 17.57214248 14.53125 19.75390625 C12.72594843 22.40198891 12.69106598 23.8610097 13 27 C25.40279906 25.03130174 32.108691 18.43972187 40 9 C41.32 9.33 42.64 9.66 44 10 C44.71353784 14.01365034 44.52454158 16.0670263 42.5 19.66796875 C37.44828449 26.82127685 31.94730839 33.02760037 24.125 37.125 C20.44232128 39.33460723 20.1848325 39.98532204 19 44 C18.49687582 47.09381667 18.17570924 50.19327394 17.875 53.3125 C17.58625 56.179375 17.2975 59.04625 17 62 C9.74 62 2.48 62 -5 62 C-4.99097656 60.05996094 -4.98195313 58.11992187 -4.97265625 56.12109375 C-5.00080151 53.55987539 -5.03084927 50.99867744 -5.0625 48.4375 C-5.05154297 47.16068359 -5.04058594 45.88386719 -5.02929688 44.56835938 C-4.96690614 37.8275 -4.96690614 37.8275 -7.51733398 31.80371094 C-8.73570289 30.66940612 -9.99270246 29.57496249 -11.28735352 28.52856445 C-14.12111535 25.99938657 -14.92548809 22.94424631 -15.9375 19.375 C-16.14439453 18.73304688 -16.35128906 18.09109375 -16.56445312 17.4296875 C-17.6532723 13.8991642 -18.4222067 10.69263323 -18 7 C-15.95575462 5.02389614 -14.8823175 4 -12 4 C-11.566875 5.216875 -11.13375 6.43375 -10.6875 7.6875 C-8.69765319 12.94106751 -7.27462931 16.59554886 -2 19 C-1.80327635 17.27185839 -1.61803201 15.54240803 -1.4375 13.8125 C-1.33308594 12.84957031 -1.22867187 11.88664063 -1.12109375 10.89453125 C-0.87564658 8.01467928 -0.87564658 8.01467928 -1.59765625 5.32421875 C-2 3 -2 3 0 0 Z " fill="#262223" transform="translate(298,138)"/>
<path d="M0 0 C2.94574981 0.06850581 5.17072273 0.22876489 7.39526367 2.29760742 C10.85740535 6.87549781 12.63310913 11.87552746 14.3125 17.3125 C14.57611328 18.12267578 14.83972656 18.93285156 15.11132812 19.76757812 C17 25.65925325 17 25.65925325 17 28 C20.63 28 24.26 28 28 28 C28 28.66 28 29.32 28 30 C27.34 30.66 26.68 31.32 26 32 C25.855625 32.680625 25.71125 33.36125 25.5625 34.0625 C25.2840625 35.0215625 25.2840625 35.0215625 25 36 C21.38132441 37.2062252 18.07493749 37.10816918 14.3125 37.0625 C13.2596582 37.05573242 13.2596582 37.05573242 12.18554688 37.04882812 C10.45699462 37.03706927 8.72848635 37.01913454 7 37 C5.02 33.04 3.04 29.08 1 25 C-3.76901084 29.76901084 -6.80735718 34.86421713 -10.25 40.625 C-10.91733154 41.73770264 -11.58466309 42.85040527 -12.2722168 43.99682617 C-17.62238065 53.0627254 -22.00423091 62.28026418 -26 72 C-26.65739197 73.3379305 -27.32195096 74.67241885 -28 76 C-30.62649853 73.87684676 -33.25093774 71.75116327 -35.875 69.625 C-36.62136719 69.02171875 -37.36773437 68.4184375 -38.13671875 67.796875 C-38.85214844 67.21679688 -39.56757813 66.63671875 -40.3046875 66.0390625 C-40.96452637 65.50490723 -41.62436523 64.97075195 -42.30419922 64.42041016 C-44 63 -44 63 -46 61 C-45.42967041 59.86981445 -44.85934082 58.73962891 -44.27172852 57.57519531 C-42.15617338 53.38029377 -40.04592009 49.18274406 -37.93725586 44.984375 C-37.02398697 43.16789275 -36.10928311 41.35213121 -35.19311523 39.53710938 C-33.8762599 36.92766597 -32.56459192 34.31567166 -31.25390625 31.703125 C-30.84346573 30.89256653 -30.43302521 30.08200806 -30.01014709 29.24688721 C-29.62982834 28.48640076 -29.24950958 27.72591431 -28.85766602 26.94238281 C-28.35469749 25.9431076 -28.35469749 25.9431076 -27.84156799 24.92364502 C-26.98595353 22.96789276 -26.45579628 21.08203551 -26 19 C-24.71416016 18.94392578 -24.71416016 18.94392578 -23.40234375 18.88671875 C-21.68724609 18.78810547 -21.68724609 18.78810547 -19.9375 18.6875 C-18.24947266 18.60048828 -18.24947266 18.60048828 -16.52734375 18.51171875 C-12.42573752 17.9166906 -9.58207526 17.11513015 -6 15 C-4.37210104 12.58511062 -3.47039939 10.06706161 -2.5625 7.3125 C-2.30791016 6.61060547 -2.05332031 5.90871094 -1.79101562 5.18554688 C-1.17076709 3.46523491 -0.58212576 1.73358331 0 0 Z " fill="#E8E8E9" transform="translate(178,164)"/>
<path d="M0 0 C4.95 0 9.9 0 15 0 C14.96519531 1.99160156 14.93039062 3.98320312 14.89453125 6.03515625 C14.59217142 29.99868474 15.88463257 54.30933756 33 73 C33.763125 74.0725 34.52625 75.145 35.3125 76.25 C38.99799649 80.02120571 43.21333744 81.89944517 48 84 C47.67 84.66 47.34 85.32 47 86 C42.71 86 38.42 86 34 86 C34.12375 88.083125 34.2475 90.16625 34.375 92.3125 C34.44460938 93.48425781 34.51421875 94.65601563 34.5859375 95.86328125 C34.78613747 99.15699887 34.78613747 99.15699887 37 102 C38.5717267 110.83774193 36.77931823 118.12338267 31.84375 125.5625 C27.54173147 129.24994445 23.75374576 129.03164006 18.28515625 128.66333008 C16.51839892 128.48694658 14.75790771 128.24960583 13 128 C16.70589056 124.91291669 20.57910265 122.26249668 24.6875 119.75 C25.26822266 119.38648438 25.84894531 119.02296875 26.44726562 118.6484375 C30.7534657 116 30.7534657 116 33 116 C32.85899143 113.72886197 32.71203245 111.45809275 32.5625 109.1875 C32.48128906 107.92292969 32.40007812 106.65835938 32.31640625 105.35546875 C32.12815453 102.00818107 32.12815453 102.00818107 31 99 C30.34 99 29.68 99 29 99 C29.12761719 98.17757812 29.25523437 97.35515625 29.38671875 96.5078125 C30.04519047 89.39124165 30.04519047 89.39124165 26.796875 83.296875 C24.85741467 81.6541627 22.88986126 80.04416054 20.8984375 78.46484375 C11.68871198 70.63285345 7.15140042 57.96359026 4.375 46.5 C4.16335205 45.63125244 3.9517041 44.76250488 3.73364258 43.86743164 C0.29857678 29.23402463 -0.29612466 14.98719825 0 0 Z " fill="#90E8FD" transform="translate(268,200)"/>
<path d="M0 0 C1.875 1.75 1.875 1.75 2.875 3.75 C2.875 5.75 2.875 5.75 1.875 7.375 C-0.93006728 9.30348376 -3.84404115 9.94523651 -7.125 10.75 C-6.8775 11.7709375 -6.8775 11.7709375 -6.625 12.8125 C-5.60391774 18.81135828 -5.56889387 22.72240168 -9.125 27.75 C-9.50011719 28.41515625 -9.87523437 29.0803125 -10.26171875 29.765625 C-13.42590449 35.31542711 -13.42590449 35.31542711 -16.4375 37.1875 C-19.125 37.75 -19.125 37.75 -23 38 C-27.38495039 38.41289552 -29.45759799 40.41587476 -32.38671875 43.5703125 C-34.125 44.75 -34.125 44.75 -36.625 44.6875 C-41.17886701 42.97979987 -43.06187204 38.96506606 -45.125 34.75 C-45.8125 31.0625 -45.8125 31.0625 -45.125 27.75 C-41.65717154 22.80145365 -38.96299094 20.93144283 -33.25 18.6875 C-26.2617003 15.64287663 -23.63558643 11.74751892 -20.65234375 4.640625 C-16.60621748 -3.01700527 -7.29516718 -2.91806687 0 0 Z " fill="#242224" transform="translate(157.125,102.25)"/>
<path d="M0 0 C5.61 0 11.22 0 17 0 C17.64072021 24.38296364 18.19021143 55.39980843 0.96484375 75.1640625 C-8.49148936 84 -8.49148936 84 -14 84 C-14 83.34 -14 82.68 -14 82 C-13.24847656 81.26394531 -12.49695313 80.52789062 -11.72265625 79.76953125 C1.53957947 66.27896436 2.3866943 46.14793639 2.29272461 28.46655273 C2.14777812 18.85263571 1.35945013 9.51615089 0 0 Z " fill="#4CA5BA" transform="translate(331,201)"/>
<path d="M0 0 C4.31164921 2.25892926 6.89515529 4.91655411 8.859375 9.31640625 C9.60915803 14.94364386 9.65940883 19.65707682 7.171875 24.81640625 C3.50822623 28.77710762 0.35364325 31.91040556 -5.19140625 32.5546875 C-12.00122056 32.77815291 -15.28745329 30.85255888 -20.390625 26.31640625 C-23.92174651 22.28083881 -24.58651825 18.87744594 -24.45703125 13.62890625 C-23.77104066 8.61524665 -21.24933841 5.31952791 -17.515625 1.94140625 C-12.31802418 -1.61484694 -6.02809733 -1.92503108 0 0 Z " fill="#6ADEF9" transform="translate(214.140625,150.68359375)"/>
<path d="M0 0 C2.94574981 0.06850581 5.17072273 0.22876489 7.39526367 2.29760742 C10.85740535 6.87549781 12.63310913 11.87552746 14.3125 17.3125 C14.57611328 18.12267578 14.83972656 18.93285156 15.11132812 19.76757812 C17 25.65925325 17 25.65925325 17 28 C20.63 28 24.26 28 28 28 C28 28.66 28 29.32 28 30 C27.34 30.66 26.68 31.32 26 32 C25.855625 32.680625 25.71125 33.36125 25.5625 34.0625 C25.2840625 35.0215625 25.2840625 35.0215625 25 36 C21.38132441 37.2062252 18.07493749 37.10816918 14.3125 37.0625 C13.2596582 37.05573242 13.2596582 37.05573242 12.18554688 37.04882812 C10.45699462 37.03706927 8.72848635 37.01913454 7 37 C6.15973604 35.23244474 5.32801278 33.46082737 4.5 31.6875 C4.0359375 30.70136719 3.571875 29.71523437 3.09375 28.69921875 C2 26 2 26 2 23 C1.34 23 0.68 23 0 23 C-0.66 21.68 -1.32 20.36 -2 19 C-2.928125 19.639375 -3.85625 20.27875 -4.8125 20.9375 C-9.69292839 24.09542425 -13.55397291 24.12646144 -19.1875 24.0625 C-19.93708984 24.05798828 -20.68667969 24.05347656 -21.45898438 24.04882812 C-23.30602383 24.03706354 -25.15302213 24.01912865 -27 24 C-26.67 22.35 -26.34 20.7 -26 19 C-24.71416016 18.94392578 -24.71416016 18.94392578 -23.40234375 18.88671875 C-21.68724609 18.78810547 -21.68724609 18.78810547 -19.9375 18.6875 C-18.24947266 18.60048828 -18.24947266 18.60048828 -16.52734375 18.51171875 C-12.42573752 17.9166906 -9.58207526 17.11513015 -6 15 C-4.37210104 12.58511062 -3.47039939 10.06706161 -2.5625 7.3125 C-2.18061523 6.2596582 -2.18061523 6.2596582 -1.79101562 5.18554688 C-1.17076709 3.46523491 -0.58212576 1.73358331 0 0 Z " fill="#ADAEAE" transform="translate(178,164)"/>
<path d="M0 0 C1.98 0 3.96 0 6 0 C6.03963867 0.77375977 6.07927734 1.54751953 6.12011719 2.34472656 C7.55887567 31.86372543 7.55887567 31.86372543 16 60 C16.41894531 60.98097656 16.83789062 61.96195312 17.26953125 62.97265625 C21.62994279 72.47426927 27.76855003 80.7925154 37 86 C35.3359375 86.71875 35.3359375 86.71875 33 87 C18.08193633 78.88745782 10.75519787 65.01836449 5.69335938 49.41894531 C1.72623026 35.57869346 -0.20491263 20.69617543 -0.0625 6.3125 C-0.05347656 5.11238281 -0.04445313 3.91226563 -0.03515625 2.67578125 C-0.02355469 1.79277344 -0.01195312 0.90976563 0 0 Z " fill="#71B6C7" transform="translate(262,200)"/>
<path d="M0 0 C13.99860608 0.4153889 13.99860608 0.4153889 19 5 C20.51816358 8.03632717 20.49607651 9.58947399 20 13 C18.31098055 15.39840762 16.49133724 17.57214248 14.53125 19.75390625 C12.70061014 22.43915605 12.95787002 23.8349849 13 27 C10 29 10 29 6 29 C6 28.01 6 27.02 6 26 C4.68 26 3.36 26 2 26 C-1.28525834 21.52010226 -2.30696149 18.95770778 -1.6875 13.375 C-1.54699219 12.47523438 -1.40648437 11.57546875 -1.26171875 10.6484375 C-0.86035 7.98346918 -0.86035 7.98346918 -1.58203125 5.3515625 C-2 3 -2 3 0 0 Z " fill="#BF4D3A" transform="translate(298,138)"/>
<path d="M0 0 C2.05078125 0.03255208 4.1015625 0.06510417 6.15234375 0.09765625 C7.03747045 2.55354161 7.25145525 3.78872179 6.44311523 6.30834961 C5.17295221 8.89188931 3.89865883 11.47090954 2.58984375 14.03515625 C1.94305664 15.37610352 1.94305664 15.37610352 1.28320312 16.74414062 C-1.88025734 23.03835222 -4.87307662 27.77279637 -11.84765625 30.09765625 C-11.64140625 31.19078125 -11.43515625 32.28390625 -11.22265625 33.41015625 C-10.84765625 37.09765625 -10.84765625 37.09765625 -12.84765625 40.09765625 C-13.74484375 39.81921875 -13.74484375 39.81921875 -14.66015625 39.53515625 C-17.01174387 38.87671938 -17.01174387 38.87671938 -19.84765625 40.09765625 C-19.84765625 41.41765625 -19.84765625 42.73765625 -19.84765625 44.09765625 C-21.49765625 44.09765625 -23.14765625 44.09765625 -24.84765625 44.09765625 C-24.84765625 39.47765625 -24.84765625 34.85765625 -24.84765625 30.09765625 C-23.40390625 29.76765625 -21.96015625 29.43765625 -20.47265625 29.09765625 C-14.86165078 26.88362703 -12.42127858 23.36166047 -9.34765625 18.41015625 C-8.92693848 17.73919922 -8.5062207 17.06824219 -8.07275391 16.37695312 C-5.49987719 11.97833363 -4.1182435 7.88664617 -3.22460938 2.87182617 C-2.71309643 0.46433617 -2.48183358 0.13117514 0 0 Z " fill="#F8AC77" transform="translate(174.84765625,82.90234375)"/>
<path d="M0 0 C3.70390021 2.02666238 5.65363011 3.48044516 8 7 C8.46287185 11.99901603 8.10431905 15.00873265 5 19 C2.45647704 21.83700638 0.24381351 22.27411509 -3.4375 22.5 C-7.18421347 22.38889482 -7.8933476 22.08443315 -11 19.625 C-13.76414986 15.99705331 -14.39306028 13.72877309 -14.359375 9.10546875 C-13.72418186 5.38406547 -11.66020984 3.59687151 -9 1 C-5.89046621 -0.5547669 -3.43733239 -0.28644437 0 0 Z " fill="#242325" transform="translate(210,155)"/>
<path d="M0 0 C0.18175781 0.78503906 0.36351562 1.57007812 0.55078125 2.37890625 C2.15062087 9.29685307 2.15062087 9.29685307 4.75 15.875 C6.20833885 19.52084712 6.26173582 21.29890825 5 25 C2.5645247 27.81016381 1.17450794 27.98469229 -2.5625 28.3125 C-6 28 -6 28 -9 26 C-8.67 24.02 -8.34 22.04 -8 20 C-6.35 19.67 -4.7 19.34 -3 19 C-3.19916016 17.948125 -3.19916016 17.948125 -3.40234375 16.875 C-4.44761202 11.2595442 -5.3574719 5.67566491 -6 0 C-3.50907189 -1.24546405 -2.58919267 -0.7767578 0 0 Z " fill="#F6AD79" transform="translate(175,118)"/>
<path d="M0 0 C0.67305018 1.60149886 1.33822227 3.20631029 2 4.8125 C2.37125 5.70582031 2.7425 6.59914062 3.125 7.51953125 C4 10 4 10 4 13 C6.97 13.33 9.94 13.66 13 14 C13 13.01 13 12.02 13 11 C15.31 11 17.62 11 20 11 C20 11.66 20 12.32 20 13 C19.34 13.66 18.68 14.32 18 15 C17.7834375 16.0209375 17.7834375 16.0209375 17.5625 17.0625 C17.376875 17.701875 17.19125 18.34125 17 19 C13.38132441 20.2062252 10.07493749 20.10816918 6.3125 20.0625 C5.61060547 20.05798828 4.90871094 20.05347656 4.18554688 20.04882812 C2.45699462 20.03706927 0.72848635 20.01913454 -1 20 C-1.84026396 18.23244474 -2.67198722 16.46082737 -3.5 14.6875 C-3.9640625 13.70136719 -4.428125 12.71523437 -4.90625 11.69921875 C-6 9 -6 9 -6 6 C-6.66 6 -7.32 6 -8 6 C-6.44620094 2.89240188 -3.60020424 0 0 0 Z " fill="#C2C1C0" transform="translate(186,181)"/>
<path d="M0 0 C2.6875 0.0625 2.6875 0.0625 6 1 C10.25841295 6.07017292 12.37341913 11.03478962 14.3125 17.3125 C14.57611328 18.12267578 14.83972656 18.93285156 15.11132812 19.76757812 C17 25.65925325 17 25.65925325 17 28 C18.32 28 19.64 28 21 28 C21 28.99 21 29.98 21 31 C14.25 31.125 14.25 31.125 12 30 C11.17797852 28.37353516 11.17797852 28.37353516 10.37890625 26.2890625 C10.08306641 25.53882813 9.78722656 24.78859375 9.48242188 24.015625 C8.87226291 22.42998895 8.26287969 20.84405416 7.65429688 19.2578125 C7.35716797 18.505 7.06003906 17.7521875 6.75390625 16.9765625 C6.48908447 16.28643066 6.2242627 15.59629883 5.95141602 14.88525391 C4.89529792 12.7925303 3.78339215 11.51167789 2 10 C-0.10332891 9.28552357 -0.10332891 9.28552357 -2 9 C-1.125 2.25 -1.125 2.25 0 0 Z " fill="#FBAD78" transform="translate(178,164)"/>
<path d="M0 0 C1.45742463 -0.08096803 2.91612807 -0.13917774 4.375 -0.1875 C5.18710937 -0.22230469 5.99921875 -0.25710937 6.8359375 -0.29296875 C7.55007813 -0.19628906 8.26421875 -0.09960938 9 0 C11 3 11 3 11 6 C11.66 6.33 12.32 6.66 13 7 C12.79375 7.61875 12.5875 8.2375 12.375 8.875 C12.25125 9.57625 12.1275 10.2775 12 11 C12.66 11.66 13.32 12.32 14 13 C14 14.32 14 15.64 14 17 C11 19 11 19 7 19 C7 18.01 7 17.02 7 16 C5.68 16 4.36 16 3 16 C-0.62167726 10.8418536 -1.39880692 7.94885347 -0.359375 1.72265625 C-0.24078125 1.15417969 -0.1221875 0.58570313 0 0 Z " fill="#FBA871" transform="translate(297,148)"/>
<path d="M0 0 C0 4.62 0 9.24 0 14 C-0.99 13.67 -1.98 13.34 -3 13 C-3.99 13.33 -4.98 13.66 -6 14 C-6 15.32 -6 16.64 -6 18 C-7.65 18 -9.3 18 -11 18 C-11 13.38 -11 8.76 -11 4 C-1.125 0 -1.125 0 0 0 Z " fill="#E99E6B" transform="translate(161,109)"/>
<path d="M0 0 C1.98 0.66 3.96 1.32 6 2 C5.84660156 2.66386719 5.69320312 3.32773438 5.53515625 4.01171875 C4.89226979 7.60155922 4.64966009 11.17795419 4.4375 14.8125 C4.39431641 15.50537109 4.35113281 16.19824219 4.30664062 16.91210938 C4.20138547 18.60788686 4.10027137 20.30392052 4 22 C2.35 22 0.7 22 -1 22 C-0.67 14.74 -0.34 7.48 0 0 Z " fill="#4FABC0" transform="translate(158,142)"/>
<path d="M0 0 C2.28804968 3.89323182 2.14761261 6.5655305 1.55078125 10.9375 C1 13 1 13 -0.9375 15.0625 C-3 16 -3 16 -5 16 C-5.36340286 14.23103898 -5.71540883 12.45973374 -6.0625 10.6875 C-6.25972656 9.70136719 -6.45695312 8.71523437 -6.66015625 7.69921875 C-7 5 -7 5 -6 2 C-3.85412616 0.684787 -2.52986895 0 0 0 Z " fill="#F2AC7A" transform="translate(284,129)"/>
<path d="M0 0 C1.9375 1.375 1.9375 1.375 2.875 3.75 C2.95347963 7.04614464 2.10488751 7.96679165 -0.0625 10.375 C-1.0525 11.86 -1.0525 11.86 -2.0625 13.375 C-2.3925 12.715 -2.7225 12.055 -3.0625 11.375 C-4.0525 10.715 -5.0425 10.055 -6.0625 9.375 C-5.78122579 7.89382199 -5.48716268 6.41506751 -5.1875 4.9375 C-5.02507812 4.11378906 -4.86265625 3.29007813 -4.6953125 2.44140625 C-4.48648437 1.75949219 -4.27765625 1.07757813 -4.0625 0.375 C-2.0625 -0.625 -2.0625 -0.625 0 0 Z " fill="#F3AB79" transform="translate(344.0625,136.625)"/>
<path d="M0 0 C2 1 2 1 3.1171875 3.6328125 C4.05368974 7.20478122 4.20018059 10.19115117 4.125 13.875 C4.10695312 15.02742188 4.08890625 16.17984375 4.0703125 17.3671875 C4.03550781 18.67042969 4.03550781 18.67042969 4 20 C0.37897527 16.59722882 -0.85180453 13.4452252 -1.15625 8.421875 C-1.18471745 5.93097269 -1.20109117 3.48324215 -1 1 C-0.67 0.67 -0.34 0.34 0 0 Z " fill="#4FACC2" transform="translate(180,100)"/>
<path d="M0 0 C1.98 1.32 3.96 2.64 6 4 C4.95125002 6.62187494 4.35068687 7.79371361 1.875 9.25 C1.25625 9.4975 0.6375 9.745 0 10 C-2.27528469 8.19873295 -2.94682181 7.3633843 -3.375 4.4375 C-3.25125 3.633125 -3.1275 2.82875 -3 2 C-2.01 1.34 -1.02 0.68 0 0 Z " fill="#53A6B8" transform="translate(158,121)"/>
<path d="M0 0 C2.31 0 4.62 0 7 0 C7 0.66 7 1.32 7 2 C2.22642128 4.71391278 -1.34388537 6.56561146 -7 6 C-7.33 5.01 -7.66 4.02 -8 3 C-5.36 3 -2.72 3 0 3 C0 2.01 0 1.02 0 0 Z " fill="#7BDCF0" transform="translate(199,192)"/>
<path d="M0 0 C2.31 0 4.62 0 7 0 C7 1.65 7 3.3 7 5 C7.66 5.33 8.32 5.66 9 6 C7.68 6 6.36 6 5 6 C5 5.01 5 4.02 5 3 C3.68 3 2.36 3 1 3 C0.67 2.01 0.34 1.02 0 0 Z " fill="#BAA79E" transform="translate(299,161)"/>
<path d="M0 0 C0.33 0 0.66 0 1 0 C1.06058594 0.68707031 1.12117187 1.37414062 1.18359375 2.08203125 C1.26738281 2.98308594 1.35117188 3.88414063 1.4375 4.8125 C1.51871094 5.70582031 1.59992188 6.59914063 1.68359375 7.51953125 C1.93489767 10.12743559 1.93489767 10.12743559 3 13 C2.01 13.99 1.02 14.98 0 16 C0 10.72 0 5.44 0 0 Z " fill="#D9A277" transform="translate(161,107)"/>
<path d="M0 0 C1.65 0 3.3 0 5 0 C4.6875 1.9375 4.6875 1.9375 4 4 C3.01 4.33 2.02 4.66 1 5 C0.67 3.35 0.34 1.7 0 0 Z " fill="#F7CDAE" transform="translate(296,155)"/>
<path d="M0 0 C2.64 0 5.28 0 8 0 C8 0.33 8 0.66 8 1 C6.02 1.66 4.04 2.32 2 3 C2 3.66 2 4.32 2 5 C1.01 4.67 0.02 4.34 -1 4 C-0.67 2.68 -0.34 1.36 0 0 Z " fill="#A2C6CE" transform="translate(152,183)"/>
</svg>
