<?xml version="1.0" encoding="UTF-8"?>
<!DOCTYPE svg PUBLIC "-//W3C//DTD SVG 1.1//EN" "http://www.w3.org/Graphics/SVG/1.1/DTD/svg11.dtd">
<svg xmlns="http://www.w3.org/2000/svg" version="1.1" width="500px" height="500px" style="shape-rendering:geometricPrecision; text-rendering:geometricPrecision; image-rendering:optimizeQuality; fill-rule:evenodd; clip-rule:evenodd" xmlns:xlink="http://www.w3.org/1999/xlink">
<g><path style="opacity:0.301" fill="#69e1fe" d="M 287.5,48.5 C 308.604,48.1635 329.604,49.3302 350.5,52C 353.993,52.9419 357.326,54.2752 360.5,56C 371.466,65.2971 382.132,74.9638 392.5,85C 405.497,93.8339 418.83,102.167 432.5,110C 477.459,137.451 493.626,176.951 481,228.5C 475.346,245.808 465.679,260.475 452,272.5C 444.507,283.247 440.507,295.247 440,308.5C 433.54,331.302 421.04,350.136 402.5,365C 380.497,382.502 355.831,395.002 328.5,402.5C 329.074,404.059 329.74,405.559 330.5,407C 325.631,408.535 320.631,409.535 315.5,410C 244.891,415.008 176.558,405.008 110.5,380C 101.8,377.103 93.467,373.436 85.5,369C 81.8841,366.258 79.3841,362.758 78,358.5C 80.315,335.113 73.6484,314.78 58,297.5C 46,285.5 34,273.5 22,261.5C 4.26319,237.978 0.596524,212.311 11,184.5C 25.2,153.299 47.3666,129.465 77.5,113C 83.9213,110.193 90.588,108.193 97.5,107C 122.618,106.511 146.618,101.177 169.5,91C 191.286,79.7728 213.286,69.1061 235.5,59C 252.519,53.2298 269.852,49.7298 287.5,48.5 Z"/></g>
<g><path style="opacity:1" fill="#cbf4fd" d="M 264.5,82.5 C 268.167,83.1667 271.833,83.8333 275.5,84.5C 273.643,85.7537 271.643,85.7537 269.5,84.5C 269.08,86.326 269.08,88.326 269.5,90.5C 273.443,90.3791 276.443,91.8791 278.5,95C 277.833,95.3333 277.167,95.6667 276.5,96C 280.25,97.2577 281.25,99.2577 279.5,102C 280.167,102.333 280.833,102.667 281.5,103C 276.167,103.667 276.167,104.333 281.5,105C 279.122,105.974 279.456,106.641 282.5,107C 281.5,107.333 280.5,107.667 279.5,108C 284.628,109.562 284.628,110.895 279.5,112C 281.663,112.245 283.33,113.245 284.5,115C 284.167,115.333 283.833,115.667 283.5,116C 285.957,117.512 285.957,118.846 283.5,120C 284.5,120.333 285.5,120.667 286.5,121C 285.167,121.667 285.167,122.333 286.5,123C 282.774,124.043 283.107,124.543 287.5,124.5C 287.64,126.124 286.973,127.29 285.5,128C 286.5,128.333 287.5,128.667 288.5,129C 288.167,130 287.833,131 287.5,132C 290.167,133.333 290.167,134.667 287.5,136C 288.448,136.483 289.448,136.649 290.5,136.5C 290.532,138.619 289.532,139.952 287.5,140.5C 281.355,134.599 275.022,128.932 268.5,123.5C 266.236,122.781 263.903,122.448 261.5,122.5C 260.77,120.955 259.437,120.122 257.5,120C 258.833,119.667 260.167,119.333 261.5,119C 260.833,118.667 260.167,118.333 259.5,118C 261.25,115.258 260.25,113.258 256.5,112C 257.167,111.667 257.833,111.333 258.5,111C 257.167,110.333 257.167,109.667 258.5,109C 257.5,108.667 256.5,108.333 255.5,108C 256.973,107.29 257.64,106.124 257.5,104.5C 254.402,104.587 254.068,104.087 256.5,103C 256.032,101.178 255.699,99.0113 255.5,96.5C 251.107,96.5432 250.774,96.0432 254.5,95C 253.167,94.3333 253.167,93.6667 254.5,93C 251.456,92.6411 251.122,91.9745 253.5,91C 250.167,90.6667 246.833,90.3333 243.5,90C 241.541,87.6842 241.541,85.6842 243.5,84C 250.679,83.8285 257.679,83.3285 264.5,82.5 Z"/></g>
<g><path style="opacity:1" fill="#daf7fd" d="M 264.5,82.5 C 257.679,83.3285 250.679,83.8285 243.5,84C 241.541,85.6842 241.541,87.6842 243.5,90C 246.833,90.3333 250.167,90.6667 253.5,91C 251.122,91.9745 251.456,92.6411 254.5,93C 253.167,93.6667 253.167,94.3333 254.5,95C 250.774,96.0432 251.107,96.5432 255.5,96.5C 255.699,99.0113 256.032,101.178 256.5,103C 254.068,104.087 254.402,104.587 257.5,104.5C 257.64,106.124 256.973,107.29 255.5,108C 256.5,108.333 257.5,108.667 258.5,109C 257.167,109.667 257.167,110.333 258.5,111C 257.833,111.333 257.167,111.667 256.5,112C 260.25,113.258 261.25,115.258 259.5,118C 260.167,118.333 260.833,118.667 261.5,119C 260.167,119.333 258.833,119.667 257.5,120C 259.437,120.122 260.77,120.955 261.5,122.5C 258.246,122.794 255.579,124.127 253.5,126.5C 250.097,128.9 247.43,131.9 245.5,135.5C 244.833,135.833 244.167,136.167 243.5,136.5C 242.761,136.631 242.094,136.464 241.5,136C 242.676,133.337 242.009,130.67 239.5,128C 240.591,125.893 240.591,123.393 239.5,120.5C 236.402,120.587 236.068,120.087 238.5,119C 237.833,118 237.167,117 236.5,116C 236.888,114.192 236.888,112.525 236.5,111C 236.004,109.004 235.004,107.337 233.5,106C 233.833,105 234.167,104 234.5,103C 233.971,100.166 232.971,97.6665 231.5,95.5C 226.327,95.0016 221.66,96.3349 217.5,99.5C 215.914,97.9192 214.914,95.9192 214.5,93.5C 213.311,92.5713 211.978,92.238 210.5,92.5C 227.346,83.6659 245.346,80.3326 264.5,82.5 Z"/></g>
<g><path style="opacity:1" fill="#c1f2fd" d="M 275.5,84.5 C 285.415,86.6277 294.415,90.6277 302.5,96.5C 298.069,94.7854 293.735,92.7854 289.5,90.5C 289.167,90.8333 288.833,91.1667 288.5,91.5C 289.093,93.3817 289.76,95.2151 290.5,97C 295.226,98.688 299.226,101.355 302.5,105C 302.167,105.333 301.833,105.667 301.5,106C 303.004,107.337 304.004,109.004 304.5,111C 304.167,111.333 303.833,111.667 303.5,112C 304.5,114.333 305.5,116.667 306.5,119C 304.068,120.087 304.402,120.587 307.5,120.5C 308.591,123.393 308.591,125.893 307.5,128C 310.009,130.67 310.676,133.337 309.5,136C 311.004,137.337 312.004,139.004 312.5,141C 311.366,142.016 311.699,142.683 313.5,143C 314.447,145.478 314.447,147.812 313.5,150C 314.167,150.333 314.833,150.667 315.5,151C 315.5,152.667 315.5,154.333 315.5,156C 317.957,157.512 317.957,158.846 315.5,160C 316.5,160.333 317.5,160.667 318.5,161C 317.167,161.667 317.167,162.333 318.5,163C 316.068,164.087 316.402,164.587 319.5,164.5C 319.5,165.5 319.5,166.5 319.5,167.5C 318.167,167.5 316.833,167.5 315.5,167.5C 304.303,167.079 293.303,166.079 282.5,164.5C 284.893,162.264 286.727,159.597 288,156.5C 288.733,151.115 288.567,145.782 287.5,140.5C 289.532,139.952 290.532,138.619 290.5,136.5C 289.448,136.649 288.448,136.483 287.5,136C 290.167,134.667 290.167,133.333 287.5,132C 287.833,131 288.167,130 288.5,129C 287.5,128.667 286.5,128.333 285.5,128C 286.973,127.29 287.64,126.124 287.5,124.5C 283.107,124.543 282.774,124.043 286.5,123C 285.167,122.333 285.167,121.667 286.5,121C 285.5,120.667 284.5,120.333 283.5,120C 285.957,118.846 285.957,117.512 283.5,116C 283.833,115.667 284.167,115.333 284.5,115C 283.33,113.245 281.663,112.245 279.5,112C 284.628,110.895 284.628,109.562 279.5,108C 280.5,107.667 281.5,107.333 282.5,107C 279.456,106.641 279.122,105.974 281.5,105C 276.167,104.333 276.167,103.667 281.5,103C 280.833,102.667 280.167,102.333 279.5,102C 281.25,99.2577 280.25,97.2577 276.5,96C 277.167,95.6667 277.833,95.3333 278.5,95C 276.443,91.8791 273.443,90.3791 269.5,90.5C 269.08,88.326 269.08,86.326 269.5,84.5C 271.643,85.7537 273.643,85.7537 275.5,84.5 Z"/></g>
<g><path style="opacity:1" fill="#ebfafe" d="M 210.5,92.5 C 211.978,92.238 213.311,92.5713 214.5,93.5C 214.914,95.9192 215.914,97.9192 217.5,99.5C 221.157,100.22 221.824,101.72 219.5,104C 220.448,104.483 221.448,104.649 222.5,104.5C 222.433,106.401 222.767,108.234 223.5,110C 223.095,110.945 222.428,111.612 221.5,112C 222.5,112.333 223.5,112.667 224.5,113C 223.742,115.139 223.742,117.472 224.5,120C 226.387,121.969 227.72,124.302 228.5,127C 227.833,127.333 227.167,127.667 226.5,128C 227.5,129 228.5,130 229.5,131C 228.833,131.333 228.167,131.667 227.5,132C 230.249,133.346 230.583,134.68 228.5,136C 229.416,136.374 230.25,136.874 231,137.5C 231.251,139.433 231.751,141.266 232.5,143C 230.068,144.087 230.402,144.587 233.5,144.5C 233.64,146.124 232.973,147.29 231.5,148C 232.5,148.333 233.5,148.667 234.5,149C 234.167,150 233.833,151 233.5,152C 235.906,154.289 236.572,156.956 235.5,160C 236.973,160.71 237.64,161.876 237.5,163.5C 230.142,163.418 222.809,163.752 215.5,164.5C 215.863,162.089 214.863,160.589 212.5,160C 214.583,158.68 214.249,157.346 211.5,156C 212.167,155.667 212.833,155.333 213.5,155C 212.5,154 211.5,153 210.5,152C 211.167,151.667 211.833,151.333 212.5,151C 211.87,149.108 210.87,147.441 209.5,146C 210.634,144.984 210.301,144.317 208.5,144C 207.742,141.472 207.742,139.139 208.5,137C 207.5,136.667 206.5,136.333 205.5,136C 206.973,135.29 207.64,134.124 207.5,132.5C 204.402,132.587 204.068,132.087 206.5,131C 205.833,129.667 204.833,128.667 203.5,128C 204.308,127.692 204.975,127.192 205.5,126.5C 205.247,123.952 203.914,121.785 201.5,120C 202.167,119.667 202.833,119.333 203.5,119C 202.5,118 201.5,117 200.5,116C 202.878,115.026 202.544,114.359 199.5,114C 200.167,113.667 200.833,113.333 201.5,113C 199.307,113.57 197.307,113.236 195.5,112C 196.022,111.439 196.355,110.772 196.5,110C 196.301,107.552 195.301,105.719 193.5,104.5C 198.252,99.2833 203.918,95.2833 210.5,92.5 Z"/></g>
<g><path style="opacity:1" fill="#e3f9fe" d="M 243.5,136.5 C 241.65,140.645 241.15,144.979 242,149.5C 244.63,154.295 247.463,158.962 250.5,163.5C 246.167,163.5 241.833,163.5 237.5,163.5C 237.64,161.876 236.973,160.71 235.5,160C 236.572,156.956 235.906,154.289 233.5,152C 233.833,151 234.167,150 234.5,149C 233.5,148.667 232.5,148.333 231.5,148C 232.973,147.29 233.64,146.124 233.5,144.5C 230.402,144.587 230.068,144.087 232.5,143C 231.751,141.266 231.251,139.433 231,137.5C 230.25,136.874 229.416,136.374 228.5,136C 230.583,134.68 230.249,133.346 227.5,132C 228.167,131.667 228.833,131.333 229.5,131C 228.5,130 227.5,129 226.5,128C 227.167,127.667 227.833,127.333 228.5,127C 227.72,124.302 226.387,121.969 224.5,120C 223.742,117.472 223.742,115.139 224.5,113C 223.5,112.667 222.5,112.333 221.5,112C 222.428,111.612 223.095,110.945 223.5,110C 222.767,108.234 222.433,106.401 222.5,104.5C 221.448,104.649 220.448,104.483 219.5,104C 221.824,101.72 221.157,100.22 217.5,99.5C 221.66,96.3349 226.327,95.0016 231.5,95.5C 232.971,97.6665 233.971,100.166 234.5,103C 234.167,104 233.833,105 233.5,106C 235.004,107.337 236.004,109.004 236.5,111C 236.888,112.525 236.888,114.192 236.5,116C 237.167,117 237.833,118 238.5,119C 236.068,120.087 236.402,120.587 239.5,120.5C 240.591,123.393 240.591,125.893 239.5,128C 242.009,130.67 242.676,133.337 241.5,136C 242.094,136.464 242.761,136.631 243.5,136.5 Z"/></g>
<g><path style="opacity:1" fill="#f8fdfe" d="M 193.5,104.5 C 195.301,105.719 196.301,107.552 196.5,110C 196.355,110.772 196.022,111.439 195.5,112C 197.307,113.236 199.307,113.57 201.5,113C 200.833,113.333 200.167,113.667 199.5,114C 202.544,114.359 202.878,115.026 200.5,116C 201.5,117 202.5,118 203.5,119C 202.833,119.333 202.167,119.667 201.5,120C 203.914,121.785 205.247,123.952 205.5,126.5C 204.975,127.192 204.308,127.692 203.5,128C 204.833,128.667 205.833,129.667 206.5,131C 204.068,132.087 204.402,132.587 207.5,132.5C 207.64,134.124 206.973,135.29 205.5,136C 206.5,136.333 207.5,136.667 208.5,137C 207.742,139.139 207.742,141.472 208.5,144C 210.301,144.317 210.634,144.984 209.5,146C 210.87,147.441 211.87,149.108 212.5,151C 211.833,151.333 211.167,151.667 210.5,152C 211.5,153 212.5,154 213.5,155C 212.833,155.333 212.167,155.667 211.5,156C 214.249,157.346 214.583,158.68 212.5,160C 214.863,160.589 215.863,162.089 215.5,164.5C 200.724,164.894 186.39,167.227 172.5,171.5C 168.172,171.914 164.172,173.247 160.5,175.5C 159.527,173.052 159.194,170.385 159.5,167.5C 135.892,168.986 112.892,173.486 90.5,181C 86.2076,182.396 82.7076,184.896 80,188.5C 78.7069,192.582 79.8735,195.749 83.5,198C 90.8417,201.838 98.5084,204.838 106.5,207C 154.302,216.821 202.635,221.321 251.5,220.5C 299.908,220.892 347.908,216.725 395.5,208C 404.106,205.765 412.44,202.765 420.5,199C 427.583,195.175 428.25,190.508 422.5,185C 398.311,174.421 372.977,168.588 346.5,167.5C 346.263,166.209 346.596,165.209 347.5,164.5C 371.062,166.712 394.062,171.546 416.5,179C 421.568,181.078 425.734,184.245 429,188.5C 429.541,193.987 427.374,198.154 422.5,201C 410.313,206.546 397.647,210.546 384.5,213C 293.029,227.644 201.696,226.978 110.5,211C 97.8507,208.924 86.684,203.757 77,195.5C 76.3333,192.833 76.3333,190.167 77,187.5C 83.0016,181.413 90.1683,177.246 98.5,175C 118.886,169.592 139.553,165.758 160.5,163.5C 163.501,139.211 174.501,119.545 193.5,104.5 Z"/></g>
<g><path style="opacity:0.998" fill="#9aeafd" d="M 322.5,113.5 C 325.783,115.953 328.616,118.953 331,122.5C 339,135.503 344.5,149.503 347.5,164.5C 346.596,165.209 346.263,166.209 346.5,167.5C 346.5,169.833 346.5,172.167 346.5,174.5C 344.947,172.615 342.947,171.615 340.5,171.5C 338.901,171.768 337.568,171.434 336.5,170.5C 337.833,170.5 339.167,170.5 340.5,170.5C 339.71,152.626 333.876,136.626 323,122.5C 322.655,119.238 321.488,116.405 319.5,114C 320.352,112.272 321.352,112.105 322.5,113.5 Z"/></g>
<g><path style="opacity:1" fill="#b2effd" d="M 302.5,96.5 C 307.118,98.8148 311.451,101.648 315.5,105C 318.447,107.436 320.78,110.269 322.5,113.5C 321.352,112.105 320.352,112.272 319.5,114C 321.488,116.405 322.655,119.238 323,122.5C 333.876,136.626 339.71,152.626 340.5,170.5C 339.167,170.5 337.833,170.5 336.5,170.5C 329.322,169.8 322.322,168.8 315.5,167.5C 316.833,167.5 318.167,167.5 319.5,167.5C 319.5,166.5 319.5,165.5 319.5,164.5C 316.402,164.587 316.068,164.087 318.5,163C 317.167,162.333 317.167,161.667 318.5,161C 317.5,160.667 316.5,160.333 315.5,160C 317.957,158.846 317.957,157.512 315.5,156C 315.5,154.333 315.5,152.667 315.5,151C 314.833,150.667 314.167,150.333 313.5,150C 314.447,147.812 314.447,145.478 313.5,143C 311.699,142.683 311.366,142.016 312.5,141C 312.004,139.004 311.004,137.337 309.5,136C 310.676,133.337 310.009,130.67 307.5,128C 308.591,125.893 308.591,123.393 307.5,120.5C 304.402,120.587 304.068,120.087 306.5,119C 305.5,116.667 304.5,114.333 303.5,112C 303.833,111.667 304.167,111.333 304.5,111C 304.004,109.004 303.004,107.337 301.5,106C 301.833,105.667 302.167,105.333 302.5,105C 299.226,101.355 295.226,98.688 290.5,97C 289.76,95.2151 289.093,93.3817 288.5,91.5C 288.833,91.1667 289.167,90.8333 289.5,90.5C 293.735,92.7854 298.069,94.7854 302.5,96.5 Z"/></g>
<g><path style="opacity:1" fill="#12252a" d="M 250.5,143.5 C 251.552,143.351 252.552,143.517 253.5,144C 255.771,146.782 258.437,148.949 261.5,150.5C 261.784,152.415 261.451,154.081 260.5,155.5C 257.35,151.006 253.35,147.672 248.5,145.5C 248.833,144.5 249.5,143.833 250.5,143.5 Z"/></g>
<g><path style="opacity:1" fill="#020405" d="M 248.5,145.5 C 253.35,147.672 257.35,151.006 260.5,155.5C 259.089,157.539 257.089,158.539 254.5,158.5C 249.017,155.702 247.017,151.368 248.5,145.5 Z"/></g>
<g><path style="opacity:1" fill="#2a5b66" d="M 250.5,143.5 C 250.5,143.167 250.5,142.833 250.5,142.5C 256.448,142.123 260.114,144.79 261.5,150.5C 258.437,148.949 255.771,146.782 253.5,144C 252.552,143.517 251.552,143.351 250.5,143.5 Z"/></g>
<g><path style="opacity:1" fill="#27545f" d="M 286.5,151.5 C 283.739,149.795 280.739,148.462 277.5,147.5C 279.113,144.04 281.446,143.54 284.5,146C 287.126,147.372 287.792,149.205 286.5,151.5 Z"/></g>
<g><path style="opacity:1" fill="#090f10" d="M 277.5,147.5 C 280.739,148.462 283.739,149.795 286.5,151.5C 284.718,156.696 281.384,158.696 276.5,157.5C 274.396,155.417 274.062,153.083 275.5,150.5C 275.932,149.29 276.599,148.29 277.5,147.5 Z"/></g>
<g><path style="opacity:1" fill="#62cee8" d="M 268.5,123.5 C 275.022,128.932 281.355,134.599 287.5,140.5C 288.567,145.782 288.733,151.115 288,156.5C 286.727,159.597 284.893,162.264 282.5,164.5C 280.605,165.973 278.939,167.64 277.5,169.5C 277.217,166.236 276.551,162.736 275.5,159C 275.57,158.235 275.903,157.735 276.5,157.5C 281.384,158.696 284.718,156.696 286.5,151.5C 287.792,149.205 287.126,147.372 284.5,146C 281.446,143.54 279.113,144.04 277.5,147.5C 276.599,148.29 275.932,149.29 275.5,150.5C 273.974,149.895 272.974,148.729 272.5,147C 272.941,144.547 272.441,142.047 271,139.5C 269.842,134.205 269.009,128.872 268.5,123.5 Z"/></g>
<g><path style="opacity:1" fill="#54b6cc" d="M 261.5,122.5 C 263.903,122.448 266.236,122.781 268.5,123.5C 269.009,128.872 269.842,134.205 271,139.5C 272.441,142.047 272.941,144.547 272.5,147C 272.974,148.729 273.974,149.895 275.5,150.5C 274.062,153.083 274.396,155.417 276.5,157.5C 275.903,157.735 275.57,158.235 275.5,159C 276.551,162.736 277.217,166.236 277.5,169.5C 277.068,170.71 276.401,171.71 275.5,172.5C 274.542,172.953 273.708,173.619 273,174.5C 272.217,172.567 272.717,171.067 274.5,170C 271.901,169.231 269.401,169.398 267,170.5C 264.027,155.632 260.527,140.965 256.5,126.5C 255.5,126.5 254.5,126.5 253.5,126.5C 255.579,124.127 258.246,122.794 261.5,122.5 Z"/></g>
<g><path style="opacity:1" fill="#489cb0" d="M 253.5,126.5 C 254.5,126.5 255.5,126.5 256.5,126.5C 260.527,140.965 264.027,155.632 267,170.5C 269.401,169.398 271.901,169.231 274.5,170C 272.717,171.067 272.217,172.567 273,174.5C 273.708,173.619 274.542,172.953 275.5,172.5C 275.25,174.674 274.25,176.341 272.5,177.5C 271.391,176.71 270.058,176.21 268.5,176C 265.276,172.273 261.609,169.106 257.5,166.5C 256.493,163.81 255.493,161.144 254.5,158.5C 257.089,158.539 259.089,157.539 260.5,155.5C 261.451,154.081 261.784,152.415 261.5,150.5C 260.114,144.79 256.448,142.123 250.5,142.5C 249.076,140.485 248.41,138.152 248.5,135.5C 247.5,135.5 246.5,135.5 245.5,135.5C 247.43,131.9 250.097,128.9 253.5,126.5 Z"/></g>
<g><path style="opacity:1" fill="#69e1fc" d="M 160.5,175.5 C 160.345,186.204 165.012,193.871 174.5,198.5C 194.648,201.765 214.982,203.432 235.5,203.5C 241.833,203.5 248.167,203.5 254.5,203.5C 259.833,203.5 265.167,203.5 270.5,203.5C 276.358,203.822 282.025,203.489 287.5,202.5C 301.534,202.283 315.534,201.45 329.5,200C 335.412,198.387 339.745,194.887 342.5,189.5C 345.836,185.14 347.17,180.14 346.5,174.5C 346.5,172.167 346.5,169.833 346.5,167.5C 372.977,168.588 398.311,174.421 422.5,185C 428.25,190.508 427.583,195.175 420.5,199C 412.44,202.765 404.106,205.765 395.5,208C 347.908,216.725 299.908,220.892 251.5,220.5C 202.635,221.321 154.302,216.821 106.5,207C 98.5084,204.838 90.8417,201.838 83.5,198C 79.8735,195.749 78.7069,192.582 80,188.5C 82.7076,184.896 86.2076,182.396 90.5,181C 112.892,173.486 135.892,168.986 159.5,167.5C 159.194,170.385 159.527,173.052 160.5,175.5 Z"/></g>
<g><path style="opacity:1" fill="#7ac2d2" d="M 237.5,163.5 C 241.833,163.5 246.167,163.5 250.5,163.5C 253.399,166.952 256.066,170.618 258.5,174.5C 258.5,175.5 258.5,176.5 258.5,177.5C 233.354,177.908 204.687,177.908 172.5,177.5C 172.5,175.5 172.5,173.5 172.5,171.5C 186.39,167.227 200.724,164.894 215.5,164.5C 222.809,163.752 230.142,163.418 237.5,163.5 Z"/></g>
<g><path style="opacity:1" fill="#397b8a" d="M 245.5,135.5 C 246.5,135.5 247.5,135.5 248.5,135.5C 248.41,138.152 249.076,140.485 250.5,142.5C 250.5,142.833 250.5,143.167 250.5,143.5C 249.5,143.833 248.833,144.5 248.5,145.5C 247.017,151.368 249.017,155.702 254.5,158.5C 255.493,161.144 256.493,163.81 257.5,166.5C 261.609,169.106 265.276,172.273 268.5,176C 270.058,176.21 271.391,176.71 272.5,177.5C 272.5,177.833 272.5,178.167 272.5,178.5C 271.761,178.369 271.094,178.536 270.5,179C 269.29,182.113 267.29,184.613 264.5,186.5C 263.058,182.145 261.058,178.145 258.5,174.5C 256.066,170.618 253.399,166.952 250.5,163.5C 247.463,158.962 244.63,154.295 242,149.5C 241.15,144.979 241.65,140.645 243.5,136.5C 244.167,136.167 244.833,135.833 245.5,135.5 Z"/></g>
<g><path style="opacity:1" fill="#77bdcd" d="M 282.5,164.5 C 293.303,166.079 304.303,167.079 315.5,167.5C 322.322,168.8 329.322,169.8 336.5,170.5C 337.568,171.434 338.901,171.768 340.5,171.5C 340.577,175.215 340.244,178.881 339.5,182.5C 318.537,182.316 296.204,181.316 272.5,179.5C 272.5,179.167 272.5,178.833 272.5,178.5C 272.5,178.167 272.5,177.833 272.5,177.5C 274.25,176.341 275.25,174.674 275.5,172.5C 276.401,171.71 277.068,170.71 277.5,169.5C 278.939,167.64 280.605,165.973 282.5,164.5 Z"/></g>
<g><path style="opacity:1" fill="#418c9e" d="M 258.5,174.5 C 261.058,178.145 263.058,182.145 264.5,186.5C 267.29,184.613 269.29,182.113 270.5,179C 271.094,178.536 271.761,178.369 272.5,178.5C 272.5,178.833 272.5,179.167 272.5,179.5C 271.732,180.263 271.232,181.263 271,182.5C 270.68,189.661 270.513,196.661 270.5,203.5C 265.167,203.5 259.833,203.5 254.5,203.5C 253.632,199.686 252.632,196.019 251.5,192.5C 252.694,191.728 253.694,190.728 254.5,189.5C 259.202,186.626 260.535,182.626 258.5,177.5C 258.5,176.5 258.5,175.5 258.5,174.5 Z"/></g>
<g><path style="opacity:1" fill="#72b3c2" d="M 172.5,177.5 C 204.687,177.908 233.354,177.908 258.5,177.5C 260.535,182.626 259.202,186.626 254.5,189.5C 229.167,189.5 203.833,189.5 178.5,189.5C 174.934,186.367 172.934,182.367 172.5,177.5 Z"/></g>
<g><path style="opacity:1" fill="#6eadbc" d="M 272.5,179.5 C 296.204,181.316 318.537,182.316 339.5,182.5C 338.42,184.996 337.086,187.33 335.5,189.5C 331.906,193.8 327.239,196.3 321.5,197C 306.865,198.347 292.198,199.18 277.5,199.5C 277.5,200.5 277.5,201.5 277.5,202.5C 280.833,202.5 284.167,202.5 287.5,202.5C 282.025,203.489 276.358,203.822 270.5,203.5C 270.513,196.661 270.68,189.661 271,182.5C 271.232,181.263 271.732,180.263 272.5,179.5 Z"/></g>
<g><path style="opacity:1" fill="#4ba1b5" d="M 340.5,171.5 C 342.947,171.615 344.947,172.615 346.5,174.5C 347.17,180.14 345.836,185.14 342.5,189.5C 340.167,189.5 337.833,189.5 335.5,189.5C 337.086,187.33 338.42,184.996 339.5,182.5C 340.244,178.881 340.577,175.215 340.5,171.5 Z"/></g>
<g><path style="opacity:1" fill="#4695a8" d="M 172.5,171.5 C 172.5,173.5 172.5,175.5 172.5,177.5C 172.934,182.367 174.934,186.367 178.5,189.5C 180.575,192.579 183.242,194.912 186.5,196.5C 182.76,197.343 179.26,197.343 176,196.5C 175.283,197.044 174.783,197.711 174.5,198.5C 165.012,193.871 160.345,186.204 160.5,175.5C 164.172,173.247 168.172,171.914 172.5,171.5 Z"/></g>
<g><path style="opacity:1" fill="#6ba6b4" d="M 178.5,189.5 C 203.833,189.5 229.167,189.5 254.5,189.5C 253.694,190.728 252.694,191.728 251.5,192.5C 246.016,193.879 241.016,196.213 236.5,199.5C 219.793,199.052 203.126,198.052 186.5,196.5C 183.242,194.912 180.575,192.579 178.5,189.5 Z"/></g>
<g><path style="opacity:1" fill="#2e6470" d="M 251.5,192.5 C 252.632,196.019 253.632,199.686 254.5,203.5C 248.167,203.5 241.833,203.5 235.5,203.5C 235.833,202.167 236.167,200.833 236.5,199.5C 241.016,196.213 246.016,193.879 251.5,192.5 Z"/></g>
<g><path style="opacity:1" fill="#050a0b" d="M 457.5,212.5 C 447.433,219.63 436.433,224.63 424.5,227.5C 422.565,228.15 420.565,228.483 418.5,228.5C 418.5,224.167 418.5,219.833 418.5,215.5C 419.791,215.737 420.791,215.404 421.5,214.5C 434.333,211.833 446.166,206.833 457,199.5C 457.862,197.913 458.529,196.246 459,194.5C 459.667,199.833 459.667,205.167 459,210.5C 458.283,211.044 457.783,211.711 457.5,212.5 Z"/></g>
<g><path style="opacity:1" fill="#428899" d="M 186.5,196.5 C 203.126,198.052 219.793,199.052 236.5,199.5C 236.167,200.833 235.833,202.167 235.5,203.5C 214.982,203.432 194.648,201.765 174.5,198.5C 174.783,197.711 175.283,197.044 176,196.5C 179.26,197.343 182.76,197.343 186.5,196.5 Z"/></g>
<g><path style="opacity:1" fill="#41899a" d="M 335.5,189.5 C 337.833,189.5 340.167,189.5 342.5,189.5C 339.745,194.887 335.412,198.387 329.5,200C 315.534,201.45 301.534,202.283 287.5,202.5C 284.167,202.5 280.833,202.5 277.5,202.5C 277.5,201.5 277.5,200.5 277.5,199.5C 292.198,199.18 306.865,198.347 321.5,197C 327.239,196.3 331.906,193.8 335.5,189.5 Z"/></g>
<g><path style="opacity:0.999" fill="#5cc8e1" d="M 122.5,220.5 C 121.5,220.5 120.5,220.5 119.5,220.5C 119.5,224.833 119.5,229.167 119.5,233.5C 111.084,232.217 102.75,230.55 94.5,228.5C 83.8324,226.391 73.8324,222.725 64.5,217.5C 65.9221,217.25 66.9221,216.417 67.5,215C 66.3977,212.599 66.231,210.099 67,207.5C 67.5613,206.978 68.228,206.645 69,206.5C 86.3692,213.4 104.202,218.067 122.5,220.5 Z"/></g>
<g><path style="opacity:1" fill="#0d171a" d="M 421.5,214.5 C 420.791,215.404 419.791,215.737 418.5,215.5C 418.5,219.833 418.5,224.167 418.5,228.5C 411.41,230.47 404.076,231.803 396.5,232.5C 395.5,232.5 394.5,232.5 393.5,232.5C 392.999,227.847 393.666,223.514 395.5,219.5C 404.26,218.262 412.927,216.596 421.5,214.5 Z"/></g>
<g><path style="opacity:1" fill="#4facc1" d="M 122.5,220.5 C 135.55,221.838 148.55,223.505 161.5,225.5C 161.141,227.766 161.808,229.599 163.5,231C 161.75,232.754 161.083,234.921 161.5,237.5C 147.667,236.625 134,236.625 120.5,237.5C 119.566,236.432 119.232,235.099 119.5,233.5C 119.5,229.167 119.5,224.833 119.5,220.5C 120.5,220.5 121.5,220.5 122.5,220.5 Z"/></g>
<g><path style="opacity:1" fill="#142b30" d="M 395.5,219.5 C 393.666,223.514 392.999,227.847 393.5,232.5C 394.5,232.5 395.5,232.5 396.5,232.5C 395.791,233.404 394.791,233.737 393.5,233.5C 380.884,235.302 368.218,236.636 355.5,237.5C 355.5,233.5 355.5,229.5 355.5,225.5C 356.791,225.737 357.791,225.404 358.5,224.5C 370.863,223.052 383.197,221.386 395.5,219.5 Z"/></g>
<g><path style="opacity:1" fill="#408b9d" d="M 457.5,212.5 C 458.936,220.417 455.603,225.584 447.5,228C 439.715,231.484 432.048,231.317 424.5,227.5C 436.433,224.63 447.433,219.63 457.5,212.5 Z"/></g>
<g><path style="opacity:1" fill="#4596a9" d="M 161.5,225.5 C 177.322,226.463 192.989,227.463 208.5,228.5C 206.25,228.181 204.25,228.681 202.5,230C 203.833,233.333 203.833,236.667 202.5,240C 203.737,240.232 204.737,240.732 205.5,241.5C 202.833,241.5 200.167,241.5 197.5,241.5C 190.515,240.911 183.515,240.578 176.5,240.5C 170.701,239.752 164.867,239.085 159,238.5C 156.992,238.307 155.492,238.974 154.5,240.5C 144.975,241.006 135.642,242.006 126.5,243.5C 123.478,242.478 121.478,240.478 120.5,237.5C 134,236.625 147.667,236.625 161.5,237.5C 161.083,234.921 161.75,232.754 163.5,231C 161.808,229.599 161.141,227.766 161.5,225.5 Z"/></g>
<g><path style="opacity:1" fill="#1c3c43" d="M 358.5,224.5 C 357.791,225.404 356.791,225.737 355.5,225.5C 355.5,229.5 355.5,233.5 355.5,237.5C 354.833,237.5 354.5,237.833 354.5,238.5C 353.833,238.5 353.167,238.5 352.5,238.5C 347.167,238.833 341.833,239.167 336.5,239.5C 332.167,239.5 327.833,239.5 323.5,239.5C 322.963,236.028 323.963,233.195 326.5,231C 326.167,230 325.833,229 325.5,228C 327.708,227.809 329.708,227.309 331.5,226.5C 340.524,226.07 349.524,225.403 358.5,224.5 Z"/></g>
<g><path style="opacity:1" fill="#234b54" d="M 331.5,226.5 C 329.708,227.309 327.708,227.809 325.5,228C 325.833,229 326.167,230 326.5,231C 323.963,233.195 322.963,236.028 323.5,239.5C 327.833,239.5 332.167,239.5 336.5,239.5C 332.366,240.485 328.032,240.818 323.5,240.5C 321.833,240.5 320.167,240.5 318.5,240.5C 314.154,240.666 309.821,240.499 305.5,240C 308.167,237.333 308.167,234.667 305.5,232C 306.973,231.29 307.64,230.124 307.5,228.5C 310.059,228.802 312.393,228.468 314.5,227.5C 320.172,227.24 325.839,226.907 331.5,226.5 Z"/></g>
<g><path style="opacity:1" fill="#285762" d="M 314.5,227.5 C 312.393,228.468 310.059,228.802 307.5,228.5C 307.64,230.124 306.973,231.29 305.5,232C 308.167,234.667 308.167,237.333 305.5,240C 309.821,240.499 314.154,240.666 318.5,240.5C 312.355,241.49 306.022,241.823 299.5,241.5C 292.492,241.666 285.492,241.5 278.5,241C 278.397,237.206 278.064,233.372 277.5,229.5C 282.032,229.818 286.366,229.485 290.5,228.5C 298.517,228.499 306.517,228.166 314.5,227.5 Z"/></g>
<g><path style="opacity:1" fill="#3d8494" d="M 64.5,217.5 C 73.8324,222.725 83.8324,226.391 94.5,228.5C 90.1691,233.056 84.8358,234.556 78.5,233C 72.0024,231.503 66.5024,228.337 62,223.5C 60.3994,220.906 60.2327,218.239 61.5,215.5C 62.5178,216.193 63.5178,216.859 64.5,217.5 Z"/></g>
<g><path style="opacity:1" fill="#306976" d="M 277.5,229.5 C 278.064,233.372 278.397,237.206 278.5,241C 285.492,241.5 292.492,241.666 299.5,241.5C 296.713,242.477 293.713,242.81 290.5,242.5C 285.833,242.5 281.167,242.5 276.5,242.5C 265.167,242.5 253.833,242.5 242.5,242.5C 238.503,241.933 234.503,241.1 230.5,240C 233.167,239.333 233.167,238.667 230.5,238C 231.833,237.333 231.833,236.667 230.5,236C 233.167,235.333 233.167,234.667 230.5,234C 231.833,233.333 231.833,232.667 230.5,232C 233.167,231.333 233.167,230.667 230.5,230C 246.163,229.5 261.83,229.333 277.5,229.5 Z"/></g>
<g><path style="opacity:1" fill="#3a7d8d" d="M 393.5,233.5 C 393.607,235.903 392.607,237.736 390.5,239C 383.403,243.204 375.736,244.537 367.5,243C 363.548,240.171 359.215,238.671 354.5,238.5C 354.5,237.833 354.833,237.5 355.5,237.5C 368.218,236.636 380.884,235.302 393.5,233.5 Z"/></g>
<g><path style="opacity:1" fill="#2b5e69" d="M 176.5,240.5 C 195.379,256.829 214.713,273.329 234.5,290C 232.527,290.495 230.527,290.662 228.5,290.5C 219.169,289.966 210.169,288.299 201.5,285.5C 202.497,285.53 203.164,285.03 203.5,284C 202.711,282.374 201.711,280.874 200.5,279.5C 184.858,266.461 169.524,253.794 154.5,241.5C 154.5,241.167 154.5,240.833 154.5,240.5C 155.492,238.974 156.992,238.307 159,238.5C 164.867,239.085 170.701,239.752 176.5,240.5 Z"/></g>
<g><path style="opacity:0.997" fill="#60d1eb" d="M 352.5,238.5 C 351.391,239.29 350.058,239.79 348.5,240C 353.675,244.343 358.675,248.843 363.5,253.5C 359.069,258.54 354.069,262.873 348.5,266.5C 339.276,258.495 329.609,250.328 319.5,242C 321.058,241.79 322.391,241.29 323.5,240.5C 328.032,240.818 332.366,240.485 336.5,239.5C 341.833,239.167 347.167,238.833 352.5,238.5 Z"/></g>
<g><path style="opacity:1" fill="#316b78" d="M 176.5,240.5 C 183.515,240.578 190.515,240.911 197.5,241.5C 216.324,258.758 235.324,275.092 254.5,290.5C 250.217,291.492 245.884,291.826 241.5,291.5C 236.968,291.818 232.634,291.485 228.5,290.5C 230.527,290.662 232.527,290.495 234.5,290C 214.713,273.329 195.379,256.829 176.5,240.5 Z"/></g>
<g><path style="opacity:1" fill="#367684" d="M 197.5,241.5 C 200.167,241.5 202.833,241.5 205.5,241.5C 210.163,242.333 214.163,244.5 217.5,248C 217.167,248.333 216.833,248.667 216.5,249C 220.167,251.333 223.833,253.667 227.5,256C 231.859,260.359 236.525,264.359 241.5,268C 241.167,268.333 240.833,268.667 240.5,269C 242.774,269.47 244.774,270.47 246.5,272C 246.167,272.333 245.833,272.667 245.5,273C 250.386,275.748 255.386,279.415 260.5,284C 260.167,284.333 259.833,284.667 259.5,285C 260.833,285.333 262.167,285.667 263.5,286C 262.833,286.333 262.167,286.667 261.5,287C 264.581,287.555 266.914,289.055 268.5,291.5C 259.336,292.461 250.336,292.461 241.5,291.5C 245.884,291.826 250.217,291.492 254.5,290.5C 235.324,275.092 216.324,258.758 197.5,241.5 Z"/></g>
<g><path style="opacity:1" fill="#357381" d="M 154.5,240.5 C 154.5,240.833 154.5,241.167 154.5,241.5C 149.253,244.889 143.586,246.889 137.5,247.5C 133.918,246.062 130.252,244.728 126.5,243.5C 135.642,242.006 144.975,241.006 154.5,240.5 Z"/></g>
<g><path style="opacity:1" fill="#56bbd2" d="M 318.5,240.5 C 320.167,240.5 321.833,240.5 323.5,240.5C 322.391,241.29 321.058,241.79 319.5,242C 329.609,250.328 339.276,258.495 348.5,266.5C 341.007,271.634 333.007,275.967 324.5,279.5C 324.39,276 323.557,272.666 322,269.5C 310.71,260.656 300.21,251.656 290.5,242.5C 293.713,242.81 296.713,242.477 299.5,241.5C 306.022,241.823 312.355,241.49 318.5,240.5 Z"/></g>
<g><path style="opacity:1" fill="#4ba2b7" d="M 242.5,242.5 C 253.833,242.5 265.167,242.5 276.5,242.5C 289.545,254.866 303.212,266.533 317.5,277.5C 318.429,278.689 318.762,280.022 318.5,281.5C 315.275,282.807 311.941,283.807 308.5,284.5C 308.607,282.621 308.107,282.288 307,283.5C 294.972,272.473 282.472,261.473 269.5,250.5C 270.122,249.373 270.955,248.373 272,247.5C 272.749,246.365 272.583,245.365 271.5,244.5C 261.781,246.733 251.948,248.4 242,249.5C 240.564,249.441 239.231,249.108 238,248.5C 237.505,246.527 237.338,244.527 237.5,242.5C 239.167,242.5 240.833,242.5 242.5,242.5 Z"/></g>
<g><path style="opacity:1" fill="#50adc2" d="M 276.5,242.5 C 281.167,242.5 285.833,242.5 290.5,242.5C 300.21,251.656 310.71,260.656 322,269.5C 323.557,272.666 324.39,276 324.5,279.5C 322.421,279.971 320.421,280.637 318.5,281.5C 318.762,280.022 318.429,278.689 317.5,277.5C 303.212,266.533 289.545,254.866 276.5,242.5 Z"/></g>
<g><path style="opacity:1" fill="#3d8596" d="M 208.5,228.5 C 235.833,228.5 263.167,228.5 290.5,228.5C 286.366,229.485 282.032,229.818 277.5,229.5C 261.83,229.333 246.163,229.5 230.5,230C 233.167,230.667 233.167,231.333 230.5,232C 231.833,232.667 231.833,233.333 230.5,234C 233.167,234.667 233.167,235.333 230.5,236C 231.833,236.667 231.833,237.333 230.5,238C 233.167,238.667 233.167,239.333 230.5,240C 234.503,241.1 238.503,241.933 242.5,242.5C 240.833,242.5 239.167,242.5 237.5,242.5C 237.338,244.527 237.505,246.527 238,248.5C 239.231,249.108 240.564,249.441 242,249.5C 251.948,248.4 261.781,246.733 271.5,244.5C 272.583,245.365 272.749,246.365 272,247.5C 270.955,248.373 270.122,249.373 269.5,250.5C 266.146,252.12 262.646,253.453 259,254.5C 257.743,254.85 257.409,255.517 258,256.5C 269.338,266.998 281.172,276.831 293.5,286C 292.619,286.708 291.953,287.542 291.5,288.5C 283.932,290.152 276.265,291.152 268.5,291.5C 266.914,289.055 264.581,287.555 261.5,287C 262.167,286.667 262.833,286.333 263.5,286C 262.167,285.667 260.833,285.333 259.5,285C 259.833,284.667 260.167,284.333 260.5,284C 255.386,279.415 250.386,275.748 245.5,273C 245.833,272.667 246.167,272.333 246.5,272C 244.774,270.47 242.774,269.47 240.5,269C 240.833,268.667 241.167,268.333 241.5,268C 236.525,264.359 231.859,260.359 227.5,256C 223.833,253.667 220.167,251.333 216.5,249C 216.833,248.667 217.167,248.333 217.5,248C 214.163,244.5 210.163,242.333 205.5,241.5C 204.737,240.732 203.737,240.232 202.5,240C 203.833,236.667 203.833,233.333 202.5,230C 204.25,228.681 206.25,228.181 208.5,228.5 Z"/></g>
<g><path style="opacity:1" fill="#4595a7" d="M 269.5,250.5 C 282.472,261.473 294.972,272.473 307,283.5C 308.107,282.288 308.607,282.621 308.5,284.5C 303.055,286.59 297.388,287.924 291.5,288.5C 291.953,287.542 292.619,286.708 293.5,286C 281.172,276.831 269.338,266.998 258,256.5C 257.409,255.517 257.743,254.85 259,254.5C 262.646,253.453 266.146,252.12 269.5,250.5 Z"/></g>
<g><path style="opacity:1" fill="#244d57" d="M 154.5,241.5 C 169.524,253.794 184.858,266.461 200.5,279.5C 201.711,280.874 202.711,282.374 203.5,284C 203.164,285.03 202.497,285.53 201.5,285.5C 182.719,281.442 165.719,273.608 150.5,262C 145.589,257.594 141.255,252.76 137.5,247.5C 143.586,246.889 149.253,244.889 154.5,241.5 Z"/></g>
</svg>
