<?xml version="1.0" encoding="UTF-8"?>
<svg version="1.1" xmlns="http://www.w3.org/2000/svg" width="500" height="500">
<path d="M0 0 C6.00585082 4.54687972 11.91013502 4.38754189 19.24414062 4.29939461 C21.39829264 4.27372837 23.55055423 4.27884962 25.70480347 4.29129028 C30.27671237 4.31192734 34.84802221 4.29242248 39.41989136 4.27030945 C44.72292697 4.24912072 50.02534583 4.24477021 55.32836914 4.27081108 C57.43802219 4.27414557 59.54646485 4.25304739 61.65597534 4.23040771 C69.03730173 4.25081509 74.22231803 4.54052429 80.41989136 8.70780945 C83.90479823 13.08628218 85.55906907 16.57420148 85.4982605 22.14408875 C85.49238419 23.03899521 85.48650787 23.93390167 85.48045349 24.85592651 C85.47206955 25.82154007 85.46368561 26.78715363 85.45504761 27.7820282 C85.45876183 29.83216342 85.46469197 31.88229559 85.47262573 33.93241882 C85.48316623 37.16099877 85.48248581 40.3873735 85.44406128 43.61576843 C85.41081542 46.73489971 85.42858845 49.85040221 85.45504761 52.9695282 C85.42121727 54.4027668 85.42121727 54.4027668 85.38670349 55.86495972 C85.48474623 61.38014605 86.30383907 64.17228315 90.27120972 68.11698914 C90.96621078 68.71396606 91.66121185 69.31094299 92.37727356 69.92601013 C95.80169966 72.91317694 98.29803686 76.58318732 100.91989136 80.27030945 C101.47813599 81.05333435 102.03638062 81.83635925 102.61154175 82.64311218 C119.70420552 107.04177056 127.70477417 134.70522293 122.8432312 164.40751648 C120.77570108 175.64181224 117.23605045 186.51072105 113.45114136 197.2664032 C113.18261353 198.03000153 112.91408569 198.79359985 112.63742065 199.58033752 C112.36325317 200.35942474 112.08908569 201.13851196 111.80661011 201.94120789 C111.24015119 203.55088987 110.67374543 205.16059057 110.10739136 206.77030945 C109.8257312 207.56940735 109.54407104 208.36850525 109.25387573 209.19181824 C102.99226308 227.05514597 98.51705333 245.24395466 94.41989136 263.70780945 C95.81787964 264.12739929 95.81787964 264.12739929 97.24411011 264.5554657 C101.02625191 265.92782958 102.82638238 267.66969893 105.41989136 270.70780945 C107.14801139 275.89216953 107.36469627 281.53475815 105.16989136 286.58280945 C100.39286433 292.38348512 100.39286433 292.38348512 96.41989136 293.70780945 C95.11407104 293.64980164 93.80825073 293.59179382 92.46286011 293.5320282 C82.27122951 293.05147454 82.27122951 293.05147454 73.50973511 297.60624695 C71.11556277 300.00869102 68.90660291 302.55935417 66.68161011 305.1179657 C62.09003479 310.39505539 56.60047194 313.47722377 50.41989136 316.70780945 C49.44149292 317.23632507 48.46309448 317.7648407 47.45504761 318.30937195 C29.80149585 327.17022804 9.86060468 330.28436197 -9.44955444 333.36735535 C-11.7082254 333.728282 -13.96617246 334.09355804 -16.22415161 334.45878601 C-107.41562123 349.13084231 -195.87802219 341.45983608 -285.51760864 297.58280945 C-291.0308018 294.63454054 -295.59456477 294.10021452 -301.79104614 293.93437195 C-306.67461376 293.53766758 -309.03104464 291.42899167 -312.26760864 287.83280945 C-313.58010864 285.70780945 -313.58010864 285.70780945 -314.70510864 282.89530945 C-316.52928888 279.79420304 -317.58672161 278.766843 -320.39260864 276.70780945 C-346.55510053 257.27768518 -361.98670976 226.40023318 -366.90359497 194.616745 C-369.76972809 173.27260317 -366.1381872 151.4826838 -353.58010864 133.70780945 C-350.15966984 129.4752178 -346.39011299 125.58767284 -342.58010864 121.70780945 C-341.37934692 120.46644226 -341.37934692 120.46644226 -340.15432739 119.19999695 C-336.13534463 115.10466046 -331.99471026 111.21081204 -327.63479614 107.48124695 C-324.51796483 104.79105414 -321.49565007 101.99612013 -318.46292114 99.2117157 C-316.58010864 97.70780945 -316.58010864 97.70780945 -314.58010864 97.70780945 C-314.58899109 96.9945047 -314.59787354 96.28119995 -314.60702515 95.54627991 C-314.68733337 88.8082321 -314.74815502 82.0703188 -314.78735733 75.33189964 C-314.80818975 71.86796446 -314.83642603 68.40442632 -314.88186646 64.9407196 C-314.93383449 60.95427786 -314.95308997 56.9679942 -314.97073364 52.98124695 C-314.99137878 51.74353546 -315.01202393 50.50582397 -315.03329468 49.23060608 C-315.03607557 38.54650372 -315.03607557 38.54650372 -310.58010864 33.70780945 C-306.33336646 29.77957293 -303.17065966 28.56697194 -297.47073364 28.6101532 C-296.71663208 28.61337585 -295.96253052 28.61659851 -295.18557739 28.61991882 C-294.40827271 28.62829773 -293.63096802 28.63667664 -292.83010864 28.64530945 C-292.03733521 28.64982117 -291.24456177 28.65433289 -290.42776489 28.65898132 C-288.47851356 28.6707238 -286.52930126 28.68865799 -284.58010864 28.70780945 C-284.62651489 27.83898132 -284.67292114 26.9701532 -284.72073364 26.07499695 C-285.01553537 16.66239882 -285.01553537 16.66239882 -282.95510864 12.14530945 C-278.87573693 7.95858585 -274.7396099 4.78653631 -268.7411499 4.6370697 C-267.58537445 4.66073608 -266.429599 4.68440247 -265.23880005 4.70878601 C-263.92537628 4.73080078 -262.61195251 4.75281555 -261.25872803 4.77549744 C-260.55501698 4.7882798 -259.85130592 4.80106216 -259.12627029 4.81423187 C-254.56199652 4.88536556 -249.99706016 4.89108962 -245.43232155 4.90808487 C-241.446753 4.92656366 -237.46409282 4.96752351 -233.47952271 5.06083679 C-213.98190482 5.4965338 -199.57782778 4.81766473 -183.61392212 -7.7559967 C-179.12324652 -11.14792439 -173.97773226 -13.36725574 -168.89260864 -15.72969055 C-167.84717896 -16.22211243 -166.80174927 -16.7145343 -165.72463989 -17.22187805 C-112.35281404 -41.88018485 -46.85749279 -38.31939642 0 0 Z " fill="#69DFFD" transform="translate(373.5801086425781,103.29219055175781)"/>
<path d="M0 0 C1.13499321 -0.00583219 2.26998643 -0.01166439 3.43937337 -0.01767331 C4.69178245 -0.01389399 5.94419152 -0.01011467 7.23455238 -0.00622082 C8.57414038 -0.00923981 9.91372665 -0.01312802 11.25330985 -0.01781338 C14.94241975 -0.02813485 18.63143293 -0.02590107 22.32055092 -0.02163279 C26.29610186 -0.01917304 30.27162906 -0.02817039 34.2471714 -0.03567028 C42.03899438 -0.04844057 49.83078293 -0.05020805 57.62261461 -0.04787002 C63.9545033 -0.04608919 70.28638152 -0.04783144 76.61826897 -0.05209446 C77.96848244 -0.05298724 77.96848244 -0.05298724 79.34597296 -0.05389806 C81.17444471 -0.05510978 83.00291645 -0.05632391 84.83138819 -0.05754044 C101.99160009 -0.06842509 119.15179235 -0.06624919 136.31200536 -0.06015559 C152.01888759 -0.05498637 167.72570781 -0.06624036 183.43257777 -0.08525381 C199.55006964 -0.10461514 215.66753215 -0.11289116 231.78503573 -0.10913056 C240.83789397 -0.10721582 249.89069943 -0.10973249 258.9435482 -0.1238451 C266.65085767 -0.13573822 274.35808188 -0.13718717 282.06539248 -0.12505493 C285.99915581 -0.11915146 289.93276303 -0.1181071 293.86651611 -0.13005733 C297.46644778 -0.14086651 301.06609204 -0.1378725 304.66600998 -0.12379565 C306.58784402 -0.11987275 308.50969058 -0.13073633 310.43149507 -0.14209253 C311.57170378 -0.13488598 312.71191249 -0.12767944 313.88667297 -0.12025452 C315.36229503 -0.12033704 315.36229503 -0.12033704 316.86772764 -0.12042123 C321.33753264 0.49988109 323.88891639 2.47973363 326.81917763 5.81697559 C329.92378098 10.14124455 329.71748189 13.59185821 329.71634865 18.76869678 C329.72002534 19.66047021 329.72370202 20.55224363 329.72749013 21.47104049 C329.73855637 24.47730844 329.74237578 27.48354186 329.74617958 30.48982716 C329.752442 32.63799621 329.7590886 34.78616417 329.7660923 36.93433094 C329.78352238 42.78359861 329.79405947 48.63285809 329.80229783 54.48214531 C329.80744359 58.13425114 329.8135195 61.78635441 329.81980896 65.43845844 C329.83886639 76.8582845 329.85309651 88.27810406 329.86142093 99.69794297 C329.87119723 112.89277694 329.89752482 126.08744332 329.93792182 139.28221822 C329.96805275 149.47250299 329.98288692 159.66273965 329.98620194 169.85306811 C329.98855583 175.94322716 329.99756037 182.03320729 330.02266312 188.12331867 C330.04589593 193.85246666 330.05019627 199.58131731 330.03990173 205.31050014 C330.0394051 207.41399148 330.04576288 209.51749721 330.05945778 211.62094402 C330.07710379 214.49176109 330.07010629 217.36150271 330.05692482 220.23231983 C330.07337869 221.48223441 330.07337869 221.48223441 330.09016496 222.7573998 C330.03136235 228.0585166 329.04877088 231.02707868 325.56917763 235.25447559 C321.61899841 238.72584521 318.35546043 239.37937196 313.18520737 239.38311005 C312.06066434 239.38633449 310.93612131 239.38955894 309.77750123 239.3928811 C308.536765 239.39133249 307.29602877 239.38978389 306.01769447 239.38818836 C304.04678551 239.3915867 304.04678551 239.3915867 302.03606021 239.39505368 C298.3811783 239.40118706 294.7263192 239.40103629 291.07143331 239.39985931 C287.13269969 239.39965569 283.19397349 239.40517035 279.2552433 239.40991688 C271.53561813 239.41823241 263.81600059 239.42097213 256.09637131 239.42152926 C249.82312387 239.42200399 243.54987895 239.4240566 237.27663231 239.42722988 C219.50099964 239.43603892 201.72537302 239.44064887 183.94973816 239.43989941 C182.99093541 239.43985945 182.03213266 239.43981949 181.04427528 239.43977833 C180.08430538 239.43973745 179.12433548 239.43969657 178.13527559 239.43965445 C162.57390456 239.43924791 147.01255773 239.44881881 131.45119371 239.46291669 C115.48286763 239.47726942 99.51455335 239.48418749 83.54622066 239.48332292 C74.57720982 239.48299057 65.60822433 239.48575436 56.63921928 239.49650097 C49.00329231 239.50559146 41.36740218 239.5077932 33.73147215 239.50099155 C29.83419326 239.49771898 25.93698513 239.4976961 22.03971291 239.5063448 C17.81796399 239.51561735 13.59638001 239.50945301 9.37462807 239.50171375 C7.52021589 239.5094291 7.52021589 239.5094291 5.62834084 239.51730031 C4.49858232 239.51270151 3.3688238 239.50810272 2.20483017 239.50336456 C0.74287804 239.50369061 0.74287804 239.50369061 -0.74860847 239.50402325 C-6.52390267 238.96670177 -9.65475968 236.55499144 -13.43082237 232.25447559 C-14.37419613 229.42435432 -14.55255067 227.71147642 -14.54434776 224.78304005 C-14.54427223 223.8823328 -14.5441967 222.98162556 -14.54411888 222.05362415 C-14.5389576 221.08478794 -14.53379631 220.11595173 -14.52847862 219.11775684 C-14.52706367 218.12317966 -14.52564873 217.12860249 -14.5241909 216.1038866 C-14.51858998 212.92488577 -14.50603733 209.74595517 -14.49332237 206.56697559 C-14.48830749 204.41267974 -14.48374456 202.25838277 -14.4796505 200.10408497 C-14.46862025 194.82085785 -14.45188124 189.53767174 -14.43082237 184.25447559 C6.15625289 183.71079564 26.74182256 183.30857224 47.33465195 183.06279564 C56.90245822 182.94550351 66.46569729 182.78585301 76.03060341 182.51936817 C158.1604288 180.27547438 158.1604288 180.27547438 193.79270172 206.03021622 C195.98441843 207.54063903 198.28673195 208.88500819 200.56917763 210.25447559 C200.89917763 196.72447559 201.22917763 183.19447559 201.56917763 169.25447559 C204.53917763 168.92447559 207.50917763 168.59447559 210.56917763 168.25447559 C214.98957018 166.41378582 219.28327862 163.55734431 221.56917763 159.25447559 C222.41309499 155.77917834 222.69949944 152.5384083 222.71634865 148.96828175 C222.72350395 147.92264561 222.73065926 146.87700947 222.73803139 145.79968739 C222.74072029 144.66296085 222.74340919 143.52623432 222.74617958 142.35506153 C222.75603638 140.5468568 222.75603638 140.5468568 222.7660923 138.70212269 C222.78579691 134.71436276 222.7974869 130.72664297 222.80745888 126.73885059 C222.81150929 125.36182861 222.8156263 123.98480682 222.81980896 122.60778522 C222.83884293 116.13701744 222.85307802 109.66626094 222.86142093 103.19547057 C222.87118861 95.74426986 222.89750311 88.29336658 222.93792182 80.84227061 C222.96814882 75.07052453 222.98289599 69.29886342 222.98620194 63.52703977 C222.98854479 60.08546195 222.99740463 56.64420254 223.02266312 53.20271015 C223.04703354 49.35872231 223.04609277 45.51550937 223.03914833 41.67146778 C223.05195839 40.54283817 223.06476845 39.41420856 223.07796669 38.25137806 C223.033938 31.54979004 222.26144101 25.98094728 218.56917763 20.25447559 C212.37420029 14.98215445 206.27521323 15.10516642 198.53992653 15.09625721 C197.62910578 15.09131923 196.71828503 15.08638126 195.77986366 15.08129364 C192.72745907 15.06593388 189.67507549 15.05756211 186.62264442 15.04915333 C184.43474073 15.03957361 182.24683889 15.02956348 180.05893898 15.01915455 C174.11728761 14.99210958 168.1756283 14.97109777 162.23394942 14.95115256 C156.02526829 14.92929053 149.81661161 14.90190289 143.60795021 14.87509632 C132.5186614 14.8280114 121.42936166 14.78512083 110.34004764 14.74444122 C100.27440615 14.7074722 90.20877629 14.66823569 80.14315224 14.62679005 C79.48135284 14.62406577 78.81955344 14.6213415 78.13769951 14.61853468 C74.81758872 14.60485488 71.49747811 14.59113247 68.17736757 14.57739437 C40.64132715 14.46357892 13.1052632 14.3567389 -14.43082237 14.25447559 C-13.81407431 8.42277999 -13.00329028 6.06486552 -8.43082237 2.25447559 C-5.05793472 0.00588383 -3.94626501 0.00347819 0 0 Z " fill="#FEFEFE" transform="translate(116.43082237243652,117.7455244064331)"/>
<path d="M0 0 C1.0236944 -0.00827125 1.0236944 -0.00827125 2.06806949 -0.0167096 C4.35391795 -0.0303004 6.63867814 -0.01541101 8.92450619 -0.00063419 C10.58017086 -0.00452723 12.2358322 -0.01016769 13.89148563 -0.01740509 C18.4404264 -0.0321773 22.98902164 -0.02196806 27.53795135 -0.00766838 C32.44393526 0.0034274 37.34987014 -0.00849653 42.25585079 -0.01751041 C51.86609693 -0.03145407 61.47621181 -0.02387852 71.08645172 -0.00883483 C82.27324029 0.00801136 93.45999603 0.00481679 104.64679336 0.00107109 C124.60348083 -0.00480949 144.56010523 0.0093722 164.51677608 0.03401852 C183.89114909 0.05794307 203.26543784 0.06502177 222.63982296 0.05452633 C243.72805463 0.04312297 264.8162473 0.04117961 285.90447849 0.05562443 C288.15211037 0.0571503 290.39974226 0.05867065 292.64737415 0.06018543 C293.75330888 0.06094325 294.85924361 0.06170106 295.99869152 0.06248184 C303.80056363 0.06722891 311.60241835 0.06537025 319.4042902 0.06112003 C328.90848366 0.05619883 338.41259738 0.06215342 347.91677255 0.08201433 C352.76798534 0.09190141 357.61907658 0.09697617 362.47029591 0.08912182 C366.90834177 0.08208329 371.34614197 0.08882664 375.78415536 0.10672545 C377.3923942 0.11078182 379.00065531 0.10975024 380.60888595 0.10320658 C382.79024297 0.09508838 384.9707658 0.10532859 387.15206909 0.12025452 C388.97155676 0.12179821 388.97155676 0.12179821 390.82780176 0.12337309 C396.16620339 0.7555357 399.53928832 3.53048478 403.01311398 7.50057125 C404.741234 12.68493134 404.95791889 18.32751996 402.76311398 23.37557125 C397.98608695 29.17624693 397.98608695 29.17624693 394.01311398 30.50057125 C392.05438351 30.41355953 392.05438351 30.41355953 390.05608273 30.32479 C379.86445213 29.84423634 379.86445213 29.84423634 371.10295773 34.39900875 C368.70878539 36.80145283 366.49982553 39.35211597 364.27483273 41.9107275 C359.68325741 47.18781719 354.19369456 50.26998557 348.01311398 53.50057125 C347.03471554 54.02908688 346.0563171 54.5576025 345.04827023 55.10213375 C327.39471847 63.96298985 307.4538273 67.07712378 288.14366817 70.16011715 C285.88499722 70.5210438 283.62705016 70.88631985 281.36907101 71.25154781 C190.17760139 85.92360411 101.71520043 78.25259788 12.07561398 34.37557125 C6.56242081 31.42730234 1.99865785 30.89297632 -4.19782352 30.72713375 C-9.16482614 30.32365175 -11.5525104 28.13279178 -14.79938602 24.43807125 C-17.30305679 20.35313474 -17.59560814 16.16458292 -16.98688602 11.50057125 C-14.18970652 3.57256533 -8.35014062 0.0007388 0 0 Z " fill="#60C7E3" transform="translate(75.9868860244751,366.4994287490845)"/>
<path d="M0 0 C1.19048853 -0.00852488 1.19048853 -0.00852488 2.40502733 -0.01722199 C5.06168599 -0.03013036 7.71682257 -0.00733179 10.37339783 0.0153656 C12.27895426 0.01350162 14.18450962 0.00946517 16.09005737 0.00341797 C21.26362741 -0.0065648 26.43665042 0.01462653 31.61014104 0.04189801 C37.02148598 0.06571149 42.43281976 0.06278293 47.84420776 0.0632019 C56.93085503 0.06783122 66.01729288 0.09148244 75.10386658 0.12767029 C85.61432103 0.169417 96.1245869 0.18698583 106.6351195 0.19029003 C117.81869886 0.19388781 129.00221021 0.21275995 140.18576121 0.23741031 C143.411358 0.24364297 146.63694961 0.24727674 149.86255074 0.25044441 C154.92770096 0.25633963 159.99271605 0.27263787 165.05780983 0.29704857 C166.91862697 0.30449699 168.77946113 0.30856104 170.64029312 0.30902863 C173.17643236 0.31028388 175.71221377 0.32380981 178.24829102 0.34057617 C178.98807302 0.33816109 179.72785503 0.335746 180.49005467 0.33325773 C184.14896401 0.37123907 187.02958038 0.44731843 190.06065369 2.61473083 C193.22709167 7.36438782 192.46984405 12.40329574 192.49815369 17.98973083 C192.53102478 19.12668396 192.56389587 20.26363708 192.59776306 21.43504333 C192.60485291 22.53332458 192.61194275 23.63160583 192.61924744 24.76316833 C192.63942932 26.26629578 192.63942932 26.26629578 192.66001892 27.79978943 C191.81555049 31.76586723 190.21213674 33.1010383 187.06065369 35.61473083 C184.1891284 36.10770364 181.91116116 36.29253431 179.04537964 36.24964905 C178.24355352 36.257449 177.44172739 36.26524895 176.61560351 36.27328527 C173.93137223 36.29321409 171.24855735 36.27743796 168.5643158 36.26170349 C166.63905001 36.26847918 164.71379071 36.27738204 162.7885437 36.28825378 C157.5613037 36.31105787 152.33455683 36.30220649 147.10730815 36.28635836 C141.63988454 36.27370701 136.17250338 36.28543718 130.70507812 36.29328918 C121.52429109 36.30238719 112.34370512 36.29039299 103.16294861 36.2665863 C92.54330401 36.23936674 81.92413924 36.24819476 71.30450624 36.27571833 C62.19100073 36.29839436 53.07763981 36.30161708 43.9641152 36.28852499 C38.51904625 36.28072326 33.074203 36.27970895 27.62914848 36.29620743 C22.51130346 36.31063123 17.39407835 36.30066859 12.27630043 36.27173615 C10.39613246 36.26511451 8.51591248 36.26704134 6.63576508 36.27804947 C4.07278282 36.29167421 1.51179832 36.27462842 -1.05105591 36.24964905 C-1.79861981 36.26080266 -2.54618371 36.27195626 -3.31640106 36.28344786 C-7.09182996 36.21185835 -8.63418714 35.90823469 -11.39902401 33.24899864 C-14.18112126 28.49104038 -13.55409663 23.49343939 -13.50184631 18.11473083 C-13.52569397 16.98680115 -13.54954163 15.85887146 -13.57411194 14.69676208 C-13.57217834 13.60750427 -13.57024475 12.51824646 -13.56825256 11.39598083 C-13.56897766 10.40662537 -13.56970276 9.4172699 -13.57044983 8.39793396 C-11.93270793 1.17539717 -6.60142413 -0.1181458 0 0 Z " fill="#FBFCFC" transform="translate(107.93934631347656,218.38526916503906)"/>
<path d="M0 0 C23.37464222 -0.27822762 46.74888329 -0.492157 70.12485027 -0.62174606 C80.97972298 -0.68352634 91.83354562 -0.76769566 102.68774414 -0.90527344 C112.15246505 -1.02518191 121.61642528 -1.10236883 131.08188468 -1.12906194 C136.09056398 -1.14465755 141.09706791 -1.18109143 146.10504723 -1.26876068 C150.8278136 -1.35076025 155.5475282 -1.37523469 160.27093887 -1.35729218 C161.99592167 -1.36056985 163.72101585 -1.38412745 165.44537926 -1.4304657 C173.77022256 -1.6430359 180.10848138 -1.50618182 186.59699136 4.16236758 C188.69935756 6.20421296 190.67555825 8.33113401 192.61911261 10.52375174 C194.7546229 12.8067354 197.17079004 14.69784836 199.625 16.625 C203.37221213 19.63363119 206.9644923 22.74492917 210.5 26 C215.82357894 30.90107268 221.35207977 35.47729405 227 40 C226.01 40.495 226.01 40.495 225 41 C223.10595703 40.23413086 223.10595703 40.23413086 220.7578125 38.96484375 C217.89330811 37.41756276 215.0234777 35.88468549 212.13521194 34.38213539 C206.64628534 31.52423517 201.27870318 28.59199548 196.02752686 25.31576538 C176.3829552 13.59053644 158.4806926 13.02466239 136.02530766 13.37855577 C131.22347484 13.43896907 126.42191494 13.41812041 121.61981201 13.40682983 C112.57468664 13.39743175 103.53154157 13.45841834 94.48689532 13.54635084 C84.16965299 13.64310463 73.85274676 13.65887622 63.53511286 13.6687119 C42.35589553 13.69067117 21.1783621 13.81438392 0 14 C0 9.38 0 4.76 0 0 Z " fill="#232021" transform="translate(90,287)"/>
<path d="M0 0 C3.67125 0.020625 7.3425 0.04125 11.125 0.0625 C11.125 11.9425 11.125 23.8225 11.125 36.0625 C-1.415 36.0625 -13.955 36.0625 -26.875 36.0625 C-26.875 24.5125 -26.875 12.9625 -26.875 1.0625 C-17.82431975 0.41602284 -9.03444114 -0.07307744 0 0 Z " fill="#232021" transform="translate(196.875,170.9375)"/>
<path d="M0 0 C28.05 0.33 56.1 0.66 85 1 C85 3.64 85 6.28 85 9 C56.95 9 28.9 9 0 9 C0 6.03 0 3.06 0 0 Z " fill="#231F20" transform="translate(228,367)"/>
<path d="M0 0 C4.7878 1.795425 6.24832081 5.53896779 8.34960938 9.97265625 C9.85847969 13.3609966 11.31150539 16.76871555 12.75 20.1875 C13.25660156 21.35861328 13.76320313 22.52972656 14.28515625 23.73632812 C14.76339844 24.86619141 15.24164063 25.99605469 15.734375 27.16015625 C16.16975586 28.1850415 16.60513672 29.20992676 17.05371094 30.26586914 C18.00431295 33.13803119 18.36629955 35.13001918 18 38.125 C15.58093444 40.75141403 14.08930399 42.0160696 10.5 42.375 C3.59550263 38.92275131 0.58667577 28.18313704 -2.3125 21.5 C-2.76689453 20.489375 -3.22128906 19.47875 -3.68945312 18.4375 C-4.11806641 17.45523438 -4.54667969 16.47296875 -4.98828125 15.4609375 C-5.37540283 14.57970215 -5.76252441 13.6984668 -6.16137695 12.79052734 C-7.122997 9.73405931 -7.25698371 7.3120396 -7 4.125 C-4.8601999 0.91529985 -3.88206564 0.16175274 0 0 Z " fill="#67E0FD" transform="translate(57,79.875)"/>
<path d="M0 0 C4.47143149 0.43089442 6.60392978 1.68387122 10.30200195 4.1965332 C10.88664719 4.58894699 11.47129242 4.98136078 12.07365417 5.38566589 C13.29967833 6.21293298 14.52053194 7.04791009 15.73632812 7.89013672 C17.59666531 9.17817524 19.47174567 10.44190246 21.35083008 11.70239258 C30.46025248 17.88117462 30.46025248 17.88117462 32.7824707 21.36450195 C33.2199707 23.80200195 33.2199707 23.80200195 32.7824707 26.36450195 C30.5949707 28.73950195 30.5949707 28.73950195 27.7824707 30.36450195 C23.50222312 30.02889316 20.70458545 28.26775975 17.18481445 25.9074707 C16.13616211 25.20686523 15.08750977 24.50625977 14.00708008 23.78442383 C12.92233398 23.04772461 11.83758789 22.31102539 10.7199707 21.55200195 C9.63135742 20.8269043 8.54274414 20.10180664 7.42114258 19.35473633 C-2.28567965 12.82577836 -2.28567965 12.82577836 -5.2175293 9.36450195 C-5.5925293 5.73950195 -5.5925293 5.73950195 -5.2175293 2.36450195 C-3.2175293 0.36450195 -3.2175293 0.36450195 0 0 Z " fill="#68E1FD" transform="translate(19.217529296875,102.635498046875)"/>
<path d="M0 0 C1.71922858 2.61249325 1.47756887 4.62866782 1.09765625 7.66796875 C-0.4474662 9.68876775 -1.42531782 10.54285579 -3.90087891 11.19213867 C-4.65675293 11.26021729 -5.41262695 11.3282959 -6.19140625 11.3984375 C-7.46878662 11.51989136 -7.46878662 11.51989136 -8.77197266 11.64379883 C-9.68124512 11.7136499 -10.59051758 11.78350098 -11.52734375 11.85546875 C-12.92412354 11.97281372 -12.92412354 11.97281372 -14.34912109 12.0925293 C-20.40320864 12.56548877 -26.45519192 12.89303724 -32.52734375 12.98046875 C-33.23068848 12.99811279 -33.9340332 13.01575684 -34.65869141 13.03393555 C-37.51951828 13.03003603 -39.44529309 12.98219108 -41.83984375 11.3359375 C-43.50929933 8.71513775 -43.28017077 6.69058494 -42.90234375 3.66796875 C-41.32586555 1.57976392 -40.35092261 0.77960649 -37.79614258 0.14379883 C-36.99200928 0.07572021 -36.18787598 0.0076416 -35.359375 -0.0625 C-34.45743408 -0.14346924 -33.55549316 -0.22443848 -32.6262207 -0.30786133 C-31.66546631 -0.3777124 -30.70471191 -0.44756348 -29.71484375 -0.51953125 C-28.24374146 -0.63687622 -28.24374146 -0.63687622 -26.74291992 -0.7565918 C-3.55449421 -2.48887582 -3.55449421 -2.48887582 0 0 Z " fill="#67E1FD" transform="translate(48.90234375,148.33203125)"/>
<path d="M0 0 C5.81258597 2.7986525 8.43709852 6.94862092 11.3125 12.5625 C12.11693811 15.41459874 11.80605137 17.17882021 11 20 C8.75 20.0625 8.75 20.0625 6 19 C4.71367606 16.80670868 3.80284183 14.59976546 2.89453125 12.2265625 C1.99781597 9.77514851 1.99781597 9.77514851 0 7 C-2.13253645 6.52312697 -2.13253645 6.52312697 -4.5 6.625 C-5.2940625 6.61726562 -6.088125 6.60953125 -6.90625 6.6015625 C-7.5971875 6.73304688 -8.288125 6.86453125 -9 7 C-11.91879341 11.37819011 -11.44570491 15.51788475 -10.546875 20.5234375 C-10.06767908 22.69351044 -9.55769585 24.84888745 -9 27 C-10.98 27 -12.96 27 -15 27 C-17.85512236 20.69493813 -19.15308522 14.92909007 -18 8 C-14.04568634 0.37923458 -7.90765017 -0.98691422 0 0 Z " fill="#F6FDFE" transform="translate(189,144)"/>
<path d="M0 0 C2.4375 1.625 2.4375 1.625 4 4 C4.60605429 7.63632575 4.47161336 9.28314769 2.4375 12.375 C-0.95870843 14.63913895 -3.00099302 14.64269755 -7 14 C-9.69500656 11.58140437 -10.80636871 9.99236035 -11.5 6.4375 C-10.19781462 0.08934627 -5.87567428 -0.83938204 0 0 Z " fill="#0A0A0A" transform="translate(187,229)"/>
<path d="M0 0 C2.5 2.125 2.5 2.125 4 5 C3.936318 8.18409977 3.51040601 10.14932332 1.875 12.875 C-1.20515368 14.72309221 -3.50442383 14.49060718 -7 14 C-9.5 11.9375 -9.5 11.9375 -11 9 C-10.9375 5.3125 -10.9375 5.3125 -10 2 C-6.26744552 -0.48836965 -4.41559065 -0.54226552 0 0 Z " fill="#090909" transform="translate(248,229)"/>
<path d="M0 0 C2.4375 1.625 2.4375 1.625 4 4 C4.60605429 7.63632575 4.47161336 9.28314769 2.4375 12.375 C-0.95870843 14.63913895 -3.00099302 14.64269755 -7 14 C-9.69500656 11.58140437 -10.80636871 9.99236035 -11.5 6.4375 C-10.19781462 0.08934627 -5.87567428 -0.83938204 0 0 Z " fill="#090909" transform="translate(228,229)"/>
<path d="M0 0 C2.5 1.5625 2.5 1.5625 4 4 C4 7.78814147 3.8367392 10.03929943 1.3125 12.9375 C-1.76819895 14.35295627 -3.64720251 14.55879958 -7 14 C-9.62846098 11.57904909 -10.81388233 9.95385308 -11.5 6.4375 C-10.19781462 0.08934627 -5.87567428 -0.83938204 0 0 Z " fill="#0A0A0A" transform="translate(128,229)"/>
<path d="M0 0 C2.4375 1.0625 2.4375 1.0625 4 3 C4.57491549 6.95254396 4.61372366 9.07941451 2.375 12.4375 C-0.71685231 14.47161336 -2.36367425 14.60605429 -6 14 C-8.375 12.4375 -8.375 12.4375 -10 10 C-10.42519574 6.53769185 -10.63902633 4.1652833 -8.9375 1.0625 C-5.87116726 -0.61903731 -3.42486249 -0.36051184 0 0 Z " fill="#070707" transform="translate(267,229)"/>
<path d="M0 0 C2.4375 1.625 2.4375 1.625 4 4 C4.60605429 7.63632575 4.47161336 9.28314769 2.4375 12.375 C-0.92058549 14.61372366 -3.04745604 14.57491549 -7 14 C-8.9375 12.4375 -8.9375 12.4375 -10 10 C-10.61818182 4.12727273 -10.61818182 4.12727273 -8.9375 1.0625 C-5.8347167 -0.63902633 -3.46230815 -0.42519574 0 0 Z " fill="#070707" transform="translate(208,229)"/>
<path d="M0 0 C2.4375 1.625 2.4375 1.625 4 4 C4.61195145 7.6717087 4.48706506 9.28813568 2.375 12.375 C-0.71186432 14.48706506 -2.3282913 14.61195145 -6 14 C-8.375 12.4375 -8.375 12.4375 -10 10 C-10.42519574 6.53769185 -10.63902633 4.1652833 -8.9375 1.0625 C-5.8347167 -0.63902633 -3.46230815 -0.42519574 0 0 Z " fill="#070707" transform="translate(167,229)"/>
<path d="M0 0 C1.9375 1 1.9375 1 3 3 C3.45982357 5.75894141 3.51068558 8.24574069 3 11 C0.81246717 13.6923481 -0.58423955 13.93936827 -4 14.4375 C-7 14 -7 14 -9.375 12.375 C-11.48706506 9.28813568 -11.61195145 7.6717087 -11 4 C-8.05323917 -0.47907646 -5.13567732 -0.65363166 0 0 Z " fill="#070707" transform="translate(148,229)"/>
</svg>
