<?xml version="1.0" encoding="UTF-8"?>
<svg version="1.1" xmlns="http://www.w3.org/2000/svg" width="500" height="500">
<path d="M0 0 C2.8840659 1.22973904 5.17753227 1.20069641 8.31206131 1.20166588 C9.55970764 1.20704872 10.80735397 1.21243156 12.09280777 1.21797752 C13.47291991 1.21396338 14.85303161 1.20979247 16.23314285 1.20548058 C17.68871634 1.20823108 19.14428833 1.21191134 20.59985733 1.21645164 C23.7335424 1.2245614 26.86715613 1.22673263 30.00085068 1.22450447 C34.9601562 1.22166997 39.91931941 1.23602933 44.87858963 1.25348473 C58.98063895 1.30049584 73.08267881 1.32444549 87.18480301 1.33096886 C94.97405298 1.3347241 102.76314208 1.35279194 110.5523231 1.38606322 C115.47764574 1.40624197 120.40255245 1.40866467 125.32789946 1.39778304 C128.39961945 1.39516813 131.47109946 1.40921812 134.54275703 1.42786407 C135.96166672 1.43316783 137.38062112 1.43172043 138.79951286 1.42282867 C147.86889373 1.37060181 154.41963338 1.7362781 161.47044754 7.91495323 C162.00927567 8.56592979 162.54810379 9.21690636 163.10326004 9.88760948 C163.65755692 10.53600792 164.21185379 11.18440636 164.78294754 11.85245323 C168.27298449 16.91772307 168.52022106 21.636104 168.5024147 27.64632225 C168.50765138 28.52150247 168.51288806 29.3966827 168.51828343 30.29838353 C168.53328412 33.23075966 168.5339886 36.16296129 168.53465652 39.09537315 C168.54227805 41.19808815 168.55070554 43.30080035 168.5598793 45.40350914 C168.58183411 51.11651759 168.59062476 56.82947251 168.59570575 62.54251838 C168.59934871 66.11309936 168.60558852 69.68366631 168.61270714 73.25424194 C168.63720682 85.71480106 168.65025428 98.17531853 168.65379715 110.6359005 C168.65743092 122.24376185 168.6873138 133.85135856 168.72920173 145.45913905 C168.76391752 155.42959885 168.77934583 165.39997102 168.78004318 175.37049085 C168.78083567 181.32327516 168.78956142 187.27579003 168.81804085 193.22851181 C168.84424262 198.83055729 168.84641454 204.43211036 168.83038521 210.03418922 C168.82857232 212.08601456 168.83524691 214.13786833 168.85120392 216.18963242 C169.00207092 236.85441262 169.00207092 236.85441262 163.22826004 243.95010948 C156.95724851 249.82007987 151.83696795 252.05056115 143.22826004 251.95010948 C143.55439285 252.76350792 143.88052567 253.57690636 144.21654129 254.41495323 C150.36058509 270.52720968 155.85935173 292.03794877 148.59544754 308.59464073 C142.67809313 318.78939705 131.93178536 324.23103617 120.84935379 327.20401573 C108.98543783 330.08693197 96.45798942 332.44928211 84.22826004 331.95010948 C84.23800354 332.60513451 84.24774704 333.26015953 84.2577858 333.9350338 C84.31625611 340.97773409 83.95935409 347.91719438 83.38841629 354.93448448 C83.30200378 356.03431664 83.21559128 357.13414879 83.12656021 358.26730919 C82.94448477 360.5733592 82.76034075 362.87924675 82.57420731 365.18497276 C82.29044947 368.70396095 82.01372413 372.22345037 81.73802567 375.74307823 C81.5594012 377.99441304 81.38037854 380.2457163 81.20091629 382.49698448 C81.11858246 383.54191063 81.03624863 384.58683678 80.95141983 385.66342735 C80.53476502 390.79314059 80.03030819 395.86586428 79.22826004 400.95010948 C80.41387527 400.93850792 81.59949051 400.92690636 82.82103348 400.91495323 C95.73751599 400.82907456 108.58126453 401.27914149 121.47826004 401.95010948 C123.410529 402.04691785 125.34282069 402.14327387 127.27513504 402.23917198 C131.92645356 402.47096899 136.57742706 402.70877451 141.22826004 402.95010948 C139.750087 407.89085224 138.61745934 410.09202622 134.22826004 412.95010948 C129.53266045 415.40887221 125.10265914 415.23902638 119.93138504 415.21573448 C118.50806366 415.21976028 118.50806366 415.21976028 117.05598831 415.22386742 C113.86328413 415.22787414 110.67092926 415.21493794 107.47826004 415.20010948 C106.36988785 415.19800468 105.26151566 415.19589989 104.11955643 415.19373131 C82.35630204 415.14621329 60.60690833 414.61827854 38.85326004 414.01260948 C38.06927338 413.99086159 37.28528671 413.96911369 36.47754288 413.94670677 C26.99064429 413.68231527 17.5045938 413.39776383 8.01939774 413.07785606 C5.58318943 412.99576533 3.14691356 412.91564313 0.71055984 412.8379879 C-2.35950492 412.73785104 -5.42884611 412.62584889 -8.49830246 412.50870323 C-9.78539612 412.46846786 -9.78539612 412.46846786 -11.09849167 412.42741966 C-15.96866505 412.22280174 -20.1386231 411.4811838 -24.77173996 409.95010948 C-24.77173996 409.62010948 -24.77173996 409.29010948 -24.77173996 408.95010948 C-9.51440495 405.50924464 5.66460054 403.67759077 21.22826004 402.26260948 C24.61950018 401.94609695 28.01043298 401.62663067 31.4011116 401.30415916 C33.48862457 401.1064554 35.57650603 400.9125933 37.66478348 400.72313499 C38.60096512 400.63601753 39.53714676 400.54890007 40.50169754 400.45914268 C41.32073563 400.38460365 42.13977371 400.31006462 42.98363113 400.23326683 C45.13112199 399.96236334 47.14302259 399.5228442 49.22826004 398.95010948 C48.95675125 398.19093224 48.68524246 397.43175499 48.40550613 396.64957237 C45.98841292 389.88979223 43.57378653 383.12914176 41.1622963 376.36736107 C39.86722921 372.73704364 38.56742969 369.10847172 37.26341629 365.48135948 C36.73073789 363.99182131 36.19817373 362.50224228 35.66576004 361.01260948 C35.42712234 360.35333458 35.18848465 359.69405968 34.94261551 359.01480675 C32.78485116 352.9536258 32.09376227 348.3251826 32.60326004 341.88760948 C32.69349442 340.67975792 32.78372879 339.47190636 32.87669754 338.22745323 C33.15157495 335.66498492 33.57003163 333.42199583 34.22826004 330.95010948 C33.09388504 330.98491417 31.95951004 331.01971886 30.79076004 331.05557823 C23.23342933 331.04822102 15.73035163 330.09240678 8.22826004 329.26260948 C7.40960464 329.17263695 6.59094925 329.08266441 5.74748611 328.98996544 C-23.03363015 325.80365611 -51.42090344 320.86299995 -79.87086105 315.51602745 C-123.65592696 307.34250984 -166.15500327 306.56315118 -210.44361496 310.75089073 C-224.31933451 312.05811712 -238.14202146 313.25124601 -252.08790207 313.36997032 C-254.0692309 313.38694542 -256.05039774 313.42038991 -258.03150558 313.45450401 C-268.88935004 313.43015265 -280.06086004 311.91781199 -288.11939621 304.01260948 C-294.03333881 296.63066694 -296.56204834 288.3475946 -295.77173996 278.95010948 C-294.50994295 270.22681994 -292.4671312 262.34546756 -288.76002121 254.34073448 C-287.58071968 251.9191782 -287.58071968 251.9191782 -287.77173996 248.95010948 C-289.18859039 247.62204922 -289.18859039 247.62204922 -291.02173996 246.38760948 C-296.02636365 242.1901825 -298.28009344 237.45919629 -298.99404407 230.91126966 C-299.38023057 224.77363353 -299.30538083 218.62752275 -299.27344894 212.4808712 C-299.27723594 210.40372922 -299.28273911 208.32658977 -299.28982162 206.24945641 C-299.30374202 200.62974778 -299.29263109 195.01034649 -299.27611041 189.39065504 C-299.26222516 183.50073177 -299.26872381 177.6108257 -299.2722435 171.72089195 C-299.27494244 161.83354318 -299.26149565 151.94631603 -299.23829269 142.0589962 C-299.21167031 130.63565709 -299.20994176 119.21252108 -299.22168106 107.78916156 C-299.23246695 96.78685722 -299.22626632 85.78462618 -299.21212578 74.78232765 C-299.20637453 70.10547841 -299.20644187 65.42868297 -299.21119118 60.75183296 C-299.21597002 55.24418165 -299.20582152 49.73675226 -299.18423653 44.22914314 C-299.17868142 42.21035574 -299.17819161 40.19154696 -299.18318939 38.1727581 C-299.18916458 35.41265879 -299.17659438 32.65323295 -299.15942001 29.8931942 C-299.16543006 29.09843709 -299.1714401 28.30367998 -299.17763227 27.48483932 C-299.09364275 20.03876474 -297.17523439 13.35360391 -291.77173996 7.95010948 C-285.78044232 3.66887858 -281.44963716 1.82012974 -273.98389816 1.87174034 C-272.56001486 1.87785833 -271.13613073 1.88378488 -269.71224594 1.88954735 C-268.95722101 1.89421957 -268.20219608 1.89889179 -267.42429161 1.9037056 C-263.39620695 1.92297041 -259.36819807 1.90764822 -255.34009933 1.89737511 C-250.22739237 1.88519417 -245.11551555 1.88306165 -240.00294113 1.92593956 C-235.86216384 1.95974385 -231.72302407 1.95358119 -227.58224678 1.92237091 C-226.0184863 1.91750684 -224.45460898 1.92642866 -222.89102745 1.9505806 C-210.56877774 2.12947832 -202.39905781 -0.97922437 -191.77173996 -7.04989052 C-188.81276585 -8.39684822 -185.83161991 -9.57922566 -182.77173996 -10.67489052 C-181.99814133 -10.95429482 -181.22454269 -11.23369911 -180.42750168 -11.52157021 C-125.14644344 -30.81706874 -51.6968742 -30.63432517 0 0 Z M57.22826004 331.95010948 C56.75388504 333.18760948 56.27951004 334.42510948 55.79076004 335.70010948 C55.5239241 336.39620323 55.25708817 337.09229698 54.98216629 337.80948448 C50.97599187 349.18452895 53.79889497 361.60318529 55.62694168 373.18839073 C56.04290097 375.83875079 56.43811123 378.49166918 56.83177567 381.14542198 C57.09421433 382.84873745 57.35784393 384.55186994 57.62279129 386.25479698 C57.73855011 387.03926201 57.85430893 387.82372704 57.97357559 388.63196373 C58.71602039 393.2243267 59.89351103 396.85238672 62.22826004 400.95010948 C65.69326004 400.45510948 65.69326004 400.45510948 69.22826004 399.95010948 C69.58230054 385.96878785 68.54071077 372.02490668 67.72826004 358.07510948 C67.58336674 355.53736971 67.4388324 352.99960942 67.29466629 350.46182823 C66.943339 344.29101243 66.58756925 338.12046539 66.22826004 331.95010948 C63.25826004 331.95010948 60.28826004 331.95010948 57.22826004 331.95010948 Z " fill="#A6ECFD" transform="translate(317.7717399597168,71.04989051818848)"/>
<path d="M0 0 C1.79137348 -0.00504718 3.58274192 -0.01227733 5.37409878 -0.02149814 C10.28903217 -0.04042295 15.20346784 -0.02818527 20.11838865 -0.01077521 C25.42181745 0.00259446 30.72517323 -0.01283688 36.02859497 -0.02459717 C46.4149709 -0.04298105 56.80115877 -0.03445638 67.18752885 -0.01650894 C75.62835916 -0.00248618 84.0691384 0.00141054 92.50997925 -0.00195122 C93.71109232 -0.00242866 94.9122054 -0.0029061 96.14971584 -0.00339801 C98.58971573 -0.00442434 101.02971561 -0.0054797 103.46971548 -0.00656378 C125.04796319 -0.01513236 146.62612009 0.00154933 168.2043457 0.03126526 C189.14513972 0.060103 210.0858029 0.06718638 231.02661133 0.05177307 C253.82703796 0.035014 276.62740245 0.03097373 299.4278307 0.04848343 C301.85887972 0.05032783 304.28992875 0.05216256 306.72097778 0.0539875 C307.91711604 0.05489959 309.1132543 0.05581168 310.34563917 0.05675141 C318.77681331 0.06235862 327.20795714 0.05904789 335.63912964 0.05244255 C345.91322551 0.04471298 356.18719256 0.05144848 366.46126246 0.07661759 C371.70376329 0.08912126 376.94606346 0.09524852 382.18857193 0.08407593 C386.98758444 0.07404157 391.78619662 0.08247622 396.58516037 0.10565711 C398.32124993 0.11082003 400.0573753 0.10924802 401.79344928 0.10026246 C419.07406078 0.01826181 419.07406078 0.01826181 426.89282227 6.52272034 C427.44067383 7.15565002 427.98852539 7.78857971 428.55297852 8.44068909 C429.11887695 9.0658844 429.68477539 9.69107971 430.26782227 10.33522034 C431.61547852 12.62818909 431.61547852 12.62818909 432.61547852 19.62818909 C280.15547852 19.95818909 127.69547852 20.28818909 -29.38452148 20.62818909 C-43.36110419 135.01778264 -43.36110419 135.01778264 -24.38452148 241.62818909 C-23.72452148 241.95818909 -23.06452148 242.28818909 -22.38452148 242.62818909 C-22.38452148 243.28818909 -22.38452148 243.94818909 -22.38452148 244.62818909 C-14.56963304 247.54032483 -7.47526272 248.06039317 0.81460571 248.0269165 C2.11355251 248.03356333 3.4124993 248.04021016 4.75080812 248.0470584 C8.33116998 248.06498509 11.91132339 248.06453887 15.49171948 248.06092894 C19.36209753 248.06030265 23.2324071 248.07694786 27.10275269 248.09144592 C33.80007059 248.11419292 40.49733661 248.12611029 47.1946907 248.13057518 C56.87780694 248.13704638 66.56082955 248.1600008 76.24390797 248.18691847 C91.95580502 248.23015052 107.66769811 248.26013772 123.37963867 248.28175354 C138.63812196 248.30277397 153.89657294 248.33005836 169.1550293 248.36573792 C170.56692435 248.36903615 170.56692435 248.36903615 172.00734253 248.37240102 C176.72960295 248.38347094 181.45186307 248.3946637 186.17412305 248.40591753 C225.32121369 248.49905189 264.46832072 248.57045198 303.61547852 248.62818909 C303.28547852 244.00818909 302.95547852 239.38818909 302.61547852 234.62818909 C301.25422852 236.25756409 299.89297852 237.88693909 298.49047852 239.56568909 C295.90608706 242.65912734 294.4091382 244.3713871 290.54907227 245.62037659 C287.09527775 245.62957444 286.24906203 245.17650607 283.80297852 242.81568909 C282.7878418 241.83922424 282.7878418 241.83922424 281.75219727 240.84303284 C281.04708008 240.1121344 280.34196289 239.38123596 279.61547852 238.62818909 C278.87942383 237.86635315 278.14336914 237.10451721 277.38500977 236.31959534 C271.93418528 230.45597175 267.19293311 224.18879158 262.61547852 217.62818909 C263.52349472 216.49619556 264.44231677 215.37286546 265.36547852 214.25318909 C265.87594727 213.62670471 266.38641602 213.00022034 266.91235352 212.35475159 C268.61547852 210.62818909 268.61547852 210.62818909 272.61547852 208.62818909 C277.56547852 213.57818909 282.51547852 218.52818909 287.61547852 223.62818909 C289.38793439 220.96950527 290.18118634 219.19220263 291.09594727 216.20631409 C291.37374023 215.34522034 291.6515332 214.48412659 291.93774414 213.59693909 C292.50827105 211.80422248 293.06588865 210.00733905 293.60961914 208.20631409 C295.65367493 201.97681074 298.31239742 197.60837244 303.61547852 193.62818909 C306.32175674 192.72609635 307.98753077 192.48424125 310.77636719 192.43531799 C311.6112114 192.41925507 312.4460556 192.40319214 313.30619812 192.38664246 C317.12876387 192.34194359 320.95115932 192.30111077 324.77392578 192.27809143 C326.78446045 192.26156249 328.7949371 192.23431308 330.80517578 192.19606018 C333.71490744 192.14101961 336.62326364 192.11937429 339.53344727 192.10475159 C340.42331833 192.08208221 341.31318939 192.05941284 342.23002625 192.03605652 C349.48951391 192.06038015 354.14287236 194.36875211 359.40544128 199.30827332 C367.53183687 207.68754728 367.99123804 219.60874398 367.84204102 230.65943909 C367.47016788 237.17363055 365.49484359 241.86945893 362.61547852 247.62818909 C380.43547852 247.95818909 398.25547852 248.28818909 416.61547852 248.62818909 C416.61547852 248.95818909 416.61547852 249.28818909 416.61547852 249.62818909 C414.30547852 249.62818909 411.99547852 249.62818909 409.61547852 249.62818909 C409.94161133 250.44158752 410.26774414 251.25498596 410.60375977 252.09303284 C416.74780356 268.20528928 422.2465702 289.71602838 414.98266602 306.27272034 C409.0653116 316.46747666 398.31900383 321.90911578 387.23657227 324.88209534 C375.37265631 327.76501158 362.84520789 330.12736171 350.61547852 329.62818909 C350.62522202 330.28321411 350.63496552 330.93823914 350.64500427 331.6131134 C350.70347458 338.6558137 350.34657257 345.59527398 349.77563477 352.61256409 C349.68922226 353.71239624 349.60280975 354.81222839 349.51377869 355.94538879 C349.33170325 358.2514388 349.14755923 360.55732635 348.96142578 362.86305237 C348.67766795 366.38204056 348.40094261 369.90152997 348.12524414 373.42115784 C347.94661967 375.67249265 347.76759702 377.92379591 347.58813477 380.17506409 C347.50580093 381.21999023 347.4234671 382.26491638 347.33863831 383.34150696 C346.9219835 388.47122019 346.41752667 393.54394389 345.61547852 398.62818909 C346.80109375 398.61658752 347.98670898 398.60498596 349.20825195 398.59303284 C362.12473446 398.50715417 374.96848301 398.95722109 387.86547852 399.62818909 C389.79774748 399.72499745 391.73003916 399.82135347 393.66235352 399.91725159 C398.31367203 400.14904859 402.96464554 400.38685412 407.61547852 400.62818909 C406.13730548 405.56893184 405.00467782 407.77010582 400.61547852 410.62818909 C395.91987892 413.08695181 391.48987762 412.91710598 386.31860352 412.89381409 C384.89528214 412.89783989 384.89528214 412.89783989 383.44320679 412.90194702 C380.2505026 412.90595375 377.05814773 412.89301754 373.86547852 412.87818909 C372.75710632 412.87608429 371.64873413 412.87397949 370.5067749 412.87181091 C348.74352051 412.82429289 326.9941268 412.29635815 305.24047852 411.69068909 C304.45649185 411.66894119 303.67250519 411.6471933 302.86476135 411.62478638 C293.37786277 411.36039488 283.89181227 411.07584343 274.40661621 410.75593567 C271.97040791 410.67384493 269.53413204 410.59372274 267.09777832 410.5160675 C264.02771355 410.41593065 260.95837237 410.3039285 257.88891602 410.18678284 C256.60182236 410.14654747 256.60182236 410.14654747 255.28872681 410.10549927 C250.41855343 409.90088135 246.24859538 409.1592634 241.61547852 407.62818909 C241.61547852 407.29818909 241.61547852 406.96818909 241.61547852 406.62818909 C256.87281353 403.18732424 272.05181901 401.35567038 287.61547852 399.94068909 C291.00671866 399.62417655 294.39765146 399.30471028 297.78833008 398.98223877 C299.87584304 398.78453501 301.9637245 398.59067291 304.05200195 398.4012146 C304.98818359 398.31409714 305.92436523 398.22697968 306.88891602 398.13722229 C307.7079541 398.06268326 308.52699219 397.98814423 309.37084961 397.91134644 C311.51834046 397.64044294 313.53024107 397.2009238 315.61547852 396.62818909 C315.34396973 395.86901184 315.07246094 395.10983459 314.79272461 394.32765198 C312.3756314 387.56787183 309.961005 380.80722137 307.54951477 374.04544067 C306.25444769 370.41512325 304.95464817 366.78655133 303.65063477 363.15943909 C303.11795637 361.66990092 302.58539221 360.18032189 302.05297852 358.69068909 C301.81434082 358.03141418 301.57570313 357.37213928 301.32983398 356.69288635 C299.17206963 350.6317054 298.48098075 346.00326221 298.99047852 339.56568909 C299.08071289 338.35783752 299.17094727 337.14998596 299.26391602 335.90553284 C299.53879343 333.34306453 299.95725011 331.10007544 300.61547852 328.62818909 C299.48110352 328.66299377 298.34672852 328.69779846 297.17797852 328.73365784 C289.6206478 328.72630062 282.11757011 327.77048638 274.61547852 326.94068909 C273.79682312 326.85071655 272.97816772 326.76074402 272.13470459 326.66804504 C243.35358832 323.48173572 214.96631503 318.54107955 186.51635742 313.19410706 C142.73129152 305.02058944 100.2322152 304.24123078 55.94360352 308.42897034 C42.06788396 309.73619673 28.24519701 310.92932562 14.29931641 311.04804993 C12.31798758 311.06502503 10.33682074 311.09846952 8.35571289 311.13258362 C-2.50213156 311.10823225 -13.67364156 309.59589159 -21.73217773 301.69068909 C-27.64612034 294.30874655 -30.17482987 286.0256742 -29.38452148 276.62818909 C-28.12272448 267.90489955 -26.07991272 260.02354716 -22.37280273 252.01881409 C-21.1935012 249.59725781 -21.1935012 249.59725781 -21.38452148 246.62818909 C-22.80137191 245.30012882 -22.80137191 245.30012882 -24.63452148 244.06568909 C-29.63914518 239.8682621 -31.89287496 235.13727589 -32.60682559 228.58934927 C-32.9930121 222.45171313 -32.91816235 216.30560235 -32.88623047 210.15895081 C-32.89001746 208.08180882 -32.89552063 206.00466937 -32.90260315 203.92753601 C-32.91652355 198.30782739 -32.90541262 192.68842609 -32.88889194 187.06873465 C-32.87500669 181.17881137 -32.88150533 175.28890531 -32.88502502 169.39897156 C-32.88772397 159.51162279 -32.87427717 149.62439564 -32.85107422 139.73707581 C-32.82445184 128.31373669 -32.82272328 116.89060068 -32.83446258 105.46724117 C-32.84524847 94.46493682 -32.83904784 83.46270579 -32.8249073 72.46040726 C-32.81915605 67.78355802 -32.81922339 63.10676258 -32.8239727 58.42991257 C-32.82875154 52.92226125 -32.81860304 47.41483187 -32.79701805 41.90722275 C-32.79146295 39.88843535 -32.79097314 37.86962656 -32.79597092 35.85083771 C-32.80194611 33.09073839 -32.78937591 30.33131256 -32.77220154 27.5712738 C-32.77821158 26.77651669 -32.78422163 25.98175958 -32.7904138 25.16291893 C-32.70642427 17.71684435 -30.78801591 11.03168351 -25.38452148 5.62818909 C-18.26309962 -1.14275894 -9.14969506 -0.06763456 0 0 Z M323.61547852 329.62818909 C323.14110352 330.86568909 322.66672852 332.10318909 322.17797852 333.37818909 C321.91114258 334.07428284 321.64430664 334.77037659 321.36938477 335.48756409 C317.36321034 346.86260856 320.18611345 359.28126489 322.01416016 370.86647034 C322.43011944 373.51683039 322.82532971 376.16974878 323.21899414 378.82350159 C323.48143281 380.52681705 323.7450624 382.22994954 324.01000977 383.93287659 C324.12576859 384.71734161 324.2415274 385.50180664 324.36079407 386.31004333 C325.10323886 390.9024063 326.2807295 394.53046633 328.61547852 398.62818909 C332.08047852 398.13318909 332.08047852 398.13318909 335.61547852 397.62818909 C335.96951902 383.64686745 334.92792925 369.70298629 334.11547852 355.75318909 C333.97058521 353.21544932 333.82605087 350.67768902 333.68188477 348.13990784 C333.33055748 341.96909204 332.97478773 335.798545 332.61547852 329.62818909 C329.64547852 329.62818909 326.67547852 329.62818909 323.61547852 329.62818909 Z " fill="#68DEFE" transform="translate(51.384521484375,73.37181091308594)"/>
<path d="M0 0 C1.79137348 -0.00504718 3.58274192 -0.01227733 5.37409878 -0.02149814 C10.28903217 -0.04042295 15.20346784 -0.02818527 20.11838865 -0.01077521 C25.42181745 0.00259446 30.72517323 -0.01283688 36.02859497 -0.02459717 C46.4149709 -0.04298105 56.80115877 -0.03445638 67.18752885 -0.01650894 C75.62835916 -0.00248618 84.0691384 0.00141054 92.50997925 -0.00195122 C93.71109232 -0.00242866 94.9122054 -0.0029061 96.14971584 -0.00339801 C98.58971573 -0.00442434 101.02971561 -0.0054797 103.46971548 -0.00656378 C125.04796319 -0.01513236 146.62612009 0.00154933 168.2043457 0.03126526 C189.14513972 0.060103 210.0858029 0.06718638 231.02661133 0.05177307 C253.82703796 0.035014 276.62740245 0.03097373 299.4278307 0.04848343 C301.85887972 0.05032783 304.28992875 0.05216256 306.72097778 0.0539875 C307.91711604 0.05489959 309.1132543 0.05581168 310.34563917 0.05675141 C318.77681331 0.06235862 327.20795714 0.05904789 335.63912964 0.05244255 C345.91322551 0.04471298 356.18719256 0.05144848 366.46126246 0.07661759 C371.70376329 0.08912126 376.94606346 0.09524852 382.18857193 0.08407593 C386.98758444 0.07404157 391.78619662 0.08247622 396.58516037 0.10565711 C398.32124993 0.11082003 400.0573753 0.10924802 401.79344928 0.10026246 C419.07406078 0.01826181 419.07406078 0.01826181 426.89282227 6.52272034 C427.44067383 7.15565002 427.98852539 7.78857971 428.55297852 8.44068909 C429.11887695 9.0658844 429.68477539 9.69107971 430.26782227 10.33522034 C432.04270668 13.35509615 432.18855337 16.18145167 432.61547852 19.62818909 C374.64294002 19.77855061 316.67039022 19.92358239 258.69782057 20.06143669 C251.8571407 20.07770467 245.01646094 20.09402262 238.17578125 20.11036682 C237.4950483 20.11199242 236.81431534 20.11361802 236.11295411 20.11529289 C214.04504999 20.16801483 191.97715573 20.22403645 169.90926419 20.28176766 C146.5905598 20.34275317 123.2718491 20.39998213 99.95312554 20.45324463 C85.9818641 20.4852781 72.01061685 20.52032559 58.03937275 20.55920099 C48.46510971 20.58555491 38.89084244 20.60818479 29.31656336 20.62786026 C23.78873295 20.63933092 18.26091944 20.65246835 12.73310471 20.67001915 C7.6743015 20.68604467 2.61551026 20.69740332 -2.4433124 20.70502018 C-4.27519229 20.70860755 -6.10706977 20.71392066 -7.93893904 20.72111744 C-10.42653154 20.73063991 -12.91405732 20.73391037 -15.40166569 20.73561954 C-16.11485811 20.7398509 -16.82805054 20.74408226 -17.56285486 20.74844185 C-21.9479461 20.74311008 -26.07117731 20.33717271 -30.38452148 19.62818909 C-29.79841886 13.7671628 -28.10777108 8.5083313 -24.00765896 4.17200238 C-16.94563676 -1.05733624 -8.36275267 -0.06181748 0 0 Z " fill="#74A8B4" transform="translate(51.384521484375,73.37181091308594)"/>
<path d="M0 0 C14.52 0 29.04 0 44 0 C46.25279772 9.0111909 46.25279772 9.0111909 46.24790955 12.19647217 C46.24933488 12.91881672 46.25076021 13.64116127 46.25222874 14.38539505 C46.24110019 15.14347836 46.22997164 15.90156166 46.21850586 16.68261719 C46.21193183 17.50214245 46.2053578 18.32166771 46.19858456 19.16602707 C46.06177787 28.83265142 45.29578082 38.44729001 44.50390625 48.078125 C44.34877015 50.02955524 44.19423639 51.98103344 44.04026794 53.93255615 C43.71944419 57.97999237 43.39384905 62.02700289 43.06420898 66.07373047 C42.64279892 71.24764128 42.22995718 76.42218969 41.82019138 81.59703445 C41.42602675 86.57013315 41.02761215 91.54288869 40.62890625 96.515625 C40.55406069 97.45367226 40.47921513 98.39171951 40.40210152 99.35819244 C40.18911389 102.01796238 39.97309425 104.67746808 39.75610352 107.33691406 C39.69424362 108.11411301 39.63238373 108.89131195 39.56864929 109.69206238 C39.20028214 114.15976814 38.67815727 118.56842472 38 123 C39.18561523 122.98839844 40.37123047 122.97679687 41.59277344 122.96484375 C54.50925595 122.87896508 67.35300449 123.32903201 80.25 124 C82.18226896 124.09680836 84.11456065 124.19316439 86.046875 124.2890625 C90.69819352 124.5208595 95.34916702 124.75866503 100 125 C98.52182696 129.94074275 97.3891993 132.14191673 93 135 C88.30440041 137.45876273 83.8743991 137.28891689 78.703125 137.265625 C77.27980362 137.2696508 77.27980362 137.2696508 75.82772827 137.27375793 C72.63502409 137.27776466 69.44266922 137.26482846 66.25 137.25 C65.14162781 137.2478952 64.03325562 137.24579041 62.89129639 137.24362183 C41.12804199 137.1961038 19.37864829 136.66816906 -2.375 136.0625 C-3.15898666 136.04075211 -3.94297333 136.01900421 -4.75071716 135.99659729 C-14.23761575 135.73220579 -23.72366624 135.44765434 -33.2088623 135.12774658 C-35.64507061 135.04565585 -38.08134648 134.96553365 -40.5177002 134.88787842 C-43.58776496 134.78774156 -46.65710615 134.67573941 -49.7265625 134.55859375 C-51.01365616 134.51835838 -51.01365616 134.51835838 -52.32675171 134.47731018 C-57.19692509 134.27269226 -61.36688314 133.53107431 -66 132 C-66 131.67 -66 131.34 -66 131 C-50.74266499 127.55913516 -35.5636595 125.72748129 -20 124.3125 C-16.60875986 123.99598747 -13.21782706 123.67652119 -9.82714844 123.35404968 C-7.73963547 123.15634592 -5.65175401 122.96248382 -3.56347656 122.77302551 C-2.62729492 122.68590805 -1.69111328 122.59879059 -0.7265625 122.5090332 C0.50199463 122.39722466 0.50199463 122.39722466 1.75537109 122.28315735 C3.90286195 122.01225385 5.91476255 121.57273472 8 121 C7.72849121 120.24082275 7.45698242 119.48164551 7.17724609 118.69946289 C4.76015288 111.93968275 2.34552649 105.17903228 -0.06596375 98.41725159 C-1.36103083 94.78693416 -2.66083035 91.15836224 -3.96484375 87.53125 C-4.49752215 86.04171183 -5.03008631 84.5521328 -5.5625 83.0625 C-5.8011377 82.4032251 -6.03977539 81.7439502 -6.28564453 81.06469727 C-11.60755936 66.11538698 -7.09011361 49.32074056 -4.98876953 34.00170898 C-4.49693812 30.41517212 -4.01161491 26.82779914 -3.52734375 23.24023438 C-3.21652008 20.95047 -2.90533523 18.66075462 -2.59375 16.37109375 C-2.44893188 15.30338242 -2.30411377 14.23567108 -2.15490723 13.13560486 C-1.94964417 11.64233421 -1.94964417 11.64233421 -1.74023438 10.11889648 C-1.62111694 9.248452 -1.50199951 8.37800751 -1.37927246 7.48118591 C-0.99610907 4.97454568 -0.4973027 2.48651352 0 0 Z M16 54 C15.525625 55.2375 15.05125 56.475 14.5625 57.75 C14.29566406 58.44609375 14.02882813 59.1421875 13.75390625 59.859375 C9.74773183 71.23441947 12.57063493 83.65307581 14.39868164 95.23828125 C14.81464093 97.8886413 15.20985119 100.5415597 15.60351562 103.1953125 C15.86595429 104.89862796 16.12958389 106.60176046 16.39453125 108.3046875 C16.51029007 109.08915253 16.62604889 109.87361755 16.74531555 110.68185425 C17.48776035 115.27421722 18.66525098 118.90227724 21 123 C24.465 122.505 24.465 122.505 28 122 C28.3540405 108.01867837 27.31245073 94.0747972 26.5 80.125 C26.3551067 77.58726023 26.21057236 75.04949994 26.06640625 72.51171875 C25.71507896 66.34090295 25.35930921 60.17035591 25 54 C22.03 54 19.06 54 16 54 Z " fill="#232021" transform="translate(359,349)"/>
<path d="M0 0 C1.44709099 -0.01441132 1.44709099 -0.01441132 2.92341614 -0.02911377 C3.96922348 -0.03336365 5.01503082 -0.03761353 6.0925293 -0.04199219 C7.7019062 -0.0505423 7.7019062 -0.0505423 9.34379578 -0.05926514 C11.61769624 -0.06872402 13.89161047 -0.07525263 16.16552734 -0.07910156 C19.6420898 -0.08879841 23.11805903 -0.1198104 26.59448242 -0.15136719 C28.8021612 -0.15789798 31.00984421 -0.16314815 33.2175293 -0.16699219 C34.25726395 -0.17933899 35.2969986 -0.19168579 36.36824036 -0.20440674 C45.49234899 -0.17629875 45.49234899 -0.17629875 49.35424805 3.16113281 C51.62023253 6.56010954 51.59167459 7.72432455 51.54956055 11.70410156 C51.54311523 12.77724609 51.53666992 13.85039062 51.5300293 14.95605469 C51.50489258 16.63538086 51.50489258 16.63538086 51.47924805 18.34863281 C51.47022461 19.47978516 51.46120117 20.6109375 51.4519043 21.77636719 C51.42831667 24.57150109 51.39540104 27.36621126 51.35424805 30.16113281 C39.13571876 28.14825371 39.13571876 28.14825371 35.97924805 24.16113281 C35.44299805 23.17113281 34.90674805 22.18113281 34.35424805 21.16113281 C29.15744591 18.16297773 25.17428969 17.85481483 19.35424805 18.16113281 C19.35424805 19.15113281 19.35424805 20.14113281 19.35424805 21.16113281 C19.96913086 21.34289062 20.58401367 21.52464844 21.2175293 21.71191406 C22.02577148 21.96328125 22.83401367 22.21464844 23.66674805 22.47363281 C24.46725586 22.71726563 25.26776367 22.96089844 26.0925293 23.21191406 C28.50241544 24.22331705 29.77366783 25.08949855 31.35424805 27.16113281 C31.35424805 28.15113281 31.35424805 29.14113281 31.35424805 30.16113281 C30.59112305 30.63550781 29.82799805 31.10988281 29.04174805 31.59863281 C24.83405335 35.61062078 23.53070198 40.39697092 23.35424805 46.16113281 C24.82332262 49.4169197 26.75885912 51.73019002 29.35424805 54.16113281 C30.34424805 53.50113281 31.33424805 52.84113281 32.35424805 52.16113281 C32.02424805 51.56300781 31.69424805 50.96488281 31.35424805 50.34863281 C30.35424805 48.16113281 30.35424805 48.16113281 30.35424805 45.16113281 C31.09674805 44.78988281 31.83924805 44.41863281 32.60424805 44.03613281 C36.61387693 41.30229494 37.68823341 37.60073606 39.35424805 33.16113281 C42.91205 33.77104172 46.03710694 34.73950091 49.35424805 36.16113281 C51.66424805 34.18113281 53.97424805 32.20113281 56.35424805 30.16113281 C60.33466244 32.15134001 62.75353066 34.20223984 65.97924805 37.22363281 C69.39634558 40.57646928 69.39634558 40.57646928 73.35424805 43.16113281 C73.35424805 43.82113281 73.35424805 44.48113281 73.35424805 45.16113281 C74.18956055 45.53238281 74.18956055 45.53238281 75.04174805 45.91113281 C75.80487305 46.32363281 76.56799805 46.73613281 77.35424805 47.16113281 C78.26174805 47.63550781 79.16924805 48.10988281 80.10424805 48.59863281 C83.16821252 52.0881479 83.42482891 54.57159941 83.22924805 59.14941406 C81.4366731 65.31939301 76.0971069 69.142184 71.35424805 73.16113281 C70.56018555 73.86753906 69.76612305 74.57394531 68.94799805 75.30175781 C67.64781247 76.45640023 66.33707712 77.59941326 65.01049805 78.72363281 C63.31305159 80.13938447 63.31305159 80.13938447 61.82299805 81.84863281 C60.35424805 83.16113281 60.35424805 83.16113281 57.35424805 83.16113281 C56.85924805 84.64613281 56.85924805 84.64613281 56.35424805 86.16113281 C55.69424805 86.16113281 55.03424805 86.16113281 54.35424805 86.16113281 C53.36424805 88.14113281 53.36424805 88.14113281 52.35424805 90.16113281 C49.35424805 90.16113281 49.35424805 90.16113281 47.0456543 88.04394531 C46.15749023 87.09261719 45.26932617 86.14128906 44.35424805 85.16113281 C43.36693181 84.1550137 42.37594133 83.15248898 41.3815918 82.15332031 C40.8743457 81.6415625 40.36709961 81.12980469 39.84448242 80.60253906 C39.33208008 80.085625 38.81967773 79.56871094 38.29174805 79.03613281 C37.77547852 78.51148438 37.25920898 77.98683594 36.72729492 77.44628906 C34.57315836 75.27843188 32.54574858 73.28669659 29.9831543 71.60644531 C29.44561523 71.12949219 28.90807617 70.65253906 28.35424805 70.16113281 C28.25244141 67.57080078 28.25244141 67.57080078 28.35424805 65.16113281 C26.65896973 65.19255371 26.65896973 65.19255371 24.92944336 65.22460938 C20.73263236 65.29705978 16.53587652 65.34295066 12.33862305 65.38085938 C10.52277325 65.40096343 8.7069881 65.42825116 6.89135742 65.46289062 C4.279867 65.5114632 1.66923306 65.53411308 -0.94262695 65.55175781 C-1.75318542 65.57240295 -2.5637439 65.5930481 -3.39886475 65.61431885 C-7.01885424 65.61575699 -9.17332265 65.51085321 -12.12719727 63.32421875 C-14.54587271 59.87896723 -14.76918584 57.13932853 -14.75927734 53.04711914 C-14.75920181 52.00626663 -14.75912628 50.96541412 -14.75904846 49.89302063 C-14.75388718 48.77106796 -14.74872589 47.6491153 -14.7434082 46.49316406 C-14.74199326 45.34321457 -14.74057831 44.19326508 -14.73912048 43.00846863 C-14.73351624 39.33016373 -14.72096299 35.65191936 -14.70825195 31.97363281 C-14.7032375 29.48209723 -14.6986745 26.9905607 -14.69458008 24.49902344 C-14.68354543 18.38637252 -14.66680314 12.27375699 -14.64575195 6.16113281 C-13.98575195 6.16113281 -13.32575195 6.16113281 -12.64575195 6.16113281 C-12.54262695 5.52175781 -12.43950195 4.88238281 -12.33325195 4.22363281 C-12.10637695 3.54300781 -11.87950195 2.86238281 -11.64575195 2.16113281 C-8.64575195 1.16113281 -8.64575195 1.16113281 -6.64575195 1.16113281 C-4.23570011 -0.04389311 -2.69212414 0.02160135 0 0 Z " fill="#68DFFB" transform="translate(230.645751953125,139.8388671875)"/>
<path d="M0 0 C0.89912109 0.36504639 1.79824219 0.73009277 2.72460938 1.10620117 C5.15625 2.26953125 5.15625 2.26953125 9.15625 5.26953125 C-60.14375 5.26953125 -129.44375 5.26953125 -200.84375 5.26953125 C-197.51909944 1.94488069 -194.19781234 0.36898202 -189.96875 -1.48046875 C-189.17428467 -1.82827393 -188.37981934 -2.1760791 -187.5612793 -2.53442383 C-126.27424162 -28.77645698 -60.83859882 -24.70841502 0 0 Z " fill="#69E3FF" transform="translate(310.84375,67.73046875)"/>
<path d="M0 0 C0.66591675 -0.00311998 1.33183351 -0.00623996 2.01792955 -0.00945449 C4.2597225 -0.01746154 6.5012468 -0.01110048 8.74304199 -0.00482178 C10.34598449 -0.00753044 11.94892574 -0.01109067 13.55186462 -0.01544189 C17.9133425 -0.02458299 22.27472608 -0.02101459 26.63620567 -0.01468372 C31.19301998 -0.00963261 35.74982602 -0.01431269 40.30664062 -0.01745605 C47.96009781 -0.0210983 55.61351644 -0.01628984 63.26696777 -0.0067749 C72.12497373 0.00411015 80.98288763 0.00058475 89.84089136 -0.01042771 C97.43581256 -0.01949324 105.03070599 -0.02078947 112.62563086 -0.01555037 C117.16629388 -0.01242662 121.70691358 -0.0120324 126.24757385 -0.01862335 C130.5156849 -0.02438554 134.78367685 -0.02042071 139.05177498 -0.00883484 C140.62156539 -0.00618219 142.19136577 -0.00696359 143.76115227 -0.01136017 C145.8974644 -0.0167934 148.03339047 -0.01000902 150.16967773 0 C151.36725456 0.00075405 152.56483139 0.0015081 153.79869843 0.002285 C156.58483887 0.25396729 156.58483887 0.25396729 158.58483887 2.25396729 C158.80988236 4.96617978 158.90918882 7.54269914 158.89733887 10.25396729 C158.91345215 10.99131104 158.92956543 11.72865479 158.94616699 12.48834229 C158.94812012 14.62896729 158.94812012 14.62896729 158.58483887 18.25396729 C155.35692332 20.40591098 154.30083078 20.45483171 150.58483887 20.25396729 C150.91483887 21.14084229 151.24483887 22.02771729 151.58483887 22.94146729 C153.19552589 28.27686805 153.19552589 28.27686805 152.58483887 31.25396729 C149.89733887 34.12896729 149.89733887 34.12896729 146.58483887 36.25396729 C142.53926381 35.9894241 140.40646339 34.63965092 137.45983887 31.94146729 C136.79726074 31.34720947 136.13468262 30.75295166 135.45202637 30.14068604 C133.58625847 28.25540174 131.96919237 26.52050684 130.58483887 24.25396729 C130.91483887 23.26396729 131.24483887 22.27396729 131.58483887 21.25396729 C130.88154292 21.25065714 130.17824697 21.24734699 129.45363903 21.24393654 C112.35319629 21.16277128 95.25284727 21.07070022 78.15252972 20.9664402 C69.88299605 20.91628508 61.61347244 20.86984254 53.34387207 20.83209229 C46.1374002 20.79918578 38.93100573 20.75936208 31.72461921 20.71117723 C27.90770627 20.68589881 24.09084476 20.66412156 20.27387047 20.65062332 C16.6828758 20.63781505 13.0920574 20.61577423 9.50115967 20.58658409 C7.55157356 20.57315915 5.60192748 20.56958442 3.65229797 20.56626892 C2.49543488 20.55510544 1.33857178 20.54394196 0.14665222 20.53244019 C-0.86086751 20.52690943 -1.86838724 20.52137867 -2.90643787 20.51568031 C-5.41516113 20.25396729 -5.41516113 20.25396729 -8.41516113 18.25396729 C-8.69129681 15.49854887 -8.78773738 13.00305626 -8.72766113 10.25396729 C-8.73088379 9.51662354 -8.73410645 8.77927979 -8.73742676 8.01959229 C-8.66423482 0.72701345 -6.97111523 0.00438935 0 0 Z " fill="#FDFEFE" transform="translate(169.4151611328125,252.74603271484375)"/>
<path d="M0 0 C2 3 2 3 3 5 C4.2828186 4.97389648 4.2828186 4.97389648 5.59155273 4.94726562 C20.38508519 4.79186555 35.13952392 5.63755106 49.90814209 6.39068604 C53.53561295 6.57474701 57.16332426 6.75394084 60.79101562 6.93359375 C67.86091408 7.2844081 74.9305397 7.64045509 82 8 C80.52182696 12.94074275 79.3891993 15.14191673 75 18 C70.30440041 20.45876273 65.8743991 20.28891689 60.703125 20.265625 C59.27980362 20.2696508 59.27980362 20.2696508 57.82772827 20.27375793 C54.63502409 20.27776466 51.44266922 20.26482846 48.25 20.25 C47.14162781 20.2478952 46.03325562 20.24579041 44.89129639 20.24362183 C23.12804199 20.1961038 1.37864829 19.66816906 -20.375 19.0625 C-21.15898666 19.04075211 -21.94297333 19.01900421 -22.75071716 18.99659729 C-32.23761575 18.73220579 -41.72366624 18.44765434 -51.2088623 18.12774658 C-53.64507061 18.04565585 -56.08134648 17.96553365 -58.5177002 17.88787842 C-61.58776496 17.78774156 -64.65710615 17.67573941 -67.7265625 17.55859375 C-68.58462494 17.53177017 -69.44268738 17.50494659 -70.32675171 17.47731018 C-75.19692509 17.27269226 -79.36688314 16.53107431 -84 15 C-84 14.67 -84 14.34 -84 14 C-68.88048382 10.58618972 -53.86523016 8.79181219 -38.4375 7.4375 C-34.06007032 7.05175439 -29.6841399 6.65258434 -25.30859375 6.24609375 C-24.33442001 6.16475693 -23.36024628 6.0834201 -22.35655212 5.99961853 C-16.44195129 5.44987243 -10.99049358 4.33174746 -5.301651 2.61244202 C-3 2 -3 2 0 2 C0 1.34 0 0.68 0 0 Z " fill="#1D2841" transform="translate(377,466)"/>
<path d="M0 0 C4.31862662 1.39720273 8.36011395 3.20302104 11 7 C12.27213637 10.96569043 12.21666976 14.02101994 11 18 C7.79933657 22.25614067 4.03955732 25.57700669 0 29 C-0.7940625 29.70640625 -1.588125 30.4128125 -2.40625 31.140625 C-3.70643558 32.29526742 -5.01717093 33.43828045 -6.34375 34.5625 C-8.04119646 35.97825166 -8.04119646 35.97825166 -9.53125 37.6875 C-11 39 -11 39 -14 39 C-14.33 39.99 -14.66 40.98 -15 42 C-15.66 42 -16.32 42 -17 42 C-17.66 43.32 -18.32 44.64 -19 46 C-22 46 -22 46 -24.30859375 43.8828125 C-25.19675781 42.93148437 -26.08492188 41.98015625 -27 41 C-27.98731623 39.99388088 -28.97830672 38.99135617 -29.97265625 37.9921875 C-30.73352539 37.22455078 -30.73352539 37.22455078 -31.50976562 36.44140625 C-32.02216797 35.92449219 -32.53457031 35.40757812 -33.0625 34.875 C-33.57876953 34.35035156 -34.09503906 33.82570312 -34.62695312 33.28515625 C-36.76554438 31.13294339 -38.77362502 29.14723885 -41.32421875 27.48828125 C-43 26 -43 26 -43.609375 23.30078125 C-43.67898438 21.82158203 -43.67898438 21.82158203 -43.75 20.3125 C-43.80671875 19.31863281 -43.8634375 18.32476562 -43.921875 17.30078125 C-43.94765625 16.54152344 -43.9734375 15.78226563 -44 15 C-38.59160025 18.16589254 -34.95825209 22.17514834 -31 27 C-27.34273939 25.47544717 -25.15002074 23.29302019 -22.4375 20.4375 C-18.0405419 15.93662561 -13.40830654 11.97358381 -8.49609375 8.05078125 C-5.44209954 5.54163107 -2.71821519 2.86514574 0 0 Z " fill="#68E0FB" transform="translate(302,184)"/>
<path d="M0 0 C14.11906051 -0.13815879 28.15113113 0.26650438 42.25 1 C44.18226896 1.09680836 46.11456065 1.19316439 48.046875 1.2890625 C52.69819352 1.5208595 57.34916702 1.75866503 62 2 C60.52182696 6.94074275 59.3891993 9.14191673 55 12 C51.48181121 13.64017917 48.73724909 14.24923697 44.86523438 14.24291992 C43.36712219 14.24753487 43.36712219 14.24753487 41.83874512 14.25224304 C40.76789673 14.24505753 39.69704834 14.23787201 38.59375 14.23046875 C37.47746216 14.23001053 36.36117432 14.22955231 35.21105957 14.2290802 C32.84740131 14.22606102 30.48374498 14.21818472 28.12011719 14.20581055 C24.54094201 14.18770708 20.96202842 14.18530003 17.3828125 14.18554688 C15.07812281 14.18062498 12.77343484 14.17479376 10.46875 14.16796875 C9.41409546 14.16685593 8.35944092 14.1657431 7.27282715 14.16459656 C-0.18741974 14.11811493 -7.56948963 13.6574993 -15 13 C-15 12.34 -15 11.68 -15 11 C-10.05 11 -5.1 11 0 11 C0 7.37 0 3.74 0 0 Z " fill="#1B2642" transform="translate(397,472)"/>
<path d="M0 0 C1.24112549 0.0628418 2.48225098 0.12568359 3.76098633 0.19042969 C4.42262283 0.21828552 5.08425934 0.24614136 5.76594543 0.27484131 C7.87638648 0.36811737 9.98408997 0.48981829 12.09301758 0.61230469 C13.52456983 0.68058942 14.95621193 0.74701793 16.38793945 0.81152344 C19.89509648 0.97360161 23.40035752 1.16119672 26.90551758 1.36230469 C31.31444253 10.18015459 26.4356931 25.0628451 24.90551758 34.36230469 C21.27551758 34.36230469 17.64551758 34.36230469 13.90551758 34.36230469 C12.47694615 25.93373326 12.47694615 25.93373326 14.90551758 21.36230469 C13.25551758 21.36230469 11.60551758 21.36230469 9.90551758 21.36230469 C9.66446289 20.72035156 9.4234082 20.07839844 9.17504883 19.41699219 C8.10758147 17.18646271 8.10758147 17.18646271 5.91723633 16.74511719 C5.15024414 16.66003906 4.38325195 16.57496094 3.59301758 16.48730469 C0.12891472 15.85594401 -1.80053658 15.21096335 -4.15698242 12.54980469 C-6.12973706 9.30430513 -6.86804284 8.03671669 -6.09448242 4.36230469 C-4.41281318 1.10246499 -3.71455884 0.43490377 0 0 Z " fill="#282424" transform="translate(362.094482421875,218.6376953125)"/>
<path d="M0 0 C-0.96679688 0.35191406 -0.96679688 0.35191406 -1.953125 0.7109375 C-4.2077908 1.81161073 -4.2077908 1.81161073 -4.609375 4.1640625 C-4.65578125 4.97617187 -4.7021875 5.78828125 -4.75 6.625 C-4.83507812 7.85089844 -4.83507812 7.85089844 -4.921875 9.1015625 C-4.96054687 10.04128906 -4.96054687 10.04128906 -5 11 C-4.01 11 -3.02 11 -2 11 C-2 11.66 -2 12.32 -2 13 C-9.31132717 12.78423709 -16.62229093 12.55882326 -23.93294621 12.32132149 C-27.32813962 12.21132012 -30.72336858 12.10455846 -34.11889648 12.00537109 C-38.02881815 11.89101209 -41.93820376 11.76225512 -45.84765625 11.6328125 C-47.66367088 11.58267502 -47.66367088 11.58267502 -49.51637268 11.53152466 C-55.34186063 11.32779832 -60.49676436 10.97371948 -66 9 C-66 8.67 -66 8.34 -66 8 C-52.51459812 4.66413743 -38.92309617 3.10337222 -25.125 1.75 C-24.22934326 1.66141724 -23.33368652 1.57283447 -22.41088867 1.48156738 C-19.81865286 1.227415 -17.22594525 0.97919439 -14.6328125 0.734375 C-13.85217438 0.65956909 -13.07153625 0.58476318 -12.26724243 0.50769043 C-8.16149777 0.13240431 -4.12851467 -0.07701536 0 0 Z " fill="#1B2642" transform="translate(359,472)"/>
<path d="M0 0 C6.25986823 -0.44713344 10.83107583 0.23528005 16 4 C16.495 4.86625 16.99 5.7325 17.5 6.625 C18.89644345 9.42160717 18.89644345 9.42160717 22.75 10.0625 C23.44609375 10.19527344 24.1421875 10.32804688 24.859375 10.46484375 C28.31596855 11.32899214 30.99299074 13.12061921 34 15 C32.68 16.65 31.36 18.3 30 20 C26.66666667 18.66666667 23.33333333 17.33333333 20 16 C19.82984375 16.61488281 19.6596875 17.22976562 19.484375 17.86328125 C17.49202733 24.50797267 17.49202733 24.50797267 14.9375 27.0625 C13 28 13 28 11 28 C11.53625 28.7425 12.0725 29.485 12.625 30.25 C13.305625 31.61125 13.305625 31.61125 14 33 C13.1875 35.3125 13.1875 35.3125 12 37 C11.01 37 10.02 37 9 37 C5 32.65714286 5 32.65714286 5 30 C3.68 29.67 2.36 29.34 1 29 C1.99 29 2.98 29 4 29 C4.01417969 28.34773438 4.02835938 27.69546875 4.04296875 27.0234375 C4.3907634 20.65033562 5.27429647 17.37992034 10 13 C10.66 13 11.32 13 12 13 C10.78498094 9.87566528 9.58072418 8.29269995 6.57421875 6.77734375 C4.06686172 5.78787754 1.55510797 4.85809442 -1 4 C-0.67 2.68 -0.34 1.36 0 0 Z " fill="#F7FCFD" transform="translate(250,157)"/>
<path d="M0 0 C3.375 -0.125 3.375 -0.125 7 0 C9 2 9 2 9 5 C10.65 5 12.3 5 14 5 C13.9278125 5.68707031 13.855625 6.37414062 13.78125 7.08203125 C13.6884375 7.98308594 13.595625 8.88414062 13.5 9.8125 C13.4071875 10.70582031 13.314375 11.59914062 13.21875 12.51953125 C12.95607599 15.08305099 12.95607599 15.08305099 13 18 C16.3 18 19.6 18 23 18 C23 22.29 23 26.58 23 31 C19.04 31 15.08 31 11 31 C10.95875 29.906875 10.9175 28.81375 10.875 27.6875 C10.58625 26.470625 10.2975 25.25375 10 24 C7.16666667 22.16666667 7.16666667 22.16666667 4 21 C1.5343144 18.95943261 1.04342025 18.13026076 0 15 C-0.07029121 12.42734182 -0.09370832 9.88358569 -0.0625 7.3125 C-0.05798828 6.61060547 -0.05347656 5.90871094 -0.04882812 5.18554688 C-0.03706927 3.45699462 -0.01913454 1.72848635 0 0 Z " fill="#FAA973" transform="translate(363,235)"/>
<path d="M0 0 C1.134375 0.020625 2.26875 0.04125 3.4375 0.0625 C3.7675 1.0525 4.0975 2.0425 4.4375 3.0625 C3.1175 3.3925 1.7975 3.7225 0.4375 4.0625 C0.4375 5.0525 0.4375 6.0425 0.4375 7.0625 C1.05238281 7.24425781 1.66726562 7.42601562 2.30078125 7.61328125 C3.10902344 7.86464844 3.91726562 8.11601562 4.75 8.375 C5.95076172 8.74044922 5.95076172 8.74044922 7.17578125 9.11328125 C9.58566739 10.12468424 10.85691979 10.99086574 12.4375 13.0625 C12.4375 14.0525 12.4375 15.0425 12.4375 16.0625 C11.64859375 16.6503125 10.8596875 17.238125 10.046875 17.84375 C6.78427367 20.61793796 6.46896798 22.40737759 5.6875 26.5625 C5.46578125 27.6865625 5.2440625 28.810625 5.015625 29.96875 C4.82484375 30.9896875 4.6340625 32.010625 4.4375 33.0625 C4.11643137 34.39883971 3.78919068 35.73389075 3.4375 37.0625 C1.10455225 37.10491723 -1.22952567 37.10342937 -3.5625 37.0625 C-5.32322584 35.30177416 -4.69084784 32.9835371 -4.70144653 30.6385498 C-4.6994223 29.88126587 -4.69739807 29.12398193 -4.6953125 28.34375 C-4.69626923 27.57067505 -4.69722595 26.7976001 -4.69821167 26.00109863 C-4.69889341 24.36352456 -4.69703957 22.72594781 -4.69287109 21.08837891 C-4.68752271 18.57318079 -4.69281626 16.05816127 -4.69921875 13.54296875 C-4.69855797 11.95572877 -4.6972768 10.3684889 -4.6953125 8.78125 C-4.69733673 8.02396606 -4.69936096 7.26668213 -4.70144653 6.4864502 C-4.67250006 0.08197369 -4.67250006 0.08197369 0 0 Z " fill="#61CAE2" transform="translate(249.5625,153.9375)"/>
<path d="M0 0 C0.99 0.33 1.98 0.66 3 1 C1.43027958 4.97478914 -1.13969785 7.14291267 -4.3125 9.9375 C-11.14002768 16.03444542 -17.57115252 22.48790126 -24 29 C-24.9989567 30.00104221 -25.9982684 31.0017346 -27 32 C-26.38125 32.28875 -25.7625 32.5775 -25.125 32.875 C-23 34 -23 34 -21 36 C-20.8046875 38.1640625 -20.8046875 38.1640625 -20.875 40.625 C-20.89304687 41.44226563 -20.91109375 42.25953125 -20.9296875 43.1015625 C-20.95289063 43.72804687 -20.97609375 44.35453125 -21 45 C-25.66349889 42.11141486 -29.33563745 38.88677171 -33.125 34.9375 C-36.94799672 30.89431002 -36.94799672 30.89431002 -41.3203125 27.484375 C-43 26 -43 26 -43.609375 23.30078125 C-43.67898438 21.82158203 -43.67898438 21.82158203 -43.75 20.3125 C-43.80671875 19.31863281 -43.8634375 18.32476562 -43.921875 17.30078125 C-43.94765625 16.54152344 -43.9734375 15.78226563 -44 15 C-38.59160025 18.16589254 -34.95825209 22.17514834 -31 27 C-27.34273939 25.47544717 -25.15002074 23.29302019 -22.4375 20.4375 C-18.0405419 15.93662561 -13.40830654 11.97358381 -8.49609375 8.05078125 C-5.44209954 5.54163107 -2.71821519 2.86514574 0 0 Z " fill="#59B5CA" transform="translate(302,184)"/>
<path d="M0 0 C2.53449833 1.91799874 4.72226007 3.62611932 6.625 6.1875 C7.95882513 8.29998833 7.95882513 8.29998833 11 9 C11 7.68 11 6.36 11 5 C14 6 14 6 14.94921875 7.890625 C17.77205882 16.91176471 17.77205882 16.91176471 17 20 C14.3125 22.875 14.3125 22.875 11 25 C6.95442494 24.73545681 4.82162453 23.38568363 1.875 20.6875 C0.88113281 19.79611328 0.88113281 19.79611328 -0.1328125 18.88671875 C-1.9985804 17.00143445 -3.6156465 15.26653956 -5 13 C-4.67 12.01 -4.34 11.02 -4 10 C-4.39397335 7.36195411 -4.39397335 7.36195411 -5 5 C-3.515 5.99 -3.515 5.99 -2 7 C-2.33 5.35 -2.66 3.7 -3 2 C-2.01 2.66 -1.02 3.32 0 4 C0 2.68 0 1.36 0 0 Z " fill="#FBAE79" transform="translate(305,264)"/>
<path d="M0 0 C0.76176551 3.54721111 0.84547922 6.4574893 0 10 C-3.19481348 14.22521278 -7.00178256 17.56468949 -11 21 C-11.7940625 21.70769531 -12.588125 22.41539062 -13.40625 23.14453125 C-14.70700133 24.29724931 -16.01782231 25.43883247 -17.34375 26.5625 C-19.04119646 27.97825166 -19.04119646 27.97825166 -20.53125 29.6875 C-22 31 -22 31 -25 31 C-25.495 32.485 -25.495 32.485 -26 34 C-26.66 34 -27.32 34 -28 34 C-28.33 34.99 -28.66 35.98 -29 37 C-29.66 37 -30.32 37 -31 37 C-31.44735563 33.65773727 -31.68348595 31.0711894 -29.81640625 28.14501953 C-28.11569701 26.19845593 -26.34381288 24.37409635 -24.5 22.5625 C-23.53586182 21.57636719 -23.53586182 21.57636719 -22.55224609 20.5703125 C-20.71602139 18.69841046 -18.85966181 16.84856093 -17 15 C-16.19820313 14.17371094 -15.39640625 13.34742188 -14.5703125 12.49609375 C-2.39212329 0 -2.39212329 0 0 0 Z " fill="#5BBBD1" transform="translate(313,192)"/>
<path d="M0 0 C0.33 0.99 0.66 1.98 1 3 C0.67 3.66 0.34 4.32 0 5 C-0.11047862 6.62712269 -0.15912921 8.25863321 -0.17700195 9.8894043 C-0.18983719 10.90773849 -0.20267242 11.92607269 -0.21589661 12.9752655 C-0.22328354 14.08042007 -0.23067047 15.18557465 -0.23828125 16.32421875 C-0.246353 17.45898148 -0.25442474 18.5937442 -0.26274109 19.76289368 C-0.27659209 22.16963163 -0.28730968 24.57638931 -0.29516602 26.9831543 C-0.3123487 30.65516739 -0.35622374 34.32627332 -0.40039062 37.99804688 C-0.41052001 40.33593088 -0.41903534 42.67382254 -0.42578125 45.01171875 C-0.44328934 46.10675217 -0.46079742 47.20178558 -0.47883606 48.33000183 C-0.46056212 54.78925749 0.20796341 58.71423032 4 64 C0.33535945 63.5047783 -1.70832354 62.9791794 -4 60 C-5.00122171 56.99633486 -5.12112011 55.02260407 -5.11352539 51.88598633 C-5.11344986 50.84513382 -5.11337433 49.80428131 -5.11329651 48.73188782 C-5.10813522 47.60993515 -5.10297394 46.48798248 -5.09765625 45.33203125 C-5.0962413 44.18208176 -5.09482635 43.03213226 -5.09336853 41.84733582 C-5.08776429 38.16903092 -5.07521104 34.49078655 -5.0625 30.8125 C-5.05748555 28.32096442 -5.05292255 25.82942789 -5.04882812 23.33789062 C-5.03779347 17.22523971 -5.02105118 11.11262418 -5 5 C-4.34 5 -3.68 5 -3 5 C-2.87625 4.360625 -2.7525 3.72125 -2.625 3.0625 C-2.41875 2.381875 -2.2125 1.70125 -2 1 C-1.34 0.67 -0.68 0.34 0 0 Z " fill="#89C8D7" transform="translate(221,141)"/>
<path d="M0 0 C0.33 0 0.66 0 1 0 C1 5.28 1 10.56 1 16 C-1.87659826 16.1356886 -4.74673463 16.23440753 -7.625 16.3125 C-8.43324219 16.35439453 -9.24148438 16.39628906 -10.07421875 16.43945312 C-14.26087326 16.52454773 -17.0779793 16.4096497 -20.40234375 13.70703125 C-23.43308915 10.54867552 -25.71689875 7.73598386 -28 4 C-27.67 3.01 -27.34 2.02 -27 1 C-26.02160156 2.06541016 -26.02160156 2.06541016 -25.0234375 3.15234375 C-24.14945312 4.07144531 -23.27546875 4.99054688 -22.375 5.9375 C-21.08722656 7.31228516 -21.08722656 7.31228516 -19.7734375 8.71484375 C-16.65492843 11.28431953 -15.02379232 12.01611666 -11 12 C-8.68563643 10.81535506 -8.68563643 10.81535506 -6.8125 8.875 C-5.79929687 7.91013672 -5.79929687 7.91013672 -4.765625 6.92578125 C-2.80038814 4.78228176 -1.33113647 2.5839708 0 0 Z " fill="#ADDEEA" transform="translate(354,306)"/>
<path d="M0 0 C0.99 0.33 1.98 0.66 3 1 C1.43027958 4.97478914 -1.13969785 7.14291267 -4.3125 9.9375 C-9.65706339 14.68877084 -14.71202815 19.65919372 -19.6340332 24.84741211 C-22.35397957 27.64515672 -24.16244604 29.28405377 -28 30 C-28 26 -28 26 -25.98046875 23.51953125 C-25.05878906 22.62621094 -24.13710938 21.73289063 -23.1875 20.8125 C-22.69483643 20.33272705 -22.20217285 19.8529541 -21.69458008 19.35864258 C-17.48815497 15.32311809 -13.01949782 11.64679912 -8.4609375 8.015625 C-5.41596834 5.52165026 -2.70678662 2.85309941 0 0 Z " fill="#5EC5DD" transform="translate(302,184)"/>
<path d="M0 0 C1.74627478 2.61941217 2.38722388 4.03824877 3 7 C2.23816406 7.10957031 1.47632813 7.21914063 0.69140625 7.33203125 C-5.12958839 8.22589185 -10.55513943 9.30707986 -16.0625 11.4140625 C-18 12 -18 12 -22 12 C-22 13.32 -22 14.64 -22 16 C-21.34 16.33 -20.68 16.66 -20 17 C-20.99 17 -21.98 17 -23 17 C-23.36986737 10.46567639 -23.36986737 10.46567639 -21.703125 8.3671875 C-15.74924069 3.58769321 -7.28782011 3.03244118 0 2 C0 1.34 0 0.68 0 0 Z " fill="#4A8E9F" transform="translate(377,466)"/>
<path d="M0 0 C0.33 0.99 0.66 1.98 1 3 C-12.64684554 9.98984772 -12.64684554 9.98984772 -20 9 C-20.33 8.67 -20.66 8.34 -21 8 C-22.32 8 -23.64 8 -25 8 C-25 7.01 -25 6.02 -25 5 C-22.95990245 4.34922704 -20.91784331 3.70460176 -18.875 3.0625 C-17.16957031 2.52302734 -17.16957031 2.52302734 -15.4296875 1.97265625 C-10.20413173 0.49069339 -5.42592218 -0.12918862 0 0 Z " fill="#375963" transform="translate(380,473)"/>
<path d="M0 0 C0.66 0 1.32 0 2 0 C2.33 7.59 2.66 15.18 3 23 C0.03 23 -2.94 23 -6 23 C-4.38911645 15.21406284 -2.23456312 7.62571782 0 0 Z " fill="#67D9F9" transform="translate(381,380)"/>
<path d="M0 0 C1.07894531 0.04640625 2.15789062 0.0928125 3.26953125 0.140625 C4.35621094 0.17671875 5.44289063 0.2128125 6.5625 0.25 C7.39394531 0.29640625 8.22539062 0.3428125 9.08203125 0.390625 C9.08203125 3.030625 9.08203125 5.670625 9.08203125 8.390625 C8.11265625 8.349375 7.14328125 8.308125 6.14453125 8.265625 C1.63313401 8.24713567 -2.56634527 9.28545078 -6.91796875 10.390625 C-5.82584072 0.77989836 -5.82584072 0.77989836 0 0 Z " fill="#488A9B" transform="translate(387.91796875,470.609375)"/>
<path d="M0 0 C4.66935037 -0.46693504 8.6102711 -0.85149069 12.4375 2.1875 C15.52801534 5.57952903 16.92967606 7.55184782 17.0625 12.17578125 C16.8349955 16.51969528 16.60041023 18.39958977 13.4375 21.5625 C12.633125 22.036875 11.82875 22.51125 11 23 C11.165 22.030625 11.33 21.06125 11.5 20.0625 C12.09348483 15.7132306 12.60570727 11.37162641 12 7 C9.21725716 3.52157145 4.10956649 2.43834827 0 1 C0 0.67 0 0.34 0 0 Z " fill="#D3D5D6" transform="translate(249,160)"/>
<path d="M0 0 C5.65611463 -0.56561146 9.22642128 1.28608722 14 4 C14 7 14 7 12.5 8.6875 C12.005 9.120625 11.51 9.55375 11 10 C8.5 9 8.5 9 6 8 C5.0925 7.7525 4.185 7.505 3.25 7.25 C2.5075 6.8375 1.765 6.425 1 6 C0.1875 2.875 0.1875 2.875 0 0 Z " fill="#F7FBFD" transform="translate(269,167)"/>
<path d="M0 0 C5.94594595 1.18918919 5.94594595 1.18918919 8 4 C8 4.99 8 5.98 8 7 C7.21625 7.5775 6.4325 8.155 5.625 8.75 C2.34490188 11.56151267 1.87858494 13.84668937 1 18 C0.67 18 0.34 18 0 18 C0 12.06 0 6.12 0 0 Z " fill="#6EE1FC" transform="translate(254,163)"/>
<path d="M0 0 C3 0.125 3 0.125 4 1.125 C4.1875 4.0625 4.1875 4.0625 4 7.125 C3.34 7.785 2.68 8.445 2 9.125 C-1.29714793 8.79528521 -2.6226839 8.5023161 -5 6.125 C-4.27477017 0.17811542 -4.27477017 0.17811542 0 0 Z " fill="#74E3FD" transform="translate(217,258.875)"/>
<path d="M0 0 C3.0625 0.1875 3.0625 0.1875 5.0625 2.1875 C4.73278521 5.48464793 4.4398161 6.8101839 2.0625 9.1875 C-2.49305556 8.63194444 -2.49305556 8.63194444 -3.9375 7.1875 C-4.0625 4.1875 -4.0625 4.1875 -3.9375 1.1875 C-2.9375 0.1875 -2.9375 0.1875 0 0 Z " fill="#73E3FD" transform="translate(187.9375,258.8125)"/>
<path d="M0 0 C3 0.125 3 0.125 4 1.125 C4.1875 4.0625 4.1875 4.0625 4 7.125 C3.34 7.785 2.68 8.445 2 9.125 C-1.29714793 8.79528521 -2.6226839 8.5023161 -5 6.125 C-4.27477017 0.17811542 -4.27477017 0.17811542 0 0 Z " fill="#73E3FD" transform="translate(174,258.875)"/>
<path d="M0 0 C2.33944736 0.28730055 4.6739143 0.61936779 7 1 C7.20086443 4.71599191 7.1519437 5.77208445 5 9 C2.5 9.375 2.5 9.375 0 9 C-2 6 -2 6 -1.6875 3.375 C-1 1 -1 1 0 0 Z " fill="#72E3FD" transform="translate(200,259)"/>
<path d="M0 0 C0.33 1.65 0.66 3.3 1 5 C-4.28 5 -9.56 5 -15 5 C-14.67 4.01 -14.34 3.02 -14 2 C-9.18912503 0.45073518 -5.08003559 -0.25400178 0 0 Z " fill="#39606B" transform="translate(396,478)"/>
<path d="M0 0 C0.33 0 0.66 0 1 0 C1.06058594 1.00160156 1.12117188 2.00320312 1.18359375 3.03515625 C1.26808405 4.37761331 1.35272768 5.72006072 1.4375 7.0625 C1.55931641 9.02896484 1.55931641 9.02896484 1.68359375 11.03515625 C1.97898249 14.73663238 2.43265388 18.33370448 3 22 C1.35 22.33 -0.3 22.66 -2 23 C-2.22428282 15.05042008 -1.95403042 7.72888819 0 0 Z " fill="#BDDBDE" transform="translate(388,243)"/>
<path d="M0 0 C0 0.33 0 0.66 0 1 C-2.87456281 1.64783124 -5.74961759 2.29332518 -8.625 2.9375 C-9.43324219 3.11990234 -10.24148438 3.30230469 -11.07421875 3.49023438 C-15.36898181 4.45044563 -19.64777849 5.33096919 -24 6 C-24 7.32 -24 8.64 -24 10 C-23.34 10.33 -22.68 10.66 -22 11 C-22.99 11 -23.98 11 -25 11 C-25.125 7.625 -25.125 7.625 -25 4 C-22.46268569 1.46268569 -20.46789087 1.56576814 -17.00390625 1.21875 C-14.92254263 1.0332864 -14.92254263 1.0332864 -12.625 0.4375 C-8.43721491 -0.26046418 -4.23561622 -0.07402048 0 0 Z " fill="#427886" transform="translate(379,472)"/>
<path d="M0 0 C0 0.66 0 1.32 0 2 C-5.00407501 5.00244501 -8.32223263 5.38493338 -14 5 C-14.33 4.67 -14.66 4.34 -15 4 C-16.32 4 -17.64 4 -19 4 C-19 3.34 -19 2.68 -19 2 C-12.6221448 0.82706111 -6.49678438 -0.29530838 0 0 Z " fill="#30464D" transform="translate(374,477)"/>
<path d="M0 0 C1.65322266 0.01740234 1.65322266 0.01740234 3.33984375 0.03515625 C4.99693359 0.04869141 4.99693359 0.04869141 6.6875 0.0625 C7.54214844 0.07410156 8.39679688 0.08570313 9.27734375 0.09765625 C8.94734375 1.08765625 8.61734375 2.07765625 8.27734375 3.09765625 C3.98734375 3.75765625 -0.30265625 4.41765625 -4.72265625 5.09765625 C-3.47944235 0.12480066 -3.47944235 0.12480066 0 0 Z " fill="#56AFC5" transform="translate(387.72265625,470.90234375)"/>
<path d="M0 0 C5.61 0 11.22 0 17 0 C17 0.99 17 1.98 17 3 C15.10448978 3.05441656 13.2085208 3.09298035 11.3125 3.125 C10.25675781 3.14820313 9.20101563 3.17140625 8.11328125 3.1953125 C4.97748141 2.99858729 2.82354627 2.33057654 0 1 C0 0.67 0 0.34 0 0 Z " fill="#4E9CB6" transform="translate(338,322)"/>
<path d="M0 0 C2.0625 0.4375 2.0625 0.4375 4 1 C4 2.65 4 4.3 4 6 C2.125 6.625 2.125 6.625 0 7 C-0.66 6.34 -1.32 5.68 -2 5 C-1.46428571 1.46428571 -1.46428571 1.46428571 0 0 Z " fill="#B7F0FD" transform="translate(338,263)"/>
<path d="M0 0 C1.32 0 2.64 0 4 0 C4.061875 1.1446875 4.061875 1.1446875 4.125 2.3125 C4.77823609 5.32405113 4.77823609 5.32405113 8.0625 6.8125 C9.031875 7.204375 10.00125 7.59625 11 8 C11 8.66 11 9.32 11 10 C8.5 9 8.5 9 6 8 C5.0925 7.7525 4.185 7.505 3.25 7.25 C2.5075 6.8375 1.765 6.425 1 6 C0.1875 2.875 0.1875 2.875 0 0 Z " fill="#D2D8DA" transform="translate(269,167)"/>
<path d="M0 0 C1.4370809 -0.05422947 2.87475462 -0.09289723 4.3125 -0.125 C5.11300781 -0.14820313 5.91351563 -0.17140625 6.73828125 -0.1953125 C9 0 9 0 12 2 C11.67 3.32 11.34 4.64 11 6 C9.6696875 5.319375 9.6696875 5.319375 8.3125 4.625 C5.57068159 3.27995701 2.84975669 2.08961285 0 1 C0 0.67 0 0.34 0 0 Z " fill="#DADEDF" transform="translate(249,160)"/>
<path d="M0 0 C0 0.99 0 1.98 0 3 C-6.96428571 5.27678571 -6.96428571 5.27678571 -11 4 C-9.5437455 3.32880451 -8.08492133 2.66318193 -6.625 2 C-5.81289063 1.62875 -5.00078125 1.2575 -4.1640625 0.875 C-2 0 -2 0 0 0 Z " fill="#4F9BAF" transform="translate(367,470)"/>
<path d="M0 0 C3.96 0 7.92 0 12 0 C8.96474514 2.02350324 7.80573798 2.32124018 4.3125 2.625 C3.50425781 2.69976562 2.69601562 2.77453125 1.86328125 2.8515625 C1.24839844 2.90054687 0.63351562 2.94953125 0 3 C0 2.01 0 1.02 0 0 Z " fill="#5FC9E2" transform="translate(385,471)"/>
<path d="M0 0 C1.32 0 2.64 0 4 0 C4 1.32 4 2.64 4 4 C3.34 4 2.68 4 2 4 C2.33 5.32 2.66 6.64 3 8 C2.01 8 1.02 8 0 8 C0 5.36 0 2.72 0 0 Z " fill="#79E4FD" transform="translate(338,255)"/>
<path d="M0 0 C2 3 2 3 2 5 C-0.31 5 -2.62 5 -5 5 C-5 4.34 -5 3.68 -5 3 C-3.35 2.67 -1.7 2.34 0 2 C0 1.34 0 0.68 0 0 Z " fill="#4E9AAC" transform="translate(377,466)"/>
<path d="M0 0 C1.32 0 2.64 0 4 0 C4 1.32 4 2.64 4 4 C2.68 4.33 1.36 4.66 0 5 C-0.5625 3.0625 -0.5625 3.0625 -1 1 C-0.67 0.67 -0.34 0.34 0 0 Z " fill="#C3C9CB" transform="translate(250,182)"/>
<path d="M0 0 C0.66 0.33 1.32 0.66 2 1 C2 3.64 2 6.28 2 9 C1.01 9 0.02 9 -1 9 C-0.67 6.03 -0.34 3.06 0 0 Z " fill="#67CCE3" transform="translate(281,221)"/>
</svg>
