<?xml version="1.0" encoding="UTF-8"?>
<svg version="1.1" xmlns="http://www.w3.org/2000/svg" width="500" height="500">
<path d="M0 0 C0.75990234 -0.020625 1.51980469 -0.04125 2.30273438 -0.0625 C6.90264536 -0.09447158 9.98643625 0.20418295 13.6875 3.25 C14.5 5.9375 14.5 5.9375 14.6875 8.25 C15.55375 8.45625 16.42 8.6625 17.3125 8.875 C21.38610557 10.53461708 24.21895054 12.58435276 26.6875 16.25 C28.8586162 22.39901747 29.08167644 28.26644932 29.34375 34.7265625 C29.81617266 39.56889474 30.52193252 42.25500337 34.25 45.4375 C35.054375 46.035625 35.85875 46.63375 36.6875 47.25 C38.61244114 51.09988228 37.87098296 56.01200556 37.91796875 60.2578125 C38.52024688 65.24634117 40.74090383 69.13230339 44.6875 72.25 C48.14159369 73.16744089 51.3365785 72.90970058 54.875 72.625 C56.85257013 72.54684296 58.83047014 72.47666543 60.80859375 72.4140625 C62.29141846 72.35847168 62.29141846 72.35847168 63.80419922 72.30175781 C90.46915783 71.8230981 124.81590624 79.9744864 145.1875 97.75 C146.70879111 99.2284023 148.21054161 100.72730702 149.6875 102.25 C150.34363281 102.89710937 150.99976563 103.54421875 151.67578125 104.2109375 C162.44230643 115.50771981 164.23156632 129.62465381 163.9296875 144.53515625 C162.96256969 168.5551069 147.95283869 189.0650208 134.125 207.61328125 C124.37192714 220.72436731 113.49939793 235.48170825 111.6875 252.25 C111.60628906 252.93707031 111.52507812 253.62414062 111.44140625 254.33203125 C110.69419527 266.89876134 116.62630987 277.13317783 124.6875 286.25 C127.14716557 288.82964926 129.68172851 291.32979666 132.23095703 293.82055664 C146.32894307 307.63225483 154.58719427 322.09658316 155.03955078 342.04394531 C155.17950255 361.59550451 150.73672925 378.90025903 136.87670898 393.3046875 C131.14233465 398.96980846 124.81875918 403.01134316 117.89453125 407.05859375 C117.02046631 407.57292969 116.14640137 408.08726562 115.24584961 408.6171875 C113.50310723 409.63705093 111.7529291 410.64435074 109.99438477 411.63671875 C101.51961012 416.55835586 95.09355304 422.43789391 90.6875 431.25 C95.30094206 435.43994249 100.00411013 436.99481564 105.8046875 438.87304688 C111.05938602 440.69236231 115.08961614 443.05423228 117.6875 448.25 C118.27779191 453.92588376 118.00191063 458.43875876 114.6875 463.25 C99.94432478 479.59035254 69.03742605 477.75771041 48.90713501 478.85290527 C32.79296333 479.66534778 16.64930814 479.54098704 0.51942801 479.51865101 C-4.40828917 479.51347833 -9.33600007 479.51831195 -14.26371765 479.52142334 C-22.51396045 479.52502654 -30.76416703 479.5203565 -39.0144043 479.51074219 C-48.49753677 479.49981749 -57.98058347 479.50342703 -67.46371394 479.514395 C-75.68625148 479.52351674 -83.90876347 479.52473081 -92.13130444 479.51951766 C-97.00796901 479.51643068 -101.88459342 479.51589787 -106.76125526 479.52259064 C-111.33760415 479.52843721 -115.9138437 479.52423607 -120.49018097 479.51280212 C-122.15122231 479.51019615 -123.81227313 479.51084929 -125.47331047 479.51532745 C-134.21494775 479.53669389 -142.8357106 479.23695203 -151.53605652 478.34320068 C-152.31584816 478.26363451 -153.09563981 478.18406834 -153.8990615 478.10209107 C-163.54024978 477.0170672 -173.5019375 474.63946031 -180.3125 467.25 C-183.06919941 462.87918054 -183.95640265 458.33870158 -183 453.2578125 C-180.21807197 445.13331814 -173.68813604 440.92157213 -166.3125 437.25 C-163.9910573 436.21831484 -161.6563211 435.23066625 -159.3125 434.25 C-159.78558594 433.79262451 -160.25867188 433.33524902 -160.74609375 432.86401367 C-178.46976786 415.65209769 -178.46976786 415.65209769 -184.3125 406.25 C-185.00730469 405.14140625 -185.70210938 404.0328125 -186.41796875 402.890625 C-193.0013409 392.05679435 -197.49614021 380.96502531 -197.39428711 368.12792969 C-197.3877562 366.93939392 -197.38122528 365.75085815 -197.37449646 364.52630615 C-197.36306107 363.25434387 -197.35162567 361.98238159 -197.33984375 360.671875 C-197.33288623 359.33677528 -197.32667871 358.00167147 -197.32118225 356.66656494 C-197.29687856 351.02323634 -197.26140045 345.38001844 -197.21655273 339.73681641 C-197.18954667 336.27396625 -197.17264987 332.81117995 -197.16168404 329.34824371 C-197.15257495 327.40860522 -197.13221238 325.46902988 -197.11155701 323.52947998 C-197.04494936 299.85051198 -207.70723343 283.94471114 -223.421875 267.33984375 C-241.85625901 247.80353652 -251.10414542 227.79070097 -250.62109375 200.9609375 C-249.92419066 183.39666622 -242.0357988 168.07360841 -230.3125 155.25 C-229.66023438 154.51652344 -229.00796875 153.78304687 -228.3359375 153.02734375 C-216.5045803 140.44225143 -201.42378326 131.11803293 -187.01806641 121.78149414 C-179.72234817 117.01220648 -172.96195245 111.88057368 -166.3125 106.25 C-165.20808718 105.35126124 -164.10175753 104.45486394 -162.9921875 103.5625 C-156.58416579 98.27900578 -150.68833347 92.68259805 -144.875 86.75 C-131.78569963 73.47533598 -116.89744074 60.80218184 -98.3125 56.25 C-97.59449219 56.06953125 -96.87648437 55.8890625 -96.13671875 55.703125 C-81.54076975 53.36131299 -67.86288654 55.26339038 -55.3125 63.25 C-55.45345064 61.6245692 -55.60042087 59.99965949 -55.75 58.375 C-55.83121094 57.47007813 -55.91242188 56.56515625 -55.99609375 55.6328125 C-56.18239285 53.23889139 -56.18239285 53.23889139 -57.3125 51.25 C-59.5204259 50.22520995 -59.5204259 50.22520995 -62.125 49.3125 C-65.66242545 48.02188835 -68.39144387 46.63995501 -71.3125 44.25 C-70.4375 40.375 -70.4375 40.375 -69.3125 39.25 C-67.12957226 39.01518307 -64.94046826 38.83636677 -62.75 38.6875 C-61.55246094 38.60371094 -60.35492188 38.51992188 -59.12109375 38.43359375 C-58.19425781 38.37300781 -57.26742187 38.31242187 -56.3125 38.25 C-56.3125 36.93 -56.3125 35.61 -56.3125 34.25 C-55.6525 34.25 -54.9925 34.25 -54.3125 34.25 C-50.0225 43.82 -45.7325 53.39 -41.3125 63.25 C-40.6525 63.25 -39.9925 63.25 -39.3125 63.25 C-36.78759506 60.42271124 -34.39102243 57.5242036 -32.0078125 54.578125 C-28.75794937 50.65869208 -25.78867145 47.7256479 -21.3125 45.25 C-20.3225 45.25 -19.3325 45.25 -18.3125 45.25 C-18.4343437 41.16884151 -18.4343437 41.16884151 -19.3125 37.25 C-20.8284375 36.3528125 -20.8284375 36.3528125 -22.375 35.4375 C-25.3125 33.25 -25.3125 33.25 -25.77734375 30.8828125 C-25.81377253 27.96041491 -25.62434208 25.15526288 -25.3125 22.25 C-25.26222656 21.445625 -25.21195313 20.64125 -25.16015625 19.8125 C-24.24943862 12.62656365 -19.7166353 9.55670851 -14.3125 5.25 C-13.59835937 4.53457031 -12.88421875 3.81914062 -12.1484375 3.08203125 C-8.55421772 -0.50454125 -4.80300097 0.03210026 0 0 Z " fill="#68DEFD" transform="translate(293.3125,4.75)"/>
<path d="M0 0 C1.27810547 -0.0306958 2.55621094 -0.0613916 3.87304688 -0.09301758 C14.02997381 -0.09504464 14.02997381 -0.09504464 17.11328125 2.84375 C19.35636486 6.35017955 19.95110106 8.91968205 19.9375 13 C19.94136719 14.16015625 19.94136719 14.16015625 19.9453125 15.34375 C19.8125 17.5 19.8125 17.5 18.8125 20.5 C19.3075 21.53125 19.8025 22.5625 20.3125 23.625 C22.31757909 28.00646913 22.23625814 31.91808744 20.8125 36.5 C18.5 39.3125 18.5 39.3125 15.8125 41.5 C12.88942346 44.17948683 11.61423823 45.64363913 10.8125 49.5 C12.58555664 49.24412595 14.35594608 48.96972261 16.125 48.6875 C17.11113281 48.53667969 18.09726562 48.38585937 19.11328125 48.23046875 C22.0908524 47.42467164 22.95675341 46.90169016 24.8125 44.5 C25.38821496 41.99796352 25.38821496 41.99796352 25.5 39.3125 C25.59861328 37.96091797 25.59861328 37.96091797 25.69921875 36.58203125 C25.75529297 35.55142578 25.75529297 35.55142578 25.8125 34.5 C30.79287787 34.37564361 35.77233617 34.28530869 40.75390625 34.2253418 C42.44547281 34.2003234 44.13693264 34.1662971 45.828125 34.12280273 C63.20754208 33.68729258 63.20754208 33.68729258 69.8125 39.5 C74.22095413 44.02149141 74.93142218 48.04675474 74.94951439 54.20026112 C74.95458893 55.1214158 74.95966347 56.04257049 74.96489179 56.99163896 C74.96538955 57.9949372 74.96588731 58.99823543 74.96640015 60.03193665 C74.97297353 61.64083945 74.97297353 61.64083945 74.9796797 63.28224534 C74.99305285 66.88258266 74.99924319 70.48289552 75.00537109 74.08325195 C75.01327304 76.6621105 75.02154205 79.24096794 75.03015137 81.81982422 C75.05463537 89.56125381 75.06929417 97.30268973 75.08221143 105.04414609 C75.0859255 107.23121584 75.08989853 109.41828495 75.0939641 111.60535407 C75.11919659 125.19322467 75.14124468 138.78109633 75.15369225 152.36898518 C75.15662181 155.51381242 75.1595835 158.65863963 75.16259766 161.8034668 C75.16334371 162.58507249 75.16408976 163.36667818 75.16485842 164.1719689 C75.17751597 176.8374737 75.21074745 189.50283826 75.25239949 202.16827748 C75.29482994 215.17717809 75.31838831 228.18600688 75.32361281 241.19497651 C75.32702505 248.4968996 75.33875853 255.79860324 75.37171555 263.10045815 C75.40266264 269.96809078 75.40812674 276.83533503 75.39633179 283.70302582 C75.39611063 286.22333641 75.40445042 288.74366451 75.42198563 291.26391411 C75.44462754 294.70544261 75.43640367 298.14557716 75.42050171 301.58711243 C75.4343838 302.5837185 75.44826588 303.58032457 75.46256864 304.60713083 C75.38937025 311.039222 74.14213055 315.60913381 69.8125 320.5 C64.45381817 324.6343886 59.37845294 325.62218228 52.77339172 325.64044189 C50.9167112 325.64900711 50.9167112 325.64900711 49.02252197 325.65774536 C47.65344248 325.65899064 46.28436288 325.66011575 44.9152832 325.66113281 C43.47118503 325.66576301 42.02708809 325.67078795 40.58299255 325.67617798 C36.66126305 325.68928652 32.73955065 325.69574419 28.81780267 325.70018864 C26.36536636 325.70312251 23.91293469 325.70722796 21.46050072 325.71169281 C13.78089492 325.7253651 6.10129978 325.73503247 -1.57831734 325.7388947 C-10.43084385 325.74337171 -19.28321567 325.76090409 -28.13569516 325.7898953 C-34.98596914 325.81154722 -41.83619971 325.82160089 -48.68650752 325.82293582 C-52.77413021 325.82398155 -56.86160743 325.82983946 -60.94919395 325.84775543 C-64.79796984 325.86429645 -68.64649188 325.86636259 -72.49529076 325.85761642 C-73.90250837 325.8568492 -75.30973996 325.86114698 -76.71692276 325.87107468 C-85.69369818 325.93065622 -93.90149305 325.96528222 -101.125 320.125 C-105.70003576 314.30222722 -105.47855673 308.94480106 -105.46165466 301.80947876 C-105.46950968 300.17501629 -105.46950968 300.17501629 -105.47752339 298.50753438 C-105.49254744 294.84954978 -105.49322907 291.19170477 -105.49389648 287.53369141 C-105.50151627 284.91380069 -105.50994345 282.29391222 -105.51911926 279.67402649 C-105.5419528 272.55217946 -105.54988782 265.43036227 -105.55494571 258.3084836 C-105.55820409 253.8608471 -105.56472735 249.41321923 -105.5719471 244.96558762 C-105.59150945 232.64859356 -105.60791627 220.33160753 -105.61082363 208.01459694 C-105.6110112 207.22668127 -105.61119877 206.43876561 -105.61139202 205.62697371 C-105.61175827 204.02972531 -105.61212197 202.43247692 -105.61248314 200.83522852 C-105.61266595 200.04236678 -105.61284876 199.24950504 -105.61303711 198.43261719 C-105.61321766 197.63878672 -105.61339821 196.84495626 -105.61358423 196.02707033 C-105.61712688 183.16042116 -105.64415651 170.29393924 -105.681535 157.42734809 C-105.71961369 144.21391203 -105.73898107 131.00055898 -105.73928314 117.78706682 C-105.73986775 110.3694927 -105.74836187 102.95211822 -105.77728081 95.53459549 C-105.80435043 88.55943134 -105.8057033 81.58466885 -105.78962517 74.60947227 C-105.78780549 72.04843345 -105.7945478 69.4873722 -105.81044388 66.92638206 C-105.83081284 63.43194569 -105.82040467 59.93890624 -105.80223083 56.44448853 C-105.8154308 55.42940582 -105.82863077 54.41432311 -105.84223074 53.36848032 C-105.76371116 46.76529402 -104.58815114 43.46958713 -100.1875 38.5 C-94.80119032 34.07418244 -88.68824237 33.95583064 -82 34.109375 C-81.05688965 34.11503479 -80.1137793 34.12069458 -79.14208984 34.12652588 C-76.15669022 34.14875415 -73.17253126 34.1989244 -70.1875 34.25 C-68.15236119 34.27008254 -66.11720341 34.28833022 -64.08203125 34.3046875 C-59.11671609 34.34857443 -54.15231773 34.41750686 -49.1875 34.5 C-48.6925 38.46 -48.6925 38.46 -48.1875 42.5 C-48.03424877 34.91744093 -48.03424877 34.91744093 -48.6875 27.375 C-50.11764354 16.29138756 -50.11764354 16.29138756 -47.5 11.25 C-36.37051013 0.02724625 -14.61351728 0.20616655 0 0 Z " fill="#46808F" transform="translate(282.1875,100.5)"/>
<path d="M0 0 C0.33 1.32 0.66 2.64 1 4 C2.65 3.67 4.3 3.34 6 3 C7.58667855 7.33692137 8.41774416 11.42513268 9 16 C9.20625 16.9075 9.4125 17.815 9.625 18.75 C10 21 10 21 9 24 C7.33729713 25.33827304 5.67083819 26.67189785 4 28 C4 28.66 4 29.32 4 30 C4.66 30.33 5.32 30.66 6 31 C6 31.99 6 32.98 6 34 C7.2375 33.896875 8.475 33.79375 9.75 33.6875 C11.953125 33.66796875 11.953125 33.66796875 14 34 C16.5 36.5 16.5 36.5 18 39 C17.49042411 35.60282739 16.82558861 32.35744566 15.875 29.0625 C14.57702107 23.9486582 15.13148459 19.85546475 17.375 15.0625 C18.179375 14.0415625 18.179375 14.0415625 19 13 C19.99 13 20.98 13 22 13 C22 12.34 22 11.68 22 11 C21.01 10.67 20.02 10.34 19 10 C19.33 8.35 19.66 6.7 20 5 C22.375 4.875 22.375 4.875 25 5 C27 7 27 7 27.1875 10.0625 C27 13 27 13 26 14 C25.18131575 21.67591915 26.86817851 28.6447659 28.875 36 C35.20595193 59.8698092 35.20595193 59.8698092 34 67 C31.89642749 69.58901232 30.24417307 69.9272676 27.0625 70.875 C23.38274066 71.02519426 22.02018954 69.97257726 19 68 C18.92652344 69.44632813 18.92652344 69.44632813 18.8515625 70.921875 C18.77679688 72.18515625 18.70203125 73.4484375 18.625 74.75 C18.52058594 76.62945312 18.52058594 76.62945312 18.4140625 78.546875 C18.03701005 81.69135017 17.47441946 83.29948437 16 86 C15.20529297 85.98428955 14.41058594 85.9685791 13.59179688 85.95239258 C-17.17310654 84.33279583 -17.17310654 84.33279583 -44.296875 96.1015625 C-46.00343543 99.00584654 -46.30912477 100.41837289 -46.60644531 103.68115234 C-46.68388977 104.49031097 -46.76133423 105.2994696 -46.84112549 106.13314819 C-46.89355408 106.74920929 -46.94598267 107.36527039 -47 108 C-47.69633545 108.00586624 -48.3926709 108.01173248 -49.11010742 108.01777649 C-55.70066318 108.07589172 -62.29090121 108.14807465 -68.88113403 108.23571491 C-72.26855042 108.28027556 -75.6558505 108.31956199 -79.04345703 108.34643555 C-82.94593252 108.38008992 -86.84778692 108.43241401 -90.75 108.48828125 C-91.95551514 108.49467117 -93.16103027 108.5010611 -94.40307617 108.50764465 C-101.62738218 108.63301879 -108.30835753 108.85474863 -114.05859375 113.75390625 C-114.51363281 114.35074219 -114.96867187 114.94757813 -115.4375 115.5625 C-116.14712891 116.46162109 -116.14712891 116.46162109 -116.87109375 117.37890625 C-118.92977613 120.33514566 -119.12202717 122.16812373 -119.11073208 125.73437595 C-119.11003953 126.73950908 -119.10934699 127.74464221 -119.10863346 128.78023392 C-119.09986882 130.44901287 -119.09986882 130.44901287 -119.09092712 132.15150452 C-119.0877506 133.9147626 -119.0877506 133.9147626 -119.08450991 135.71364206 C-119.07782367 138.98682463 -119.06673295 142.25996024 -119.05401814 145.53312385 C-119.04149626 149.05952946 -119.03487236 152.58594539 -119.0279541 156.11236572 C-119.01877663 160.6465221 -119.00917729 165.18067534 -118.99737632 169.71482575 C-118.96837389 180.96414749 -118.95682489 192.21339578 -118.95594788 203.4627533 C-118.95585417 204.27582424 -118.95576046 205.08889518 -118.95566391 205.92660464 C-118.95494188 212.62437406 -118.95493872 219.32214346 -118.955164 226.01991291 C-118.95532524 232.05681391 -118.95481311 238.09371439 -118.95336914 244.13061523 C-118.95307215 245.42180904 -118.95307215 245.42180904 -118.95276917 246.73908757 C-118.94857339 260.67805847 -118.91202986 274.61677682 -118.86441296 288.55565877 C-118.8163585 302.86520014 -118.80635364 317.17441772 -118.83075243 331.48402017 C-118.84453866 340.31044661 -118.82824905 349.13577063 -118.77328426 357.96204119 C-118.73836411 364.0151162 -118.74016667 370.06748762 -118.77066921 376.12058366 C-118.78716038 379.6119704 -118.78753486 383.10137494 -118.74402809 386.59257317 C-118.70527328 390.38333018 -118.72812832 394.16895796 -118.76622009 397.95960999 C-118.74030051 399.05651423 -118.71438092 400.15341848 -118.68767589 401.28356224 C-118.79350271 406.03840106 -119.10052577 408.89708489 -122.16356194 412.65291107 C-128.41818167 418.39816271 -134.95597014 423.7209675 -143.82373047 423.53344727 C-148.43977117 422.4019632 -151.37125039 418.56190548 -154.5 415.1875 C-155.62136353 414.01707153 -155.62136353 414.01707153 -156.76538086 412.82299805 C-162.06686334 407.20935648 -166.91583369 401.57222164 -171 395 C-171.69480469 393.89140625 -172.38960938 392.7828125 -173.10546875 391.640625 C-179.6888409 380.80679435 -184.18364021 369.71502531 -184.08178711 356.87792969 C-184.0752562 355.68939392 -184.06872528 354.50085815 -184.06199646 353.27630615 C-184.05056107 352.00434387 -184.03912567 350.73238159 -184.02734375 349.421875 C-184.02038623 348.08677528 -184.01417871 346.75167147 -184.00868225 345.41656494 C-183.98437856 339.77323634 -183.94890045 334.13001844 -183.90405273 328.48681641 C-183.87704667 325.02396625 -183.86014987 321.56117995 -183.84918404 318.09824371 C-183.84007495 316.15860522 -183.81971238 314.21902988 -183.79905701 312.27947998 C-183.73244936 288.60051198 -194.39473343 272.69471114 -210.109375 256.08984375 C-228.54375901 236.55353652 -237.79164542 216.54070097 -237.30859375 189.7109375 C-236.61169066 172.14666622 -228.7232988 156.82360841 -217 144 C-216.34773438 143.26652344 -215.69546875 142.53304687 -215.0234375 141.77734375 C-203.1920803 129.19225143 -188.11128326 119.86803293 -173.70556641 110.53149414 C-166.40984817 105.76220648 -159.64945245 100.63057368 -153 95 C-151.89558718 94.10126124 -150.78925753 93.20486394 -149.6796875 92.3125 C-143.27166579 87.02900578 -137.37583347 81.43259805 -131.5625 75.5 C-118.47319963 62.22533598 -103.58494074 49.55218184 -85 45 C-84.28199219 44.81953125 -83.56398437 44.6390625 -82.82421875 44.453125 C-68.22826975 42.11131299 -54.55038654 44.01339038 -42 52 C-42.14095064 50.3745692 -42.28792087 48.74965949 -42.4375 47.125 C-42.51871094 46.22007813 -42.59992188 45.31515625 -42.68359375 44.3828125 C-42.86989285 41.98889139 -42.86989285 41.98889139 -44 40 C-46.2079259 38.97520995 -46.2079259 38.97520995 -48.8125 38.0625 C-52.34992545 36.77188835 -55.07894387 35.38995501 -58 33 C-57.125 29.125 -57.125 29.125 -56 28 C-53.81707226 27.76518307 -51.62796826 27.58636677 -49.4375 27.4375 C-47.64119141 27.31181641 -47.64119141 27.31181641 -45.80859375 27.18359375 C-44.88175781 27.12300781 -43.95492187 27.06242187 -43 27 C-43 25.68 -43 24.36 -43 23 C-42.34 23 -41.68 23 -41 23 C-36.71 32.57 -32.42 42.14 -28 52 C-27.34 52 -26.68 52 -26 52 C-23.47509506 49.17271124 -21.07852243 46.2742036 -18.6953125 43.328125 C-15.44544937 39.40869208 -12.47617145 36.4756479 -8 34 C-7.01 34 -6.02 34 -5 34 C-5.1218437 29.91884151 -5.1218437 29.91884151 -6 26 C-7.010625 25.401875 -8.02125 24.80375 -9.0625 24.1875 C-12 22 -12 22 -12.53515625 19.59765625 C-12.73478979 13.27014109 -11.71083518 8.18500259 -8 3 C-5.02583145 0.02583145 -4.38431613 0 0 0 Z " fill="#68DDFE" transform="translate(280,16)"/>
<path d="M0 0 C3.89137337 0.80919815 5.53176322 2.18298039 8.3125 5.0625 C9.10140625 5.87203125 9.8903125 6.6815625 10.703125 7.515625 C12.74454528 9.72369183 14.65724391 11.98773799 16.5625 14.3125 C21.33308396 19.82541739 26.9262315 21.64139137 33.6875 23.9375 C38.9866082 25.79696515 42.415299 27.830598 45 33 C45.59029191 38.67588376 45.31441063 43.18875876 42 48 C27.25682478 64.34035254 -3.65007395 62.50771041 -23.78036499 63.60290527 C-39.89453667 64.41534778 -56.03819186 64.29098704 -72.16807199 64.26865101 C-77.09578917 64.26347833 -82.02350007 64.26831195 -86.95121765 64.27142334 C-95.20146045 64.27502654 -103.45166703 64.2703565 -111.7019043 64.26074219 C-121.18503677 64.24981749 -130.66808347 64.25342703 -140.15121394 64.264395 C-148.37375148 64.27351674 -156.59626347 64.27473081 -164.81880444 64.26951766 C-169.69546901 64.26643068 -174.57209342 64.26589787 -179.44875526 64.27259064 C-184.02510415 64.27843721 -188.6013437 64.27423607 -193.17768097 64.26280212 C-194.83872231 64.26019615 -196.49977313 64.26084929 -198.16081047 64.26532745 C-206.90244775 64.28669389 -215.5232106 63.98695203 -224.22355652 63.09320068 C-225.00334816 63.01363451 -225.78313981 62.93406834 -226.5865615 62.85209107 C-236.22774978 61.7670672 -246.1894375 59.38946031 -253 52 C-255.75669941 47.62918054 -256.64390265 43.08870158 -255.6875 38.0078125 C-252.90784143 29.889946 -246.37541592 25.67017528 -239 22 C-235.50100391 20.3682303 -232.85893018 19.38187795 -229 20 C-226.60696998 21.48841843 -224.46443926 22.97120378 -222.25 24.6875 C-218.23987148 27.70534508 -214.4189325 30.44361048 -209.875 32.625 C-205.85685601 34.71177091 -204.66030469 36.97596177 -202.9453125 41.0703125 C-200.81762588 45.41360668 -197.27824161 47.55976482 -192.75813961 49.11651897 C-188.92442681 50.0177661 -185.61498114 50.2542457 -181.68226624 50.26069641 C-180.97955878 50.26452196 -180.27685133 50.26834751 -179.55284971 50.27228898 C-177.21622631 50.28254455 -174.87985206 50.27864115 -172.54321289 50.2746582 C-170.86059849 50.27900878 -169.17798608 50.28419308 -167.49537659 50.29014587 C-162.93752565 50.30350927 -158.37975777 50.30411755 -153.82189107 50.30158257 C-150.01227893 50.30051115 -146.20268348 50.30540057 -142.39307493 50.310188 C-133.40372014 50.32127378 -124.41440714 50.32172568 -115.42504883 50.31567383 C-106.16088349 50.30963276 -96.89686998 50.32195056 -87.63273054 50.3432439 C-79.6690385 50.36087306 -71.70539473 50.36685922 -63.7416839 50.36360615 C-58.98960803 50.3617954 -54.2376405 50.36440881 -49.48558235 50.37832069 C-45.01626029 50.39091597 -40.54717459 50.38893888 -36.07785606 50.37590981 C-34.44123885 50.37354825 -32.80460492 50.37626358 -31.1680069 50.38453293 C-17.58937509 50.50499154 -17.58937509 50.50499154 -5.625 44.625 C-0.79891554 39.79891554 -0.68290069 34.99502314 -0.5859375 28.41796875 C-0.56657135 27.60378983 -0.5472052 26.7896109 -0.5272522 25.95075989 C-0.46771248 23.36311148 -0.42117417 20.77541797 -0.375 18.1875 C-0.3367966 16.42771551 -0.2977435 14.66794926 -0.2578125 12.90820312 C-0.16203218 8.60561766 -0.07790715 4.3029447 0 0 Z " fill="#000000" transform="translate(366,420)"/>
<path d="M0 0 C1.27810547 -0.0306958 2.55621094 -0.0613916 3.87304688 -0.09301758 C14.02997381 -0.09504464 14.02997381 -0.09504464 17.11328125 2.84375 C19.35636486 6.35017955 19.95110106 8.91968205 19.9375 13 C19.94136719 14.16015625 19.94136719 14.16015625 19.9453125 15.34375 C19.8125 17.5 19.8125 17.5 18.8125 20.5 C19.20182856 22.64255793 19.20182856 22.64255793 19.8125 24.5 C18.18489583 24.92317708 16.55729167 25.34635417 14.9296875 25.76953125 C12.63872424 26.48752872 12.63872424 26.48752872 10.0625 28.0625 C6.24282218 29.75197288 3.02273182 29.84188376 -1.0625 29.6875 C-1.75085938 29.67396484 -2.43921875 29.66042969 -3.1484375 29.64648438 C-4.82847001 29.6114837 -6.5080935 29.55768954 -8.1875 29.5 C-7.84976563 30.00789063 -7.51203125 30.51578125 -7.1640625 31.0390625 C-6.49503906 32.07160156 -6.49503906 32.07160156 -5.8125 33.125 C-5.37164062 33.79789063 -4.93078125 34.47078125 -4.4765625 35.1640625 C-1.37037137 40.79285733 -0.86294979 45.78327949 -0.9375 52.0625 C-0.94281738 52.87734863 -0.94813477 53.69219727 -0.95361328 54.53173828 C-1.0506051 61.00317994 -1.47731188 67.43058764 -2.0625 73.875 C-2.14081055 74.76002197 -2.21912109 75.64504395 -2.29980469 76.55688477 C-2.73333827 80.85858433 -3.25960164 84.56319914 -5.1875 88.5 C-8.6525 88.995 -8.6525 88.995 -12.1875 89.5 C-13.54143879 84.40029283 -14.89217526 79.29975089 -16.24023438 74.19848633 C-16.69708542 72.47137821 -17.15473822 70.74448193 -17.61328125 69.01782227 C-19.99390091 60.05134362 -22.34060136 51.07747577 -24.515625 42.05859375 C-24.77143341 41.02146996 -24.77143341 41.02146996 -25.03240967 39.96339417 C-25.87474397 36.40726188 -26.37591343 33.15601299 -26.1875 29.5 C-27.5075 29.17 -28.8275 28.84 -30.1875 28.5 C-29.72472656 29.34949219 -29.26195312 30.19898438 -28.78515625 31.07421875 C-20.64102645 48.53730392 -28.66609021 68.13643863 -34.33349609 85.20800781 C-35.1875 87.5 -35.1875 87.5 -36.1875 88.5 C-39.6875 88.625 -39.6875 88.625 -43.1875 88.5 C-45.1077039 86.5797961 -44.68917912 83.11316864 -44.90625 80.484375 C-44.9687796 79.76512344 -45.0313092 79.04587189 -45.09573364 78.30482483 C-45.29812302 75.95362189 -45.49316796 73.60188162 -45.6875 71.25 C-45.75475281 70.45500092 -45.82200562 69.66000183 -45.89129639 68.84091187 C-46.76251938 58.53396049 -47.53720268 48.23530073 -47.89648438 37.89550781 C-48.06927893 33.0382951 -48.54301499 28.31853245 -49.1875 23.5 C-49.6983312 18.75656747 -49.73736026 15.55899014 -47.5 11.25 C-36.37051013 0.02724625 -14.61351728 0.20616655 0 0 Z " fill="#232122" transform="translate(282.1875,100.5)"/>
<path d="M0 0 C1.16075043 0.00015106 2.32150085 0.00030212 3.51742554 0.00045776 C4.75513702 0.01078033 5.99284851 0.02110291 7.26806641 0.03173828 C9.18638779 0.03598312 9.18638779 0.03598312 11.14346313 0.04031372 C14.5268299 0.04959058 17.90992217 0.06752896 21.29321289 0.08972168 C24.75225465 0.11026038 28.21132487 0.11933252 31.67041016 0.12939453 C38.44522505 0.15141878 45.21991114 0.1848696 51.99462891 0.22705078 C51.99462891 0.55705078 51.99462891 0.88705078 51.99462891 1.22705078 C51.04075539 1.23585014 51.04075539 1.23585014 50.06761169 1.24482727 C43.43223641 1.3088998 36.79733992 1.39335546 30.16235352 1.48950195 C27.68813399 1.52269882 25.21383969 1.55074696 22.73950195 1.57348633 C19.17708557 1.60712779 15.61535119 1.65945065 12.05322266 1.71533203 C10.40126137 1.72491692 10.40126137 1.72491692 8.71592712 1.73469543 C1.89755288 1.86439985 -3.63754127 2.27516807 -8.96630859 6.94580078 C-9.43294922 7.53361328 -9.89958984 8.12142578 -10.38037109 8.72705078 C-11.10353516 9.60876953 -11.10353516 9.60876953 -11.84130859 10.50830078 C-14.05995994 13.78416182 -14.13177768 16.66078459 -14.13679886 20.49331951 C-14.14256058 22.14078325 -14.14256058 22.14078325 -14.14843869 23.82152909 C-14.14757221 25.03298232 -14.14670573 26.24443555 -14.14581299 27.49259949 C-14.14878411 28.77583723 -14.15175523 30.05907497 -14.15481639 31.3811987 C-14.1628949 34.95047549 -14.16467644 38.51973218 -14.16541386 42.08901703 C-14.16726296 45.93578452 -14.17480964 49.78254153 -14.18154907 53.62930298 C-14.19513953 62.04468191 -14.20115838 70.46005609 -14.20555973 78.87544417 C-14.20832126 84.12946597 -14.21255849 89.38348593 -14.2170639 94.63750648 C-14.2292581 109.18221897 -14.23955673 123.72692997 -14.242939 138.27164745 C-14.24315856 139.20282714 -14.24337813 140.13400682 -14.24360435 141.09340407 C-14.24382262 142.02682472 -14.2440409 142.96024536 -14.24426579 143.92195147 C-14.24470926 145.81344616 -14.24515583 147.70494086 -14.24560547 149.59643555 C-14.24593761 151.00380854 -14.24593761 151.00380854 -14.24627647 152.43961332 C-14.25022384 167.64007719 -14.26767533 182.84049311 -14.29096499 198.04093846 C-14.31467909 213.64428521 -14.32714089 229.24760789 -14.32830691 244.85097295 C-14.32922371 253.61273866 -14.33497695 262.37444191 -14.35312653 271.13619041 C-14.36852838 278.59783777 -14.37364752 286.05940336 -14.36538842 293.52106359 C-14.36148205 297.32761302 -14.36241076 301.1339978 -14.37644577 304.94052696 C-14.39152966 309.06933148 -14.38331772 313.19776512 -14.37286377 317.32658386 C-14.38092017 318.52688348 -14.38897658 319.72718311 -14.39727712 320.96385545 C-14.35518089 331.04812607 -14.35518089 331.04812607 -9.65963864 339.7425763 C-4.46693673 344.35873763 0.13248949 345.47485481 6.93586731 345.50552368 C7.96520536 345.51421228 7.96520536 345.51421228 9.01533812 345.52307642 C11.30771812 345.54004026 13.59989635 345.54294975 15.89233398 345.54589844 C17.53837577 345.55519912 19.18441284 345.565368 20.83044434 345.57633972 C25.29487191 345.603638 29.75926794 345.61878864 34.22375703 345.63176775 C38.89096333 345.64739901 43.55810521 345.67418926 48.2252655 345.69979858 C57.0613586 345.74658642 65.89746382 345.78333053 74.73361748 345.81647146 C84.79404133 345.85469279 94.85440047 345.90410293 104.91476977 345.95445561 C125.60800837 346.05777555 146.30128793 346.14703578 166.99462891 346.22705078 C166.99462891 346.55705078 166.99462891 346.88705078 166.99462891 347.22705078 C144.72407348 347.29718324 122.45353631 347.35005974 100.1828928 347.3824873 C89.84186165 347.39794528 79.50089918 347.41901439 69.15991211 347.45336914 C60.14497215 347.48330419 51.13008193 347.50263355 42.11509365 347.50931627 C37.34329915 347.51322156 32.57164696 347.52237732 27.79989815 347.54424095 C23.30442809 347.56467095 18.80915839 347.57087144 14.31364632 347.56637383 C12.66776947 347.56719612 11.02188561 347.57312287 9.37604904 347.58466721 C-9.57388252 347.71101713 -9.57388252 347.71101713 -16.38037109 342.35986328 C-16.91662109 341.69728516 -17.45287109 341.03470703 -18.00537109 340.35205078 C-18.84068359 339.36591797 -18.84068359 339.36591797 -19.69287109 338.35986328 C-21.00537109 336.22705078 -21.00537109 336.22705078 -21.38037109 333.59423828 C-21.58662109 332.81306641 -21.79287109 332.03189453 -22.00537109 331.22705078 C-24.29645476 329.9944384 -24.29645476 329.9944384 -27.00537109 329.22705078 C-33.96842722 325.44710603 -40.73465386 321.0701792 -47.00537109 316.22705078 C-47.00537109 315.89705078 -47.00537109 315.56705078 -47.00537109 315.22705078 C-45.72662109 315.02080078 -44.44787109 314.81455078 -43.13037109 314.60205078 C-37.40694499 313.32917526 -32.71110158 310.6784392 -28.00537109 307.22705078 C-27.14433808 306.60421676 -26.28330507 305.98138273 -25.39618015 305.33967495 C-21.80245704 300.66096195 -22.32337506 296.44382834 -22.39305115 290.69459534 C-22.38751773 289.51440998 -22.38198432 288.33422461 -22.37628323 287.11827606 C-22.36587831 283.8457559 -22.37783426 280.57419229 -22.39913619 277.30175292 C-22.41662774 273.77133752 -22.40520058 270.24100416 -22.39712524 266.71057129 C-22.38691938 260.59368561 -22.39452538 254.47703113 -22.41378593 248.36017036 C-22.44127778 239.50970762 -22.4374433 230.65946867 -22.42520011 221.80898165 C-22.40580403 207.44107175 -22.40574977 193.07323558 -22.4206543 178.70532227 C-22.42154043 177.84543597 -22.42242657 176.98554967 -22.42333955 176.09960621 C-22.42697355 172.61546411 -22.43069094 169.13132211 -22.43450611 165.6471802 C-22.44496752 156.05783841 -22.45321359 146.46849568 -22.4597168 136.87915039 C-22.46030503 136.02061471 -22.46089327 135.16207902 -22.46149933 134.2775271 C-22.47077745 119.96458549 -22.46430684 105.65168795 -22.44740635 91.33875412 C-22.43781287 82.51014822 -22.44298348 73.68177896 -22.46717406 64.85319971 C-22.48291828 58.80457842 -22.48475644 52.75605801 -22.47564083 46.7074234 C-22.47091053 43.21698806 -22.47284194 39.72687781 -22.49227715 36.23648643 C-22.51005689 32.45288729 -22.50342913 28.67009119 -22.4907074 24.88648987 C-22.50187841 23.78289346 -22.51304943 22.67929705 -22.52455896 21.54225832 C-22.47422071 15.43021419 -22.09263743 11.87302624 -18.00537109 7.22705078 C-12.46059558 1.92335246 -7.63835082 -0.03335524 0 0 Z " fill="#5CC3DB" transform="translate(182.00537109375,123.77294921875)"/>
<path d="M0 0 C0.75990234 -0.020625 1.51980469 -0.04125 2.30273438 -0.0625 C6.90264536 -0.09447158 9.98643625 0.20418295 13.6875 3.25 C14.5 5.9375 14.5 5.9375 14.6875 8.25 C15.55375 8.45625 16.42 8.6625 17.3125 8.875 C21.38610557 10.53461708 24.21895054 12.58435276 26.6875 16.25 C28.8586162 22.39901747 29.08167644 28.26644932 29.34375 34.7265625 C29.81617266 39.56889474 30.52193252 42.25500337 34.25 45.4375 C35.054375 46.035625 35.85875 46.63375 36.6875 47.25 C38.17405655 50.22311309 37.80591224 53.06536712 37.875 56.375 C38.18236654 63.3599253 39.85636443 67.26224408 44.6875 72.25 C48.19333393 76.58616302 49.39482934 79.63161852 49.14453125 85.12890625 C48.38736902 88.64291556 46.51761887 90.19173173 43.6875 92.25 C36.15131342 94.64927573 27.75287097 93.61760672 20.6875 90.25 C17.4184473 87.83458717 14.45358211 85.22988556 11.6875 82.25 C11.6875 81.92 11.6875 81.59 11.6875 81.25 C12.821875 80.940625 13.95625 80.63125 15.125 80.3125 C18.47525099 79.62075469 18.47525099 79.62075469 19.6875 78.25 C20.20212142 70.36467179 18.60839695 63.27635631 16.8125 55.625 C16.54308594 54.43648437 16.27367187 53.24796875 15.99609375 52.0234375 C14.41434786 45.09362276 14.41434786 45.09362276 12.50390625 38.25 C11.70606512 35.31822014 11.44878351 32.90142883 11.5 29.875 C11.50644531 29.02164063 11.51289063 28.16828125 11.51953125 27.2890625 C11.6875 25.25 11.6875 25.25 12.6875 24.25 C12.85416667 21.25 12.85416667 21.25 12.6875 18.25 C11.62104885 16.95366379 11.62104885 16.95366379 9.125 17.1875 C8.320625 17.208125 7.51625 17.22875 6.6875 17.25 C6.6875 18.57 6.6875 19.89 6.6875 21.25 C7.3475 21.58 8.0075 21.91 8.6875 22.25 C8.6875 22.91 8.6875 23.57 8.6875 24.25 C7.6975 24.25 6.7075 24.25 5.6875 24.25 C5.56375 24.848125 5.44 25.44625 5.3125 26.0625 C4.6875 28.25 4.6875 28.25 2.6875 31.25 C3.1978201 37.29364809 4.77259171 43.15155804 6.1640625 49.04296875 C6.6415261 51.96832408 6.70316519 53.52124619 5.6875 56.25 C5.27177734 55.29287109 5.27177734 55.29287109 4.84765625 54.31640625 C4.48542969 53.49011719 4.12320312 52.66382813 3.75 51.8125 C3.39035156 50.98878906 3.03070313 50.16507813 2.66015625 49.31640625 C1.85627677 47.30589883 1.85627677 47.30589883 0.6875 46.25 C-0.65997084 46.01924918 -2.01627565 45.83846937 -3.375 45.6875 C-4.674375 45.543125 -5.97375 45.39875 -7.3125 45.25 C-7.3125 44.26 -7.3125 43.27 -7.3125 42.25 C-8.7975 41.755 -8.7975 41.755 -10.3125 41.25 C-9.26375002 38.62812506 -8.66318687 37.45628639 -6.1875 36 C-5.56875 35.7525 -4.95 35.505 -4.3125 35.25 C-4.27008277 32.91705225 -4.27157063 30.58297433 -4.3125 28.25 C-4.6425 27.92 -4.9725 27.59 -5.3125 27.25 C-5.68210994 25.80043603 -6.00909993 24.33985345 -6.3125 22.875 C-6.86131592 20.24239863 -7.45977462 17.80817615 -8.3125 15.25 C-9.6325 15.25 -10.9525 15.25 -12.3125 15.25 C-12.6425 13.93 -12.9725 12.61 -13.3125 11.25 C-18.4483421 13.12655769 -21.15692256 14.57974539 -24.3125 19.25 C-24.40037327 15.73506905 -23.80713309 13.77266897 -21.3828125 11.2109375 C-19.8210142 9.84372391 -18.23931205 8.49884695 -16.63671875 7.1796875 C-14.2733362 5.27967282 -14.2733362 5.27967282 -12.14453125 3.0703125 C-8.54867064 -0.50254687 -4.79593095 0.03205301 0 0 Z " fill="#242021" transform="translate(293.3125,4.75)"/>
<path d="M0 0 C6.73795179 5.11047728 12.46927694 10.31989985 14 19 C14.92341814 26.78093315 13.16063716 33.70939412 8.4921875 40.046875 C2.80704076 46.23443006 -3.56261334 49.1544927 -11.9375 49.5625 C-18.97754846 49.29345356 -24.61700272 47.07545207 -29.84765625 42.3203125 C-36.20651582 35.28963239 -37.57423818 29.00512165 -37.3359375 19.62890625 C-36.55377137 11.17969302 -32.56188835 7.11663991 -26.31640625 1.6640625 C-19.01715868 -3.5795791 -8.04571242 -3.72486686 0 0 Z " fill="#68DFFA" transform="translate(286,353)"/>
<path d="M0 0 C4.59212315 3.59844944 7.84044639 8.70475139 8.921875 14.45703125 C9.19231097 20.12491837 7.80682587 25.15510055 4.12109375 29.51171875 C-1.16845465 34.46232522 -5.72514049 36.51124529 -13.078125 36.39453125 C-19.25325326 35.36334478 -23.77797791 32.2040147 -27.578125 27.33203125 C-30.30588677 22.31294959 -30.78616469 18.06686209 -30.140625 12.45703125 C-28.00474775 5.61001904 -24.00285513 1.64910781 -17.828125 -1.85546875 C-11.52696873 -3.46739245 -5.7282037 -3.24216329 0 0 Z " fill="#558F9E" transform="translate(331.140625,289.54296875)"/>
<path d="M0 0 C0 0.66 0 1.32 0 2 C0.66 2 1.32 2 2 2 C6.42062061 8.07835334 7.14394339 13.57422952 6 21 C4.00036637 26.05645062 0.72483697 30.27009419 -4 33 C-10.21983301 35.23247578 -15.48948789 35.38695709 -21.734375 33.1875 C-26.65395176 30.60896322 -29.92308937 26.08420203 -32 21 C-32.72023912 14.8078143 -32.65510235 9.23898003 -29 4 C-20.90640604 -5.908087 -10.58355374 -6.15770399 0 0 Z " fill="#5992A0" transform="translate(285,291)"/>
<path d="M0 0 C4.4562132 3.13091227 7.99646046 6.61438137 9.75 11.875 C10.32060449 18.15164941 10.04610875 23.34604339 6.75 28.875 C1.85992714 33.87826899 -1.42618274 36.02809839 -8.5 36.125 C-14.55412734 36.05173773 -18.48038092 35.65118216 -22.8984375 31.22265625 C-27.89419376 25.675725 -28.66560393 21.38493084 -28.59375 13.95703125 C-28.07649128 9.31933658 -26.38845009 6.27567046 -23.25 2.875 C-16.48450106 -2.50978487 -7.7926974 -4.60477574 0 0 Z " fill="#5993A1" transform="translate(233.25,289.125)"/>
<path d="M0 0 C1.40378906 -0.02126953 1.40378906 -0.02126953 2.8359375 -0.04296875 C5.78618154 0.20081892 7.94864112 0.95637492 10.625 2.1875 C10.625 2.8475 10.625 3.5075 10.625 4.1875 C11.223125 4.39375 11.82125 4.6 12.4375 4.8125 C15.66972526 6.84418445 16.35759475 8.57539504 17.625 12.1875 C18.30870088 18.40548235 18.37412435 23.93872592 14.625 29.1875 C10.45152024 33.45803742 6.64834952 35.72501247 0.625 36.1875 C-5.8615335 35.93758102 -10.14858938 33.50078576 -14.77734375 29.046875 C-17.81715894 25.50909498 -18.24812382 22.32938558 -18.75 17.8125 C-18.13119085 11.83067818 -15.8875757 7.20898072 -11.3125 3.25 C-7.38929892 0.495412 -4.68560778 0.0320932 0 0 Z " fill="#427582" transform="translate(320.375,238.8125)"/>
<path d="M0 0 C4.75766652 2.40463405 6.58243629 5.74032441 8.80078125 10.34765625 C9.29578125 11.33765625 9.29578125 11.33765625 9.80078125 12.34765625 C10.50484164 17.9108875 9.96833327 22.64555886 7.1953125 27.5546875 C3.8474898 31.85903097 -0.50143677 33.85375604 -5.63671875 35.34765625 C-11.48153734 35.34765625 -16.35995766 33.57383031 -21.19921875 30.34765625 C-21.19921875 29.68765625 -21.19921875 29.02765625 -21.19921875 28.34765625 C-21.85921875 28.34765625 -22.51921875 28.34765625 -23.19921875 28.34765625 C-25.97600185 22.90978935 -27.0143155 18.45529902 -26.19921875 12.34765625 C-24.29104266 7.12527959 -21.16038518 3.18872929 -16.40234375 0.23046875 C-11.41214766 -1.76914883 -5.11235431 -1.51645323 0 0 Z " fill="#427582" transform="translate(232.19921875,239.65234375)"/>
<path d="M0 0 C5.25067783 2.72173365 8.03897234 6.81613577 9.87109375 12.3125 C10.65482863 18.82649317 9.65961727 23.91079873 5.87109375 29.3125 C0.50456066 34.41725098 -4.03338696 34.58144797 -11.1640625 34.546875 C-14.91480315 34.25037376 -17.03211594 33.37702687 -20.12890625 31.3125 C-20.12890625 30.6525 -20.12890625 29.9925 -20.12890625 29.3125 C-20.78890625 29.3125 -21.44890625 29.3125 -22.12890625 29.3125 C-25.4467669 23.74323391 -26.85139601 19.81490783 -26.12890625 13.3125 C-24.45275635 8.10761346 -22.33194713 4.81503407 -18.12890625 1.3125 C-12.45451874 -1.40092356 -6.04002444 -1.95054 0 0 Z " fill="#427582" transform="translate(280.12890625,239.6875)"/>
<path d="M0 0 C2.24986873 3.86066968 2.20682025 6.48172197 1.609375 10.8203125 C0.43299245 15.02814238 -2.85444709 17.1124545 -6.16796875 19.6796875 C-8.7705244 22.97588805 -8.26204381 25.17302664 -8 29.3125 C-7.7315922 36.38753677 -8.92016656 42.10742537 -10.98828125 48.9140625 C-12.54652133 54.55542942 -12.8555909 60.39135872 -13.22802734 66.21191406 C-13.57689421 70.90899025 -14.07208814 74.11198696 -17 78 C-18.32 77.67 -19.64 77.34 -21 77 C-21.03738281 76.31292969 -21.07476562 75.62585938 -21.11328125 74.91796875 C-21.17902344 74.01691406 -21.24476563 73.11585938 -21.3125 72.1875 C-21.37050781 71.29417969 -21.42851562 70.40085937 -21.48828125 69.48046875 C-21.76936864 66.93263025 -21.76936864 66.93263025 -23.58984375 65.4765625 C-24.05519531 64.98929687 -24.52054687 64.50203125 -25 64 C-24.890625 61.79296875 -24.890625 61.79296875 -24.25 59.1875 C-22.825009 52.45837584 -22.29177527 45.86689702 -22 39 C-21.96600098 38.23494141 -21.93200195 37.46988281 -21.89697266 36.68164062 C-21.40750729 24.22884653 -22.43717649 15.79387019 -29 5 C-27.37191406 5.05220703 -27.37191406 5.05220703 -25.7109375 5.10546875 C-24.26564058 5.13362388 -22.82032679 5.16092219 -21.375 5.1875 C-20.66214844 5.21263672 -19.94929688 5.23777344 -19.21484375 5.26367188 C-14.33402814 5.33083906 -11.31854842 4.48192438 -7 2 C-4.68214554 1.20029745 -2.37705934 0.61803543 0 0 Z " fill="#2F4248" transform="translate(302,124)"/>
<path d="M0 0 C2.375 -0.125 2.375 -0.125 5 0 C7 2 7 2 7.1875 5.0625 C7 8 7 8 6 9 C5.18131575 16.67591915 6.86817851 23.6447659 8.875 31 C15.20595193 54.8698092 15.20595193 54.8698092 14 62 C11.91418146 64.56716128 10.18162885 64.9381689 7.0625 66 C4 66 4 66 1.5625 64.125 C0.68883225 63.09963431 -0.16292109 62.05544732 -1 61 C-1.55816406 60.36707031 -2.11632812 59.73414063 -2.69140625 59.08203125 C-8.3024722 52.42873706 -13.12337646 44.34546543 -13.5 35.4375 C-13 32 -13 32 -11.8125 29.9375 C-10 29 -10 29 -7.5625 28.9375 C-4.01518346 30.40833856 -3.00004298 32.81097181 -1 36 C-1.30035156 34.92621094 -1.60070312 33.85242187 -1.91015625 32.74609375 C-2.29496961 31.31008291 -2.67904504 29.87387417 -3.0625 28.4375 C-3.26166016 27.73302734 -3.46082031 27.02855469 -3.66601562 26.30273438 C-5.20456801 20.44543845 -5.25780139 15.68712114 -2.625 10.0625 C-2.08875 9.381875 -1.5525 8.70125 -1 8 C-0.01 8 0.98 8 2 8 C2 7.34 2 6.68 2 6 C1.01 5.67 0.02 5.34 -1 5 C-0.67 3.35 -0.34 1.7 0 0 Z " fill="#FAB1A0" transform="translate(300,21)"/>
<path d="M0 0 C0.89110474 -0.00478363 1.78220947 -0.00956726 2.70031738 -0.01449585 C4.57968924 -0.01789022 6.4591205 -0.00872012 8.33837891 0.01220703 C11.21000198 0.03898094 14.07771679 0.01244539 16.94921875 -0.01953125 C18.77865443 -0.01622707 20.60808769 -0.00982066 22.4375 0 C23.29283325 -0.01012115 24.1481665 -0.02024231 25.02941895 -0.03067017 C29.43160785 0.05558998 31.18966093 0.24635165 34.75732422 3.06298828 C36.77726324 5.74165773 37.40180774 6.86638301 37.34375 10.1640625 C37.35664063 10.89625 37.36953125 11.6284375 37.3828125 12.3828125 C36.3441197 15.95102778 34.62410294 17.37031367 31.71875 19.6640625 C28.62276564 20.3946897 25.60756559 20.36563637 22.4375 20.328125 C21.54639526 20.33290863 20.65529053 20.33769226 19.73718262 20.34262085 C17.85781076 20.34601522 15.9783795 20.33684512 14.09912109 20.31591797 C11.22749802 20.28914406 8.35978321 20.31567961 5.48828125 20.34765625 C3.65884557 20.34435207 1.82941231 20.33794566 0 20.328125 C-0.85533325 20.33824615 -1.7106665 20.34836731 -2.59191895 20.35879517 C-6.99410785 20.27253502 -8.75216093 20.08177335 -12.31982422 17.26513672 C-14.33976324 14.58646727 -14.96430774 13.46174199 -14.90625 10.1640625 C-14.91914063 9.431875 -14.93203125 8.6996875 -14.9453125 7.9453125 C-12.71346571 0.27826236 -6.78580938 -0.08029645 0 0 Z " fill="#509EB1" transform="translate(257.28125,437.3359375)"/>
<path d="M0 0 C0.66 0 1.32 0 2 0 C6.29 9.57 10.58 19.14 15 29 C15.66 29 16.32 29 17 29 C18.35980725 27.6806635 18.35980725 27.6806635 19.71484375 25.9375 C20.23626953 25.30585937 20.75769531 24.67421875 21.29492188 24.0234375 C22.38842399 22.67638852 23.47957985 21.32743147 24.56835938 19.9765625 C25.09107422 19.34492187 25.61378906 18.71328125 26.15234375 18.0625 C26.62663818 17.47597656 27.10093262 16.88945313 27.58959961 16.28515625 C29 15 29 15 32 15 C31.51789063 15.53109375 31.03578125 16.0621875 30.5390625 16.609375 C29.90742188 17.31578125 29.27578125 18.0221875 28.625 18.75 C27.99851562 19.44609375 27.37203125 20.1421875 26.7265625 20.859375 C23.03850582 25.43189777 22.55660304 29.20490486 23 35 C23.31462436 37.00302836 23.64455332 39.00381144 24 41 C22.11157486 41.87042243 20.21388098 42.72075474 18.3125 43.5625 C17.25675781 44.03816406 16.20101562 44.51382813 15.11328125 45.00390625 C11.71701328 46.09054155 10.23168302 46.53601288 7 45 C4.00917294 39.74866412 3.00661944 34.07644756 1.875 28.1875 C1.54145053 26.49301776 1.20562362 24.79898175 0.8671875 23.10546875 C0.65231689 21.99401489 0.65231689 21.99401489 0.43310547 20.86010742 C0.05783956 18.92173684 0.05783956 18.92173684 -1 17 C-3.2079259 15.97520995 -3.2079259 15.97520995 -5.8125 15.0625 C-9.34992545 13.77188835 -12.07894387 12.38995501 -15 10 C-14.125 6.125 -14.125 6.125 -13 5 C-10.81707226 4.76518307 -8.62796826 4.58636677 -6.4375 4.4375 C-5.23996094 4.35371094 -4.04242188 4.26992188 -2.80859375 4.18359375 C-1.88175781 4.12300781 -0.95492187 4.06242187 0 4 C0 2.68 0 1.36 0 0 Z " fill="#FCB4A4" transform="translate(237,39)"/>
<path d="M0 0 C0.33 1.32 0.66 2.64 1 4 C2.65 3.67 4.3 3.34 6 3 C7.58667855 7.33692137 8.41774416 11.42513268 9 16 C9.20625 16.9075 9.4125 17.815 9.625 18.75 C10 21 10 21 9 24 C7.33729713 25.33827304 5.67083819 26.67189785 4 28 C4 28.66 4 29.32 4 30 C4.66 30.33 5.32 30.66 6 31 C6 33.1875 6 33.1875 5 36 C1.59825374 38.82207649 -1.52100274 41 -6 41 C-6 39.02 -6 37.04 -6 35 C-6.66 34.67 -7.32 34.34 -8 34 C-7.01 34 -6.02 34 -5 34 C-5.1218437 29.91884151 -5.1218437 29.91884151 -6 26 C-7.010625 25.401875 -8.02125 24.80375 -9.0625 24.1875 C-12 22 -12 22 -12.53515625 19.59765625 C-12.73478979 13.27014109 -11.71083518 8.18500259 -8 3 C-5.02583145 0.02583145 -4.38431613 0 0 0 Z " fill="#F9B1A1" transform="translate(280,16)"/>
<path d="M0 0 C2.24986873 3.86066968 2.20682025 6.48172197 1.609375 10.8203125 C0.66205487 14.20880373 -1.32262419 15.82074062 -4 18 C-7.17741004 20.91262587 -7.91174673 21.64698691 -9 26 C-12.96 26 -16.92 26 -21 26 C-21.391875 24.205625 -21.78375 22.41125 -22.1875 20.5625 C-23.61966932 14.75808298 -25.79281522 10.01994139 -29 5 C-27.37191406 5.05220703 -27.37191406 5.05220703 -25.7109375 5.10546875 C-24.26564058 5.13362388 -22.82032679 5.16092219 -21.375 5.1875 C-20.66214844 5.21263672 -19.94929688 5.23777344 -19.21484375 5.26367188 C-14.33402814 5.33083906 -11.31854842 4.48192438 -7 2 C-4.68214554 1.20029745 -2.37705934 0.61803543 0 0 Z " fill="#45808F" transform="translate(302,124)"/>
<path d="M0 0 C6.81934837 1.70483709 11.71452139 7.7974281 15.5625 13.5625 C16.036875 14.366875 16.51125 15.17125 17 16 C7.10526316 32.63157895 7.10526316 32.63157895 0 35 C0 23.45 0 11.9 0 0 Z " fill="#346E7E" transform="translate(366,420)"/>
<path d="M0 0 C3.61373677 3.18008836 5.84320268 5.56269121 6.375 10.4375 C6.189375 11.7059375 6.189375 11.7059375 6 13 C2.37 13 -1.26 13 -5 13 C-5.33 11.35 -5.66 9.7 -6 8 C-5.34 7.01 -4.68 6.02 -4 5 C-5.77174079 2.53496933 -7.11554496 1.15166648 -10.1640625 0.62890625 C-14.75074061 0.4039805 -14.75074061 0.4039805 -18.80078125 2.26953125 C-20.1838175 3.92426606 -20.1838175 3.92426606 -20.0390625 6.0078125 C-19.90242188 6.70648438 -19.76578125 7.40515625 -19.625 8.125 C-19.41875 9.40375 -19.2125 10.6825 -19 12 C-20 13 -20 13 -22.50390625 13.09765625 C-23.51324219 13.08605469 -24.52257812 13.07445312 -25.5625 13.0625 C-26.57441406 13.05347656 -27.58632813 13.04445313 -28.62890625 13.03515625 C-29.41136719 13.02355469 -30.19382813 13.01195312 -31 13 C-31.33 11.35 -31.66 9.7 -32 8 C-31.38125 7.773125 -30.7625 7.54625 -30.125 7.3125 C-27.35871763 5.60391383 -27.09758944 4.00007779 -26 1 C-20.69510294 -6.07319607 -6.53701168 -3.97347769 0 0 Z " fill="#F7FDFE" transform="translate(286,368)"/>
<path d="M0 0 C0.33 8.91 0.66 17.82 1 27 C-8.02317934 23.39072826 -16.31386206 17.93631504 -24 12 C-24 11.67 -24 11.34 -24 11 C-22.72125 10.79375 -21.4425 10.5875 -20.125 10.375 C-13.89145151 9.00401386 -7.84058924 5.88726559 -3.3359375 1.30859375 C-2 0 -2 0 0 0 Z " fill="#326979" transform="translate(159,428)"/>
<path d="M0 0 C3.59478807 3.32850747 6.22364768 6.98971331 9 11 C8.34 11 7.68 11 7 11 C6.95101563 11.96421875 6.90203125 12.9284375 6.8515625 13.921875 C6.77679688 15.18515625 6.70203125 16.4484375 6.625 17.75 C6.55539062 19.00296875 6.48578125 20.2559375 6.4140625 21.546875 C6 25 6 25 4 29 C-3.26 28.67 -10.52 28.34 -18 28 C-18 27.67 -18 27.34 -18 27 C-16.96875 27.04125 -15.9375 27.0825 -14.875 27.125 C-11.96916746 26.73598388 -11.15751531 26.19271625 -9.26953125 23.8828125 C-5.77694833 18.07046463 -3.13079711 12.44850814 -1.9375 5.75 C-1.10630631 1.10630631 -1.10630631 1.10630631 0 0 Z " fill="#488291" transform="translate(292,73)"/>
<path d="M0 0 C2.16653205 3.76447198 3.13943748 7.82288441 4.1875 12 C4.37763672 12.7115625 4.56777344 13.423125 4.76367188 14.15625 C6.39167253 20.59616401 6.39167253 20.59616401 5 24 C4.72285156 23.36191406 4.44570313 22.72382812 4.16015625 22.06640625 C3.79792969 21.24011719 3.43570312 20.41382812 3.0625 19.5625 C2.70285156 18.73878906 2.34320313 17.91507813 1.97265625 17.06640625 C1.16877677 15.05589883 1.16877677 15.05589883 0 14 C-1.34747084 13.76924918 -2.70377565 13.58846937 -4.0625 13.4375 C-5.361875 13.293125 -6.66125 13.14875 -8 13 C-8 12.01 -8 11.02 -8 10 C-8.99 9.67 -9.98 9.34 -11 9 C-9.84826645 6.53199953 -8.95216435 4.95216435 -7 3 C-4.67724823 2.59952556 -2.34260643 2.2602896 0 2 C0 1.34 0 0.68 0 0 Z " fill="#589BAB" transform="translate(294,37)"/>
<path d="M0 0 C0.33 1.65 0.66 3.3 1 5 C0.2575 5.556875 -0.485 6.11375 -1.25 6.6875 C-4.07544208 8.90826999 -4.07544208 8.90826999 -6.1875 11.75 C-6.785625 12.4925 -7.38375 13.235 -8 14 C-8.66 14 -9.32 14 -10 14 C-10.33 14.99 -10.66 15.98 -11 17 C-13.0625 17.6875 -13.0625 17.6875 -15 18 C-14.45628039 13.46900325 -13.28697545 10.16327397 -11.0625 6.1875 C-10.53785156 5.23230469 -10.01320313 4.27710938 -9.47265625 3.29296875 C-6.92032849 -0.68108005 -4.44838663 -0.09670406 0 0 Z " fill="#62B5C8" transform="translate(279,189)"/>
<path d="M0 0 C5.94 0.99 5.94 0.99 12 2 C11.67 7.94 11.34 13.88 11 20 C10.01 20 9.02 20 8 20 C7.75765625 19.14277344 7.5153125 18.28554687 7.265625 17.40234375 C5.4185725 11.10105309 3.58974195 5.512818 0 0 Z " fill="#52A4B8" transform="translate(273,129)"/>
<path d="M0 0 C0.66 0.33 1.32 0.66 2 1 C1.92002208 3.71924918 1.53223273 5.46482676 -0.4140625 7.421875 C-1.62742505 8.41608396 -2.84925257 9.40002683 -4.078125 10.375 C-7.09445724 12.92539474 -9.52453707 15.93514114 -12 19 C-13.32 18.67 -14.64 18.34 -16 18 C-15.43386644 14.03706511 -14.6397129 11.06547304 -12 8 C-9.94797037 7.56731734 -7.962459 7.43508911 -5.87109375 7.30078125 C-3.7833004 7.14832966 -3.7833004 7.14832966 -2.0625 5.125 C-0.88951457 2.90424596 -0.88951457 2.90424596 0 0 Z " fill="#68DEFA" transform="translate(246,189)"/>
<path d="M0 0 C0.625 1.8125 0.625 1.8125 1 4 C0.01 5.485 0.01 5.485 -1 7 C-1.66 7 -2.32 7 -3 7 C-3.226875 7.556875 -3.45375 8.11375 -3.6875 8.6875 C-5.43538688 11.76711022 -7.25869081 13.74603466 -10 16 C-13.8125 16.8125 -13.8125 16.8125 -17 17 C-16.27039063 16.44441406 -15.54078125 15.88882813 -14.7890625 15.31640625 C-12.02888786 13.0239923 -9.73954106 10.63112667 -7.375 7.9375 C-4.97860664 5.21804338 -2.60071532 2.52617252 0 0 Z " fill="#52A4B7" transform="translate(248,192)"/>
<path d="M0 0 C1.670625 0.061875 1.670625 0.061875 3.375 0.125 C3.02487213 2.71594622 2.63729035 4.7024211 1.25 6.9375 C-1.63368162 8.76383169 -4.30245793 8.31306842 -7.625 8.125 C-5.20681818 0.17954545 -5.20681818 0.17954545 0 0 Z " fill="#FAB3A3" transform="translate(242.625,188.875)"/>
<path d="M0 0 C1.32 0.33 2.64 0.66 4 1 C4.67076489 3.76989964 5.33676317 6.54079742 6 9.3125 C6.19078125 10.09818359 6.3815625 10.88386719 6.578125 11.69335938 C6.75859375 12.45068359 6.9390625 13.20800781 7.125 13.98828125 C7.29257812 14.68477783 7.46015625 15.38127441 7.6328125 16.09887695 C8 18 8 18 8 21 C6.68 21 5.36 21 4 21 C3.87882813 19.98679688 3.75765625 18.97359375 3.6328125 17.9296875 C3.46386217 16.5780849 3.29457331 15.22652458 3.125 13.875 C3.04636719 13.20984375 2.96773437 12.5446875 2.88671875 11.859375 C2.35611974 7.69621356 1.45813446 3.93328708 0 0 Z " fill="#5FC7E0" transform="translate(252,129)"/>
<path d="M0 0 C0.53251766 1.91345327 1.05059483 3.8309295 1.5625 5.75 C1.85253906 6.81734375 2.14257812 7.8846875 2.44140625 8.984375 C2.97098494 11.84335927 2.98370862 13.31597383 2 16 C1.58427734 15.04287109 1.58427734 15.04287109 1.16015625 14.06640625 C0.79792969 13.24011719 0.43570312 12.41382813 0.0625 11.5625 C-0.29714844 10.73878906 -0.65679687 9.91507813 -1.02734375 9.06640625 C-1.83122323 7.05589883 -1.83122323 7.05589883 -3 6 C-4.34747084 5.76924918 -5.70377565 5.58846937 -7.0625 5.4375 C-8.361875 5.293125 -9.66125 5.14875 -11 5 C-11 4.34 -11 3.68 -11 3 C-9.54293274 2.49632243 -8.08429904 1.99717444 -6.625 1.5 C-5.81289063 1.2215625 -5.00078125 0.943125 -4.1640625 0.65625 C-2 0 -2 0 0 0 Z " fill="#302929" transform="translate(297,45)"/>
<path d="M0 0 C2.375 -0.125 2.375 -0.125 5 0 C7 2 7 2 7.3125 5 C7.1578125 6.485 7.1578125 6.485 7 8 C6.01 8.66 5.02 9.32 4 10 C3.34 9.67 2.68 9.34 2 9 C2 8.01 2 7.02 2 6 C1.01 5.67 0.02 5.34 -1 5 C-0.67 3.35 -0.34 1.7 0 0 Z " fill="#5EC6DE" transform="translate(300,21)"/>
<path d="M0 0 C-0.35494045 2.62655933 -0.72461964 4.57968261 -2.1875 6.8125 C-4.79361661 8.51995571 -6.9599355 8.20267097 -10 8 C-8.2565271 1.8307882 -6.61067842 -0.35733397 0 0 Z " fill="#F7B1A1" transform="translate(278,189)"/>
<path d="M0 0 C0.33 0 0.66 0 1 0 C0.67 2.31 0.34 4.62 0 7 C-0.66 7 -1.32 7 -2 7 C-2.33 7.99 -2.66 8.98 -3 10 C-7.33333333 13 -7.33333333 13 -10 13 C-10.33 13.99 -10.66 14.98 -11 16 C-12.65 16.33 -14.3 16.66 -16 17 C-14.33333333 15.33333333 -12.66666667 13.66666667 -11 12 C-10.175 11.154375 -9.35 10.30875 -8.5 9.4375 C-6 7 -6 7 -3.25 4.875 C-0.74947545 3.12568403 -0.74947545 3.12568403 0 0 Z " fill="#4A8E9F" transform="translate(280,191)"/>
<path d="M0 0 C0.66 0.33 1.32 0.66 2 1 C1.92002208 3.71924918 1.53223273 5.46482676 -0.4140625 7.421875 C-1.62742505 8.41608396 -2.84925257 9.40002683 -4.078125 10.375 C-7.09445724 12.92539474 -9.52453707 15.93514114 -12 19 C-12.66 18.67 -13.32 18.34 -14 18 C-11.69 15.36 -9.38 12.72 -7 10 C-7.66 9.34 -8.32 8.68 -9 8 C-8.071875 7.79375 -7.14375 7.5875 -6.1875 7.375 C-2.73995905 6.25553808 -2.73995905 6.25553808 -1.125 2.875 C-0.75375 1.92625 -0.3825 0.9775 0 0 Z " fill="#67C8DF" transform="translate(246,189)"/>
<path d="M0 0 C0.598125 0.226875 1.19625 0.45375 1.8125 0.6875 C1.125 3.125 1.125 3.125 -0.1875 5.6875 C-2.8125 6.5 -2.8125 6.5 -5.1875 6.6875 C-5.1875 2.6875 -5.1875 2.6875 -3.9375 0.875 C-2.1875 -0.3125 -2.1875 -0.3125 0 0 Z " fill="#67D9F4" transform="translate(289.1875,40.3125)"/>
<path d="M0 0 C0.66 0.33 1.32 0.66 2 1 C2.625 4.0625 2.625 4.0625 3 7 C0.03 6.505 0.03 6.505 -3 6 C-2.67 4.68 -2.34 3.36 -2 2 C-1.34 2 -0.68 2 0 2 C0 1.34 0 0.68 0 0 Z M-6 7 C-5.34 7.33 -4.68 7.66 -4 8 C-5.65 9.32 -7.3 10.64 -9 12 C-9 11.01 -9 10.02 -9 9 C-8.01 8.34 -7.02 7.68 -6 7 Z " fill="#3B646F" transform="translate(280,196)"/>
<path d="M0 0 C1.98 0 3.96 0 6 0 C1.375 5.875 1.375 5.875 -2 7 C-1.42415568 4.61435923 -0.77772405 2.33317216 0 0 Z " fill="#6AC9DE" transform="translate(267,197)"/>
<path d="M0 0 C0.66 0.33 1.32 0.66 2 1 C0.625 2.5 0.625 2.5 -1 4 C-1.66 4 -2.32 4 -3 4 C-3.33 4.99 -3.66 5.98 -4 7 C-6.0625 7.6875 -6.0625 7.6875 -8 8 C-7.875 6.1875 -7.875 6.1875 -7 4 C-4 2.3125 -4 2.3125 -1 1 C-0.67 0.67 -0.34 0.34 0 0 Z " fill="#53A8BD" transform="translate(272,199)"/>
<path d="M0 0 C0.33 0 0.66 0 1 0 C1.36923077 7.50769231 1.36923077 7.50769231 -0.5 10 C-0.995 10.33 -1.49 10.66 -2 11 C-2.24042276 6.91281305 -1.42258812 3.82320557 0 0 Z " fill="#3A606A" transform="translate(307,24)"/>
<path d="M0 0 C0.33 0 0.66 0 1 0 C1.1875 2.875 1.1875 2.875 1 6 C0.01 6.66 -0.98 7.32 -2 8 C-2.66 7.34 -3.32 6.68 -4 6 C-2.69593116 3.98079663 -1.36176581 1.98075027 0 0 Z " fill="#5397A8" transform="translate(306,23)"/>
<path d="M0 0 C0.66 0 1.32 0 2 0 C2.33 1.98 2.66 3.96 3 6 C1.68 6 0.36 6 -1 6 C-0.67 4.02 -0.34 2.04 0 0 Z " fill="#63D4EE" transform="translate(257,144)"/>
</svg>
