<?xml version="1.0" encoding="UTF-8"?>
<svg version="1.1" xmlns="http://www.w3.org/2000/svg" width="500" height="500">
<path d="M0 0 C1.24652344 0.26683594 2.49304688 0.53367187 3.77734375 0.80859375 C17.98870638 4.22114081 36.8317911 10.15213977 47.57910156 20.52392578 C55.61998142 27.45041111 66.52321605 25.74414554 76.5 25.625 C79.41441679 25.60083002 82.32779716 25.58583106 85.24230957 25.59457397 C87.04665058 25.59909529 88.85117704 25.58490267 90.65515137 25.54824829 C98.3249517 25.55150088 103.9352634 27.93719652 110.25 32.1875 C115.86188729 37.92693018 119.13894748 44.50492363 119.09423828 52.55371094 C119.09158966 53.69209412 119.08894104 54.83047729 119.08621216 56.00335693 C119.08096527 57.2345929 119.07571838 58.46582886 119.0703125 59.734375 C119.07889738 62.33594419 119.08937353 64.9375077 119.1015625 67.5390625 C119.11982485 71.64511795 119.12859911 75.75042312 119.09960938 79.85644531 C119.07265439 83.81619158 119.10189231 87.77464452 119.1328125 91.734375 C119.10672409 93.56908356 119.10672409 93.56908356 119.08010864 95.44085693 C119.16270456 101.28598847 119.24654051 104.98692906 123.55419922 109.20410156 C124.19606171 109.7108844 124.83792419 110.21766724 125.49923706 110.73980713 C125.99448883 111.15567078 126.4897406 111.57153442 127 112 C127 112.66 127 113.32 127 114 C127.59296875 114.26425781 128.1859375 114.52851563 128.796875 114.80078125 C131.08029054 116.04370425 132.47426723 117.30401646 134.25 119.1875 C137.31255971 122.34109121 140.50478575 125.24687513 143.83203125 128.1171875 C146.24842951 130.2157532 148.62529024 132.354397 151 134.5 C153.93678465 137.15113994 156.88602542 139.78290171 159.875 142.375 C182.96983575 162.58298128 207.22434588 188.09526328 210.21923828 220.36206055 C210.86559621 233.65296442 208.84315287 244.66526436 204.05859375 257.03515625 C203.71054687 257.93693604 203.3625 258.83871582 203.00390625 259.76782227 C202.31897253 261.52265132 201.62082798 263.27241284 200.90625 265.01538086 C196.17374369 276.87541918 194.50185728 288.46667659 194.6875 301.1875 C194.69587891 302.45924072 194.70425781 303.73098145 194.71289062 305.04125977 C194.79990587 311.90110679 195.12731 318.63467736 196 325.4375 C199.33554498 351.71862954 199.01002191 378.32449322 182.3125 400.125 C180.90212414 401.77359673 179.46227933 403.39726159 178 405 C177.11441406 405.97839844 176.22882813 406.95679688 175.31640625 407.96484375 C167.93920697 415.84240309 159.6848711 422.15756445 150 427 C151.46759766 427.45439453 151.46759766 427.45439453 152.96484375 427.91796875 C172.8038231 434.1992995 172.8038231 434.1992995 177 441 C176.6875 443.75 176.6875 443.75 176 446 C170.04136817 448.168456 164.27597536 449.67977941 158 450.5625 C157.14535156 450.68544434 156.29070312 450.80838867 155.41015625 450.93505859 C139.94697896 453.05653109 124.37949593 453.99239954 108.7890625 454.51953125 C106.96382553 454.58236549 106.96382553 454.58236549 105.10171509 454.64646912 C92.86112997 455.05610925 80.6206595 455.35739175 68.375 455.5625 C66.51862915 455.59376984 66.51862915 455.59376984 64.62475586 455.62567139 C-6.44018987 456.76300006 -77.58627539 456.5086474 -148.64544678 455.06640625 C-151.90240121 455.00193205 -155.1594013 454.94316352 -158.41650391 454.88671875 C-163.1228242 454.80501188 -167.82886261 454.71466691 -172.53482056 454.61422729 C-174.12345708 454.58089265 -175.71214162 454.54973916 -177.3008728 454.52127075 C-205.92087173 453.98841217 -205.92087173 453.98841217 -216.83203125 445.58984375 C-218 444 -218 444 -217.86328125 441.99609375 C-215.55793241 436.66562653 -210.07720015 433.80512299 -205 431.5 C-197.90189766 428.70049399 -190.50424354 426.93449441 -183.09765625 425.14257812 C-178.02461408 423.89650787 -173.54230426 422.60220142 -169 420 C-169 418.02 -169 416.04 -169 414 C-165.7 412.35 -162.4 410.7 -159 409 C-164.45591054 404.33767644 -169.96020307 400.82188934 -176.3125 397.5625 C-208.6799674 380.89123022 -238.59511007 353.98129182 -250.46875 318.76953125 C-254.14085969 307.25127783 -256.86928606 295.15110725 -256 283 C-255.92007813 281.83082031 -255.84015625 280.66164063 -255.7578125 279.45703125 C-254.45501724 264.47395647 -248.50669131 251.65811808 -242.15991211 238.17675781 C-236.50625198 226.00577034 -233.08843916 213.38643071 -237.6875 200.1875 C-238.42491534 198.44381998 -239.19490207 196.71348146 -240 195 C-240.350625 194.21753906 -240.70125 193.43507812 -241.0625 192.62890625 C-243.53668988 187.39702557 -246.48868292 182.49510655 -249.5 177.5625 C-253.15592431 171.57235076 -256.4177089 165.54387824 -259 159 C-259.36480469 158.10539063 -259.72960937 157.21078125 -260.10546875 156.2890625 C-264.09539423 141.6186815 -260.57975979 126.03733656 -253.5 113 C-236.72649961 84.03856048 -202.42930912 69.84851862 -172 60 C-171.34 60 -170.68 60 -170 60 C-170.03480469 59.154375 -170.06960937 58.30875 -170.10546875 57.4375 C-170.35619321 46.9309513 -169.19105161 40.56248996 -161.97265625 32.76171875 C-157.19411766 28.4941526 -151.15559522 25.84847785 -144.73486328 25.92163086 C-143.87611603 25.92750717 -143.01736877 25.93338348 -142.13259888 25.93943787 C-141.20454437 25.94782181 -140.27648987 25.95620575 -139.3203125 25.96484375 C-137.33853649 25.96112651 -135.35676364 25.95519316 -133.375 25.94726562 C-130.2631721 25.93677248 -127.15362346 25.93714413 -124.04199219 25.97583008 C-110.55789312 26.12586928 -101.85845474 25.5882189 -91 17 C-89.59201925 16.12435295 -88.16809906 15.2732568 -86.72265625 14.4609375 C-86.11470215 14.11119873 -85.50674805 13.76145996 -84.88037109 13.40112305 C-57.68468675 -1.94986558 -30.58651467 -6.78469877 0 0 Z " fill="#68DDFD" transform="translate(279,15)"/>
<path d="M0 0 C0.86756983 -0.00367669 1.73513965 -0.00735338 2.62899947 -0.01114148 C5.54147031 -0.02217083 8.45390545 -0.02602088 11.36639404 -0.02983093 C13.45250054 -0.03609609 15.53860592 -0.04274294 17.62471008 -0.04974365 C24.47967757 -0.0707781 31.33464526 -0.08114463 38.18963623 -0.09111023 C40.54951743 -0.09515784 42.90939852 -0.09927477 45.26927948 -0.10346031 C56.35485883 -0.12250965 67.44043153 -0.13674192 78.5260241 -0.14507228 C91.32349676 -0.15484784 104.12079661 -0.1811769 116.91820836 -0.22157317 C126.80962879 -0.25172541 136.70099966 -0.26654027 146.59246516 -0.26985329 C152.50045485 -0.27220455 158.40825985 -0.2811753 164.31620026 -0.30631447 C169.87466224 -0.32958477 175.43281779 -0.33383246 180.99131584 -0.32355309 C183.02946682 -0.32305738 185.06763283 -0.32938786 187.10573769 -0.34310913 C189.89255433 -0.36081879 192.6782701 -0.35372639 195.46508789 -0.34057617 C196.66919906 -0.35703004 196.66919906 -0.35703004 197.8976357 -0.37381631 C204.51783126 -0.29861732 209.62187555 1.73377883 214.69354248 6.00654602 C215.22334717 6.63045227 215.75315186 7.25435852 216.29901123 7.89717102 C216.84170654 8.51076477 217.38440186 9.12435852 217.94354248 9.75654602 C221.76505125 15.67746593 222.93270433 21.35539622 222.8270874 28.30732727 C222.82752548 29.07902756 222.82796356 29.85072784 222.82841492 30.64581299 C222.82634407 33.16736684 222.80309501 35.688235 222.77947998 38.20967102 C222.77387794 39.96943295 222.76961071 41.72919959 222.76661682 43.4889679 C222.75521591 48.09874104 222.72579015 52.70822622 222.69250488 57.31788635 C222.66170101 62.03047288 222.64808952 66.74310637 222.63299561 71.45576477 C222.60091548 80.68635936 222.54977724 89.91674115 222.48651123 99.14717102 C220.83651123 99.47717102 219.18651123 99.80717102 217.48651123 100.14717102 C218.14651123 98.49717102 218.80651123 96.84717102 219.48651123 95.14717102 C218.00151123 95.64217102 218.00151123 95.64217102 216.48651123 96.14717102 C215.82651123 96.14717102 215.16651123 96.14717102 214.48651123 96.14717102 C213.82651123 97.13717102 213.16651123 98.12717102 212.48651123 99.14717102 C211.16651123 98.81717102 209.84651123 98.48717102 208.48651123 98.14717102 C208.19776123 99.30217102 207.90901123 100.45717102 207.61151123 101.64717102 C204.06256442 112.36193389 196.42802523 122.37894282 189.48651123 131.14717102 C185.32646736 127.47654408 182.80443276 123.51616974 180.04510498 118.72138977 C178.11589339 115.53504782 175.91103825 112.64760484 173.58807373 109.74092102 C172.48651123 108.14717102 172.48651123 108.14717102 172.48651123 106.14717102 C167.94480127 108.05601794 167.94480127 108.05601794 163.48651123 110.14717102 C162.43463623 109.81717102 161.38276123 109.48717102 160.29901123 109.14717102 C155.03743976 107.7670867 151.48114939 108.083364 146.67401123 110.64717102 C143.99580951 113.70797298 143.62959091 116.02259136 142.95526123 119.95185852 C142.35740175 122.75183374 141.13356765 124.8263188 139.48651123 127.14717102 C135.92501804 125.96000663 135.38156367 124.70665271 133.66424561 121.50508118 C131.08019822 116.33162975 128.65126414 111.08878053 126.23651123 105.83467102 C125.68221436 104.64293274 125.12791748 103.45119446 124.55682373 102.2233429 C124.03346436 101.08832336 123.51010498 99.95330383 122.97088623 98.78388977 C122.49361084 97.74965881 122.01633545 96.71542786 121.52459717 95.64985657 C120.48651123 93.14717102 120.48651123 93.14717102 120.48651123 91.14717102 C119.86776123 91.64217102 119.24901123 92.13717102 118.61151123 92.64717102 C116.48651123 94.14717102 116.48651123 94.14717102 114.48651123 94.14717102 C114.15651123 93.15717102 113.82651123 92.16717102 113.48651123 91.14717102 C112.82651123 92.13717102 112.16651123 93.12717102 111.48651123 94.14717102 C110.16651123 92.49717102 108.84651123 90.84717102 107.48651123 89.14717102 C108.47651123 92.61217102 108.47651123 92.61217102 109.48651123 96.14717102 C106.51651123 94.16717102 106.51651123 94.16717102 103.48651123 92.14717102 C104.80651123 94.12717102 106.12651123 96.10717102 107.48651123 98.14717102 C106.49651123 98.64217102 106.49651123 98.64217102 105.48651123 99.14717102 C105.93381592 99.52744446 106.38112061 99.9077179 106.84197998 100.29951477 C112.19746082 105.51796838 113.96732676 110.81556039 115.71185303 117.8910675 C116.97564254 122.9214905 118.83954137 126.68634134 121.48651123 131.14717102 C122.49822998 133.94795227 122.49822998 133.94795227 123.17401123 136.45967102 C124.10520743 139.88976359 124.10520743 139.88976359 125.48651123 143.14717102 C124.82651123 143.14717102 124.16651123 143.14717102 123.48651123 143.14717102 C124.22707764 144.7017804 124.22707764 144.7017804 124.98260498 146.28779602 C125.62992995 147.65749812 126.27705489 149.02729477 126.92401123 150.39717102 C127.24949951 151.07908508 127.57498779 151.76099915 127.91033936 152.46357727 C128.22293701 153.12744446 128.53553467 153.79131165 128.85760498 154.47529602 C129.14562988 155.08276672 129.43365479 155.69023743 129.73040771 156.31611633 C131.30142207 160.12063932 131.61444868 163.47848796 131.61932373 167.58467102 C131.62061279 168.64556946 131.62190186 169.7064679 131.62322998 170.79951477 C131.61936279 171.90424133 131.61549561 173.0089679 131.61151123 174.14717102 C131.61537842 175.22096008 131.61924561 176.29474915 131.62322998 177.40107727 C131.61445113 184.69630314 131.20424808 191.88805576 130.48651123 199.14717102 C129.35213623 199.45654602 128.21776123 199.76592102 127.04901123 200.08467102 C123.69876024 200.77641633 123.69876024 200.77641633 122.48651123 202.14717102 C123.44714981 201.82185394 124.40778839 201.49653687 125.39753723 201.16136169 C129.91686904 199.87866858 134.23971104 199.88078721 138.91009521 199.92012024 C139.82795303 199.91982819 140.74581085 199.91953613 141.69148254 199.91923523 C144.70528841 199.92062119 147.71884265 199.93614778 150.73260498 199.95185852 C152.83010218 199.95559126 154.92760114 199.958437 157.02510071 199.96043396 C162.53078065 199.96804987 168.03635414 199.98768081 173.54199219 200.00984192 C179.16606201 200.03034438 184.79014913 200.03944508 190.41424561 200.04951477 C201.43838077 200.07092863 212.46243713 200.10503989 223.48651123 200.14717102 C223.42591762 217.35016604 223.34837609 234.55299061 223.25079632 251.7558136 C223.20587858 259.74383727 223.1664547 267.73181675 223.14007568 275.71992493 C223.11706295 282.68439384 223.0836285 289.64872245 223.03780967 296.61308002 C223.01392143 300.29883195 222.99516393 303.98444532 222.98889732 307.67027283 C222.98169673 311.79037681 222.95122381 315.91000011 222.91888428 320.02998352 C222.92031937 321.24486954 222.92175446 322.45975555 222.92323303 323.7114563 C222.8175528 333.23655533 221.0150345 340.91981991 214.48651123 348.14717102 C208.07188425 353.09177932 202.8952367 354.44539892 194.89073181 354.41459656 C194.02639111 354.41912767 193.16205042 354.42365878 192.27151757 354.4283272 C189.37592397 354.44098507 186.48051811 354.43934993 183.5848999 354.43769836 C181.50849668 354.44368276 179.43209569 354.4504881 177.35569763 354.45805359 C171.7151287 354.47573017 166.07462043 354.48040968 160.43402648 354.48168516 C155.72482611 354.48358424 151.01563987 354.49094191 146.30644494 354.49802935 C135.19515442 354.51431734 124.08389631 354.51919794 112.97259521 354.51777649 C101.51242025 354.51657504 90.05243362 354.53767665 78.59230632 354.56926382 C68.7518132 354.59541988 58.91138162 354.60614406 49.07085401 354.60486567 C43.19418902 354.60435583 37.31769137 354.61005149 31.44106102 354.63122177 C25.91293942 354.65059262 20.38514497 354.6507363 14.8570118 354.63618851 C12.83015337 354.63409787 10.80327454 354.63881643 8.77645111 354.65090942 C6.00499778 354.66637181 3.23467108 354.65704716 0.46324158 354.64164734 C-0.33492613 354.65193447 -1.13309384 354.66222159 -1.95544845 354.67282045 C-8.7261554 354.58993459 -13.80782467 352.43195404 -18.97442627 348.06904602 C-19.60606689 347.35232727 -20.23770752 346.63560852 -20.88848877 345.89717102 C-21.53559814 345.19076477 -22.18270752 344.48435852 -22.84942627 343.75654602 C-27.52736847 336.42118126 -26.7581998 328.0269434 -26.63848877 319.64717102 C-26.62946533 318.44318665 -26.62044189 317.23920227 -26.61114502 315.99873352 C-26.58772652 313.04800312 -26.5549287 310.09769413 -26.51348877 307.14717102 C-27.28950439 307.16811829 -28.06552002 307.18906555 -28.86505127 307.21064758 C-32.41439625 307.29429861 -35.96353312 307.34598731 -39.51348877 307.39717102 C-40.73423096 307.43068665 -41.95497314 307.46420227 -43.21270752 307.49873352 C-50.97153698 307.58261276 -57.05060884 307.31252562 -62.98931885 301.76972961 C-69.7035301 294.24736033 -70.01651055 287.0320746 -69.95953369 277.46211243 C-69.95103707 275.28455082 -69.9797987 273.1096295 -70.01153564 270.93232727 C-70.05717866 262.16748429 -69.46523635 255.91251369 -63.65411377 248.90498352 C-63.03020752 248.3661554 -62.40630127 247.82732727 -61.76348877 247.27217102 C-61.14989502 246.71787415 -60.53630127 246.16357727 -59.90411377 245.59248352 C-50.1564061 239.69926156 -36.85227799 242.14717102 -26.51348877 242.14717102 C-26.51348877 197.92717102 -26.51348877 153.70717102 -26.51348877 108.14717102 C-33.44348877 108.14717102 -40.37348877 108.14717102 -47.51348877 108.14717102 C-51.99960935 108.05605794 -56.46953932 107.94734168 -60.95098877 107.77217102 C-61.99835205 107.74123352 -63.04571533 107.71029602 -64.12481689 107.67842102 C-71.41209376 107.4004575 -77.1194928 106.84538398 -82.76348877 101.83467102 C-83.42864502 101.26103821 -84.09380127 100.6874054 -84.77911377 100.09638977 C-89.77495442 94.48169498 -88.88577714 87.36297816 -88.88409424 80.28218079 C-88.8884695 78.21876064 -88.92483548 76.15747934 -88.96270752 74.09443665 C-88.96657471 72.78281555 -88.97044189 71.47119446 -88.97442627 70.11982727 C-88.98264404 68.92623596 -88.99086182 67.73264465 -88.99932861 66.50288391 C-88.25376646 61.35325989 -85.4853545 57.5514053 -81.45098877 54.33467102 C-77.94383556 51.72296118 -75.60996508 51.02157946 -71.3563385 51.0269165 C-70.0880294 51.02485451 -70.0880294 51.02485451 -68.7940979 51.02275085 C-67.86980988 51.02634613 -66.94552185 51.02994141 -65.9932251 51.03364563 C-64.52953239 51.03342659 -64.52953239 51.03342659 -63.03627014 51.03320312 C-59.80599761 51.03390064 -56.5757825 51.04168557 -53.34552002 51.04951477 C-51.10778332 51.05137952 -48.87004621 51.05280315 -46.63230896 51.05380249 C-40.73862585 51.05762318 -34.84496733 51.06744967 -28.95129395 51.07850647 C-22.93882581 51.08873021 -16.92635371 51.09330218 -10.91387939 51.0983429 C0.88626163 51.10907231 12.68638438 51.12614339 24.48651123 51.14717102 C23.54059464 52.75588807 22.59058578 54.36219936 21.63885498 55.96748352 C21.11025879 56.86225403 20.5816626 57.75702454 20.03704834 58.6789093 C18.48651123 61.14717102 18.48651123 61.14717102 16.04901123 64.02217102 C14.20961439 66.02243513 14.20961439 66.02243513 14.73651123 68.45967102 C15.10776123 69.29498352 15.10776123 69.29498352 15.48651123 70.14717102 C16.06401123 69.89967102 16.64151123 69.65217102 17.23651123 69.39717102 C19.48651123 69.14717102 19.48651123 69.14717102 21.79901123 70.52217102 C23.92677375 73.83202383 23.27575803 75.67846632 22.77288818 79.44599915 C22.23498121 84.51965881 22.38407695 89.61344253 22.42401123 94.70967102 C22.42852295 95.81375305 22.43303467 96.91783508 22.43768311 98.05537415 C22.44935968 100.7526636 22.46729095 103.44992477 22.48651123 106.14717102 C27.10651123 106.14717102 31.72651123 106.14717102 36.48651123 106.14717102 C36.98151123 104.66217102 36.98151123 104.66217102 37.48651123 103.14717102 C37.48651123 104.13717102 37.48651123 105.12717102 37.48651123 106.14717102 C40.45651123 106.14717102 43.42651123 106.14717102 46.48651123 106.14717102 C46.56127686 105.29638977 46.63604248 104.44560852 46.71307373 103.56904602 C47.93460764 92.31177271 50.99512722 81.89557571 54.48651123 71.14717102 C55.23158936 71.30830383 55.97666748 71.46943665 56.74432373 71.63545227 C63.17670096 72.83579617 68.38057935 72.18248165 74.48651123 70.14717102 C74.48651123 66.18717102 74.48651123 62.22717102 74.48651123 58.14717102 C75.66213623 57.61092102 76.83776123 57.07467102 78.04901123 56.52217102 C84.75839697 53.12591559 89.69606242 49.13011968 92.84197998 42.18232727 C93.83681568 39.04105819 93.75907484 36.41793428 93.48651123 33.14717102 C94.80651123 33.14717102 96.12651123 33.14717102 97.48651123 33.14717102 C97.81651123 31.49717102 98.14651123 29.84717102 98.48651123 28.14717102 C97.76463623 28.64217102 97.04276123 29.13717102 96.29901123 29.64717102 C93.33802464 31.22636387 91.77398094 31.42895414 88.48651123 31.14717102 C88.54838623 32.34342102 88.61026123 33.53967102 88.67401123 34.77217102 C88.65929269 38.93751806 87.81546157 41.61359119 85.48651123 45.14717102 C80.24287881 50.24908365 74.57457453 51.29660342 67.48651123 52.14717102 C68.31151123 52.74529602 69.13651123 53.34342102 69.98651123 53.95967102 C70.81151123 54.68154602 71.63651123 55.40342102 72.48651123 56.14717102 C72.48651123 57.13717102 72.48651123 58.12717102 72.48651123 59.14717102 C62.17406568 59.81850563 57.40072733 57.86226347 49.48651123 51.14717102 C49.54901123 48.83467102 49.54901123 48.83467102 50.48651123 46.14717102 C51.60026123 45.67279602 52.71401123 45.19842102 53.86151123 44.70967102 C57.59041403 43.48575371 57.59041403 43.48575371 59.23651123 40.58467102 C60.84674743 36.15652147 62.22194672 31.68525361 63.48651123 27.14717102 C64.47651123 27.14717102 65.46651123 27.14717102 66.48651123 27.14717102 C65.82615076 22.62320899 65.01533026 18.98304626 62.54901123 15.08467102 C56.90918141 11.51661542 50.32653292 12.61979142 43.98651123 13.89717102 C40.07685423 15.29347709 39.49306002 15.66011462 37.48651123 19.14717102 C36.43475558 22.25082265 35.64289656 25.403661 34.86151123 28.58467102 C34.64494873 29.43094055 34.42838623 30.27721008 34.20526123 31.14912415 C33.19428241 35.13375365 32.28504369 39.11431869 31.48651123 43.14717102 C23.95102691 44.76400055 16.82790294 45.42428309 9.13104248 45.34248352 C8.10339279 45.33965363 7.0757431 45.33682373 6.01695251 45.33390808 C2.77751352 45.32283202 -0.46163523 45.29775185 -3.70098877 45.27217102 C-5.91517745 45.26212494 -8.12937052 45.25300196 -10.34356689 45.24482727 C-15.73363765 45.22293411 -21.12354246 45.18958466 -26.51348877 45.14717102 C-26.60104549 40.79313237 -26.65406846 36.43932225 -26.70098877 32.08467102 C-26.72612549 30.85554993 -26.75126221 29.62642883 -26.77716064 28.36006165 C-26.85809618 18.35103397 -25.6238716 12.58826934 -18.51348877 5.14717102 C-12.24671843 0.41511995 -7.68071012 -0.00174461 0 0 Z " fill="#9AEAFC" transform="translate(156.51348876953125,61.85282897949219)"/>
<path d="M0 0 C2.56447537 0.13372848 5.12914144 0.26309678 7.69388962 0.3914814 C14.08004393 0.71194886 20.4658648 1.0388456 26.85163498 1.36686897 C58.36317007 2.9848747 89.88412709 4.52597995 121.44672775 4.41478157 C122.24090103 4.413563 123.03507431 4.41234444 123.85331345 4.41108894 C148.64518935 4.49870036 148.64518935 4.49870036 173.34516525 2.77415657 C179.99200683 2.06653588 186.64283747 2.02785368 193.32172775 1.97728157 C195.26595627 1.93377571 195.26595627 1.93377571 197.24946213 1.88939095 C198.4966301 1.88101204 199.74379807 1.87263313 201.028759 1.86400032 C202.15386887 1.8494178 203.27897873 1.83483528 204.43818283 1.81981087 C208.19494248 2.39471844 209.8351801 3.63852409 212.50922775 6.28978157 C213.3646965 8.79759407 213.3646965 8.79759407 213.69672775 11.41478157 C214.11540348 15.30555043 214.11540348 15.30555043 216.50922775 18.28978157 C218.63483621 18.6873707 218.63483621 18.6873707 221.09516525 18.78196907 C222.48312302 18.87635262 222.48312302 18.87635262 223.89912033 18.9726429 C224.88420578 19.03604866 225.86929123 19.09945442 226.88422775 19.16478157 C238.58215285 20.0799927 252.96897862 21.93923608 261.27485275 31.27415657 C262.50922775 33.28978157 262.50922775 33.28978157 262.19672775 36.03978157 C261.85641525 37.15353157 261.85641525 37.15353157 261.50922775 38.28978157 C255.55059592 40.45823757 249.78520311 41.96956098 243.50922775 42.85228157 C242.65457932 42.97522591 241.79993088 43.09817024 240.919384 43.22484016 C225.45620671 45.34631266 209.88872368 46.28218111 194.29829025 46.80931282 C192.47305328 46.87214706 192.47305328 46.87214706 190.61094284 46.93625069 C178.37035772 47.34589082 166.12988725 47.64717332 153.88422775 47.85228157 C152.64664719 47.87312813 151.40906662 47.89397469 150.13398361 47.91545296 C79.06903789 49.05278163 7.92295236 48.79842897 -63.13621902 47.35618782 C-66.39317346 47.29171362 -69.65017355 47.23294509 -72.90727615 47.17650032 C-77.61359644 47.09479345 -82.31963486 47.00444848 -87.0255928 46.90400887 C-88.61422933 46.87067422 -90.20291387 46.83952073 -91.79164505 46.81105232 C-120.41164397 46.27819374 -120.41164397 46.27819374 -131.3228035 37.87962532 C-132.49077225 36.28978157 -132.49077225 36.28978157 -132.3540535 34.28587532 C-130.04870466 28.9554081 -124.5679724 26.09490456 -119.49077225 23.78978157 C-112.39266991 20.99027556 -104.99501579 19.22427598 -97.5884285 17.4323597 C-92.51538633 16.18628945 -88.03307651 14.891983 -83.49077225 12.28978157 C-83.49077225 10.30978157 -83.49077225 8.32978157 -83.49077225 6.28978157 C-74.77206898 0.70981148 -65.87699561 1.68766609 -55.92827225 3.03978157 C-49.22778521 3.71342303 -42.99403907 2.25779072 -36.49052811 0.76341438 C-24.50481028 -1.87644025 -12.16728894 -0.63524327 0 0 Z " fill="#357182" transform="translate(193.49077224731445,422.71021842956543)"/>
<path d="M0 0 C1.65 1.65 3.3 3.3 5 5 C5.66 4.01 6.32 3.02 7 2 C7.33 3.32 7.66 4.64 8 6 C8.928125 5.2575 8.928125 5.2575 9.875 4.5 C12 3 12 3 14 3 C15.56420096 6.27002245 17.12600828 9.54118309 18.6875 12.8125 C19.14721191 13.77341553 19.60692383 14.73433105 20.08056641 15.72436523 C22.79657633 21.41700255 25.43895878 27.1193933 27.8671875 32.94140625 C29.22691774 35.41236431 30.93628284 37.09602664 33 39 C34.0656146 36.64042481 34.93739222 34.44813988 35.296875 31.875 C35.9522665 27.25605036 36.90111379 24.47524535 40.5 21.375 C44.70035858 18.58755911 47.93465869 18.67054814 52.80078125 19.47265625 C55 20 55 20 58 21 C59.33849671 20.00692179 60.67151309 19.00642948 62 18 C63.32 18 64.64 18 66 18 C67.67578125 19.765625 67.67578125 19.765625 69.3125 22.25 C69.91191406 23.15234375 70.51132812 24.0546875 71.12890625 24.984375 C73.68207229 29.09928979 76.08322941 33.29108883 78.421875 37.53125 C79.91733299 40.23543323 79.91733299 40.23543323 83 42 C90.23067893 31.7485041 97.20941442 21.66648488 102 10 C103.98 10.495 103.98 10.495 106 11 C106.66 9.68 107.32 8.36 108 7 C109.66666667 7 111.33333333 7 113 7 C113 7.99 113 8.98 113 10 C113.66 10 114.32 10 115 10 C114.87698154 16.15092313 114.87698154 16.15092313 112.61889648 18.3371582 C112.04212158 18.75827881 111.46534668 19.17939941 110.87109375 19.61328125 C106.22371307 23.39937816 103.32265898 28.0464587 100.125 33.0625 C98.89649901 34.94444513 97.66733326 36.82595648 96.4375 38.70703125 C95.84839844 39.61533691 95.25929688 40.52364258 94.65234375 41.45947266 C80.22944997 63.63509804 80.22944997 63.63509804 71 69 C68.61753391 71.6289281 68 72.38834178 68 76 C67.34 76 66.68 76 66 76 C65.94465088 76.71542969 65.88930176 77.43085938 65.83227539 78.16796875 C65.57761219 81.44546561 65.320078 84.72273098 65.0625 88 C64.93198242 89.68802734 64.93198242 89.68802734 64.79882812 91.41015625 C64.66831055 93.06337891 64.66831055 93.06337891 64.53515625 94.75 C64.456604 95.75546875 64.37805176 96.7609375 64.29711914 97.796875 C63.94945126 101.54494614 63.47313346 105.26567823 63 109 C75.24847776 108.96191289 87.49665056 108.90250671 99.74488831 108.81609726 C105.43263887 108.77663635 111.12023494 108.74444091 116.80810547 108.72900391 C122.30017216 108.71382844 127.79181406 108.67936643 133.28369141 108.63169098 C135.37593894 108.61688648 137.46824713 108.60895952 139.56054688 108.60811615 C142.49785322 108.605742 145.43398988 108.57862556 148.37109375 108.54589844 C149.2306517 108.5509288 150.09020966 108.55595917 150.97581482 108.56114197 C156.69420238 108.46296262 161.27518898 107.34804569 166 104 C167.67503129 102.06943071 168.76581498 100.26267253 170 98 C170.33 98.99 170.66 99.98 171 101 C169.78258021 102.46815389 168.55051239 103.92416847 167.3125 105.375 C166.62800781 106.18710937 165.94351562 106.99921875 165.23828125 107.8359375 C161.39559799 111.55120195 157.71752419 112.25382709 152.48046875 112.1953125 C151.45888672 112.18886719 150.43730469 112.18242187 149.38476562 112.17578125 C147.80211914 112.15064453 147.80211914 112.15064453 146.1875 112.125 C145.11306641 112.11597656 144.03863281 112.10695313 142.93164062 112.09765625 C140.28753146 112.07415306 137.64388128 112.04129575 135 112 C135.00368717 112.73807325 135.00737434 113.47614651 135.01117325 114.23658562 C135.09964251 132.22395961 135.16576702 150.21128997 135.20724869 168.19883537 C135.22784389 176.89761053 135.25590605 185.59624015 135.30175781 194.29492188 C135.34171903 201.8797278 135.36745492 209.46442828 135.37635398 217.04933655 C135.38155308 221.06278742 135.39370872 225.07593673 135.42292023 229.08929062 C135.4502365 232.87320977 135.45841264 236.65670549 135.45243073 240.44071388 C135.45404172 242.47850087 135.47547913 244.51624262 135.49768066 246.5539093 C135.45664633 255.76127059 134.42704712 263.82834665 127.75 270.625 C126.8425 271.40875 125.935 272.1925 125 273 C128.63 273.33 132.26 273.66 136 274 C136 274.33 136 274.66 136 275 C135.23445801 275.02505615 134.46891602 275.0501123 133.68017578 275.07592773 C130.16166069 275.19303454 126.64333945 275.31523405 123.125 275.4375 C121.92101562 275.47681641 120.71703125 275.51613281 119.4765625 275.55664062 C113.44313869 275.76977788 107.47833912 276.10807314 101.47753906 276.76147461 C46.27310383 282.07628868 -10.62184438 276.98580233 -65.82519531 273.96557617 C-67.01426987 273.90155106 -68.20334442 273.83752594 -69.42845154 273.77156067 C-71.62333582 273.65294595 -73.81806882 273.53147483 -76.0125885 273.40629578 C-86.94738921 272.81661152 -97.20419089 272.49772962 -107.875 275.125 C-115.81183546 276.83144522 -123.21439305 277.27628708 -131.3125 276.6875 C-132.26044434 276.6354541 -133.20838867 276.5834082 -134.18505859 276.52978516 C-140.17070228 275.94433738 -144.06601341 274.39971846 -148.32983398 270.0847168 C-155.85737915 260.68876472 -154.46780147 249.27053703 -154.25 237.875 C-154.22990356 236.04168618 -154.21165835 234.20835109 -154.1953125 232.375 C-154.15499337 227.91570447 -154.07666599 223.45940504 -154 219 C-147.07 219 -140.14 219 -133 219 C-132.95101562 220.7840625 -132.90203125 222.568125 -132.8515625 224.40625 C-132.7764959 226.7708478 -132.70094977 229.13543041 -132.625 231.5 C-132.57859375 233.25957031 -132.57859375 233.25957031 -132.53125 235.0546875 C-132.27902992 247.38487517 -132.27902992 247.38487517 -126.3125 257.8125 C-125.66925781 258.54082031 -125.02601563 259.26914062 -124.36328125 260.01953125 C-118.70543289 264.7609017 -113.26699655 265.44110839 -106.16371155 265.38768005 C-105.297662 265.39306559 -104.43161245 265.39845113 -103.53931898 265.40399987 C-100.64984558 265.41825803 -97.76083169 265.41118101 -94.87133789 265.40405273 C-92.79463839 265.4097574 -90.71794203 265.41672204 -88.64125061 265.42485046 C-83.00903094 265.44278591 -77.37696703 265.44161276 -71.74472737 265.43590808 C-67.04039242 265.43281689 -62.33608741 265.43890789 -57.63175672 265.44494683 C-46.53288082 265.45899163 -35.43408188 265.45743102 -24.33520508 265.44604492 C-12.88974763 265.43456266 -1.44452446 265.44864142 10.00090212 265.4754414 C19.83295082 265.49760056 29.66492599 265.5042353 39.49699789 265.49836498 C45.36691591 265.49499488 51.23668374 265.49741426 57.10658073 265.51461601 C62.62653614 265.53008645 68.1461445 265.52612822 73.6660862 265.50731087 C75.68971567 265.50362535 77.71337085 265.50673235 79.73697662 265.51719666 C82.50395943 265.53041062 85.26979402 265.51885545 88.03672791 265.50120544 C88.83353137 265.51081045 89.63033484 265.52041546 90.45128387 265.53031152 C97.47443307 265.43841975 102.57700894 263.15376984 107.8125 258.5 C108.8953125 257.2625 108.8953125 257.2625 110 256 C110.556875 255.38125 111.11375 254.7625 111.6875 254.125 C115.85989628 247.36969174 115.30514614 239.757343 115.31884766 232.08813477 C115.32889328 230.79964127 115.3389389 229.51114777 115.34928894 228.18360901 C115.37648162 224.66761922 115.3917063 221.15166926 115.40471697 217.63560224 C115.42039473 213.95468938 115.44717004 210.27385729 115.4727478 206.59300232 C115.51945361 199.63048676 115.55623727 192.66795587 115.58942068 185.70536417 C115.62770015 177.77543571 115.67709497 169.84558853 115.72740483 161.91572869 C115.83060268 145.61054425 115.9199024 129.30531463 116 113 C104.02977994 112.93036255 92.05960841 112.87711892 80.08922672 112.84456348 C74.53035874 112.82893525 68.97162978 112.80774886 63.4128418 112.77368164 C58.04415465 112.74098691 52.67560088 112.72312562 47.30682182 112.71536827 C45.26279032 112.70984291 43.21876577 112.69905332 41.17479134 112.68280983 C38.30264876 112.66090118 35.43105113 112.65803869 32.55883789 112.65942383 C31.72157669 112.648638 30.88431549 112.63785217 30.02168274 112.6267395 C24.88304441 112.65339948 20.72648301 113.50487848 15.92566586 115.35572338 C14 116 14 116 11 116 C12.02728193 115.14899722 13.07275286 114.31993283 14.125 113.5 C14.99511719 112.80390625 14.99511719 112.80390625 15.8828125 112.09375 C18.66572676 110.65608212 20.90750832 110.92628149 24 111 C24.09984488 105.93210414 24.1719226 100.86479699 24.21972656 95.79614258 C24.23968148 94.07663991 24.26685558 92.35720367 24.30175781 90.63793945 C24.52146879 79.52638001 24.40867469 70.06433946 18.33300781 60.32885742 C17 58 17 58 17.5 56.125 C18.16849178 53.28390995 17.16381769 51.62255272 15.95703125 49.0546875 C14.87677739 46.73544859 13.93703847 44.38058422 13 42 C11.87200638 39.14784882 10.70749286 36.35648428 9.4375 33.5625 C8.20129188 30.49885379 7.47553051 27.76362854 6.75 24.5625 C5.25297132 18.70385804 2.31422285 15.12510623 -2 11 C-1.67 10.34 -1.34 9.68 -1 9 C-1.99 7.515 -1.99 7.515 -3 6 C-3 5.34 -3 4.68 -3 4 C-1.02 4.99 -1.02 4.99 1 6 C0.67 5.01 0.34 4.02 0 3 C0 2.01 0 1.02 0 0 Z " fill="#4697AA" transform="translate(263,150)"/>
<path d="M0 0 C1.53173223 0.00224404 3.06346585 0.00366639 4.59519958 0.0043335 C8.73790134 0.00912125 12.88043914 0.02719233 17.02308226 0.04908299 C19.61557954 0.06227501 22.20807369 0.07275965 24.8005867 0.08233452 C33.85720895 0.11607921 42.91369782 0.16128498 51.97021484 0.21630859 C60.3930581 0.26715337 68.81570774 0.2918147 77.23868692 0.30449873 C84.4874775 0.31666171 91.73602733 0.34795115 98.98468268 0.39378351 C103.30647506 0.42074814 107.62795663 0.43998486 111.94984055 0.43962288 C116.01644756 0.43988506 120.08223926 0.46406094 124.14862251 0.506073 C125.63439086 0.51744175 127.12025166 0.52049843 128.60605049 0.51428032 C137.2065941 0.48392552 144.6630459 0.96181687 151.83837891 6.21459961 C156.51405007 11.15524761 157.96525128 15.65153797 157.9519043 22.33837891 C157.95182877 23.59945969 157.95175323 24.86054047 157.95167542 26.15983582 C157.94656879 27.53616373 157.9413528 28.91249124 157.93603516 30.28881836 C157.93416977 31.69700572 157.93274643 33.10519372 157.93174744 34.51338196 C157.92793178 38.21727291 157.91810962 41.92112456 157.90704346 45.625 C157.89680888 49.40551217 157.89224543 53.1860307 157.88720703 56.96655273 C157.8764865 64.38258626 157.8594215 71.79858743 157.83837891 79.21459961 C153.89935839 76.87144582 150.14883703 74.36656988 146.41259766 71.71459961 C139.24003881 67.53514195 132.90397364 66.71451402 124.75073242 66.53808594 C123.66573991 66.50500493 122.58074739 66.47192392 121.46287632 66.43784046 C109.09966372 66.09731599 96.73130395 66.06235025 84.36417961 66.04593468 C80.12991907 66.03987302 75.89573597 66.02321061 71.66151428 66.0045929 C70.19622328 65.99826206 68.73093226 65.99193637 67.26564121 65.98561573 C66.16786419 65.98086701 66.16786419 65.98086701 65.04790986 65.97602236 C55.23548324 65.9343001 45.42310579 65.90086028 35.6105957 65.88867188 C28.92316469 65.88028176 22.23594025 65.85779254 15.54861265 65.81931621 C12.03084455 65.7996587 8.51338431 65.78711812 4.99555779 65.7921505 C1.0913166 65.7976735 -2.81239923 65.77236638 -6.71655273 65.74462891 C-7.86411041 65.75123032 -9.01166809 65.75783173 -10.19400024 65.76463318 C-17.34759609 65.68117866 -23.24161939 64.85537837 -28.64352512 59.83825207 C-35.33926543 52.2968286 -35.66469469 45.10820552 -35.60766602 35.52954102 C-35.5991694 33.35197941 -35.62793102 31.17705809 -35.65966797 28.99975586 C-35.70531099 20.23491288 -35.11336867 13.97994228 -29.30224609 6.97241211 C-28.67833984 6.43358398 -28.05443359 5.89475586 -27.41162109 5.33959961 C-26.79802734 4.78530273 -26.18443359 4.23100586 -25.55224609 3.65991211 C-17.85596481 -0.9930684 -8.66061383 -0.0541715 0 0 Z " fill="#FEFEFE" transform="translate(122.16162109375,303.785400390625)"/>
<path d="M0 0 C2.80402774 0.87969498 4.77353523 1.13961451 7.65625 1.296875 C13.83190899 1.87558017 19.15211053 3.95490221 24.875 6.25 C40.12093879 12.24343987 55.36644275 17.05304658 71.25 21 C72.1205603 21.2172171 72.99112061 21.4344342 73.88806152 21.65823364 C85.17853852 24.45948989 96.46147777 27.01771067 107.9375 28.9375 C108.977854 29.11216797 110.01820801 29.28683594 111.09008789 29.46679688 C114.78219556 30.040219 118.4810066 30.5315425 122.1875 31 C123.13372223 31.12314575 124.07994446 31.2462915 125.05484009 31.37316895 C143.53964577 33.73179528 161.75173373 34.48903432 180.375 34.375 C181.7165514 34.37055066 183.05810428 34.36652692 184.3996582 34.36291504 C211.67306053 34.27716694 238.51640708 33.19558541 265.1875 27 C266.20118652 26.77425293 266.20118652 26.77425293 267.23535156 26.54394531 C275.65364673 24.64385178 283.46428018 21.87192518 291.29199219 18.28588867 C299.17894314 14.79127181 305.21686412 15.96690407 313.17578125 18.79296875 C324.78635673 23.44623441 324.78635673 23.44623441 328.1875 29 C327.875 31.75 327.875 31.75 327.1875 34 C321.22886817 36.168456 315.46347536 37.67977941 309.1875 38.5625 C308.33285156 38.68544434 307.47820312 38.80838867 306.59765625 38.93505859 C291.13447896 41.05653109 275.56699593 41.99239954 259.9765625 42.51953125 C258.15132553 42.58236549 258.15132553 42.58236549 256.28921509 42.64646912 C244.04862997 43.05610925 231.8081595 43.35739175 219.5625 43.5625 C218.32491943 43.58334656 217.08733887 43.60419312 215.81225586 43.62567139 C144.74731013 44.76300006 73.60122461 44.5086474 2.54205322 43.06640625 C-0.71490121 43.00193205 -3.9719013 42.94316352 -7.22900391 42.88671875 C-11.9353242 42.80501188 -16.64136261 42.71466691 -21.34732056 42.61422729 C-22.93595708 42.58089265 -24.52464162 42.54973916 -26.1133728 42.52127075 C-54.73337173 41.98841217 -54.73337173 41.98841217 -65.64453125 33.58984375 C-66.8125 32 -66.8125 32 -66.67578125 29.99609375 C-64.37043241 24.66562653 -58.88970015 21.80512299 -53.8125 19.5 C-46.71439766 16.70049399 -39.31674354 14.93449441 -31.91015625 13.14257812 C-26.83711408 11.89650787 -22.35480426 10.60220142 -17.8125 8 C-17.8125 6.02 -17.8125 4.04 -17.8125 2 C-11.33169996 -1.92214652 -7.35080146 -2.6136183 0 0 Z " fill="#000000" transform="translate(127.8125,427)"/>
<path d="M0 0 C1.2683091 -0.002062 1.2683091 -0.002062 2.5622406 -0.00416565 C3.48652863 -0.00057037 4.41081665 0.0030249 5.3631134 0.00672913 C6.82680611 0.00651009 6.82680611 0.00651009 8.32006836 0.00628662 C11.55034089 0.00698414 14.780556 0.01476907 18.01081848 0.02259827 C20.24855518 0.02446302 22.48629229 0.02588665 24.72402954 0.02688599 C30.61771265 0.03070667 36.51137117 0.04053316 42.40504456 0.05158997 C48.41751269 0.0618137 54.42998479 0.06638567 60.44245911 0.07142639 C72.24260013 0.08215581 84.04272289 0.09922688 95.84284973 0.12025452 C94.89693314 1.72897157 93.94692428 3.33528286 92.99519348 4.94056702 C92.20229919 6.28272278 92.20229919 6.28272278 91.39338684 7.6519928 C89.84284973 10.12025452 89.84284973 10.12025452 87.40534973 12.99525452 C85.56595289 14.99551862 85.56595289 14.99551862 86.09284973 17.43275452 C86.46409973 18.26806702 86.46409973 18.26806702 86.84284973 19.12025452 C87.42034973 18.87275452 87.99784973 18.62525452 88.59284973 18.37025452 C90.84284973 18.12025452 90.84284973 18.12025452 93.15534973 19.49525452 C95.28311225 22.80510733 94.63209653 24.65154982 94.12922668 28.41908264 C93.59131971 33.4927423 93.74041545 38.58652603 93.78034973 43.68275452 C93.78486145 44.78683655 93.78937317 45.89091858 93.79402161 47.02845764 C93.80569833 49.72578152 93.82207448 52.42298799 93.84284973 55.12025452 C80.96015427 55.30589338 68.07777875 55.44790346 55.19401646 55.53475189 C49.21100062 55.57644257 43.22890211 55.6329606 37.24641418 55.72377014 C31.46916676 55.81091209 25.69279969 55.85857467 19.9149456 55.87927246 C17.71449364 55.89401561 15.51408805 55.92280682 13.31401253 55.96609497 C-6.09276119 56.33263337 -6.09276119 56.33263337 -11.95426941 51.38392639 C-17.88023276 44.76797348 -17.52976878 37.72516121 -17.52775574 29.25526428 C-17.532131 27.19184413 -17.56849697 25.13056284 -17.60636902 23.06752014 C-17.61023621 21.75589905 -17.61410339 20.44427795 -17.61808777 19.09291077 C-17.62630554 17.89931946 -17.63452332 16.70572815 -17.64299011 15.47596741 C-16.89742796 10.32634339 -14.129016 6.52448879 -10.09465027 3.30775452 C-6.58749706 0.69604468 -4.25362657 -0.00533705 0 0 Z " fill="#FDFEFE" transform="translate(85.15715026855469,112.87974548339844)"/>
<path d="M0 0 C8.87551703 -0.09286954 17.75086561 -0.1638505 26.62676334 -0.20724869 C30.74866518 -0.22808259 34.87023346 -0.25632261 38.99194336 -0.30175781 C42.97309565 -0.34536665 46.95392803 -0.36916865 50.93530083 -0.37950897 C52.45070872 -0.38687351 53.96610002 -0.4012548 55.48137093 -0.42292023 C64.5588211 -0.54749395 71.02385448 -0.60937783 77.9609375 5.81640625 C78.66089844 6.68072266 78.66089844 6.68072266 79.375 7.5625 C79.85710937 8.14128906 80.33921875 8.72007812 80.8359375 9.31640625 C84.19957636 14.18126648 83.2241365 20.47382432 83.25 26.125 C83.270625 27.2284375 83.29125 28.331875 83.3125 29.46875 C83.35044912 37.45703875 82.44021844 43.9910697 78.25 50.875 C72.68724396 56.12871404 66.75599583 56.43143816 59.48461914 56.34057617 C58.09320206 56.34123329 58.09320206 56.34123329 56.67367554 56.34190369 C53.62728352 56.33982442 50.58145137 56.31653398 47.53515625 56.29296875 C45.41524048 56.28736973 43.29532082 56.28310108 41.17539978 56.28010559 C35.61047548 56.26868093 30.04578808 56.2392341 24.48095703 56.20599365 C18.79658207 56.17524152 13.11216864 56.16158926 7.42773438 56.14648438 C-3.71494753 56.11436222 -14.85745402 56.06319458 -26 56 C-25.85921914 53.17945641 -25.71402738 50.35924983 -25.56640625 47.5390625 C-25.52761353 46.75281494 -25.4888208 45.96656738 -25.44885254 45.15649414 C-25.05268312 37.70391578 -24.12106334 30.37942667 -23 23 C-22.40316406 23.15210938 -21.80632812 23.30421875 -21.19140625 23.4609375 C-15.58231128 24.90646207 -15.58231128 24.90646207 -10 24 C-9.15114483 21.63502493 -9.15114483 21.63502493 -8.625 18.8125 C-7.73179018 15.14986712 -7.01912881 12.52846854 -4.4375 9.75 C-1.62471158 6.57659769 -1.03368289 4.05851532 0 0 Z " fill="#FDFDFD" transform="translate(352,203)"/>
<path d="M0 0 C1.65 1.65 3.3 3.3 5 5 C5.66 4.01 6.32 3.02 7 2 C7.33 3.32 7.66 4.64 8 6 C8.61875 5.505 9.2375 5.01 9.875 4.5 C12 3 12 3 14 3 C15.56420096 6.27002245 17.12600828 9.54118309 18.6875 12.8125 C19.14721191 13.77341553 19.60692383 14.73433105 20.08056641 15.72436523 C22.79657633 21.41700255 25.43895878 27.1193933 27.8671875 32.94140625 C29.22691774 35.41236431 30.93628284 37.09602664 33 39 C34.0656146 36.64042481 34.93739222 34.44813988 35.296875 31.875 C35.9522665 27.25605036 36.90111379 24.47524535 40.5 21.375 C44.70035858 18.58755911 47.93465869 18.67054814 52.80078125 19.47265625 C55 20 55 20 58 21 C59.33849671 20.00692179 60.67151309 19.00642948 62 18 C63.32 18 64.64 18 66 18 C67.67578125 19.765625 67.67578125 19.765625 69.3125 22.25 C69.91191406 23.15234375 70.51132812 24.0546875 71.12890625 24.984375 C73.68207229 29.09928979 76.08322941 33.29108883 78.421875 37.53125 C79.91733299 40.23543323 79.91733299 40.23543323 83 42 C90.23067893 31.7485041 97.20941442 21.66648488 102 10 C103.32 10.33 104.64 10.66 106 11 C106.66 9.68 107.32 8.36 108 7 C109.66666667 7 111.33333333 7 113 7 C113 7.99 113 8.98 113 10 C113.66 10 114.32 10 115 10 C114.87698154 16.15092313 114.87698154 16.15092313 112.61889648 18.3371582 C112.04212158 18.75827881 111.46534668 19.17939941 110.87109375 19.61328125 C106.22371307 23.39937816 103.32265898 28.0464587 100.125 33.0625 C98.89649901 34.94444513 97.66733326 36.82595648 96.4375 38.70703125 C95.84839844 39.61533691 95.25929688 40.52364258 94.65234375 41.45947266 C80.22944997 63.63509804 80.22944997 63.63509804 71 69 C68.61753391 71.6289281 68 72.38834178 68 76 C67.34 76 66.68 76 66 76 C65.94465088 76.71542969 65.88930176 77.43085938 65.83227539 78.16796875 C65.57761219 81.44546561 65.320078 84.72273098 65.0625 88 C64.97548828 89.12535156 64.88847656 90.25070313 64.79882812 91.41015625 C64.71181641 92.51230469 64.62480469 93.61445313 64.53515625 94.75 C64.456604 95.75546875 64.37805176 96.7609375 64.29711914 97.796875 C63.94989822 101.54012769 63.46628653 105.26970779 63 109 C50.13 109.33 37.26 109.66 24 110 C24.25 92.6875 24.25 92.6875 24.36035156 87.2956543 C24.47992857 77.30925627 23.75852229 69.02695674 18.33300781 60.3269043 C17 58 17 58 17.5 56.125 C18.16849178 53.28390995 17.16381769 51.62255272 15.95703125 49.0546875 C14.87677739 46.73544859 13.93703847 44.38058422 13 42 C11.87200638 39.14784882 10.70749286 36.35648428 9.4375 33.5625 C8.20129188 30.49885379 7.47553051 27.76362854 6.75 24.5625 C5.25297132 18.70385804 2.31422285 15.12510623 -2 11 C-1.67 10.34 -1.34 9.68 -1 9 C-1.66 8.01 -2.32 7.02 -3 6 C-3 5.34 -3 4.68 -3 4 C-1.02 4.99 -1.02 4.99 1 6 C0.67 5.01 0.34 4.02 0 3 C0 2.01 0 1.02 0 0 Z " fill="#67DBF6" transform="translate(263,150)"/>
<path d="M0 0 C7.53839945 -0.38450896 7.53839945 -0.38450896 11.41015625 2.5390625 C14.79586888 7.23537356 15.56724324 9.40750736 15.34765625 15.2265625 C14.35765625 15.2265625 13.36765625 15.2265625 12.34765625 15.2265625 C12.21810547 16.17015625 12.21810547 16.17015625 12.0859375 17.1328125 C11.09120164 23.19248786 9.7181007 28.69030173 5.34765625 33.2265625 C2.03515625 34.2265625 2.03515625 34.2265625 -0.65234375 34.2265625 C-0.97108857 36.58991076 -0.97108857 36.58991076 -0.65234375 39.2265625 C0.95883197 41.08543673 0.95883197 41.08543673 3.16015625 42.4765625 C3.86785156 42.97671875 4.57554687 43.476875 5.3046875 43.9921875 C8.81499297 46.11313689 12.01934416 46.45834856 16.03515625 46.7890625 C17.02902344 46.87285156 18.02289063 46.95664063 19.046875 47.04296875 C20.18576172 47.13384766 20.18576172 47.13384766 21.34765625 47.2265625 C19.41335245 43.64810048 17.65571103 41.55723746 14.34765625 39.2265625 C15.21648437 39.12859375 16.0853125 39.030625 16.98046875 38.9296875 C25.97073576 37.92320288 25.97073576 37.92320288 33.34765625 33.2265625 C36.35440794 28.66459443 36.88870894 24.55035133 37.34765625 19.2265625 C37.97414062 19.02160156 38.600625 18.81664063 39.24609375 18.60546875 C40.47199219 18.20134766 40.47199219 18.20134766 41.72265625 17.7890625 C42.53476563 17.52222656 43.346875 17.25539063 44.18359375 16.98046875 C46.35797424 16.27476521 46.35797424 16.27476521 48.34765625 15.2265625 C47.68765625 17.2065625 47.02765625 19.1865625 46.34765625 21.2265625 C45.02765625 21.2265625 43.70765625 21.2265625 42.34765625 21.2265625 C42.59515625 22.2165625 42.84265625 23.2065625 43.09765625 24.2265625 C43.74893024 29.04793412 42.14077517 32.35272727 39.34765625 36.2265625 C35.27038023 40.56353763 30.90309051 43.97793435 25.34765625 46.2265625 C24.68765625 46.2265625 24.02765625 46.2265625 23.34765625 46.2265625 C23.51265625 46.7215625 23.67765625 47.2165625 23.84765625 47.7265625 C24.55454443 51.26100339 24.4077078 54.62346951 24.34765625 58.2265625 C17.34246653 61.22878667 11.87305661 62.29105286 4.34765625 60.2265625 C3.32806528 63.22025514 2.33288474 66.22139067 1.34765625 69.2265625 C1.09628906 69.98453125 0.84492188 70.7425 0.5859375 71.5234375 C-1.78001779 78.98433354 -3.18588897 86.54513271 -4.65234375 94.2265625 C-12.57234375 94.2265625 -20.49234375 94.2265625 -28.65234375 94.2265625 C-29.77932369 86.33770294 -29.77932369 86.33770294 -29.78515625 83.140625 C-29.78769409 82.09189209 -29.78769409 82.09189209 -29.7902832 81.02197266 C-29.78601318 80.3057373 -29.78174316 79.58950195 -29.77734375 78.8515625 C-29.7777063 77.73273682 -29.7777063 77.73273682 -29.77807617 76.59130859 C-29.75598036 72.61666212 -29.55433541 68.79014411 -28.96484375 64.8515625 C-28.27005572 61.36833976 -28.27005572 61.36833976 -29.8828125 59.5 C-31.83010543 57.8371519 -31.83010543 57.8371519 -35.65234375 58.2265625 C-36.64234375 56.2465625 -36.64234375 56.2465625 -37.65234375 54.2265625 C-37.265625 53.71867187 -36.87890625 53.21078125 -36.48046875 52.6875 C-35.69929688 51.65496094 -35.69929688 51.65496094 -34.90234375 50.6015625 C-34.13664062 49.59222656 -34.13664062 49.59222656 -33.35546875 48.5625 C-31.3690668 45.83803128 -29.51624867 43.03587767 -27.65234375 40.2265625 C-40.45668141 40.15704054 -53.26097413 40.10373992 -66.06546211 40.07112598 C-72.01115716 40.05547264 -77.95672304 40.03424012 -83.90234375 40.00024414 C-89.64059595 39.96763933 -95.37872393 39.94970699 -101.11706161 39.94193077 C-103.30591665 39.93638932 -105.49476492 39.92556825 -107.68356705 39.90937233 C-110.75029422 39.8875835 -113.8165086 39.88459623 -116.88330078 39.88598633 C-117.78745224 39.8752005 -118.6916037 39.86441467 -119.62315369 39.853302 C-125.42757096 39.88175656 -129.87180221 40.63095008 -134.296875 44.76171875 C-139.19377745 51.16536041 -138.87072555 56.06386373 -138.89257812 63.86523438 C-138.90224327 65.95483829 -138.93324645 68.04344119 -138.96484375 70.1328125 C-138.97137828 71.47134835 -138.97662698 72.80989121 -138.98046875 74.1484375 C-138.98981445 75.36112305 -138.99916016 76.57380859 -139.00878906 77.82324219 C-138.45077473 83.15113245 -136.36963364 87.1041314 -132.27734375 90.5390625 C-131.71273437 91.03019531 -131.148125 91.52132812 -130.56640625 92.02734375 C-126.6888978 94.45672149 -122.16362248 94.38256788 -117.6953125 94.54296875 C-116.58349609 94.58486328 -115.47167969 94.62675781 -114.32617188 94.66992188 C-113.17568359 94.70923828 -112.02519531 94.74855469 -110.83984375 94.7890625 C-109.67001953 94.83224609 -108.50019531 94.87542969 -107.29492188 94.91992188 C-104.41417344 95.02574529 -101.53334252 95.12783075 -98.65234375 95.2265625 C-98.65234375 95.5565625 -98.65234375 95.8865625 -98.65234375 96.2265625 C-102.92067356 96.32621819 -107.18836844 96.39839641 -111.45751953 96.44628906 C-112.90653292 96.46627545 -114.355467 96.49347447 -115.80419922 96.52832031 C-125.06674014 96.74536124 -132.31747499 96.84269183 -139.7109375 90.4453125 C-140.39349609 89.59453125 -140.39349609 89.59453125 -141.08984375 88.7265625 C-141.79947266 87.87578125 -141.79947266 87.87578125 -142.5234375 87.0078125 C-147.99466882 78.37500461 -144.98473716 61.32500323 -143.19921875 51.8125 C-141.49056082 46.13887943 -137.52018083 42.44998629 -132.65234375 39.2265625 C-129.56314499 38.23948139 -126.74841808 38.10503756 -123.51660156 38.11303711 C-122.49584534 38.11311264 -121.47508911 38.11318817 -120.42340088 38.11326599 C-119.32848328 38.11842728 -118.23356567 38.12358856 -117.10546875 38.12890625 C-115.415961 38.13102867 -115.415961 38.13102867 -113.69232178 38.13319397 C-110.0956354 38.13879051 -106.49901131 38.1513424 -102.90234375 38.1640625 C-100.46354257 38.16907795 -98.02474041 38.17364078 -95.5859375 38.17773438 C-89.60805167 38.1887588 -83.63020216 38.20549352 -77.65234375 38.2265625 C-77.65234375 36.9065625 -77.65234375 35.5865625 -77.65234375 34.2265625 C-77.10190399 34.21847565 -76.55146423 34.21038879 -75.98434448 34.20205688 C-70.24128613 34.11581811 -64.49856527 34.01630662 -58.75585938 33.90917969 C-56.61431559 33.87096097 -54.47270918 33.83609582 -52.33105469 33.8046875 C-49.24781958 33.75888271 -46.16501304 33.70091333 -43.08203125 33.640625 C-42.12867889 33.62907379 -41.17532654 33.61752258 -40.19308472 33.60562134 C-35.253945 33.49663601 -31.32001474 32.99596615 -26.65234375 31.2265625 C-24.32022348 31.15133281 -21.98381265 31.13330374 -19.65234375 31.2265625 C-19.63816406 30.6903125 -19.62398438 30.1540625 -19.609375 29.6015625 C-19.25571264 23.79002964 -18.04987441 18.41126642 -16.40234375 12.8515625 C-16.21003174 12.16191406 -16.01771973 11.47226563 -15.81958008 10.76171875 C-14.38788606 6.15505589 -12.72991632 3.79581669 -8.65234375 1.2265625 C-5.75514267 0.39879076 -2.99220936 0.25559373 0 0 Z " fill="#6FDEF7" transform="translate(207.65234375,73.7734375)"/>
<path d="M0 0 C0.66 0 1.32 0 2 0 C2 1.32 2 2.64 2 4 C2.45375 3.505 2.9075 3.01 3.375 2.5 C5 1 5 1 7 1 C6 3 5 5 4 7 C5.65 6.34 7.3 5.68 9 5 C7.68 6.65 6.36 8.3 5 10 C5.99 10.33 6.98 10.66 8 11 C6.948125 11.78375 5.89625 12.5675 4.8125 13.375 C0.95857709 16.63959063 -0.7430073 20.14674312 -2.828125 24.67578125 C-4.39816169 27.78968734 -6.36194786 29.73881245 -9 32 C-9.54785156 32.50273438 -10.09570312 33.00546875 -10.66015625 33.5234375 C-14.4149053 36.90683774 -17.2571759 38.62858795 -22 41 C-22.33 57.83 -22.66 74.66 -23 92 C-25.64 90.02 -28.28 88.04 -31 86 C-35.3881237 82.82963312 -39.56753479 82.1170504 -44.8125 81.3125 C-45.99489258 81.11817383 -45.99489258 81.11817383 -47.20117188 80.91992188 C-49.13259813 80.60387031 -51.06611445 80.30063711 -53 80 C-53.26846802 67.81155209 -50.17858551 56.39035746 -46 45 C-45.25492188 45.16113281 -44.50984375 45.32226562 -43.7421875 45.48828125 C-37.30981027 46.68862515 -32.10593188 46.03531063 -26 44 C-26 40.04 -26 36.08 -26 32 C-24.824375 31.46375 -23.64875 30.9275 -22.4375 30.375 C-15.72811426 26.97874456 -10.79044881 22.98294866 -7.64453125 16.03515625 C-6.64969555 12.89388717 -6.7274364 10.27076326 -7 7 C-5.68 7 -4.36 7 -3 7 C-2.690625 6.030625 -2.38125 5.06125 -2.0625 4.0625 C-1 1 -1 1 0 0 Z " fill="#FDFEFE" transform="translate(257,88)"/>
<path d="M0 0 C2.39382236 2.97036328 4.00524957 5.91538621 5.55859375 9.39453125 C6.26145508 10.95204102 6.26145508 10.95204102 6.97851562 12.54101562 C7.45998047 13.62060547 7.94144531 14.70019531 8.4375 15.8125 C12.51891188 27.30094031 12.51891188 27.30094031 20 36 C21.0656146 33.64042481 21.93739222 31.44813988 22.296875 28.875 C22.9522665 24.25605036 23.90111379 21.47524535 27.5 18.375 C31.70035858 15.58755911 34.93465869 15.67054814 39.80078125 16.47265625 C42 17 42 17 45 18 C46.33849671 17.00692179 47.67151309 16.00642948 49 15 C50.32 15 51.64 15 53 15 C54.67578125 16.765625 54.67578125 16.765625 56.3125 19.25 C56.910625 20.15234375 57.50875 21.0546875 58.125 21.984375 C60.69055469 26.11064212 63.13546576 30.2977607 65.51953125 34.53125 C66.90319167 37.0650326 66.90319167 37.0650326 69 39 C68.73138548 42.89491047 66.72576346 45.34238063 64 48 C62.2265625 48.66796875 62.2265625 48.66796875 60.125 49.25 C52.99440283 51.26854426 47.06712465 55.88333078 41 60 C39.99716365 56.99149095 39.52038698 54.12232189 39 51 C38.67 50.01 38.34 49.02 38 48 C37.90752619 46.52313889 37.87000929 45.04224499 37.875 43.5625 C37.87113281 42.41974609 37.87113281 42.41974609 37.8671875 41.25390625 C38 39 38 39 38.5 37.0078125 C39.07034129 34.71753575 39.13279344 32.67001578 39.125 30.3125 C39.12757813 29.52488281 39.13015625 28.73726562 39.1328125 27.92578125 C39.21127778 25.99235086 39.21127778 25.99235086 38 25 C35.66702567 24.95907063 33.33294775 24.95758277 31 25 C28.389015 29.99492782 26.86073489 33.86616511 26.8125 39.5 C26.79123047 40.62921875 26.79123047 40.62921875 26.76953125 41.78125 C26.86520321 44.02991378 26.86520321 44.02991378 28.00390625 45.921875 C29.30638056 48.63919394 29.19633096 50.75409971 29.125 53.75 C29.10695313 54.73484375 29.08890625 55.7196875 29.0703125 56.734375 C29.04710937 57.48203125 29.02390625 58.2296875 29 59 C25.125 57.125 25.125 57.125 24 56 C23.95919217 54.00041636 23.95745644 51.99954746 24 50 C23.319375 50.12375 22.63875 50.2475 21.9375 50.375 C18.15577634 49.89222677 16.38031346 48.68869067 13.61328125 46.1171875 C11.04807071 42.75073687 10.29797005 39.10182746 9.2421875 35.046875 C7.52949312 28.95105566 4.67579079 23.23153834 1.99658203 17.51147461 C-0.47619598 12.02289942 -1.56704789 8.02825913 -1 2 C-0.67 1.34 -0.34 0.68 0 0 Z " fill="#282425" transform="translate(276,153)"/>
<path d="M0 0 C1.93940282 2.90910423 3.49222027 5.81623145 5.0625 8.9375 C5.85333984 10.49791016 5.85333984 10.49791016 6.66015625 12.08984375 C8.62303843 16.35324674 9.12724752 19.75019713 9.1328125 24.4375 C9.13474609 26.02884766 9.13474609 26.02884766 9.13671875 27.65234375 C9.13285156 28.75707031 9.12898438 29.86179688 9.125 31 C9.13080078 32.61068359 9.13080078 32.61068359 9.13671875 34.25390625 C9.1279399 41.54913212 8.71773685 48.74088474 8 56 C7.030625 56.20625 6.06125 56.4125 5.0625 56.625 C0.79456129 57.81828082 -2.48736969 60.129663 -6.08203125 62.66015625 C-8 64 -8 64 -10 65 C-10.12701326 57.29550828 -10.21444172 49.59128761 -10.2746582 41.88598633 C-10.29976694 39.26609202 -10.33386067 36.64626752 -10.37719727 34.02661133 C-10.43800451 30.25584669 -10.46624764 26.48601006 -10.48828125 22.71484375 C-10.51408768 21.54791489 -10.5398941 20.38098602 -10.56648254 19.17869568 C-10.56892267 12.06736519 -9.91712824 8.25386189 -5 3 C-2.1875 1.0625 -2.1875 1.0625 0 0 Z " fill="#FCFEFE" transform="translate(279,205)"/>
<path d="M0 0 C7.53839945 -0.38450896 7.53839945 -0.38450896 11.41015625 2.5390625 C14.79586888 7.23537356 15.56724324 9.40750736 15.34765625 15.2265625 C7.92739884 16.58694303 7.92739884 16.58694303 5.03515625 14.7890625 C4.47828125 14.2734375 3.92140625 13.7578125 3.34765625 13.2265625 C2.35765625 13.2265625 1.36765625 13.2265625 0.34765625 13.2265625 C-1.33984375 11.7265625 -1.33984375 11.7265625 -2.65234375 10.2265625 C-3.25046875 10.9896875 -3.84859375 11.7528125 -4.46484375 12.5390625 C-5.18671875 13.4259375 -5.90859375 14.3128125 -6.65234375 15.2265625 C-7.14734375 15.8453125 -7.64234375 16.4640625 -8.15234375 17.1015625 C-8.64734375 17.4728125 -9.14234375 17.8440625 -9.65234375 18.2265625 C-11.83984375 17.9140625 -11.83984375 17.9140625 -13.65234375 17.2265625 C-13.27330167 20.51732246 -13.27330167 20.51732246 -11.65234375 23.2265625 C-11.484375 25.22265625 -11.484375 25.22265625 -11.46484375 27.6640625 C-11.45066406 28.46714844 -11.43648438 29.27023438 -11.421875 30.09765625 C-11.65234375 32.2265625 -11.65234375 32.2265625 -13.65234375 34.2265625 C-15.13170873 34.80340444 -16.63572512 35.31881224 -18.15234375 35.7890625 C-20.42696423 36.50172768 -22.51974224 37.16026175 -24.65234375 38.2265625 C-26.34777966 38.31707319 -28.04678353 38.34411122 -29.74462891 38.34008789 C-31.33605209 38.33997459 -31.33605209 38.33997459 -32.95962524 38.33985901 C-34.68310684 38.33211708 -34.68310684 38.33211708 -36.44140625 38.32421875 C-37.61496674 38.3228038 -38.78852722 38.32138885 -39.99765015 38.31993103 C-43.7575736 38.31431939 -47.5174382 38.30176488 -51.27734375 38.2890625 C-53.82161373 38.284049 -56.36588463 38.27948583 -58.91015625 38.27539062 C-65.15757228 38.26434618 -71.40495381 38.24759668 -77.65234375 38.2265625 C-77.65234375 36.9065625 -77.65234375 35.5865625 -77.65234375 34.2265625 C-77.10190399 34.21847565 -76.55146423 34.21038879 -75.98434448 34.20205688 C-70.24128613 34.11581811 -64.49856527 34.01630662 -58.75585938 33.90917969 C-56.61431559 33.87096097 -54.47270918 33.83609582 -52.33105469 33.8046875 C-49.24781958 33.75888271 -46.16501304 33.70091333 -43.08203125 33.640625 C-42.12867889 33.62907379 -41.17532654 33.61752258 -40.19308472 33.60562134 C-35.253945 33.49663601 -31.32001474 32.99596615 -26.65234375 31.2265625 C-24.32022348 31.15133281 -21.98381265 31.13330374 -19.65234375 31.2265625 C-19.63816406 30.6903125 -19.62398437 30.1540625 -19.609375 29.6015625 C-19.25571264 23.79002964 -18.04987441 18.41126642 -16.40234375 12.8515625 C-16.21003174 12.16191406 -16.01771973 11.47226563 -15.81958008 10.76171875 C-14.38788606 6.15505589 -12.72991632 3.79581669 -8.65234375 1.2265625 C-5.75514267 0.39879076 -2.99220936 0.25559373 0 0 Z " fill="#282425" transform="translate(207.65234375,73.7734375)"/>
<path d="M0 0 C3.02964783 -0.34298706 3.02964783 -0.34298706 6.97241211 -0.29638672 C8.0482682 -0.2896418 8.0482682 -0.2896418 9.14585876 -0.28276062 C11.52345133 -0.26363921 13.90006498 -0.22233032 16.27734375 -0.1796875 C17.92638583 -0.15926983 19.57543939 -0.13976063 21.22450256 -0.12112427 C24.68398796 -0.07853726 28.14308924 -0.02501388 31.60229492 0.03613281 C36.038778 0.11369477 40.47508412 0.16444299 44.9120245 0.2070179 C48.31879696 0.24262727 51.7252509 0.29235212 55.13177681 0.3463707 C56.76760588 0.3706225 58.403506 0.3904873 60.03944206 0.40591812 C62.32619667 0.42962925 64.61183103 0.47228657 66.89819336 0.52001953 C68.20010117 0.5401712 69.50200897 0.56032288 70.84336853 0.58108521 C74 1 74 1 75.95558167 2.36593628 C77 4 77 4 76.8125 6.625 C76 9 76 9 74 10 C71.67220838 10.09735005 69.34154468 10.1279732 67.01171875 10.12939453 C65.93345322 10.13202301 65.93345322 10.13202301 64.83340454 10.13470459 C62.45141198 10.13911469 60.06949335 10.13618807 57.6875 10.1328125 C56.03605129 10.13348578 54.38460267 10.13445601 52.7331543 10.13571167 C49.26968443 10.1371875 45.80624032 10.13503776 42.34277344 10.13037109 C37.89710947 10.12467387 33.45150587 10.12795349 29.00584412 10.13394356 C25.59500674 10.13755226 22.18418375 10.13640916 18.77334595 10.13381577 C17.13383985 10.13314735 15.49433247 10.13397194 13.85482788 10.13629532 C11.56594369 10.13882688 9.27715808 10.13497411 6.98828125 10.12939453 C5.68415283 10.12859894 4.38002441 10.12780334 3.03637695 10.12698364 C0 10 0 10 -2 9 C-2.25 3.375 -2.25 3.375 0 0 Z " fill="#CFF4FD" transform="translate(346,215)"/>
<path d="M0 0 C0.69097275 0.00247742 1.3819455 0.00495483 2.09385681 0.00750732 C3.1867527 -0.00015907 3.1867527 -0.00015907 4.30172729 -0.00798035 C6.71624405 -0.02190967 9.13047647 -0.02091729 11.54502869 -0.01861572 C13.21889859 -0.0225005 14.89276751 -0.02683471 16.56663513 -0.03160095 C20.07720636 -0.0390701 23.58767703 -0.03876664 27.09825134 -0.0335083 C31.60458805 -0.02770916 36.11051434 -0.0446518 40.61678314 -0.06785297 C44.07396362 -0.08255911 47.53104452 -0.08346636 50.98825073 -0.08034325 C52.65009373 -0.08085792 54.31194209 -0.08612286 55.97375488 -0.09615517 C58.29401107 -0.1084439 60.61345807 -0.10177459 62.93370056 -0.09014893 C63.62467331 -0.09779266 64.31564606 -0.1054364 65.02755737 -0.11331177 C66.93943787 -0.09205627 66.93943787 -0.09205627 70.01377869 0.28216553 C72.01377869 3.28216553 72.01377869 3.28216553 71.76377869 5.34466553 C71.01377869 7.28216553 71.01377869 7.28216553 69.01377869 9.28216553 C65.97740173 9.53613281 65.97740173 9.53613281 62.02549744 9.54095459 C61.30665375 9.54445923 60.58781006 9.54796387 59.84718323 9.55157471 C57.46511753 9.56039517 55.08334754 9.55454189 52.70127869 9.54779053 C51.04982954 9.54913709 49.39838077 9.55107755 47.74693298 9.55358887 C44.28343436 9.55654055 40.82003879 9.5522411 37.35655212 9.54290771 C32.91082557 9.53151311 28.46534049 9.53807235 24.0196228 9.55005264 C20.60877148 9.55727007 17.19797766 9.55498387 13.78712463 9.54979706 C12.14761832 9.54846023 10.50810684 9.55010942 8.86860657 9.55475616 C6.57961643 9.55981953 4.29102061 9.55211415 2.00205994 9.54095459 C0.04586731 9.53856781 0.04586731 9.53856781 -1.94984436 9.53613281 C-4.98622131 9.28216553 -4.98622131 9.28216553 -6.98622131 7.28216553 C-7.23622131 4.78216553 -7.23622131 4.78216553 -6.98622131 2.28216553 C-4.56646162 -0.13759416 -3.30275662 0.03708771 0 0 Z " fill="#D0F5FE" transform="translate(350.98622131347656,233.71783447265625)"/>
<path d="M0 0 C1.07585609 -0.0076664 1.07585609 -0.0076664 2.17344666 -0.01548767 C4.55069258 -0.02941809 6.92764969 -0.02842432 9.30493164 -0.02612305 C10.95398568 -0.03000819 12.60303872 -0.03434248 14.25209045 -0.03910828 C17.71138754 -0.04657797 21.17058259 -0.04627389 24.62988281 -0.04101562 C29.06662151 -0.03522102 33.50294274 -0.05214791 37.93961239 -0.0753603 C41.34622141 -0.09008076 44.75272951 -0.09097164 48.1593647 -0.08785057 C49.79526153 -0.08836467 51.43116388 -0.093619 53.06702995 -0.10366249 C55.3535575 -0.11597682 57.63926714 -0.10926601 59.92578125 -0.09765625 C61.87864296 -0.09860039 61.87864296 -0.09860039 63.87095642 -0.0995636 C67.02758789 0.2746582 67.02758789 0.2746582 68.98316956 1.63386536 C70.02758789 3.2746582 70.02758789 3.2746582 69.84008789 5.8996582 C69.02758789 8.2746582 69.02758789 8.2746582 67.02758789 9.2746582 C64.69979627 9.37200826 62.36913257 9.40263141 60.03930664 9.40405273 C58.96104111 9.40668121 58.96104111 9.40668121 57.86099243 9.40936279 C55.47899987 9.41377289 53.09708124 9.41084628 50.71508789 9.4074707 C49.06363918 9.40814398 47.41219056 9.40911421 45.76074219 9.41036987 C42.29727232 9.4118457 38.83382821 9.40969596 35.37036133 9.4050293 C30.92469736 9.39933208 26.47909376 9.40261169 22.03343201 9.40860176 C18.62259463 9.41221046 15.21177164 9.41106736 11.80093384 9.40847397 C10.16142774 9.40780556 8.52192036 9.40863015 6.88241577 9.41095352 C4.59353158 9.41348509 2.30474597 9.40963231 0.01586914 9.40405273 C-1.28825928 9.40325714 -2.5923877 9.40246155 -3.93603516 9.40164185 C-6.97241211 9.2746582 -6.97241211 9.2746582 -8.97241211 8.2746582 C-9.09741211 5.3996582 -9.09741211 5.3996582 -8.97241211 2.2746582 C-6.08960639 -0.60814751 -4.0368608 0.014295 0 0 Z " fill="#D0F5FE" transform="translate(86.972412109375,145.725341796875)"/>
<path d="M0 0 C0.71884369 -0.00335861 1.43768738 -0.00671722 2.17831421 -0.01017761 C4.56029984 -0.01969578 6.94221527 -0.02163103 9.32421875 -0.02270508 C10.97566762 -0.0259166 12.62711619 -0.02928059 14.27856445 -0.03279114 C17.74203145 -0.03878425 21.20547349 -0.04063081 24.66894531 -0.04003906 C29.11465412 -0.03993733 33.56020363 -0.05360058 38.00587463 -0.07081127 C41.41671489 -0.08190896 44.82751633 -0.08395898 48.2383728 -0.08342934 C49.87788442 -0.0846124 51.51739695 -0.08905237 53.15689087 -0.0967617 C55.44585464 -0.10651858 57.73446854 -0.10370103 60.0234375 -0.09765625 C61.97963013 -0.09979378 61.97963013 -0.09979378 63.9753418 -0.10197449 C67.01171875 0.14526367 67.01171875 0.14526367 69.01171875 2.14526367 C69.26171875 4.64526367 69.26171875 4.64526367 69.01171875 7.14526367 C66.12891303 10.02806939 64.07616744 9.40562688 60.03930664 9.41992188 C58.96345055 9.42758827 58.96345055 9.42758827 57.86585999 9.43540955 C55.48861406 9.44933996 53.11165695 9.4483462 50.734375 9.44604492 C49.08532096 9.44993007 47.43626792 9.45426436 45.78721619 9.45903015 C42.3279191 9.46649985 38.86872405 9.46619577 35.40942383 9.4609375 C30.97268513 9.45514289 26.5363639 9.47206979 22.09969425 9.49528217 C18.69308523 9.51000264 15.28657713 9.51089351 11.87994194 9.50777245 C10.24404511 9.50828655 8.60814276 9.51354088 6.97227669 9.52358437 C4.68574914 9.53589869 2.4000395 9.52918788 0.11352539 9.51757812 C-1.18838242 9.51820755 -2.49029022 9.51883698 -3.83164978 9.51948547 C-6.98828125 9.14526367 -6.98828125 9.14526367 -8.94386292 7.78605652 C-9.98828125 6.14526367 -9.98828125 6.14526367 -9.80078125 3.52026367 C-8.21151829 -1.1252742 -4.33147219 0.01266033 0 0 Z " fill="#CFF5FE" transform="translate(153.98828125,337.854736328125)"/>
<path d="M0 0 C1.06122574 -0.00503792 1.06122574 -0.00503792 2.14389038 -0.01017761 C4.48860416 -0.01969652 6.8332466 -0.02163117 9.17797852 -0.02270508 C10.80461151 -0.02591692 12.43124421 -0.02928093 14.05787659 -0.03279114 C17.47006907 -0.03878469 20.88223622 -0.0406308 24.29443359 -0.04003906 C28.67054282 -0.03993741 33.04648991 -0.05359215 37.42256069 -0.07081127 C40.78282927 -0.08191992 44.14305851 -0.08395862 47.50334358 -0.08342934 C49.11690899 -0.08461107 50.73047537 -0.08904365 52.34402275 -0.0967617 C54.5992563 -0.10653917 56.85413598 -0.10369264 59.109375 -0.09765625 C60.39351791 -0.09908127 61.67766083 -0.10050629 63.00071716 -0.10197449 C66.11938477 0.14526367 66.11938477 0.14526367 69.11938477 2.14526367 C69.43188477 4.64526367 69.43188477 4.64526367 69.11938477 7.14526367 C66.23657905 10.02806939 64.18383346 9.40562688 60.14697266 9.41992188 C59.07111656 9.42758827 59.07111656 9.42758827 57.973526 9.43540955 C55.59628008 9.44933996 53.21932297 9.4483462 50.84204102 9.44604492 C49.19298697 9.44993007 47.54393393 9.45426436 45.8948822 9.45903015 C42.43558511 9.46649985 38.97639006 9.46619577 35.51708984 9.4609375 C31.08035115 9.45514289 26.64402992 9.47206979 22.20736027 9.49528217 C18.80075125 9.51000264 15.39424314 9.51089351 11.98760796 9.50777245 C10.35171113 9.50828655 8.71580878 9.51354088 7.0799427 9.52358437 C4.79341515 9.53589869 2.50770552 9.52918788 0.22119141 9.51757812 C-1.0807164 9.51820755 -2.38262421 9.51883698 -3.72398376 9.51948547 C-6.88061523 9.14526367 -6.88061523 9.14526367 -8.8361969 7.78605652 C-9.88061523 6.14526367 -9.88061523 6.14526367 -9.69311523 3.52026367 C-8.11328402 -1.09770451 -4.31128737 0.01280539 0 0 Z " fill="#CFF5FE" transform="translate(153.880615234375,317.854736328125)"/>
<path d="M0 0 C-0.33 0.99 -0.66 1.98 -1 3 C-2.70458984 3.75195312 -2.70458984 3.75195312 -4.9609375 4.28125 C-5.81179932 4.48202148 -6.66266113 4.68279297 -7.53930664 4.88964844 C-8.94297485 5.19177246 -8.94297485 5.19177246 -10.375 5.5 C-11.3436499 5.71430664 -12.3122998 5.92861328 -13.31030273 6.14941406 C-25.41740955 8.69101521 -37.69156664 9.89937113 -50 11 C-50.97848907 11.08886978 -51.95697815 11.17773956 -52.96511841 11.26930237 C-61.09851445 11.95527259 -69.17204174 12.16065809 -77.33203125 12.16796875 C-79.3069178 12.17296135 -79.3069178 12.17296135 -81.32170105 12.17805481 C-84.08223291 12.18398079 -86.84273374 12.18590112 -89.60327148 12.18530273 C-93.12101981 12.18520051 -96.63856905 12.1989438 -100.15627003 12.21607494 C-103.54819322 12.22991396 -106.94008024 12.22928392 -110.33203125 12.23046875 C-111.5842598 12.23765427 -112.83648834 12.24483978 -114.12666321 12.25224304 C-120.4436969 12.23575441 -125.95973286 11.8924764 -132 10 C-132 9.67 -132 9.34 -132 9 C-115.67545063 7.82394416 -99.3507273 6.65033751 -83.02579308 5.47963715 C-75.44565962 4.93599027 -67.86558506 4.39154555 -60.28564453 3.84521484 C-53.67810525 3.36897283 -47.07045986 2.89423566 -40.46268332 2.4212966 C-36.96473084 2.1708847 -33.46683568 1.91972542 -29.96906662 1.66676331 C-26.06206317 1.38423331 -22.15482354 1.1050634 -18.24755859 0.82617188 C-17.09093719 0.74201523 -15.9343158 0.65785858 -14.74264526 0.57115173 C-13.67421387 0.49542435 -12.60578247 0.41969696 -11.50497437 0.3416748 C-10.5813378 0.27530571 -9.65770123 0.20893661 -8.70607567 0.14055634 C-5.79957503 -0.01041028 -2.90989759 -0.02339659 0 0 Z " fill="#3D8295" transform="translate(402,450)"/>
<path d="M0 0 C0.66 0 1.32 0 2 0 C2.49059235 5.88710818 1.409298 10.08928365 -2 15 C-4.69843472 18.14476155 -7.4794737 21.17528527 -10.34375 24.16796875 C-13.89680283 27.90462423 -13.89680283 27.90462423 -17 32 C-16.65251665 34.12131898 -16.65251665 34.12131898 -16 36 C-15.11739502 36.01981934 -14.23479004 36.03963867 -13.32543945 36.06005859 C-10.03578043 36.13837866 -6.74656036 36.22507855 -3.45727539 36.31738281 C-2.0364627 36.35555149 -0.61555737 36.39042513 0.80541992 36.421875 C2.85368855 36.46779065 4.90132608 36.52573805 6.94921875 36.5859375 C8.79519653 36.63306885 8.79519653 36.63306885 10.6784668 36.68115234 C13.85364055 36.98595035 16.13426057 37.64442201 19 39 C19 39.66 19 40.32 19 41 C4.15 41 -10.7 41 -26 41 C-26.33 43.31 -26.66 45.62 -27 48 C-28.33984375 50.1171875 -28.33984375 50.1171875 -29.9375 51.875 C-32.93434099 55.51961422 -33.84796092 58.46559956 -34.3828125 63.1171875 C-35 65 -35 65 -36.86328125 66.26953125 C-39.90275449 67.30861991 -41.93514737 66.8477252 -45 66 C-46.875 64.4375 -46.875 64.4375 -48 63 C-46.43387807 59.15588253 -43.97905879 56.84049791 -41 54 C-39.31066078 52.3563186 -37.64740076 50.6857124 -36 49 C-35.44828125 48.45601562 -34.8965625 47.91203125 -34.328125 47.3515625 C-28.76683146 41.53748289 -24.7204878 34.9836472 -20.50927734 28.17700195 C-15.17591882 19.58530791 -9.97476373 11.35572613 -2 5 C-0.66701026 2.38181544 -0.66701026 2.38181544 0 0 Z " fill="#292728" transform="translate(378,162)"/>
<path d="M0 0 C0.70391876 0.00045319 1.40783752 0.00090637 2.13308716 0.00137329 C3.24039436 -0.00366463 3.24039436 -0.00366463 4.37007141 -0.00880432 C6.82242492 -0.01834185 9.27471037 -0.02025883 11.7270813 -0.02133179 C13.42479989 -0.02454243 15.12251821 -0.02790635 16.82023621 -0.03141785 C20.38383628 -0.03741614 23.94741208 -0.03925703 27.51101685 -0.03866577 C32.08566799 -0.03856411 36.66016405 -0.05221724 41.2347784 -0.06943798 C44.74255595 -0.08053648 48.25029575 -0.08258564 51.75808907 -0.08205605 C53.445049 -0.08323938 55.13200982 -0.08768082 56.81895256 -0.09538841 C59.1750778 -0.10514513 61.53086313 -0.10232757 63.88699341 -0.09628296 C64.58888794 -0.10190247 65.29078247 -0.10752197 66.01394653 -0.11331177 C70.84642177 -0.08167881 70.84642177 -0.08167881 73.07473755 2.14663696 C72.51918199 6.70219252 72.51918199 6.70219252 71.07473755 8.14663696 C68.71264089 8.25750988 66.37949843 8.30401704 64.01638794 8.30776978 C62.90908073 8.31521713 62.90908073 8.31521713 61.77940369 8.32281494 C59.32705773 8.3374709 56.87477643 8.34424387 54.4223938 8.34976196 C52.72467546 8.35551015 51.02695716 8.36126792 49.32923889 8.36703491 C45.76564225 8.37755439 42.20206824 8.38339099 38.63845825 8.38687134 C34.06374102 8.39236112 29.48932068 8.41639532 24.91469669 8.44484329 C21.40691748 8.46343134 17.89921035 8.46867319 14.39138603 8.47020721 C12.704415 8.47324247 11.01744549 8.4813002 9.33052254 8.4943924 C6.97427651 8.51137508 4.61876343 8.50959227 2.26248169 8.50308228 C1.56058716 8.51229706 0.85869263 8.52151184 0.13552856 8.53100586 C-1.80622864 8.51412964 -1.80622864 8.51412964 -4.92526245 8.14663696 C-6.92526245 5.14663696 -6.92526245 5.14663696 -6.61276245 3.02163696 C-5.2951392 -0.571881 -3.58253343 0.02395048 0 0 Z " fill="#CEF5FE" transform="translate(83.92526245117188,128.85336303710938)"/>
<path d="M0 0 C1.65 1.65 3.3 3.3 5 5 C5.66 4.01 6.32 3.02 7 2 C7.33 3.32 7.66 4.64 8 6 C9.65 5.01 11.3 4.02 13 3 C12.93039062 3.55292725 12.86078125 4.10585449 12.7890625 4.67553711 C12.20980123 13.19981492 15.54689383 19.99869109 19 27.5625 C26.95052243 45.02652507 26.95052243 45.02652507 24 54.0625 C23.67 54.701875 23.34 55.34125 23 56 C20.13275314 55.42655063 19.1385485 55.1385485 17 53 C15.92154651 50.04407687 15.02054166 47.05075318 14.09765625 44.04296875 C13.12883387 41.01805406 13.12883387 41.01805406 11.51171875 38.6328125 C9.50276283 35.13401071 8.7313503 31.57674395 7.75 27.6875 C5.88356643 20.75217906 3.60599328 15.76590207 -2 11 C-1.67 10.34 -1.34 9.68 -1 9 C-1.66 8.01 -2.32 7.02 -3 6 C-3 5.34 -3 4.68 -3 4 C-1.02 4.99 -1.02 4.99 1 6 C0.67 5.01 0.34 4.02 0 3 C0 2.01 0 1.02 0 0 Z " fill="#F7B3A3" transform="translate(263,150)"/>
<path d="M0 0 C2.0625 0.4375 2.0625 0.4375 4 1 C4 1.99 4 2.98 4 4 C4.66 4 5.32 4 6 4 C5.87698154 10.15092313 5.87698154 10.15092313 3.61889648 12.3371582 C3.04212158 12.75827881 2.46534668 13.17939941 1.87109375 13.61328125 C-2.77627077 17.39936499 -5.67739593 22.04642146 -8.875 27.0625 C-10.09828316 28.93663879 -11.32224126 30.8103372 -12.546875 32.68359375 C-13.13533203 33.59093262 -13.72378906 34.49827148 -14.33007812 35.43310547 C-16.55734495 38.85671416 -18.8220173 42.25195958 -21.125 45.625 C-21.78757812 46.60726562 -22.45015625 47.58953125 -23.1328125 48.6015625 C-24.91750635 50.89403535 -26.58971512 52.40385579 -29 54 C-32.34123307 47.05023522 -32.34123307 47.05023522 -31 43 C-29.80419922 41.08398438 -29.80419922 41.08398438 -28.3046875 39.09375 C-27.48278931 37.98664673 -27.48278931 37.98664673 -26.64428711 36.85717773 C-26.06042236 36.07930908 -25.47655762 35.30144043 -24.875 34.5 C-17.76513262 24.83891641 -11.53835422 15.16266007 -7 4 C-5.68 4.33 -4.36 4.66 -3 5 C-2.690625 4.360625 -2.38125 3.72125 -2.0625 3.0625 C-1 1 -1 1 0 0 Z " fill="#F8B3A3" transform="translate(372,156)"/>
<path d="M0 0 C0.8971875 0.99 0.8971875 0.99 1.8125 2 C3.87501834 4.3373846 3.87501834 4.3373846 7 4 C7.99 4.66 8.98 5.32 10 6 C11.65549531 6.38499891 13.3222433 6.72793135 15 7 C12.03644056 19.61757882 12.03644056 19.61757882 8 24 C4.75 24.875 4.75 24.875 2 25 C2.061875 26.175625 2.061875 26.175625 2.125 27.375 C2 30 2 30 0 32 C-2.8125 32.5 -2.8125 32.5 -6 32 C-8.27000663 30.17362411 -9.37543692 28.51068839 -11 26 C-10.67 25.01 -10.34 24.02 -10 23 C-9.88367271 21.48233461 -9.82503761 19.9595654 -9.8125 18.4375 C-9.79832031 17.65246094 -9.78414062 16.86742188 -9.76953125 16.05859375 C-9.80832491 13.7756455 -9.80832491 13.7756455 -12 12 C-11.625 9.375 -11.625 9.375 -11 7 C-9.68 7.66 -8.36 8.32 -7 9 C-6.67 8.01 -6.34 7.02 -6 6 C-5.34 6 -4.68 6 -4 6 C-3.566875 5.071875 -3.566875 5.071875 -3.125 4.125 C-2 2 -2 2 0 0 Z " fill="#FBB2A2" transform="translate(205,83)"/>
<path d="M0 0 C3.5 -0.3125 3.5 -0.3125 7 0 C9 2 9 2 9.23046875 4.0234375 C9.20919922 5.18746094 9.20919922 5.18746094 9.1875 6.375 C9.17783203 7.53128906 9.17783203 7.53128906 9.16796875 8.7109375 C9.00529494 10.92784104 8.54047591 12.85076377 8 15 C7.68822811 19.05303463 7.49152061 22.77366736 9.0625 26.5625 C10.52191449 30.35697768 9.83251107 33.02956261 9 37 C7.75 39 7.75 39 6 40 C3.5 40.4375 3.5 40.4375 1 40 C-2.0887884 36.85166869 -2.39524183 34.31633992 -2.5625 30 C-2.7268563 26.01560485 -3.16142544 23.50342555 -5 20 C-6.07919124 12.5437696 -4.15296492 6.22944739 0 0 Z " fill="#F8B09F" transform="translate(307,177)"/>
<path d="M0 0 C0.66 0 1.32 0 2 0 C2 1.32 2 2.64 2 4 C2.45375 3.505 2.9075 3.01 3.375 2.5 C5 1 5 1 7 1 C6 3 5 5 4 7 C5.65 6.34 7.3 5.68 9 5 C7.68 6.65 6.36 8.3 5 10 C6.485 10.495 6.485 10.495 8 11 C6.948125 11.78375 5.89625 12.5675 4.8125 13.375 C0.95857709 16.63959063 -0.7430073 20.14674312 -2.828125 24.67578125 C-4.39816169 27.78968734 -6.36194786 29.73881245 -9 32 C-9.54785156 32.50273438 -10.09570312 33.00546875 -10.66015625 33.5234375 C-14.89168715 37.33646534 -19.05013321 41 -25 41 C-25.33 38.03 -25.66 35.06 -26 32 C-24.824375 31.46375 -23.64875 30.9275 -22.4375 30.375 C-15.72811426 26.97874456 -10.79044881 22.98294866 -7.64453125 16.03515625 C-6.64969555 12.89388717 -6.7274364 10.27076326 -7 7 C-5.68 7 -4.36 7 -3 7 C-2.690625 6.030625 -2.38125 5.06125 -2.0625 4.0625 C-1 1 -1 1 0 0 Z " fill="#F8B3A3" transform="translate(257,88)"/>
<path d="M0 0 C1.23070221 -0.00029205 2.46140442 -0.00058411 3.72940063 -0.00088501 C7.06339482 0.00025933 10.39713299 0.01020263 13.73108196 0.02426291 C17.23040175 0.03687206 20.72972593 0.03794871 24.22906494 0.04031372 C30.83731699 0.04649885 37.44550188 0.06286894 44.05372453 0.0830127 C51.58468437 0.10546476 59.11564763 0.1163884 66.64663267 0.12640357 C82.12155686 0.14723825 97.59641426 0.1823557 113.07128906 0.22705078 C113.07128906 0.55705078 113.07128906 0.88705078 113.07128906 1.22705078 C99.54128906 1.22705078 86.01128906 1.22705078 72.07128906 1.22705078 C72.07128906 1.88705078 72.07128906 2.54705078 72.07128906 3.22705078 C70.93869156 3.23291702 69.80609406 3.23878326 68.63917542 3.24482727 C57.94320364 3.30214645 47.24743338 3.37495612 36.55166721 3.46276569 C31.05342143 3.50741157 25.55524876 3.54668051 20.05688477 3.57348633 C14.74641364 3.59957687 9.43622473 3.64002011 4.12592888 3.69023705 C2.10428324 3.70686687 0.08258882 3.71840526 -1.93911552 3.72466469 C-4.78026492 3.73434806 -7.62069859 3.76245783 -10.46166992 3.79467773 C-11.28958038 3.79324265 -12.11749084 3.79180756 -12.9704895 3.79032898 C-18.06890305 3.87160903 -22.23412346 4.75634593 -26.99981785 6.5860014 C-28.92871094 7.22705078 -28.92871094 7.22705078 -31.92871094 7.22705078 C-22.86086517 -0.60427057 -11.47749305 -0.07271004 0 0 Z " fill="#6DA6B2" transform="translate(305.9287109375,258.77294921875)"/>
<path d="M0 0 C0.33 0 0.66 0 1 0 C1.12531328 7.51879699 1.12531328 7.51879699 0.51171875 9.875 C-1.37723558 17.71920728 -0.51931182 25.83568665 3 33 C3.721875 34.0725 4.44375 35.145 5.1875 36.25 C7 39 7 39 7 43 C2.38 43 -2.24 43 -7 43 C-7.85161258 37.81538263 -8.1827739 32.81319519 -8.1875 27.5625 C-8.19974609 26.85029297 -8.21199219 26.13808594 -8.22460938 25.40429688 C-8.2453513 17.79201103 -6.68986584 11.63454928 -2.875 5 C-2.33617187 4.05125 -1.79734375 3.1025 -1.2421875 2.125 C-0.83226562 1.42375 -0.42234375 0.7225 0 0 Z " fill="#2B2829" transform="translate(186,125)"/>
<path d="M0 0 C-0.79664063 0.45439453 -0.79664063 0.45439453 -1.609375 0.91796875 C-6.60218663 3.87903404 -10.33682775 6.6736555 -13 12 C-13.23505606 16.20964038 -13.22842647 20.42325076 -13.24023438 24.63867188 C-13.24989952 26.72827579 -13.2809027 28.81687869 -13.3125 30.90625 C-13.31903453 32.24478585 -13.32428323 33.58332871 -13.328125 34.921875 C-13.3374707 36.13456055 -13.34681641 37.34724609 -13.35644531 38.59667969 C-12.79843098 43.92456995 -10.71728989 47.8775689 -6.625 51.3125 C-6.06039062 51.80363281 -5.49578125 52.29476562 -4.9140625 52.80078125 C-1.03655405 55.23015899 3.48872127 55.15600538 7.95703125 55.31640625 C9.62475586 55.37924805 9.62475586 55.37924805 11.32617188 55.44335938 C13.0519043 55.50233398 13.0519043 55.50233398 14.8125 55.5625 C15.98232422 55.60568359 17.15214844 55.64886719 18.35742188 55.69335938 C21.23817031 55.79918279 24.11900123 55.90126825 27 56 C27 56.33 27 56.66 27 57 C22.73167019 57.09965569 18.46397531 57.17183391 14.19482422 57.21972656 C12.74581083 57.23971295 11.29687675 57.26691197 9.84814453 57.30175781 C0.58560361 57.51879874 -6.66513124 57.61612933 -14.05859375 51.21875 C-14.51363281 50.6515625 -14.96867187 50.084375 -15.4375 49.5 C-15.91058594 48.9328125 -16.38367188 48.365625 -16.87109375 47.78125 C-22.34232507 39.14844211 -19.33239341 22.09844073 -17.546875 12.5859375 C-15.83821707 6.91231693 -11.86783708 3.22342379 -7 0 C-3.94770129 -1.11359858 -3.2038178 -1.06793927 0 0 Z " fill="#244149" transform="translate(82,113)"/>
<path d="M0 0 C0.33 0 0.66 0 1 0 C1 8.58 1 17.16 1 26 C-1.76375 26.04125 -4.5275 26.0825 -7.375 26.125 C-8.67896729 26.15231201 -8.67896729 26.15231201 -10.00927734 26.18017578 C-12.00703478 26.19473738 -14.00467217 26.09956726 -16 26 C-16.66 25.34 -17.32 24.68 -18 24 C-17.74430132 20.123278 -15.52298275 18.09796125 -12.9375 15.375 C-8.89360848 11.02700784 -5.16871215 6.52710892 -1.53125 1.8359375 C-1.0259375 1.23007813 -0.520625 0.62421875 0 0 Z " fill="#A1E9FA" transform="translate(378,173)"/>
<path d="M0 0 C0.495 0.99 0.495 0.99 1 2 C0.0625 4.125 0.0625 4.125 -1 6 C-2.32 6 -3.64 6 -5 6 C-4.7525 6.99 -4.505 7.98 -4.25 9 C-3.59872601 13.82137162 -5.20688108 17.12616477 -8 21 C-12.01144572 25.26695181 -16.4446094 28.97985796 -22 31 C-26.62923855 30.85972004 -29.8870137 27.1129863 -33 24 C-32.13117188 23.90203125 -31.26234375 23.8040625 -30.3671875 23.703125 C-21.37692049 22.69664038 -21.37692049 22.69664038 -14 18 C-10.99324831 13.43803193 -10.45894731 9.32378883 -10 4 C-9.04287109 3.69255859 -9.04287109 3.69255859 -8.06640625 3.37890625 C-7.24011719 3.10949219 -6.41382813 2.84007813 -5.5625 2.5625 C-4.73878906 2.29566406 -3.91507813 2.02882813 -3.06640625 1.75390625 C-1.03780412 1.17844506 -1.03780412 1.17844506 0 0 Z " fill="#2D2A2B" transform="translate(255,89)"/>
<path d="M0 0 C2.46800047 1.15173355 4.04783565 2.04783565 6 4 C5.79747606 6.0955898 5.58117147 8.19071898 5.29736328 10.27685547 C4.742614 15.35704713 4.89750308 20.45827815 4.9375 25.5625 C4.94201172 26.66658203 4.94652344 27.77066406 4.95117188 28.90820312 C4.9628486 31.605527 4.97922475 34.30273347 5 37 C2.69 37 0.38 37 -2 37 C-2.02922653 32.50001382 -2.04687482 28.00005235 -2.0625 23.5 C-2.07087891 22.2315625 -2.07925781 20.963125 -2.08789062 19.65625 C-2.10430697 13.35237242 -2.10045881 7.21797704 -1 1 C-0.67 0.67 -0.34 0.34 0 0 Z " fill="#FDB4A3" transform="translate(174,131)"/>
<path d="M0 0 C-0.51949219 0.29132813 -1.03898437 0.58265625 -1.57421875 0.8828125 C-8.04970717 4.68910699 -12.62044831 8.62188908 -15 16 C-15.41122427 20.5126539 -15.41387026 25.025921 -15.42553711 29.5546875 C-15.43739279 31.73032668 -15.48657868 33.90308689 -15.53710938 36.078125 C-15.629379 43.9384708 -15.33283876 50.72911972 -10 57 C-7.75300112 58.99165106 -5.58638055 60.41943411 -3 62 C-1.515 62.99 -1.515 62.99 0 64 C-6.37221647 63.39312224 -10.56708444 60.82194644 -14.75 56.0625 C-19.77683573 49.22041804 -19.34029121 42.55332178 -19.31567383 34.39038086 C-19.31252435 32.20440298 -19.33596042 30.01979423 -19.36132812 27.83398438 C-19.43683545 12.05080811 -19.43683545 12.05080811 -14.09765625 5.7578125 C-13.42605469 5.21898437 -12.75445312 4.68015625 -12.0625 4.125 C-11.39347656 3.57070313 -10.72445312 3.01640625 -10.03515625 2.4453125 C-4.38612717 -1.56647399 -4.38612717 -1.56647399 0 0 Z " fill="#101F24" transform="translate(103,305)"/>
<path d="M0 0 C17.16 0 34.32 0 52 0 C52 1.32 52 2.64 52 4 C34.84 4 17.68 4 0 4 C0 2.68 0 1.36 0 0 Z " fill="#59B7CD" transform="translate(231,52)"/>
<path d="M0 0 C0 3 0 3 -2 6 C-2.90196906 9.46792365 -3.1444544 12.76725111 -3.20532227 16.34106445 C-3.22526749 17.3817659 -3.24521271 18.42246735 -3.26576233 19.4947052 C-3.28247482 20.6063353 -3.29918732 21.71796539 -3.31640625 22.86328125 C-3.33718735 24.01040085 -3.35796844 25.15752045 -3.37937927 26.33940125 C-3.44466619 29.99704098 -3.50366286 33.65475138 -3.5625 37.3125 C-3.60570504 39.79492913 -3.64931997 42.27735116 -3.69335938 44.75976562 C-3.80032622 50.83976945 -3.90213114 56.91984329 -4 63 C-4.66 63 -5.32 63 -6 63 C-6.07606971 55.25877171 -6.12860834 47.51763984 -6.16479492 39.77612305 C-6.17988057 37.14262286 -6.20035166 34.50914779 -6.22631836 31.87573242 C-6.26271019 28.09026896 -6.2797289 24.30513773 -6.29296875 20.51953125 C-6.30845261 19.34227982 -6.32393646 18.16502838 -6.33988953 16.95210266 C-6.34011612 15.85133896 -6.34034271 14.75057526 -6.34057617 13.61645508 C-6.34723801 12.65048904 -6.35389984 11.68452301 -6.36076355 10.68928528 C-5.75168476 6.14895237 -3.33672718 3.01894364 0 0 Z " fill="#598E9A" transform="translate(272,209)"/>
<path d="M0 0 C3.5625 0.375 3.5625 0.375 5.5625 2 C6.90430884 5.18679601 6.49197204 7.08609893 5.5625 10.375 C3.5625 12.375 3.5625 12.375 0.125 12.75 C-3.4375 12.375 -3.4375 12.375 -5.4375 10.75 C-6.77930884 7.56320399 -6.36697204 5.66390107 -5.4375 2.375 C-3.4375 0.375 -3.4375 0.375 0 0 Z " fill="#6AE1FD" transform="translate(314.4375,337.625)"/>
<path d="M0 0 C2.08477638 1.43777681 2.81239178 2.59798239 3.875 4.875 C4.06801254 8.1562132 3.16097157 9.56890699 1 12 C-2.50689795 12.50098542 -4.82393204 12.68287817 -7.9375 10.875 C-9.50422245 8.11019567 -9.38976435 6.11811483 -9 3 C-6.79086995 -0.68188342 -4.01844539 -0.50230567 0 0 Z " fill="#6AE1FD" transform="translate(336,338)"/>
<path d="M0 0 C3.125 0.375 3.125 0.375 5.5625 2 C7.125 4.375 7.125 4.375 7.0625 7.5 C6.125 10.375 6.125 10.375 3.125 12.375 C0.125 12.75 0.125 12.75 -2.875 12.375 C-4.8125 10.75 -4.8125 10.75 -5.875 8.375 C-5.58844949 3.59915821 -5.19565949 0.67769472 0 0 Z " fill="#6BE1FD" transform="translate(201.875,234.625)"/>
<path d="M0 0 C1.875 1.125 1.875 1.125 3 3 C3.39365568 6.14924548 3.52854531 8.11909116 1.875 10.875 C-0.85252465 12.51151479 -2.87973093 12.32502803 -6 12 C-6.99 11.34 -7.98 10.68 -9 10 C-9.37331109 6.57798172 -9.63763183 4.09814371 -7.875 1.0625 C-5.11019567 -0.50422245 -3.11811483 -0.38976435 0 0 Z " fill="#6AE1FD" transform="translate(355,338)"/>
<path d="M0 0 C2.35210784 2.11689705 2.91810953 3.44041515 3.375 6.5625 C3 9 3 9 1.875 10.8125 C-0.87155972 12.55198782 -2.81846974 12.39769128 -6 12 C-7.875 10.875 -7.875 10.875 -9 9 C-9.39365568 5.85075452 -9.52854531 3.88090884 -7.875 1.125 C-5.08893958 -0.54663625 -3.18011138 -0.46376624 0 0 Z " fill="#69E1FD" transform="translate(187,235)"/>
<path d="M0 0 C1.875 1.125 1.875 1.125 3 3 C3.39365568 6.14924548 3.52854531 8.11909116 1.875 10.875 C-0.91106042 12.54663625 -2.81988862 12.46376624 -6 12 C-8.35210784 9.88310295 -8.91810953 8.55958485 -9.375 5.4375 C-9 3 -9 3 -7.875 1.1875 C-5.12844028 -0.55198782 -3.18153026 -0.39769128 0 0 Z " fill="#69E1FD" transform="translate(168,235)"/>
<path d="M0 0 C2.75387823 0.89501042 3.96886237 1.34566714 5.5 3.8125 C5.27669287 7.45984979 5.11627165 9.19622835 2.5 11.8125 C-0.59771665 12.14204432 -2.67331023 12.26584601 -5.4375 10.75 C-7.16665678 7.59683176 -6.3590699 5.18741745 -5.5 1.8125 C-2.5 -0.1875 -2.5 -0.1875 0 0 Z " fill="#6AE1FD" transform="translate(290.5,131.1875)"/>
<path d="M0 0 C1.7325 0.1546875 1.7325 0.1546875 3.5 0.3125 C5.65502531 3.54503796 5.96856135 4.56400923 5.5 8.3125 C4.375 10.125 4.375 10.125 2.5 11.3125 C-0.5 11.75 -0.5 11.75 -3.5 11.3125 C-5.4375 9.625 -5.4375 9.625 -6.5 7.3125 C-6.14910617 2.39998643 -5.11900839 0.45705432 0 0 Z " fill="#69E1FD" transform="translate(327.5,131.6875)"/>
<path d="M0 0 C2 2 2 2 2.3125 4.9375 C2 8 2 8 0.9375 9.9375 C-2.18142449 11.64787795 -4.65557801 10.80513863 -8 10 C-9.41441874 7.17116253 -9.31900332 5.12623255 -9 2 C-6.12524616 -1.3006433 -4.03854228 -1.38160657 0 0 Z " fill="#69E1FD" transform="translate(312,132)"/>
<path d="M0 0 C0 0.66 0 1.32 0 2 C1.1446875 2.1546875 1.1446875 2.1546875 2.3125 2.3125 C5.19807812 3.05067115 6.26179817 3.62140803 8 6 C8 6.99 8 7.98 8 9 C0.31306986 8.75203451 -4.79480091 6.55997929 -11 2 C-11 1.67 -11 1.34 -11 1 C-7.26513121 0.4254048 -3.78706732 0 0 0 Z " fill="#F6FBFC" transform="translate(221,112)"/>
<path d="M0 0 C0.495 1.485 0.495 1.485 1 3 C-0.21741979 4.46815389 -1.44948761 5.92416847 -2.6875 7.375 C-3.37199219 8.18710937 -4.05648438 8.99921875 -4.76171875 9.8359375 C-8.60440201 13.55120195 -12.28247581 14.25382709 -17.51953125 14.1953125 C-19.0519043 14.18564453 -19.0519043 14.18564453 -20.61523438 14.17578125 C-21.67033203 14.15902344 -22.72542969 14.14226562 -23.8125 14.125 C-24.88693359 14.11597656 -25.96136719 14.10695313 -27.06835938 14.09765625 C-29.71246854 14.07415306 -32.35611872 14.04129575 -35 14 C-35 13.34 -35 12.68 -35 12 C-34.41621582 11.99589111 -33.83243164 11.99178223 -33.23095703 11.98754883 C-17.66763869 12.3437074 -17.66763869 12.3437074 -4 6 C-2.26347181 4.03776921 -1.20477941 2.35479613 0 0 Z " fill="#1A3840" transform="translate(433,248)"/>
<path d="M0 0 C2.6796875 -0.3984375 2.6796875 -0.3984375 5.875 -0.375 C6.92429688 -0.38273438 7.97359375 -0.39046875 9.0546875 -0.3984375 C12.26810127 0.03626834 13.6363792 0.84191144 16 3 C11.64375718 5.17812141 7.77283049 5.50037739 3 5 C0 4 0 4 -2 3 C-1.34 2.01 -0.68 1.02 0 0 Z " fill="#75CCE0" transform="translate(213,130)"/>
<path d="M0 0 C-0.79664063 0.45439453 -0.79664063 0.45439453 -1.609375 0.91796875 C-7.77872647 4.57679946 -11.61418512 8.04137326 -14 15 C-14.99 15 -15.98 15 -17 15 C-16.75239288 9.92405404 -15.08939185 7.17561017 -11.75390625 3.55078125 C-8.2064884 0.41420021 -4.70078075 -1.56692692 0 0 Z " fill="#27373B" transform="translate(82,113)"/>
<path d="M0 0 C0.66 0.33 1.32 0.66 2 1 C-1.75 6.75 -1.75 6.75 -4 9 C-5.66739748 12.60157856 -7.21922805 16.09614024 -8 20 C-8.66 20 -9.32 20 -10 20 C-10.66 18.68 -11.32 17.36 -12 16 C-8 10.66666667 -4 5.33333333 0 0 Z " fill="#8DE8FC" transform="translate(182,112)"/>
<path d="M0 0 C-0.51949219 0.29132813 -1.03898437 0.58265625 -1.57421875 0.8828125 C-6.43497401 3.73996624 -9.60590365 6.50781366 -13 11 C-15 13 -15 13 -18 14 C-16.77377763 7.71561033 -12.95773809 4.62943845 -8 1 C-4.93214794 -0.93382114 -3.43630516 -1.22725184 0 0 Z " fill="#1F2A2D" transform="translate(103,305)"/>
<path d="M0 0 C10.23476778 -0.36408265 16.86607105 1.60673185 25 8 C25.99 9.485 25.99 9.485 27 11 C23.59534742 10.37607045 21.42220672 9.06961851 18.625 7.0625 C12.56443945 2.92985023 7.18896004 1.74368552 0 1 C0 0.67 0 0.34 0 0 Z " fill="#8EBEC9" transform="translate(206,169)"/>
<path d="M0 0 C0.33 0.99 0.66 1.98 1 3 C3.64 3 6.28 3 9 3 C9 3.33 9 3.66 9 4 C3.06372979 5.30433619 -2.83332252 5.11086318 -8.875 5.0625 C-10.47988281 5.05573242 -10.47988281 5.05573242 -12.1171875 5.04882812 C-14.74484986 5.03709749 -17.37239538 5.02068228 -20 5 C-20 4.67 -20 4.34 -20 4 C-13.29980211 3.29867087 -6.73742646 2.88955039 0 3 C0 2.01 0 1.02 0 0 Z " fill="#9FD4E1" transform="translate(203,165)"/>
<path d="M0 0 C7.21015227 0.3794817 14.17359283 4.74912054 19 10 C18.67 10.99 18.34 11.98 18 13 C17.53851563 12.55269531 17.07703125 12.10539062 16.6015625 11.64453125 C11.50440819 6.92009376 6.33715669 3.81795697 0 1 C0 0.67 0 0.34 0 0 Z " fill="#6DB5C6" transform="translate(258,371)"/>
<path d="M0 0 C0.33 0.99 0.66 1.98 1 3 C-0.21741979 4.46815389 -1.44948761 5.92416847 -2.6875 7.375 C-3.37199219 8.18710937 -4.05648438 8.99921875 -4.76171875 9.8359375 C-7.12467332 12.1205393 -8.86305587 13.09193723 -12 14 C-14.3125 13.625 -14.3125 13.625 -16 13 C-15.01 12.67 -14.02 12.34 -13 12 C-12.67 11.34 -12.34 10.68 -12 10 C-10.75102529 9.37122555 -9.47533869 8.79476293 -8.1875 8.25 C-3.90732702 6.22133633 -2.24534398 4.11646397 0 0 Z " fill="#2D4F59" transform="translate(433,248)"/>
<path d="M0 0 C0.66 0 1.32 0 2 0 C2.8353125 0.86625 2.8353125 0.86625 3.6875 1.75 C7.52959255 5.48825221 12.22164971 7.63178253 17 10 C10.20781383 9.83396878 6.87161963 8.75562869 2 4 C1.01 3.34 0.02 2.68 -1 2 C-0.67 1.34 -0.34 0.68 0 0 Z " fill="#8BE5FA" transform="translate(207,111)"/>
<path d="M0 0 C2.125 0.375 2.125 0.375 4 1 C4 1.99 4 2.98 4 4 C4.66 4 5.32 4 6 4 C5.625 5.9375 5.625 5.9375 5 8 C4.01 8.495 4.01 8.495 3 9 C3 8.34 3 7.68 3 7 C2.34 7 1.68 7 1 7 C1 6.34 1 5.68 1 5 C0.34 5 -0.32 5 -1 5 C-1.33 4.01 -1.66 3.02 -2 2 C-1.34 1.34 -0.68 0.68 0 0 Z " fill="#E4C5BF" transform="translate(372,156)"/>
<path d="M0 0 C2.10388569 -0.05402274 4.20816714 -0.09280256 6.3125 -0.125 C8.07013672 -0.15980469 8.07013672 -0.15980469 9.86328125 -0.1953125 C13 0 13 0 16 2 C16 2.66 16 3.32 16 4 C15.21625 3.690625 14.4325 3.38125 13.625 3.0625 C9.10148422 1.73664193 4.68568186 1.35188915 0 1 C0 0.67 0 0.34 0 0 Z " fill="#65D6F0" transform="translate(215,129)"/>
<path d="M0 0 C1.2077558 3.62326739 0.54311128 4.64146369 -1 8 C-1.99 8 -2.98 8 -4 8 C-3.6875 5.125 -3.6875 5.125 -3 2 C-2.01 1.34 -1.02 0.68 0 0 Z " fill="#0F1C1F" transform="translate(69,120)"/>
<path d="M0 0 C0 3.41321235 -0.66867466 4.39472885 -2.5 7.1875 C-2.9640625 7.90292969 -3.428125 8.61835938 -3.90625 9.35546875 C-4.2671875 9.89816406 -4.628125 10.44085938 -5 11 C-5.33 10.01 -5.66 9.02 -6 8 C-4.41866551 4.83733102 -2.61885488 2.36944013 0 0 Z " fill="#53737B" transform="translate(272,209)"/>
<path d="M0 0 C1.9375 0.25 1.9375 0.25 4 1 C4.66 1.99 5.32 2.98 6 4 C3.69 4 1.38 4 -1 4 C-1 1 -1 1 0 0 Z " fill="#61C1D8" transform="translate(213,130)"/>
<path d="M0 0 C0.680625 0.268125 1.36125 0.53625 2.0625 0.8125 C0.72916667 1.47916667 -0.60416667 2.14583333 -1.9375 2.8125 C-3.484375 3.6478125 -3.484375 3.6478125 -5.0625 4.5 C-6.01125 4.933125 -6.96 5.36625 -7.9375 5.8125 C-8.5975 5.4825 -9.2575 5.1525 -9.9375 4.8125 C-3.86310175 -0.24658096 -3.86310175 -0.24658096 0 0 Z " fill="#7EBECD" transform="translate(283.9375,261.1875)"/>
<path d="M0 0 C5.41538462 -0.36923077 5.41538462 -0.36923077 8.375 1.5 C8.91125 1.995 9.4475 2.49 10 3 C6.18510326 4.46726798 3.70988378 3.43336419 0 2 C0 1.34 0 0.68 0 0 Z " fill="#62CCE4" transform="translate(219,130)"/>
<path d="M0 0 C0.66 0.33 1.32 0.66 2 1 C1.2575 2.175625 1.2575 2.175625 0.5 3.375 C-1.16537965 5.78552327 -1.16537965 5.78552327 -1 8 C-1.66 8 -2.32 8 -3 8 C-3.66 6.68 -4.32 5.36 -5 4 C-3.35 2.68 -1.7 1.36 0 0 Z " fill="#82D6E9" transform="translate(175,124)"/>
</svg>
