<?xml version="1.0" encoding="UTF-8"?>
<!DOCTYPE svg PUBLIC "-//W3C//DTD SVG 1.1//EN" "http://www.w3.org/Graphics/SVG/1.1/DTD/svg11.dtd">
<svg xmlns="http://www.w3.org/2000/svg" version="1.1" width="500px" height="500px" style="shape-rendering:geometricPrecision; text-rendering:geometricPrecision; image-rendering:optimizeQuality; fill-rule:evenodd; clip-rule:evenodd" xmlns:xlink="http://www.w3.org/1999/xlink">
<g><path style="opacity:0.18" fill="#69defe" d="M 331.5,39.5 C 279.598,40.8303 227.598,40.8303 175.5,39.5C 192.403,27.218 211.07,18.3846 231.5,13C 262.311,9.28488 291.311,14.9515 318.5,30C 323.015,33.0299 327.349,36.1966 331.5,39.5 Z"/></g>
<g><path style="opacity:0.986" fill="#68e0fc" d="M 175.5,39.5 C 227.598,40.8303 279.598,40.8303 331.5,39.5C 346.456,40.3016 361.456,40.8016 376.5,41C 387.333,43.8333 394.167,50.6667 397,61.5C 397.179,81.2397 397.679,100.906 398.5,120.5C 397.833,147.167 397.167,173.833 396.5,200.5C 390.319,198.748 383.986,198.081 377.5,198.5C 377.5,190.167 377.5,181.833 377.5,173.5C 378.161,170.512 378.828,167.512 379.5,164.5C 379.36,162.97 378.693,161.97 377.5,161.5C 377.5,160.833 377.5,160.167 377.5,159.5C 377.5,148.167 377.5,136.833 377.5,125.5C 377.5,111.167 377.5,96.8333 377.5,82.5C 375.621,71.598 369.288,64.7646 358.5,62C 288.167,61.3333 217.833,61.3333 147.5,62C 139.823,64.4123 134.323,69.2456 131,76.5C 129.577,86.4203 129.077,96.4203 129.5,106.5C 129.5,108.167 129.5,109.833 129.5,111.5C 122.5,111.5 115.5,111.5 108.5,111.5C 108.667,99.4954 108.5,87.4954 108,75.5C 106.989,76.3366 105.822,76.67 104.5,76.5C 105.261,75.6091 106.261,74.9424 107.5,74.5C 106.34,57.534 113.673,46.3674 129.5,41C 144.907,40.8175 160.241,40.3175 175.5,39.5 Z"/></g>
<g><path style="opacity:1" fill="#59b7cc" d="M 230.5,51.5 C 247.837,51.3334 265.17,51.5001 282.5,52C 283.833,53 283.833,54 282.5,55C 265.17,55.4999 247.837,55.6666 230.5,55.5C 230.5,54.1667 230.5,52.8333 230.5,51.5 Z"/></g>
<g><path style="opacity:1" fill="#bcf1fd" d="M 377.5,82.5 C 357.559,82.022 335.726,81.6887 312,81.5C 309.26,82.2822 306.426,82.7822 303.5,83C 276.502,83.5 249.502,83.6666 222.5,83.5C 219.705,74.5801 213.705,71.4135 204.5,74C 197.726,73.7782 193.559,76.9448 192,83.5C 189.922,90.3886 188.422,97.3886 187.5,104.5C 168.241,106.343 148.907,107.01 129.5,106.5C 129.077,96.4203 129.577,86.4203 131,76.5C 134.323,69.2456 139.823,64.4123 147.5,62C 217.833,61.3333 288.167,61.3333 358.5,62C 369.288,64.7646 375.621,71.598 377.5,82.5 Z"/></g>
<g><path style="opacity:1" fill="#2a2728" d="M 222.5,83.5 C 222.5,85.1667 222.5,86.8333 222.5,88.5C 221.041,88.4326 219.708,88.7659 218.5,89.5C 214.975,89.6541 212.141,88.3208 210,85.5C 209.667,86.1667 209.333,86.8333 209,87.5C 207.117,86.3474 206.284,84.6807 206.5,82.5C 202.626,84.6976 199.292,87.6976 196.5,91.5C 195.572,89.6652 194.406,89.3318 193,90.5C 193.711,93.9409 194.544,97.4409 195.5,101C 195.662,103.502 194.995,105.669 193.5,107.5C 189.122,107.689 185.122,109.022 181.5,111.5C 164.167,111.5 146.833,111.5 129.5,111.5C 129.5,109.833 129.5,108.167 129.5,106.5C 148.907,107.01 168.241,106.343 187.5,104.5C 188.422,97.3886 189.922,90.3886 192,83.5C 193.559,76.9448 197.726,73.7782 204.5,74C 213.705,71.4135 219.705,74.5801 222.5,83.5 Z"/></g>
<g><path style="opacity:0.186" fill="#68defe" d="M 108.5,111.5 C 100.167,111.5 91.8333,111.5 83.5,111.5C 72.9695,111.86 66.4695,117.193 64,127.5C 63.5008,132.155 63.3342,136.821 63.5,141.5C 60.6214,151.044 62.9548,159.21 70.5,166C 72.6504,167.411 74.9837,168.245 77.5,168.5C 87.8333,169.833 98.1667,169.833 108.5,168.5C 115.687,168.175 122.687,168.509 129.5,169.5C 129.5,174.833 129.5,180.167 129.5,185.5C 129.5,190.167 129.5,194.833 129.5,199.5C 124.14,199.609 118.807,199.276 113.5,198.5C 111.68,198.351 110.18,197.684 109,196.5C 108.5,206.161 108.334,215.828 108.5,225.5C 108.5,246.167 108.5,266.833 108.5,287.5C 108.5,292.833 108.5,298.167 108.5,303.5C 106.5,303.5 104.5,303.5 102.5,303.5C 94.2756,304.551 88.4423,308.884 85,316.5C 83.5973,327.102 83.0973,337.769 83.5,348.5C 85.0563,359.723 91.3897,366.389 102.5,368.5C 104.5,368.5 106.5,368.5 108.5,368.5C 108.333,381.504 108.5,394.504 109,407.5C 109.374,409.491 110.207,411.158 111.5,412.5C 111.833,413.833 112.167,415.167 112.5,416.5C 84.1403,403.976 60.6403,385.309 42,360.5C 22.6127,332.247 18.2793,301.914 29,269.5C 33.8837,259.733 38.217,249.733 42,239.5C 45.088,227.159 43.4214,215.493 37,204.5C 5.69048,161.223 12.5238,125.057 57.5,96C 72.512,87.8244 88.1787,81.3244 104.5,76.5C 105.822,76.67 106.989,76.3366 108,75.5C 108.5,87.4954 108.667,99.4954 108.5,111.5 Z"/></g>
<g><path style="opacity:1" fill="#b8f0fd" d="M 377.5,82.5 C 377.5,96.8333 377.5,111.167 377.5,125.5C 330.374,125.66 284.374,125.66 239.5,125.5C 247.639,120.519 253.472,113.519 257,104.5C 259.593,102.451 262.093,100.285 264.5,98C 263.167,98 261.833,98 260.5,98C 262.167,96.3333 263.833,94.6667 265.5,93C 263.544,93.2218 261.71,94.0552 260,95.5C 259.833,95.1667 259.667,94.8333 259.5,94.5C 265.17,87.7609 264.67,87.0942 258,92.5C 257.667,90.8333 257.333,89.1667 257,87.5C 256.722,88.4158 256.222,89.0825 255.5,89.5C 255.565,89.0618 255.399,88.7284 255,88.5C 252.087,91.3731 248.587,92.7065 244.5,92.5C 245.773,102.799 241.439,109.299 231.5,112C 227.848,112.499 224.182,112.665 220.5,112.5C 216.534,111.838 212.534,111.505 208.5,111.5C 208.44,110.957 208.107,110.624 207.5,110.5C 206.818,111.243 206.151,111.909 205.5,112.5C 205.286,110.856 205.62,109.356 206.5,108C 212.189,107.313 215.689,104.147 217,98.5C 217.696,95.5219 218.196,92.5219 218.5,89.5C 219.708,88.7659 221.041,88.4326 222.5,88.5C 222.5,86.8333 222.5,85.1667 222.5,83.5C 249.502,83.6666 276.502,83.5 303.5,83C 306.426,82.7822 309.26,82.2822 312,81.5C 335.726,81.6887 357.559,82.022 377.5,82.5 Z"/></g>
<g><path style="opacity:1" fill="#fbb2a1" d="M 218.5,89.5 C 218.196,92.5219 217.696,95.5219 217,98.5C 215.689,104.147 212.189,107.313 206.5,108C 205.62,109.356 205.286,110.856 205.5,112.5C 205.389,113.117 205.056,113.617 204.5,114C 199.027,115.048 195.361,112.881 193.5,107.5C 194.995,105.669 195.662,103.502 195.5,101C 194.544,97.4409 193.711,93.9409 193,90.5C 194.406,89.3318 195.572,89.6652 196.5,91.5C 199.292,87.6976 202.626,84.6976 206.5,82.5C 206.284,84.6807 207.117,86.3474 209,87.5C 209.333,86.8333 209.667,86.1667 210,85.5C 212.141,88.3208 214.975,89.6541 218.5,89.5 Z"/></g>
<g><path style="opacity:1" fill="#2c2829" d="M 255.5,89.5 C 254.949,92.9574 252.949,94.6241 249.5,94.5C 250.769,99.9952 249.602,104.995 246,109.5C 241.718,114.296 236.551,117.63 230.5,119.5C 227.675,116.325 224.341,113.992 220.5,112.5C 224.182,112.665 227.848,112.499 231.5,112C 241.439,109.299 245.773,102.799 244.5,92.5C 248.587,92.7065 252.087,91.3731 255,88.5C 255.399,88.7284 255.565,89.0618 255.5,89.5 Z"/></g>
<g><path style="opacity:1" fill="#f9b2a2" d="M 239.5,125.5 C 237.25,126.13 235.25,127.13 233.5,128.5C 232.833,128.5 232.167,128.5 231.5,128.5C 231.425,125.794 231.092,123.127 230.5,120.5C 230.5,120.167 230.5,119.833 230.5,119.5C 236.551,117.63 241.718,114.296 246,109.5C 249.602,104.995 250.769,99.9952 249.5,94.5C 252.949,94.6241 254.949,92.9574 255.5,89.5C 256.222,89.0825 256.722,88.4158 257,87.5C 257.333,89.1667 257.667,90.8333 258,92.5C 264.67,87.0942 265.17,87.7609 259.5,94.5C 259.667,94.8333 259.833,95.1667 260,95.5C 261.71,94.0552 263.544,93.2218 265.5,93C 263.833,94.6667 262.167,96.3333 260.5,98C 261.833,98 263.167,98 264.5,98C 262.093,100.285 259.593,102.451 257,104.5C 253.472,113.519 247.639,120.519 239.5,125.5 Z"/></g>
<g><path style="opacity:1" fill="#6bdef9" d="M 193.5,107.5 C 195.361,112.881 199.027,115.048 204.5,114C 205.056,113.617 205.389,113.117 205.5,112.5C 206.151,111.909 206.818,111.243 207.5,110.5C 208.107,110.624 208.44,110.957 208.5,111.5C 212.426,114.807 216.76,117.64 221.5,120C 224.482,120.498 227.482,120.665 230.5,120.5C 231.092,123.127 231.425,125.794 231.5,128.5C 231.67,129.822 231.337,130.989 230.5,132C 224.014,134.91 217.514,135.077 211,132.5C 206.924,142.805 204.424,153.472 203.5,164.5C 202.596,165.209 202.263,166.209 202.5,167.5C 199.5,167.5 196.5,167.5 193.5,167.5C 193.672,166.508 193.338,165.842 192.5,165.5C 190.587,161.738 188.421,158.071 186,154.5C 185.667,152.833 185.333,151.167 185,149.5C 184.451,141.088 184.784,132.754 186,124.5C 184.311,128.56 182.144,132.227 179.5,135.5C 178.404,133.897 177.07,132.397 175.5,131C 174.423,130.53 173.423,130.697 172.5,131.5C 171.636,130.312 170.636,129.145 169.5,128C 173.876,122.736 177.876,117.236 181.5,111.5C 185.122,109.022 189.122,107.689 193.5,107.5 Z"/></g>
<g><path style="opacity:1" fill="#fcfdfd" d="M 83.5,111.5 C 91.8333,111.5 100.167,111.5 108.5,111.5C 115.5,111.5 122.5,111.5 129.5,111.5C 146.833,111.5 164.167,111.5 181.5,111.5C 177.876,117.236 173.876,122.736 169.5,128C 170.636,129.145 171.636,130.312 172.5,131.5C 171.616,139.476 170.949,147.476 170.5,155.5C 170.568,159.55 170.902,163.55 171.5,167.5C 142.167,167.5 112.833,167.5 83.5,167.5C 83.1667,167.5 82.8333,167.5 82.5,167.5C 76.5058,166.359 72.0058,163.026 69,157.5C 67.5766,147.58 67.0766,137.58 67.5,127.5C 69.3542,118.592 74.6876,113.259 83.5,111.5 Z"/></g>
<g><path style="opacity:1" fill="#f3f8f9" d="M 208.5,111.5 C 212.534,111.505 216.534,111.838 220.5,112.5C 224.341,113.992 227.675,116.325 230.5,119.5C 230.5,119.833 230.5,120.167 230.5,120.5C 227.482,120.665 224.482,120.498 221.5,120C 216.76,117.64 212.426,114.807 208.5,111.5 Z"/></g>
<g><path style="opacity:0.18" fill="#69defe" d="M 398.5,120.5 C 414.006,135.504 430.006,150.004 446.5,164C 460.688,177.18 472.188,192.347 481,209.5C 488.366,224.837 490.366,240.837 487,257.5C 483.533,267.566 479.867,277.566 476,287.5C 472.661,301.645 471.661,315.978 473,330.5C 485.758,380.159 470.258,417.492 426.5,442.5C 425.833,442.5 425.167,442.5 424.5,442.5C 420.865,441.886 417.198,441.552 413.5,441.5C 410.675,441.919 408.509,440.919 407,438.5C 406.817,435.635 406.317,432.969 405.5,430.5C 404.069,426.277 401.069,424.277 396.5,424.5C 393.359,423.679 390.025,423.179 386.5,423C 387.381,422.292 388.047,421.458 388.5,420.5C 393.218,417.071 395.885,412.404 396.5,406.5C 397.497,386.007 397.831,365.34 397.5,344.5C 397.5,333.167 397.5,321.833 397.5,310.5C 397.5,294.167 397.5,277.833 397.5,261.5C 406.25,261.91 414.916,261.41 423.5,260C 429.026,256.994 432.359,252.494 433.5,246.5C 434.617,236.547 434.783,226.547 434,216.5C 431.5,210 427,205.5 420.5,203C 412.507,202.5 404.507,202.334 396.5,202.5C 396.5,201.833 396.5,201.167 396.5,200.5C 397.167,173.833 397.833,147.167 398.5,120.5 Z"/></g>
<g><path style="opacity:1" fill="#b0eefd" d="M 239.5,125.5 C 284.374,125.66 330.374,125.66 377.5,125.5C 377.5,136.833 377.5,148.167 377.5,159.5C 375.983,159.511 374.816,160.177 374,161.5C 373.667,159.953 374.167,158.62 375.5,157.5C 375.167,157.167 374.833,156.833 374.5,156.5C 373.52,157.981 372.353,159.315 371,160.5C 371,159.167 371,157.833 371,156.5C 369.426,157.984 368.093,159.651 367,161.5C 366.692,160.692 366.192,160.025 365.5,159.5C 360.248,171.684 353.248,182.684 344.5,192.5C 339.593,186.366 335.427,179.699 332,172.5C 330.29,170.62 328.457,168.954 326.5,167.5C 324.128,168.439 321.961,169.772 320,171.5C 316.595,170.366 313.262,169.366 310,168.5C 302.766,169.923 299.099,174.256 299,181.5C 297.634,183.37 296.467,185.37 295.5,187.5C 294.998,188.521 294.332,188.688 293.5,188C 292.213,186.59 291.046,185.09 290,183.5C 285.985,173.291 281.485,163.291 276.5,153.5C 275.743,152.227 275.077,152.227 274.5,153.5C 273.533,154.806 272.199,155.473 270.5,155.5C 269.516,150.342 268.683,150.342 268,155.5C 266.315,153.983 264.815,152.316 263.5,150.5C 262.524,152.123 263.024,153.457 265,154.5C 265.667,155.5 265.667,156.5 265,157.5C 258.622,152.089 258.122,152.589 263.5,159C 262.551,159.617 261.718,159.451 261,158.5C 260.333,159.167 260.333,159.833 261,160.5C 263.795,162.751 266.128,165.418 268,168.5C 269.991,174.138 271.825,179.804 273.5,185.5C 238.236,184.358 202.903,183.858 167.5,184C 173.5,184.333 179.5,184.667 185.5,185C 166.836,185.5 148.17,185.667 129.5,185.5C 129.5,180.167 129.5,174.833 129.5,169.5C 156.835,169.333 184.169,169.5 211.5,170C 218.576,170.91 224.576,173.91 229.5,179C 230.448,179.483 231.448,179.649 232.5,179.5C 233.497,162.675 233.83,145.675 233.5,128.5C 235.25,127.13 237.25,126.13 239.5,125.5 Z"/></g>
<g><path style="opacity:1" fill="#292526" d="M 192.5,165.5 C 188.285,167.436 183.619,168.103 178.5,167.5C 176.878,156.748 177.212,146.081 179.5,135.5C 182.144,132.227 184.311,128.56 186,124.5C 184.784,132.754 184.451,141.088 185,149.5C 185.333,151.167 185.667,152.833 186,154.5C 188.421,158.071 190.587,161.738 192.5,165.5 Z"/></g>
<g><path style="opacity:1" fill="#cef5fe" d="M 78.5,128.5 C 103.836,128.333 129.169,128.5 154.5,129C 157.167,131.333 157.167,133.667 154.5,136C 129.167,136.667 103.833,136.667 78.5,136C 77.2215,133.502 77.2215,131.002 78.5,128.5 Z"/></g>
<g><path style="opacity:1" fill="#fdfefe" d="M 231.5,128.5 C 232.167,128.5 232.833,128.5 233.5,128.5C 233.83,145.675 233.497,162.675 232.5,179.5C 224.825,170.937 215.158,167.27 203.5,168.5C 203.5,167.167 203.5,165.833 203.5,164.5C 204.424,153.472 206.924,142.805 211,132.5C 217.514,135.077 224.014,134.91 230.5,132C 231.337,130.989 231.67,129.822 231.5,128.5 Z"/></g>
<g><path style="opacity:1" fill="#feb6a6" d="M 179.5,135.5 C 177.212,146.081 176.878,156.748 178.5,167.5C 178.167,167.5 177.833,167.5 177.5,167.5C 175.5,167.5 173.5,167.5 171.5,167.5C 170.902,163.55 170.568,159.55 170.5,155.5C 170.949,147.476 171.616,139.476 172.5,131.5C 173.423,130.697 174.423,130.53 175.5,131C 177.07,132.397 178.404,133.897 179.5,135.5 Z"/></g>
<g><path style="opacity:1" fill="#6ce1fd" d="M 286.5,130.5 C 291.713,129.762 294.713,131.928 295.5,137C 293.805,142.36 290.305,143.86 285,141.5C 282.689,137.374 283.189,133.707 286.5,130.5 Z"/></g>
<g><path style="opacity:1" fill="#6de2fd" d="M 305.5,130.5 C 311.17,130.339 314.003,133.006 314,138.5C 311.947,142.292 308.781,143.458 304.5,142C 300.344,137.787 300.677,133.954 305.5,130.5 Z"/></g>
<g><path style="opacity:1" fill="#6be1fd" d="M 324.5,130.5 C 330.873,130.368 333.373,133.368 332,139.5C 328.38,143.487 324.713,143.487 321,139.5C 319.98,135.553 321.147,132.553 324.5,130.5 Z"/></g>
<g><path style="opacity:0.675" fill="#121e22" d="M 83.5,111.5 C 74.6876,113.259 69.3542,118.592 67.5,127.5C 66.8334,135.676 66.1667,144.01 65.5,152.5C 64.914,152.709 64.414,153.043 64,153.5C 63.5012,149.514 63.3345,145.514 63.5,141.5C 63.3342,136.821 63.5008,132.155 64,127.5C 66.4695,117.193 72.9695,111.86 83.5,111.5 Z"/></g>
<g><path style="opacity:1" fill="#d0f5fe" d="M 79.5,145.5 C 104.169,145.333 128.836,145.5 153.5,146C 157.405,148.858 157.405,151.525 153.5,154C 128.833,154.667 104.167,154.667 79.5,154C 75.5811,151.226 75.5811,148.393 79.5,145.5 Z"/></g>
<g><path style="opacity:1" fill="#fab2a2" d="M 274.5,153.5 C 274.335,156.518 274.502,159.518 275,162.5C 280.071,173.551 284.238,184.885 287.5,196.5C 287.698,200.257 286.365,203.257 283.5,205.5C 282.817,205.137 282.15,204.804 281.5,204.5C 279.629,197.903 276.962,191.569 273.5,185.5C 271.825,179.804 269.991,174.138 268,168.5C 266.128,165.418 263.795,162.751 261,160.5C 260.333,159.833 260.333,159.167 261,158.5C 261.718,159.451 262.551,159.617 263.5,159C 258.122,152.589 258.622,152.089 265,157.5C 265.667,156.5 265.667,155.5 265,154.5C 263.024,153.457 262.524,152.123 263.5,150.5C 264.815,152.316 266.315,153.983 268,155.5C 268.683,150.342 269.516,150.342 270.5,155.5C 272.199,155.473 273.533,154.806 274.5,153.5 Z"/></g>
<g><path style="opacity:1" fill="#272324" d="M 344.5,192.5 C 343.214,195.117 341.547,197.45 339.5,199.5C 331.221,202.973 323.221,206.973 315.5,211.5C 315.821,210.183 316.154,208.849 316.5,207.5C 314.785,203.854 313.785,200.021 313.5,196C 315.029,190.243 315.529,184.41 315,178.5C 311.667,175.833 308.333,175.833 305,178.5C 300.859,185.699 300.526,193.033 304,200.5C 304.499,204.152 304.665,207.818 304.5,211.5C 302.251,210.92 300.585,209.587 299.5,207.5C 299.5,205.833 299.5,204.167 299.5,202.5C 298.167,202.5 296.833,202.5 295.5,202.5C 293.098,200.091 290.431,198.091 287.5,196.5C 284.238,184.885 280.071,173.551 275,162.5C 274.502,159.518 274.335,156.518 274.5,153.5C 275.077,152.227 275.743,152.227 276.5,153.5C 281.485,163.291 285.985,173.291 290,183.5C 291.046,185.09 292.213,186.59 293.5,188C 294.332,188.688 294.998,188.521 295.5,187.5C 296.467,185.37 297.634,183.37 299,181.5C 299.099,174.256 302.766,169.923 310,168.5C 313.262,169.366 316.595,170.366 320,171.5C 321.961,169.772 324.128,168.439 326.5,167.5C 328.457,168.954 330.29,170.62 332,172.5C 335.427,179.699 339.593,186.366 344.5,192.5 Z"/></g>
<g><path style="opacity:0.511" fill="#253f47" d="M 67.5,127.5 C 67.0766,137.58 67.5766,147.58 69,157.5C 72.0058,163.026 76.5058,166.359 82.5,167.5C 81.0813,168.451 79.4147,168.784 77.5,168.5C 74.9837,168.245 72.6504,167.411 70.5,166C 62.9548,159.21 60.6214,151.044 63.5,141.5C 63.3345,145.514 63.5012,149.514 64,153.5C 64.414,153.043 64.914,152.709 65.5,152.5C 66.1667,144.01 66.8334,135.676 67.5,127.5 Z"/></g>
<g><path style="opacity:1" fill="#f8b2a3" d="M 377.5,159.5 C 377.5,160.167 377.5,160.833 377.5,161.5C 376.852,163.086 376.352,164.753 376,166.5C 373.372,168.126 371.039,170.126 369,172.5C 361.607,182.896 354.607,193.563 348,204.5C 346.629,206.041 345.129,207.375 343.5,208.5C 343.672,207.508 343.338,206.842 342.5,206.5C 341.043,204.372 340.043,202.038 339.5,199.5C 341.547,197.45 343.214,195.117 344.5,192.5C 353.248,182.684 360.248,171.684 365.5,159.5C 366.192,160.025 366.692,160.692 367,161.5C 368.093,159.651 369.426,157.984 371,156.5C 371,157.833 371,159.167 371,160.5C 372.353,159.315 373.52,157.981 374.5,156.5C 374.833,156.833 375.167,157.167 375.5,157.5C 374.167,158.62 373.667,159.953 374,161.5C 374.816,160.177 375.983,159.511 377.5,159.5 Z"/></g>
<g><path style="opacity:1" fill="#282526" d="M 377.5,161.5 C 378.693,161.97 379.36,162.97 379.5,164.5C 378.828,167.512 378.161,170.512 377.5,173.5C 371.351,180.488 365.351,187.654 359.5,195C 359.735,195.873 360.069,196.707 360.5,197.5C 366.128,198.495 371.794,198.829 377.5,198.5C 383.986,198.081 390.319,198.748 396.5,200.5C 396.5,201.167 396.5,201.833 396.5,202.5C 381.5,202.5 366.5,202.5 351.5,202.5C 351.383,207.193 349.716,211.193 346.5,214.5C 345.542,214.953 344.708,215.619 344,216.5C 343.503,218.81 343.337,221.143 343.5,223.5C 339.415,229.672 334.748,230.005 329.5,224.5C 331.26,220.238 334.26,217.072 338.5,215C 340.765,213.242 342.432,211.075 343.5,208.5C 345.129,207.375 346.629,206.041 348,204.5C 354.607,193.563 361.607,182.896 369,172.5C 371.039,170.126 373.372,168.126 376,166.5C 376.352,164.753 376.852,163.086 377.5,161.5 Z"/></g>
<g><path style="opacity:1" fill="#5d7c84" d="M 192.5,165.5 C 193.338,165.842 193.672,166.508 193.5,167.5C 188.167,168.833 182.833,168.833 177.5,167.5C 177.833,167.5 178.167,167.5 178.5,167.5C 183.619,168.103 188.285,167.436 192.5,165.5 Z"/></g>
<g><path style="opacity:0.31" fill="#356e7e" d="M 82.5,167.5 C 82.8333,167.5 83.1667,167.5 83.5,167.5C 91.6499,168.493 99.9832,168.826 108.5,168.5C 98.1667,169.833 87.8333,169.833 77.5,168.5C 79.4147,168.784 81.0813,168.451 82.5,167.5 Z"/></g>
<g><path style="opacity:1" fill="#9fcbd5" d="M 203.5,164.5 C 203.5,165.833 203.5,167.167 203.5,168.5C 215.158,167.27 224.825,170.937 232.5,179.5C 231.448,179.649 230.448,179.483 229.5,179C 224.576,173.91 218.576,170.91 211.5,170C 184.169,169.5 156.835,169.333 129.5,169.5C 122.687,168.509 115.687,168.175 108.5,168.5C 99.9832,168.826 91.6499,168.493 83.5,167.5C 112.833,167.5 142.167,167.5 171.5,167.5C 173.5,167.5 175.5,167.5 177.5,167.5C 182.833,168.833 188.167,168.833 193.5,167.5C 196.5,167.5 199.5,167.5 202.5,167.5C 202.263,166.209 202.596,165.209 203.5,164.5 Z"/></g>
<g><path style="opacity:1" fill="#f8af9f" d="M 315.5,211.5 C 314.412,215.748 311.745,217.248 307.5,216C 306.614,214.385 305.614,212.885 304.5,211.5C 304.665,207.818 304.499,204.152 304,200.5C 300.526,193.033 300.859,185.699 305,178.5C 308.333,175.833 311.667,175.833 315,178.5C 315.529,184.41 315.029,190.243 313.5,196C 313.785,200.021 314.785,203.854 316.5,207.5C 316.154,208.849 315.821,210.183 315.5,211.5 Z"/></g>
<g><path style="opacity:1" fill="#a3e9fa" d="M 377.5,173.5 C 377.5,181.833 377.5,190.167 377.5,198.5C 371.794,198.829 366.128,198.495 360.5,197.5C 360.069,196.707 359.735,195.873 359.5,195C 365.351,187.654 371.351,180.488 377.5,173.5 Z"/></g>
<g><path style="opacity:1" fill="#68dffb" d="M 287.5,196.5 C 290.431,198.091 293.098,200.091 295.5,202.5C 296.08,204.749 297.413,206.415 299.5,207.5C 300.585,209.587 302.251,210.92 304.5,211.5C 305.614,212.885 306.614,214.385 307.5,216C 311.745,217.248 314.412,215.748 315.5,211.5C 323.221,206.973 331.221,202.973 339.5,199.5C 340.043,202.038 341.043,204.372 342.5,206.5C 337.469,209.441 332.636,212.775 328,216.5C 324.955,222.009 321.622,227.342 318,232.5C 317.667,234.167 317.333,235.833 317,237.5C 312.62,244.265 308.786,251.265 305.5,258.5C 299.077,258.209 292.744,258.542 286.5,259.5C 286.922,248.828 287.089,238.161 287,227.5C 286.899,220.288 284.566,213.955 280,208.5C 279.51,207.207 279.343,205.873 279.5,204.5C 280.167,204.5 280.833,204.5 281.5,204.5C 282.15,204.804 282.817,205.137 283.5,205.5C 286.365,203.257 287.698,200.257 287.5,196.5 Z"/></g>
<g><path style="opacity:1" fill="#a1ecfd" d="M 273.5,185.5 C 276.962,191.569 279.629,197.903 281.5,204.5C 280.833,204.5 280.167,204.5 279.5,204.5C 277.15,205.861 274.816,207.194 272.5,208.5C 271.167,209.5 269.833,210.5 268.5,211.5C 221.767,211.536 175.434,211.536 129.5,211.5C 129.5,207.5 129.5,203.5 129.5,199.5C 129.5,194.833 129.5,190.167 129.5,185.5C 148.17,185.667 166.836,185.5 185.5,185C 179.5,184.667 173.5,184.333 167.5,184C 202.903,183.858 238.236,184.358 273.5,185.5 Z"/></g>
<g><path style="opacity:1" fill="#d2d4d5" d="M 295.5,202.5 C 296.833,202.5 298.167,202.5 299.5,202.5C 299.5,204.167 299.5,205.833 299.5,207.5C 297.413,206.415 296.08,204.749 295.5,202.5 Z"/></g>
<g><path style="opacity:1" fill="#fdfdfd" d="M 396.5,202.5 C 404.507,202.334 412.507,202.5 420.5,203C 427,205.5 431.5,210 434,216.5C 434.783,226.547 434.617,236.547 433.5,246.5C 430.943,253.376 425.943,257.376 418.5,258.5C 387.5,258.5 356.5,258.5 325.5,258.5C 325.971,247.012 327.305,235.678 329.5,224.5C 334.748,230.005 339.415,229.672 343.5,223.5C 368.791,224.648 394.124,224.814 419.5,224C 423.386,221.474 423.386,218.808 419.5,216C 394.997,215.832 370.663,215.332 346.5,214.5C 349.716,211.193 351.383,207.193 351.5,202.5C 366.5,202.5 381.5,202.5 396.5,202.5 Z"/></g>
<g><path style="opacity:1" fill="#fbfdfd" d="M 279.5,204.5 C 279.343,205.873 279.51,207.207 280,208.5C 284.566,213.955 286.899,220.288 287,227.5C 287.089,238.161 286.922,248.828 286.5,259.5C 281.805,260.215 277.805,262.215 274.5,265.5C 271.888,266.779 269.555,268.445 267.5,270.5C 267.5,267.167 267.5,263.833 267.5,260.5C 267.333,246.163 267.5,231.829 268,217.5C 269.038,214.185 270.538,211.185 272.5,208.5C 274.816,207.194 277.15,205.861 279.5,204.5 Z"/></g>
<g><path style="opacity:0.995" fill="#64d8f3" d="M 129.5,199.5 C 129.5,203.5 129.5,207.5 129.5,211.5C 129.5,216.167 129.5,220.833 129.5,225.5C 122.5,225.5 115.5,225.5 108.5,225.5C 108.334,215.828 108.5,206.161 109,196.5C 110.18,197.684 111.68,198.351 113.5,198.5C 118.807,199.276 124.14,199.609 129.5,199.5 Z"/></g>
<g><path style="opacity:1" fill="#cff4fd" d="M 346.5,214.5 C 370.663,215.332 394.997,215.832 419.5,216C 423.386,218.808 423.386,221.474 419.5,224C 394.124,224.814 368.791,224.648 343.5,223.5C 343.337,221.143 343.503,218.81 344,216.5C 344.708,215.619 345.542,214.953 346.5,214.5 Z"/></g>
<g><path style="opacity:1" fill="#4e7983" d="M 272.5,208.5 C 270.538,211.185 269.038,214.185 268,217.5C 267.5,231.829 267.333,246.163 267.5,260.5C 265.518,247.208 264.851,233.541 265.5,219.5C 265.722,216.496 266.722,213.829 268.5,211.5C 269.833,210.5 271.167,209.5 272.5,208.5 Z"/></g>
<g><path style="opacity:1" fill="#63cfe8" d="M 342.5,206.5 C 343.338,206.842 343.672,207.508 343.5,208.5C 342.432,211.075 340.765,213.242 338.5,215C 334.26,217.072 331.26,220.238 329.5,224.5C 327.305,235.678 325.971,247.012 325.5,258.5C 318.833,258.5 312.167,258.5 305.5,258.5C 308.786,251.265 312.62,244.265 317,237.5C 317.333,235.833 317.667,234.167 318,232.5C 321.622,227.342 324.955,222.009 328,216.5C 332.636,212.775 337.469,209.441 342.5,206.5 Z"/></g>
<g><path style="opacity:1" fill="#93e9fd" d="M 129.5,211.5 C 175.434,211.536 221.767,211.536 268.5,211.5C 266.722,213.829 265.722,216.496 265.5,219.5C 264.506,228.652 264.173,237.985 264.5,247.5C 244.539,247.896 225.372,248.229 207,248.5C 202.561,247.546 202.561,246.212 207,244.5C 209.544,236.542 206.71,233.542 198.5,235.5C 194.063,240.582 195.063,244.416 201.5,247C 200.584,247.374 199.75,247.874 199,248.5C 194.104,247.763 189.437,247.763 185,248.5C 185.746,246.68 187.079,245.013 189,243.5C 190.608,238.107 188.608,235.107 183,234.5C 177.977,235.542 176.31,238.542 178,243.5C 179.214,245.049 180.714,246.215 182.5,247C 181.747,248.487 180.914,248.654 180,247.5C 179.5,248 179,248.5 178.5,249C 162.17,249.5 145.837,249.667 129.5,249.5C 129.5,241.5 129.5,233.5 129.5,225.5C 129.5,220.833 129.5,216.167 129.5,211.5 Z"/></g>
<g><path style="opacity:1" fill="#69e1fd" d="M 161.5,234.5 C 170.818,234.655 172.818,238.488 167.5,246C 162.107,247.608 159.107,245.608 158.5,240C 158.863,237.808 159.863,235.974 161.5,234.5 Z"/></g>
<g><path style="opacity:1" fill="#d0f5fe" d="M 345.5,233.5 C 370.502,233.333 395.502,233.5 420.5,234C 423.1,236.459 423.1,238.959 420.5,241.5C 395.507,242.666 370.507,242.833 345.5,242C 342.899,239.17 342.899,236.337 345.5,233.5 Z"/></g>
<g><path style="opacity:1" fill="#73bccc" d="M 265.5,219.5 C 264.851,233.541 265.518,247.208 267.5,260.5C 267.5,263.833 267.5,267.167 267.5,270.5C 266.928,271.973 266.095,273.307 265,274.5C 264.5,265.506 264.334,256.506 264.5,247.5C 264.173,237.985 264.506,228.652 265.5,219.5 Z"/></g>
<g><path style="opacity:1" fill="#8be7fc" d="M 264.5,247.5 C 264.334,256.506 264.5,265.506 265,274.5C 266.095,273.307 266.928,271.973 267.5,270.5C 269.555,268.445 271.888,266.779 274.5,265.5C 277.516,264.438 280.516,263.271 283.5,262C 314.832,261.5 346.165,261.333 377.5,261.5C 377.5,277.5 377.5,293.5 377.5,309.5C 341.268,310.284 306.934,310.617 274.5,310.5C 270.953,308.459 267.286,306.626 263.5,305C 215.332,304.833 167.332,304.333 119.5,303.5C 122.833,303.5 126.167,303.5 129.5,303.5C 129.5,296.167 129.5,288.833 129.5,281.5C 129.5,270.833 129.5,260.167 129.5,249.5C 145.837,249.667 162.17,249.5 178.5,249C 179,248.5 179.5,248 180,247.5C 180.914,248.654 181.747,248.487 182.5,247C 180.714,246.215 179.214,245.049 178,243.5C 176.31,238.542 177.977,235.542 183,234.5C 188.608,235.107 190.608,238.107 189,243.5C 187.079,245.013 185.746,246.68 185,248.5C 189.437,247.763 194.104,247.763 199,248.5C 199.75,247.874 200.584,247.374 201.5,247C 195.063,244.416 194.063,240.582 198.5,235.5C 206.71,233.542 209.544,236.542 207,244.5C 202.561,246.212 202.561,247.546 207,248.5C 225.372,248.229 244.539,247.896 264.5,247.5 Z"/></g>
<g><path style="opacity:0.996" fill="#5cc7df" d="M 108.5,225.5 C 115.5,225.5 122.5,225.5 129.5,225.5C 129.5,233.5 129.5,241.5 129.5,249.5C 129.5,260.167 129.5,270.833 129.5,281.5C 122.857,280.788 116.191,280.454 109.5,280.5C 109.802,283.059 109.468,285.393 108.5,287.5C 108.5,266.833 108.5,246.167 108.5,225.5 Z"/></g>
<g><path style="opacity:1" fill="#66a1ae" d="M 305.5,258.5 C 312.167,258.5 318.833,258.5 325.5,258.5C 356.5,258.5 387.5,258.5 418.5,258.5C 411.274,258.849 404.274,259.849 397.5,261.5C 390.833,261.5 384.167,261.5 377.5,261.5C 346.165,261.333 314.832,261.5 283.5,262C 280.516,263.271 277.516,264.438 274.5,265.5C 277.805,262.215 281.805,260.215 286.5,259.5C 292.744,258.542 299.077,258.209 305.5,258.5 Z"/></g>
<g><path style="opacity:0.467" fill="#224049" d="M 433.5,246.5 C 432.359,252.494 429.026,256.994 423.5,260C 414.916,261.41 406.25,261.91 397.5,261.5C 404.274,259.849 411.274,258.849 418.5,258.5C 425.943,257.376 430.943,253.376 433.5,246.5 Z"/></g>
<g><path style="opacity:1" fill="#5dc4db" d="M 377.5,261.5 C 384.167,261.5 390.833,261.5 397.5,261.5C 397.5,277.833 397.5,294.167 397.5,310.5C 396.511,305.025 396.178,299.358 396.5,293.5C 390.5,293.167 384.5,292.833 378.5,292.5C 378.5,308.833 378.5,325.167 378.5,341.5C 378.5,351.167 378.5,360.833 378.5,370.5C 378.826,378.684 378.492,386.684 377.5,394.5C 377.5,366.167 377.5,337.833 377.5,309.5C 377.5,293.5 377.5,277.5 377.5,261.5 Z"/></g>
<g><path style="opacity:0.995" fill="#55b9cf" d="M 129.5,281.5 C 129.5,288.833 129.5,296.167 129.5,303.5C 126.167,303.5 122.833,303.5 119.5,303.5C 115.833,303.5 112.167,303.5 108.5,303.5C 108.5,298.167 108.5,292.833 108.5,287.5C 109.468,285.393 109.802,283.059 109.5,280.5C 116.191,280.454 122.857,280.788 129.5,281.5 Z"/></g>
<g><path style="opacity:1" fill="#fefefe" d="M 102.5,303.5 C 104.5,303.5 106.5,303.5 108.5,303.5C 112.167,303.5 115.833,303.5 119.5,303.5C 167.332,304.333 215.332,304.833 263.5,305C 267.286,306.626 270.953,308.459 274.5,310.5C 276.961,313.759 278.628,317.426 279.5,321.5C 279.83,342.007 279.497,362.34 278.5,382.5C 278.167,381.5 277.5,380.833 276.5,380.5C 268.76,372.97 259.426,369.303 248.5,369.5C 208.832,369.316 169.165,368.983 129.5,368.5C 122.5,368.5 115.5,368.5 108.5,368.5C 106.5,368.5 104.5,368.5 102.5,368.5C 94.0353,365.364 88.702,359.364 86.5,350.5C 86.0688,339.422 86.5688,328.422 88,317.5C 91.2535,311.137 96.0868,306.47 102.5,303.5 Z"/></g>
<g><path style="opacity:0.848" fill="#0e1618" d="M 102.5,303.5 C 96.0868,306.47 91.2535,311.137 88,317.5C 86.5688,328.422 86.0688,339.422 86.5,350.5C 85.2223,350.218 84.2223,349.551 83.5,348.5C 83.0973,337.769 83.5973,327.102 85,316.5C 88.4423,308.884 94.2756,304.551 102.5,303.5 Z"/></g>
<g><path style="opacity:1" fill="#cff5fe" d="M 146.5,317.5 C 170.836,317.333 195.169,317.5 219.5,318C 222.306,319.305 223.14,321.472 222,324.5C 221.25,325.126 220.416,325.626 219.5,326C 195.167,326.667 170.833,326.667 146.5,326C 142.605,323.178 142.605,320.345 146.5,317.5 Z"/></g>
<g><path style="opacity:1" fill="#50afc4" d="M 397.5,310.5 C 397.5,321.833 397.5,333.167 397.5,344.5C 396.596,343.791 396.263,342.791 396.5,341.5C 390.5,341.5 384.5,341.5 378.5,341.5C 378.5,325.167 378.5,308.833 378.5,292.5C 384.5,292.833 390.5,293.167 396.5,293.5C 396.178,299.358 396.511,305.025 397.5,310.5 Z"/></g>
<g><path style="opacity:1" fill="#cff5fe" d="M 145.5,337.5 C 170.502,337.333 195.502,337.5 220.5,338C 223.07,340.615 223.07,343.282 220.5,346C 195.833,346.667 171.167,346.667 146.5,346C 142.853,343.558 142.519,340.724 145.5,337.5 Z"/></g>
<g><path style="opacity:0.617" fill="#182e34" d="M 83.5,348.5 C 84.2223,349.551 85.2223,350.218 86.5,350.5C 88.702,359.364 94.0353,365.364 102.5,368.5C 91.3897,366.389 85.0563,359.723 83.5,348.5 Z"/></g>
<g><path style="opacity:1" fill="#81e5fc" d="M 377.5,309.5 C 377.5,337.833 377.5,366.167 377.5,394.5C 375.946,405.222 369.946,412.055 359.5,415C 333.169,415.5 306.835,415.667 280.5,415.5C 236.165,415.667 191.832,415.5 147.5,415C 144.69,414.094 142.024,412.927 139.5,411.5C 134.993,407.812 131.827,403.145 130,397.5C 129.5,387.839 129.334,378.172 129.5,368.5C 169.165,368.983 208.832,369.316 248.5,369.5C 259.534,370.268 268.7,374.934 276,383.5C 276.483,382.552 276.649,381.552 276.5,380.5C 277.5,380.833 278.167,381.5 278.5,382.5C 278.783,383.289 279.283,383.956 280,384.5C 280.829,363.329 280.663,342.329 279.5,321.5C 278.628,317.426 276.961,313.759 274.5,310.5C 306.934,310.617 341.268,310.284 377.5,309.5 Z"/></g>
<g><path style="opacity:1" fill="#4aa1b6" d="M 378.5,341.5 C 384.5,341.5 390.5,341.5 396.5,341.5C 396.263,342.791 396.596,343.791 397.5,344.5C 397.831,365.34 397.497,386.007 396.5,406.5C 396.5,394.5 396.5,382.5 396.5,370.5C 390.5,370.5 384.5,370.5 378.5,370.5C 378.5,360.833 378.5,351.167 378.5,341.5 Z"/></g>
<g><path style="opacity:1" fill="#75b7c6" d="M 248.5,369.5 C 259.426,369.303 268.76,372.97 276.5,380.5C 276.649,381.552 276.483,382.552 276,383.5C 268.7,374.934 259.534,370.268 248.5,369.5 Z"/></g>
<g><path style="opacity:1" fill="#b3effd" d="M 279.5,321.5 C 280.663,342.329 280.829,363.329 280,384.5C 279.283,383.956 278.783,383.289 278.5,382.5C 279.497,362.34 279.83,342.007 279.5,321.5 Z"/></g>
<g><path style="opacity:1" fill="#428fa1" d="M 108.5,368.5 C 115.5,368.5 122.5,368.5 129.5,368.5C 129.334,378.172 129.5,387.839 130,397.5C 131.827,403.145 134.993,407.812 139.5,411.5C 129.985,411.173 120.652,411.506 111.5,412.5C 110.207,411.158 109.374,409.491 109,407.5C 108.5,394.504 108.333,381.504 108.5,368.5 Z"/></g>
<g><path style="opacity:1" fill="#428ea0" d="M 378.5,370.5 C 384.5,370.5 390.5,370.5 396.5,370.5C 396.5,382.5 396.5,394.5 396.5,406.5C 395.885,412.404 393.218,417.071 388.5,420.5C 387.391,419.71 386.058,419.21 384.5,419C 349.661,418.162 314.994,416.996 280.5,415.5C 306.835,415.667 333.169,415.5 359.5,415C 369.946,412.055 375.946,405.222 377.5,394.5C 378.492,386.684 378.826,378.684 378.5,370.5 Z"/></g>
<g><path style="opacity:1" fill="#3e8697" d="M 139.5,411.5 C 142.024,412.927 144.69,414.094 147.5,415C 191.832,415.5 236.165,415.667 280.5,415.5C 314.994,416.996 349.661,418.162 384.5,419C 386.058,419.21 387.391,419.71 388.5,420.5C 388.047,421.458 387.381,422.292 386.5,423C 390.025,423.179 393.359,423.679 396.5,424.5C 366.687,425.981 336.854,426.981 307,427.5C 263.311,426.438 219.644,424.772 176,422.5C 170.5,422.667 165,422.833 159.5,423C 148.034,426.613 136.368,427.446 124.5,425.5C 123.167,425.167 121.833,424.833 120.5,424.5C 117.527,422.194 114.86,419.527 112.5,416.5C 112.167,415.167 111.833,413.833 111.5,412.5C 120.652,411.506 129.985,411.173 139.5,411.5 Z"/></g>
<g><path style="opacity:0.121" fill="#000000" d="M 120.5,424.5 C 121.833,424.833 123.167,425.167 124.5,425.5C 126.148,426.927 128.148,427.76 130.5,428C 133.817,428.498 137.15,428.665 140.5,428.5C 152.98,434.329 165.98,438.996 179.5,442.5C 190.269,445.945 201.269,448.945 212.5,451.5C 221.779,453.422 231.112,455.089 240.5,456.5C 252.744,458.546 265.077,460.046 277.5,461C 314.746,463.137 351.746,461.137 388.5,455C 401.112,452.297 413.112,448.131 424.5,442.5C 425.167,442.5 425.833,442.5 426.5,442.5C 435.457,443.43 443.79,446.264 451.5,451C 454.491,453.141 455.658,455.975 455,459.5C 452.242,461.643 449.076,462.81 445.5,463C 421.324,466.846 396.991,468.846 372.5,469C 277.492,471.058 182.492,470.725 87.5,468C 77.3123,468.384 68.479,465.217 61,458.5C 60.3333,457.5 60.3333,456.5 61,455.5C 64.5362,450.98 69.0362,447.814 74.5,446C 83.0794,443.355 91.746,441.022 100.5,439C 103.618,437.941 106.618,436.608 109.5,435C 109.833,432.667 110.167,430.333 110.5,428C 113.605,426.132 116.938,424.965 120.5,424.5 Z"/></g>
<g><path style="opacity:0.308" fill="#346f7f" d="M 396.5,424.5 C 401.069,424.277 404.069,426.277 405.5,430.5C 405.5,432.5 405.5,434.5 405.5,436.5C 340.822,440.763 276.155,445.263 211.5,450C 212.056,450.383 212.389,450.883 212.5,451.5C 201.269,448.945 190.269,445.945 179.5,442.5C 181.397,441.195 183.731,440.529 186.5,440.5C 240.167,436.667 293.833,432.833 347.5,429C 278.501,428.5 209.501,428.333 140.5,428.5C 137.15,428.665 133.817,428.498 130.5,428C 128.148,427.76 126.148,426.927 124.5,425.5C 136.368,427.446 148.034,426.613 159.5,423C 165,422.833 170.5,422.667 176,422.5C 219.644,424.772 263.311,426.438 307,427.5C 336.854,426.981 366.687,425.981 396.5,424.5 Z"/></g>
<g><path style="opacity:0.316" fill="#316675" d="M 140.5,428.5 C 209.501,428.333 278.501,428.5 347.5,429C 293.833,432.833 240.167,436.667 186.5,440.5C 183.731,440.529 181.397,441.195 179.5,442.5C 165.98,438.996 152.98,434.329 140.5,428.5 Z"/></g>
<g><path style="opacity:0.29" fill="#38798a" d="M 405.5,430.5 C 406.317,432.969 406.817,435.635 407,438.5C 408.509,440.919 410.675,441.919 413.5,441.5C 413.611,442.117 413.944,442.617 414.5,443C 356.284,446.8 298.284,451.3 240.5,456.5C 231.112,455.089 221.779,453.422 212.5,451.5C 212.389,450.883 212.056,450.383 211.5,450C 276.155,445.263 340.822,440.763 405.5,436.5C 405.5,434.5 405.5,432.5 405.5,430.5 Z"/></g>
<g><path style="opacity:0.277" fill="#3d7f92" d="M 413.5,441.5 C 417.198,441.552 420.865,441.886 424.5,442.5C 413.112,448.131 401.112,452.297 388.5,455C 351.746,461.137 314.746,463.137 277.5,461C 265.077,460.046 252.744,458.546 240.5,456.5C 298.284,451.3 356.284,446.8 414.5,443C 413.944,442.617 413.611,442.117 413.5,441.5 Z"/></g>
</svg>
