<?xml version="1.0" encoding="UTF-8"?>
<!DOCTYPE svg PUBLIC "-//W3C//DTD SVG 1.1//EN" "http://www.w3.org/Graphics/SVG/1.1/DTD/svg11.dtd">
<svg xmlns="http://www.w3.org/2000/svg" version="1.1" width="500px" height="500px" style="shape-rendering:geometricPrecision; text-rendering:geometricPrecision; image-rendering:optimizeQuality; fill-rule:evenodd; clip-rule:evenodd" xmlns:xlink="http://www.w3.org/1999/xlink">
<g><path style="opacity:0.183" fill="#69ddfe" d="M 427.5,109.5 C 412.181,110.833 396.515,111.499 380.5,111.5C 364.594,111.496 348.761,111.163 333,110.5C 321.973,112.169 314.806,118.669 311.5,130C 312.648,136.849 312.814,144.016 312,151.5C 314.514,158.283 318.514,163.283 324,166.5C 326.398,166.065 328.731,166.731 331,168.5C 351.818,167.369 372.984,167.203 394.5,168C 392.155,175.555 390.988,183.055 391,190.5C 398.451,182.718 406.284,175.218 414.5,168C 428.673,167.173 442.673,167.339 456.5,168.5C 454.5,168.5 452.5,168.5 450.5,168.5C 451.423,181.47 451.756,194.47 451.5,207.5C 449.052,207.085 447.719,208.085 447.5,210.5C 448.46,212.477 449.46,214.477 450.5,216.5C 449.726,220.779 449.226,225.113 449,229.5C 442.366,220.192 440.699,221.525 444,233.5C 445.592,237.021 447.425,240.354 449.5,243.5C 449.171,250.351 449.171,257.351 449.5,264.5C 448.949,268.863 447.283,272.697 444.5,276C 434.558,279.22 424.558,281.886 414.5,284C 411.905,284.226 409.405,284.726 407,285.5C 405.372,284.903 403.705,285.237 402,286.5C 400.855,286.381 399.688,286.048 398.5,285.5C 398.5,284.833 398.167,284.5 397.5,284.5C 396.646,278.879 396.313,273.212 396.5,267.5C 399.732,263.029 401.898,258.029 403,252.5C 406.723,248.226 409.556,243.393 411.5,238C 411.081,235.914 409.914,234.414 408,233.5C 407.71,231.048 407.044,228.715 406,226.5C 400.189,222.837 394.022,219.837 387.5,217.5C 384.952,214.241 382.286,211.074 379.5,208C 375.525,206.621 372.691,207.787 371,211.5C 366.408,204.571 362.742,204.904 360,212.5C 358.534,210.675 356.701,210.175 354.5,211C 353.029,213.243 352.029,215.743 351.5,218.5C 349.929,217.691 348.262,217.357 346.5,217.5C 346.151,226.488 350.484,231.488 359.5,232.5C 358.355,244.424 358.189,256.424 359,268.5C 360.539,278.353 366.039,281.686 375.5,278.5C 375.5,280.167 375.5,281.833 375.5,283.5C 375.167,284.167 374.833,284.833 374.5,285.5C 368.846,286.622 363.346,288.289 358,290.5C 351.355,296.811 344.688,303.144 338,309.5C 336.026,314.449 332.86,318.449 328.5,321.5C 324.388,329.311 320.388,336.811 316.5,344C 316.833,345 317.167,346 317.5,347C 315.431,347.324 315.098,348.158 316.5,349.5C 315.198,352.708 314.531,356.041 314.5,359.5C 314.167,359.5 313.833,359.5 313.5,359.5C 301.041,357.813 288.375,357.147 275.5,357.5C 275.5,357.167 275.5,356.833 275.5,356.5C 276.182,354.058 276.515,351.558 276.5,349C 272.126,340.258 272.792,332.424 278.5,325.5C 284.663,331.495 290.996,337.329 297.5,343C 301.898,344.378 305.398,343.212 308,339.5C 313.883,327.736 319.216,315.736 324,303.5C 325.497,299.835 327.497,296.502 330,293.5C 330.558,286.81 330.891,280.143 331,273.5C 330.189,274.96 329.355,275.293 328.5,274.5C 330.223,266.743 329.389,266.076 326,272.5C 325.667,270.833 325.333,269.167 325,267.5C 323.221,270.276 322.221,269.943 322,266.5C 320.26,267.716 319.26,269.382 319,271.5C 318.667,275.167 318.333,278.833 318,282.5C 316.989,281.663 315.822,281.33 314.5,281.5C 314.767,284.875 315.767,288.042 317.5,291C 316.922,292.811 316.422,294.645 316,296.5C 309.914,304.088 304.414,312.088 299.5,320.5C 298.108,319.395 296.941,318.061 296,316.5C 291.151,305.422 285.651,294.755 279.5,284.5C 276.552,279.71 272.719,278.043 268,279.5C 265.657,279.1 263.49,277.767 261.5,275.5C 259.874,272.754 259.207,269.754 259.5,266.5C 270.234,265.731 274.068,260.064 271,249.5C 269.983,245.756 268.816,242.089 267.5,238.5C 271.61,228.216 268.276,221.383 257.5,218C 247.492,216.348 238.992,219.181 232,226.5C 233.157,228.744 233.99,231.244 234.5,234C 234.495,237.674 232.662,239.841 229,240.5C 229.239,251.648 234.739,258.648 245.5,261.5C 246.373,265.768 246.706,270.102 246.5,274.5C 244.946,275.693 243.279,276.86 241.5,278C 237.044,278.957 232.711,280.29 228.5,282C 226.937,282.759 225.937,283.926 225.5,285.5C 224.542,285.953 223.708,286.619 223,287.5C 214.374,306.749 206.874,326.416 200.5,346.5C 203.834,352.831 208.5,357.831 214.5,361.5C 212.708,361.366 211.042,361.699 209.5,362.5C 201.279,354.514 192.113,346.514 182,338.5C 178.384,331.296 174.217,324.463 169.5,318C 169.833,317.667 170.167,317.333 170.5,317C 165.681,309.541 160.681,302.207 155.5,295C 155.957,294.586 156.291,294.086 156.5,293.5C 152.392,287.707 146.725,284.707 139.5,284.5C 138.585,282.246 137.252,280.246 135.5,278.5C 141.029,277.385 146.029,275.219 150.5,272C 149.521,269.567 148.855,267.067 148.5,264.5C 148.993,257.905 147.993,251.571 145.5,245.5C 150.987,243.862 152.82,240.195 151,234.5C 148.28,224.447 141.78,218.613 131.5,217C 126.167,216.333 120.833,216.333 115.5,217C 110.011,218.979 107.011,222.812 106.5,228.5C 99.8537,228.639 95.687,231.972 94,238.5C 93.6408,246.876 94.1408,255.21 95.5,263.5C 95.456,266.555 95.1227,269.555 94.5,272.5C 102.172,277.055 110.505,279.389 119.5,279.5C 119.532,281.619 118.532,282.952 116.5,283.5C 112.371,286.767 108.038,287.434 103.5,285.5C 96.697,285.527 89.8637,285.527 83,285.5C 81,286.167 79,286.833 77,287.5C 76.6667,287.167 76.3333,286.833 76,286.5C 73.2541,287.65 70.4208,288.15 67.5,288C 66.757,277.335 65.757,267.169 64.5,257.5C 63.5,257.5 62.5,257.5 61.5,257.5C 65.1309,251.89 65.7976,246.056 63.5,240C 61.5911,239.552 60.4244,240.385 60,242.5C 59.6667,242.167 59.3333,241.833 59,241.5C 57.7111,235.912 57.2111,230.245 57.5,224.5C 66.1616,215.005 75.3282,206.005 85,197.5C 86.0945,195.922 86.9278,194.255 87.5,192.5C 94.1003,196.6 99.9336,201.6 105,207.5C 105.067,205.265 104.567,203.098 103.5,201C 104.051,199.602 104.384,198.268 104.5,197C 102.875,196.147 102.542,195.147 103.5,194C 102.39,190.951 101.723,187.784 101.5,184.5C 123.542,184.478 145.375,184.478 167,184.5C 174.344,182.174 179.677,177.174 183,169.5C 183.667,160.833 183.667,152.167 183,143.5C 181.292,140.619 179.792,137.619 178.5,134.5C 176.343,133.883 174.51,132.216 173,129.5C 172.667,129.833 172.333,130.167 172,130.5C 169.903,129.009 167.57,128.009 165,127.5C 146.982,127.538 128.816,127.538 110.5,127.5C 122.404,98.0883 142.07,75.255 169.5,59C 209.425,37.6765 251.759,30.6765 296.5,38C 347.85,45.754 391.017,68.5874 426,106.5C 426.513,107.527 427.013,108.527 427.5,109.5 Z"/></g>
<g><path style="opacity:0.996" fill="#67e0fc" d="M 427.5,109.5 C 439.814,110.063 452.147,110.897 464.5,112C 475.789,117.911 480.456,127.245 478.5,140C 479.886,156.428 472.553,165.928 456.5,168.5C 442.673,167.339 428.673,167.173 414.5,168C 406.284,175.218 398.451,182.718 391,190.5C 390.988,183.055 392.155,175.555 394.5,168C 372.984,167.203 351.818,167.369 331,168.5C 328.731,166.731 326.398,166.065 324,166.5C 318.514,163.283 314.514,158.283 312,151.5C 312.814,144.016 312.648,136.849 311.5,130C 314.806,118.669 321.973,112.169 333,110.5C 348.761,111.163 364.594,111.496 380.5,111.5C 396.515,111.499 412.181,110.833 427.5,109.5 Z"/></g>
<g><path style="opacity:0.993" fill="#67e0fc" d="M 110.5,127.5 C 128.816,127.538 146.982,127.538 165,127.5C 167.57,128.009 169.903,129.009 172,130.5C 172.333,130.167 172.667,129.833 173,129.5C 174.51,132.216 176.343,133.883 178.5,134.5C 179.792,137.619 181.292,140.619 183,143.5C 183.667,152.167 183.667,160.833 183,169.5C 179.677,177.174 174.344,182.174 167,184.5C 145.375,184.478 123.542,184.478 101.5,184.5C 101.723,187.784 102.39,190.951 103.5,194C 102.542,195.147 102.875,196.147 104.5,197C 104.384,198.268 104.051,199.602 103.5,201C 104.567,203.098 105.067,205.265 105,207.5C 99.9336,201.6 94.1003,196.6 87.5,192.5C 85.3719,189.87 83.0386,187.37 80.5,185C 64.5,184.667 48.5,184.333 32.5,184C 25.6667,181.167 20.8333,176.333 18,169.5C 17.0769,159.426 17.4103,149.426 19,139.5C 22.2975,134.199 26.7975,130.365 32.5,128C 58.4979,127.5 84.4979,127.333 110.5,127.5 Z"/></g>
<g><path style="opacity:1" fill="#262729" d="M 395.5,133.5 C 396.193,137.565 396.86,141.732 397.5,146C 396.5,146.667 395.5,146.667 394.5,146C 395.361,141.718 395.694,137.552 395.5,133.5 Z"/></g>
<g><path style="opacity:1" fill="#252628" d="M 390.5,133.5 C 391.193,137.565 391.86,141.732 392.5,146C 391.5,146.667 390.5,146.667 389.5,146C 390.361,141.718 390.694,137.552 390.5,133.5 Z"/></g>
<g><path style="opacity:1" fill="#2b3236" d="M 368.5,135.5 C 369.601,134.402 370.934,134.235 372.5,135C 371.62,136.356 371.286,137.856 371.5,139.5C 373.5,139.5 375.5,139.5 377.5,139.5C 377.773,137.549 377.107,136.049 375.5,135C 377.167,134.333 378.833,134.333 380.5,135C 379.28,136.525 378.613,138.359 378.5,140.5C 378.613,142.641 379.28,144.475 380.5,146C 378.833,146.667 377.167,146.667 375.5,146C 377.192,144.599 377.859,142.766 377.5,140.5C 375.5,140.5 373.5,140.5 371.5,140.5C 371.261,142.467 371.594,144.301 372.5,146C 371.167,146.667 369.833,146.667 368.5,146C 369.82,142.399 369.82,138.899 368.5,135.5 Z"/></g>
<g><path style="opacity:1" fill="#426f7c" d="M 382.5,138.5 C 384.144,138.286 385.644,138.62 387,139.5C 387.497,141.81 387.663,144.143 387.5,146.5C 385.5,146.5 383.5,146.5 381.5,146.5C 381.297,144.61 381.963,143.11 383.5,142C 381.273,141.296 380.94,140.129 382.5,138.5 Z"/></g>
<g><path style="opacity:1" fill="#2c3539" d="M 400.5,138.5 C 404.893,138.457 405.226,138.957 401.5,140C 399.682,143.387 400.682,145.387 404.5,146C 402.888,146.72 401.388,146.554 400,145.5C 399.297,143.071 399.463,140.738 400.5,138.5 Z"/></g>
<g><path style="opacity:1" fill="#fcfdfe" d="M 206.5,144.5 C 235.884,144.032 265.217,144.532 294.5,146C 298.058,147.892 300.558,150.725 302,154.5C 302.667,160.5 302.667,166.5 302,172.5C 299.96,177.876 296.127,181.043 290.5,182C 276.821,182.167 263.154,182.667 249.5,183.5C 247.832,188.172 246.165,192.839 244.5,197.5C 241.328,193.159 238.661,188.492 236.5,183.5C 226.517,182.668 216.517,182.168 206.5,182C 199.884,180.384 196.051,176.218 195,169.5C 192.057,157.757 195.891,149.423 206.5,144.5 Z"/></g>
<g><path style="opacity:1" fill="#32444a" d="M 70.5,151.5 C 72.8771,151.784 75.0438,151.784 77,151.5C 77.6667,152.833 77.6667,154.167 77,155.5C 73.1991,151.155 70.6991,151.822 69.5,157.5C 69.7061,161.204 71.7061,163.037 75.5,163C 69.1714,163.668 66.6714,160.834 68,154.5C 69.045,153.627 69.8783,152.627 70.5,151.5 Z"/></g>
<g><path style="opacity:1" fill="#2c3539" d="M 93.5,155.5 C 97.8926,155.457 98.2259,155.957 94.5,157C 92.6823,160.387 93.6823,162.387 97.5,163C 95.8876,163.72 94.3876,163.554 93,162.5C 92.2967,160.071 92.4634,157.738 93.5,155.5 Z"/></g>
<g><path style="opacity:1" fill="#3b565f" d="M 80.5,155.5 C 81.1653,157.698 81.8319,160.031 82.5,162.5C 84.5,160.833 86.5,159.167 88.5,157.5C 84.626,155.998 84.9593,155.331 89.5,155.5C 89.6759,158.448 89.6759,161.114 89.5,163.5C 88.7189,162.271 88.2189,160.938 88,159.5C 86.3831,160.536 86.2164,161.703 87.5,163C 84.8333,163.667 82.1667,163.667 79.5,163C 80.2301,160.399 80.5634,157.899 80.5,155.5 Z"/></g>
<g><path style="opacity:1" fill="#797778" d="M 240.5,160.5 C 242.048,160.821 242.715,161.821 242.5,163.5C 243.5,163.5 244.5,163.5 245.5,163.5C 245.261,165.467 245.594,167.301 246.5,169C 244.527,169.495 242.527,169.662 240.5,169.5C 240.5,166.5 240.5,163.5 240.5,160.5 Z"/></g>
<g><path style="opacity:1" fill="#706d6e" d="M 222.5,161.5 C 223.251,160.427 224.251,160.26 225.5,161C 227.359,162.558 228.859,164.391 230,166.5C 230.743,164.559 230.576,162.726 229.5,161C 230.5,160.333 231.5,160.333 232.5,161C 231.718,163.74 231.218,166.574 231,169.5C 228.957,167.792 227.29,165.792 226,163.5C 225.257,165.441 225.424,167.274 226.5,169C 225.5,169.667 224.5,169.667 223.5,169C 224.108,167.769 224.441,166.436 224.5,165C 224.392,163.319 223.725,162.152 222.5,161.5 Z"/></g>
<g><path style="opacity:1" fill="#4b4849" d="M 234.5,163.5 C 235.224,165.218 235.891,167.052 236.5,169C 235.5,169.667 234.5,169.667 233.5,169C 234.074,167.081 234.407,165.247 234.5,163.5 Z"/></g>
<g><path style="opacity:1" fill="#4a4647" d="M 247.5,163.5 C 248.833,163.5 250.167,163.5 251.5,163.5C 251.261,165.467 251.594,167.301 252.5,169C 250.866,169.494 249.199,169.66 247.5,169.5C 247.329,166.203 247.995,165.869 249.5,168.5C 249.833,168.167 250.167,167.833 250.5,167.5C 249.359,166.575 249.359,165.741 250.5,165C 249.551,164.383 248.718,164.549 248,165.5C 247.536,164.906 247.369,164.239 247.5,163.5 Z"/></g>
<g><path style="opacity:1" fill="#8e8b8c" d="M 254.5,163.5 C 258.35,163.701 259.35,165.534 257.5,169C 252.676,169.183 251.676,167.35 254.5,163.5 Z"/></g>
<g><path style="opacity:1" fill="#252223" d="M 396.5,267.5 C 395.467,266.088 394.801,264.422 394.5,262.5C 397.295,253.611 394.962,251.611 387.5,256.5C 387.167,256 386.833,255.5 386.5,255C 387.592,249.874 387.759,244.707 387,239.5C 386.5,239 386,238.5 385.5,238C 380.32,238.249 375.653,236.915 371.5,234C 367.415,233.767 363.415,233.267 359.5,232.5C 350.484,231.488 346.151,226.488 346.5,217.5C 348.262,217.357 349.929,217.691 351.5,218.5C 352.029,215.743 353.029,213.243 354.5,211C 356.701,210.175 358.534,210.675 360,212.5C 362.742,204.904 366.408,204.571 371,211.5C 372.691,207.787 375.525,206.621 379.5,208C 382.286,211.074 384.952,214.241 387.5,217.5C 394.022,219.837 400.189,222.837 406,226.5C 407.044,228.715 407.71,231.048 408,233.5C 409.914,234.414 411.081,235.914 411.5,238C 409.556,243.393 406.723,248.226 403,252.5C 401.898,258.029 399.732,263.029 396.5,267.5 Z"/></g>
<g><path style="opacity:0.982" fill="#fab8a9" d="M 451.5,207.5 C 454.863,209.839 458.03,212.506 461,215.5C 461.93,218.362 463.597,220.695 466,222.5C 468.176,228.096 467.676,233.429 464.5,238.5C 463.599,239.29 462.932,240.29 462.5,241.5C 461.972,242.721 461.305,243.887 460.5,245C 456.525,245.987 452.859,245.487 449.5,243.5C 447.425,240.354 445.592,237.021 444,233.5C 440.699,221.525 442.366,220.192 449,229.5C 449.226,225.113 449.726,220.779 450.5,216.5C 449.46,214.477 448.46,212.477 447.5,210.5C 447.719,208.085 449.052,207.085 451.5,207.5 Z"/></g>
<g><path style="opacity:1" fill="#292c2f" d="M 243.5,208.5 C 249.987,207.653 252.654,210.319 251.5,216.5C 247.682,213.609 244.182,213.943 241,217.5C 239.286,213.807 240.119,210.807 243.5,208.5 Z"/></g>
<g><path style="opacity:1" fill="#252122" d="M 145.5,245.5 C 143.674,239.511 141.007,233.844 137.5,228.5C 135.957,231.39 133.624,233.057 130.5,233.5C 129.427,239.915 125.76,244.248 119.5,246.5C 117.969,249.365 115.803,251.698 113,253.5C 112.13,258.107 113.963,260.774 118.5,261.5C 120.421,267.566 120.754,273.566 119.5,279.5C 110.505,279.389 102.172,277.055 94.5,272.5C 95.1227,269.555 95.456,266.555 95.5,263.5C 94.1408,255.21 93.6408,246.876 94,238.5C 95.687,231.972 99.8537,228.639 106.5,228.5C 107.011,222.812 110.011,218.979 115.5,217C 120.833,216.333 126.167,216.333 131.5,217C 141.78,218.613 148.28,224.447 151,234.5C 152.82,240.195 150.987,243.862 145.5,245.5 Z"/></g>
<g><path style="opacity:1" fill="#252223" d="M 267.5,238.5 C 266.207,234.581 264.374,230.914 262,227.5C 261.119,230.885 258.952,232.552 255.5,232.5C 254.944,238.225 251.944,242.058 246.5,244C 245.042,246.46 243.209,248.627 241,250.5C 239.524,254.844 241.024,257.178 245.5,257.5C 245.5,258.833 245.5,260.167 245.5,261.5C 234.739,258.648 229.239,251.648 229,240.5C 232.662,239.841 234.495,237.674 234.5,234C 233.99,231.244 233.157,228.744 232,226.5C 238.992,219.181 247.492,216.348 257.5,218C 268.276,221.383 271.61,228.216 267.5,238.5 Z"/></g>
<g><path style="opacity:0.965" fill="#f9b8a9" d="M 57.5,224.5 C 57.2111,230.245 57.7111,235.912 59,241.5C 59.3333,241.833 59.6667,242.167 60,242.5C 60.4244,240.385 61.5911,239.552 63.5,240C 65.7976,246.056 65.1309,251.89 61.5,257.5C 57.1018,257.294 52.7685,257.627 48.5,258.5C 46.6754,253.02 44.0087,248.02 40.5,243.5C 39.8384,241.53 39.1717,239.53 38.5,237.5C 39.2888,235.512 40.4555,235.179 42,236.5C 42.3333,233.5 42.6667,230.5 43,227.5C 44,226.167 45,226.167 46,227.5C 46.687,224.574 48.5203,223.241 51.5,223.5C 51.2165,229.925 52.2165,230.091 54.5,224C 55.5768,223.53 56.5768,223.697 57.5,224.5 Z"/></g>
<g><path style="opacity:1" fill="#252325" d="M 221.5,224.5 C 229.098,224.334 231.931,228.001 230,235.5C 223.452,241.661 218.952,240.494 216.5,232C 216.782,228.556 218.448,226.056 221.5,224.5 Z"/></g>
<g><path style="opacity:1" fill="#f6b5a5" d="M 267.5,238.5 C 268.816,242.089 269.983,245.756 271,249.5C 274.068,260.064 270.234,265.731 259.5,266.5C 259.207,269.754 259.874,272.754 261.5,275.5C 258.029,276.478 256.195,278.812 256,282.5C 254.5,277.836 251.334,275.169 246.5,274.5C 246.706,270.102 246.373,265.768 245.5,261.5C 245.5,260.167 245.5,258.833 245.5,257.5C 241.024,257.178 239.524,254.844 241,250.5C 243.209,248.627 245.042,246.46 246.5,244C 251.944,242.058 254.944,238.225 255.5,232.5C 258.952,232.552 261.119,230.885 262,227.5C 264.374,230.914 266.207,234.581 267.5,238.5 Z"/></g>
<g><path style="opacity:1" fill="#f8b5a6" d="M 145.5,245.5 C 147.993,251.571 148.993,257.905 148.5,264.5C 146.37,266.127 144.37,267.96 142.5,270C 141.552,270.483 140.552,270.649 139.5,270.5C 136.15,270.665 132.817,270.498 129.5,270C 126.705,268.207 124.205,266.04 122,263.5C 122.196,271.532 126.363,275.865 134.5,276.5C 134.833,277.167 135.167,277.833 135.5,278.5C 137.252,280.246 138.585,282.246 139.5,284.5C 134.28,290.95 127.947,292.117 120.5,288C 118.808,286.693 117.475,285.193 116.5,283.5C 118.532,282.952 119.532,281.619 119.5,279.5C 120.754,273.566 120.421,267.566 118.5,261.5C 113.963,260.774 112.13,258.107 113,253.5C 115.803,251.698 117.969,249.365 119.5,246.5C 125.76,244.248 129.427,239.915 130.5,233.5C 133.624,233.057 135.957,231.39 137.5,228.5C 141.007,233.844 143.674,239.511 145.5,245.5 Z"/></g>
<g><path style="opacity:1" fill="#f9b7a8" d="M 359.5,232.5 C 363.415,233.267 367.415,233.767 371.5,234C 375.653,236.915 380.32,238.249 385.5,238C 386,238.5 386.5,239 387,239.5C 387.759,244.707 387.592,249.874 386.5,255C 386.833,255.5 387.167,256 387.5,256.5C 394.962,251.611 397.295,253.611 394.5,262.5C 394.801,264.422 395.467,266.088 396.5,267.5C 396.313,273.212 396.646,278.879 397.5,284.5C 393.228,293.537 386.562,295.87 377.5,291.5C 376.614,290.675 376.281,289.675 376.5,288.5C 383.438,284.553 386.271,278.553 385,270.5C 381.642,273.031 378.476,275.698 375.5,278.5C 366.039,281.686 360.539,278.353 359,268.5C 358.189,256.424 358.355,244.424 359.5,232.5 Z"/></g>
<g><path style="opacity:0.996" fill="#68e0fc" d="M 462.5,241.5 C 463.829,246.96 464.496,252.793 464.5,259C 464.333,264.833 464.167,270.667 464,276.5C 464.269,282.801 461.435,286.968 455.5,289C 447.578,291.544 439.578,293.878 431.5,296C 426.333,299.833 421.167,303.667 416,307.5C 415.402,323.02 415.902,338.354 417.5,353.5C 417.869,361.271 417.202,368.938 415.5,376.5C 406.742,372.622 398.076,368.455 389.5,364C 388.395,361.88 388.395,359.713 389.5,357.5C 394.214,357.827 398.88,357.493 403.5,356.5C 402.335,355.416 401.002,354.583 399.5,354C 402.146,353.503 404.813,353.336 407.5,353.5C 407.649,352.448 407.483,351.448 407,350.5C 404.128,347.963 401.628,345.13 399.5,342C 395.106,339.626 390.44,338.959 385.5,340C 381.333,343.5 377.167,347 373,350.5C 371.636,356.996 374.136,360.663 380.5,361.5C 382.656,361.872 382.656,362.872 380.5,364.5C 377.226,365.797 374.226,367.464 371.5,369.5C 356.663,378.278 340.663,381.778 323.5,380C 321.004,378.334 318.671,376.5 316.5,374.5C 314.758,369.692 314.091,364.692 314.5,359.5C 314.531,356.041 315.198,352.708 316.5,349.5C 315.098,348.158 315.431,347.324 317.5,347C 317.167,346 316.833,345 316.5,344C 320.388,336.811 324.388,329.311 328.5,321.5C 332.86,318.449 336.026,314.449 338,309.5C 344.688,303.144 351.355,296.811 358,290.5C 363.346,288.289 368.846,286.622 374.5,285.5C 374.732,293.066 378.732,297.066 386.5,297.5C 394.175,297.158 398.175,293.158 398.5,285.5C 399.688,286.048 400.855,286.381 402,286.5C 403.705,285.237 405.372,284.903 407,285.5C 409.405,284.726 411.905,284.226 414.5,284C 424.558,281.886 434.558,279.22 444.5,276C 447.283,272.697 448.949,268.863 449.5,264.5C 449.171,257.351 449.171,250.351 449.5,243.5C 452.859,245.487 456.525,245.987 460.5,245C 461.305,243.887 461.972,242.721 462.5,241.5 Z"/></g>
<g><path style="opacity:0.183" fill="#69defe" d="M 40.5,243.5 C 44.0087,248.02 46.6754,253.02 48.5,258.5C 46.2257,259.98 44.8924,262.147 44.5,265C 45.6822,269.691 45.6822,274.691 44.5,280C 45.1667,280.333 45.8333,280.667 46.5,281C 46.0445,287.041 45.7111,292.708 45.5,298C 46.1043,300.524 46.771,303.024 47.5,305.5C 49.7931,306.626 51.9597,307.959 54,309.5C 54.414,309.043 54.914,308.709 55.5,308.5C 65.965,309.778 76.7983,311.444 88,313.5C 89.0113,312.663 90.1779,312.33 91.5,312.5C 92.4463,317.134 92.4463,321.801 91.5,326.5C 93.2448,344.179 93.5782,361.846 92.5,379.5C 91.1624,386.519 89.6624,393.519 88,400.5C 86.9477,407.128 86.4477,413.794 86.5,420.5C 55.9437,397.437 34.4437,367.77 22,331.5C 13.5511,298.902 19.7178,269.569 40.5,243.5 Z"/></g>
<g><path style="opacity:0.993" fill="#68e0fc" d="M 61.5,257.5 C 62.5,257.5 63.5,257.5 64.5,257.5C 65.757,267.169 66.757,277.335 67.5,288C 70.4208,288.15 73.2541,287.65 76,286.5C 76.3333,286.833 76.6667,287.167 77,287.5C 79,286.833 81,286.167 83,285.5C 89.8637,285.527 96.697,285.527 103.5,285.5C 108.038,287.434 112.371,286.767 116.5,283.5C 117.475,285.193 118.808,286.693 120.5,288C 127.947,292.117 134.28,290.95 139.5,284.5C 146.725,284.707 152.392,287.707 156.5,293.5C 156.291,294.086 155.957,294.586 155.5,295C 160.681,302.207 165.681,309.541 170.5,317C 170.167,317.333 169.833,317.667 169.5,318C 174.217,324.463 178.384,331.296 182,338.5C 192.113,346.514 201.279,354.514 209.5,362.5C 207.5,362.833 205.5,363.167 203.5,363.5C 193.944,356.791 184.777,349.457 176,341.5C 169.528,330.041 163.528,318.375 158,306.5C 158.721,316.863 159.721,327.197 161,337.5C 164.638,343.303 168.471,348.97 172.5,354.5C 177.901,358.521 183.235,362.521 188.5,366.5C 176.783,368.595 165.449,371.929 154.5,376.5C 138.903,370.126 123.236,363.626 107.5,357C 104.127,352.751 101.961,347.918 101,342.5C 100.667,335.167 100.333,327.833 100,320.5C 97.751,323.371 94.9176,325.371 91.5,326.5C 92.4463,321.801 92.4463,317.134 91.5,312.5C 90.1779,312.33 89.0113,312.663 88,313.5C 76.7983,311.444 65.965,309.778 55.5,308.5C 54.914,308.709 54.414,309.043 54,309.5C 51.9597,307.959 49.7931,306.626 47.5,305.5C 46.771,303.024 46.1043,300.524 45.5,298C 45.7111,292.708 46.0445,287.041 46.5,281C 45.8333,280.667 45.1667,280.333 44.5,280C 45.6822,274.691 45.6822,269.691 44.5,265C 44.8924,262.147 46.2257,259.98 48.5,258.5C 52.7685,257.627 57.1018,257.294 61.5,257.5 Z"/></g>
<g><path style="opacity:1" fill="#282729" d="M 148.5,264.5 C 148.855,267.067 149.521,269.567 150.5,272C 146.029,275.219 141.029,277.385 135.5,278.5C 135.167,277.833 134.833,277.167 134.5,276.5C 134.579,275.07 134.246,273.736 133.5,272.5C 135.631,271.831 137.631,271.165 139.5,270.5C 140.552,270.649 141.552,270.483 142.5,270C 144.37,267.96 146.37,266.127 148.5,264.5 Z"/></g>
<g><path style="opacity:1" fill="#f9b8a9" d="M 278.5,325.5 C 281.67,318.806 282.337,311.806 280.5,304.5C 280.737,303.209 280.404,302.209 279.5,301.5C 279.325,295.61 279.325,289.943 279.5,284.5C 285.651,294.755 291.151,305.422 296,316.5C 296.941,318.061 298.108,319.395 299.5,320.5C 304.414,312.088 309.914,304.088 316,296.5C 316.422,294.645 316.922,292.811 317.5,291C 315.767,288.042 314.767,284.875 314.5,281.5C 315.822,281.33 316.989,281.663 318,282.5C 318.333,278.833 318.667,275.167 319,271.5C 319.26,269.382 320.26,267.716 322,266.5C 322.221,269.943 323.221,270.276 325,267.5C 325.333,269.167 325.667,270.833 326,272.5C 329.389,266.076 330.223,266.743 328.5,274.5C 329.355,275.293 330.189,274.96 331,273.5C 330.891,280.143 330.558,286.81 330,293.5C 327.497,296.502 325.497,299.835 324,303.5C 319.216,315.736 313.883,327.736 308,339.5C 305.398,343.212 301.898,344.378 297.5,343C 290.996,337.329 284.663,331.495 278.5,325.5 Z"/></g>
<g><path style="opacity:1" fill="#c18c80" d="M 139.5,270.5 C 137.631,271.165 135.631,271.831 133.5,272.5C 134.246,273.736 134.579,275.07 134.5,276.5C 126.363,275.865 122.196,271.532 122,263.5C 124.205,266.04 126.705,268.207 129.5,270C 132.817,270.498 136.15,270.665 139.5,270.5 Z"/></g>
<g><path style="opacity:0.998" fill="#6be0fc" d="M 246.5,274.5 C 251.334,275.169 254.5,277.836 256,282.5C 256.195,278.812 258.029,276.478 261.5,275.5C 263.49,277.767 265.657,279.1 268,279.5C 272.719,278.043 276.552,279.71 279.5,284.5C 279.325,289.943 279.325,295.61 279.5,301.5C 277.052,302.473 274.385,302.806 271.5,302.5C 271.378,298.162 271.045,297.828 270.5,301.5C 266.05,301.858 262.55,300.192 260,296.5C 259.612,298.076 260.112,299.409 261.5,300.5C 264.289,301.648 266.956,302.981 269.5,304.5C 268.572,305.768 268.405,307.101 269,308.5C 270.009,306.975 270.509,305.308 270.5,303.5C 273.939,303.253 277.272,303.586 280.5,304.5C 282.337,311.806 281.67,318.806 278.5,325.5C 272.792,332.424 272.126,340.258 276.5,349C 276.515,351.558 276.182,354.058 275.5,356.5C 266.137,355.969 261.303,350.969 261,341.5C 253.227,338.39 246.56,333.724 241,327.5C 240,325.167 239,322.833 238,320.5C 237.223,313.177 236.556,305.843 236,298.5C 235.768,297.263 235.268,296.263 234.5,295.5C 234.255,289.67 231.255,286.337 225.5,285.5C 225.937,283.926 226.937,282.759 228.5,282C 232.711,280.29 237.044,278.957 241.5,278C 243.279,276.86 244.946,275.693 246.5,274.5 Z"/></g>
<g><path style="opacity:1" fill="#bc8a7e" d="M 376.5,288.5 C 376.784,286.585 376.451,284.919 375.5,283.5C 375.5,281.833 375.5,280.167 375.5,278.5C 378.476,275.698 381.642,273.031 385,270.5C 386.271,278.553 383.438,284.553 376.5,288.5 Z"/></g>
<g><path style="opacity:1" fill="#fafbfb" d="M 375.5,283.5 C 376.451,284.919 376.784,286.585 376.5,288.5C 376.281,289.675 376.614,290.675 377.5,291.5C 386.562,295.87 393.228,293.537 397.5,284.5C 398.167,284.5 398.5,284.833 398.5,285.5C 398.175,293.158 394.175,297.158 386.5,297.5C 378.732,297.066 374.732,293.066 374.5,285.5C 374.833,284.833 375.167,284.167 375.5,283.5 Z"/></g>
<g><path style="opacity:1" fill="#fab8a8" d="M 225.5,285.5 C 231.255,286.337 234.255,289.67 234.5,295.5C 234.771,300.913 234.271,306.246 233,311.5C 229.363,321.412 225.529,331.245 221.5,341C 223.112,343.616 225.112,345.95 227.5,348C 231.783,350.615 235.783,353.615 239.5,357C 236.896,357.39 234.562,358.224 232.5,359.5C 226.521,360.331 220.521,360.997 214.5,361.5C 208.5,357.831 203.834,352.831 200.5,346.5C 206.874,326.416 214.374,306.749 223,287.5C 223.708,286.619 224.542,285.953 225.5,285.5 Z"/></g>
<g><path style="opacity:1" fill="#4fabc0" d="M 464.5,238.5 C 469.655,256.435 471.488,274.768 470,293.5C 469.215,295.286 468.049,296.786 466.5,298C 462.925,299.801 459.258,301.301 455.5,302.5C 446.257,304.351 437.424,307.351 429,311.5C 428.831,326.672 428.331,341.672 427.5,356.5C 427.666,348.826 427.5,341.159 427,333.5C 423.615,337.217 420.615,341.217 418,345.5C 417.503,348.146 417.336,350.813 417.5,353.5C 415.902,338.354 415.402,323.02 416,307.5C 421.167,303.667 426.333,299.833 431.5,296C 439.578,293.878 447.578,291.544 455.5,289C 461.435,286.968 464.269,282.801 464,276.5C 464.167,270.667 464.333,264.833 464.5,259C 464.496,252.793 463.829,246.96 462.5,241.5C 462.932,240.29 463.599,239.29 464.5,238.5 Z"/></g>
<g><path style="opacity:1" fill="#dbf7fd" d="M 279.5,301.5 C 280.404,302.209 280.737,303.209 280.5,304.5C 277.272,303.586 273.939,303.253 270.5,303.5C 270.509,305.308 270.009,306.975 269,308.5C 268.405,307.101 268.572,305.768 269.5,304.5C 266.956,302.981 264.289,301.648 261.5,300.5C 260.112,299.409 259.612,298.076 260,296.5C 262.55,300.192 266.05,301.858 270.5,301.5C 271.045,297.828 271.378,298.162 271.5,302.5C 274.385,302.806 277.052,302.473 279.5,301.5 Z"/></g>
<g><path style="opacity:0.183" fill="#69defe" d="M 455.5,302.5 C 460.238,321.022 464.405,339.689 468,358.5C 477.082,417.059 453.248,454.559 396.5,471C 385.593,473.977 374.593,476.477 363.5,478.5C 363.461,477.244 363.961,476.244 365,475.5C 366.911,475.255 368.911,475.255 371,475.5C 371.605,473.519 372.605,473.185 374,474.5C 375.079,472.606 376.413,472.273 378,473.5C 380.388,472.895 382.721,471.562 385,469.5C 386.147,470.458 387.147,470.125 388,468.5C 389.667,468.5 391.333,468.5 393,468.5C 394,467.5 395,466.5 396,465.5C 397.998,466.271 399.665,465.605 401,463.5C 419.161,456.542 432.327,445.042 440.5,429C 440.219,425.983 440.219,422.817 440.5,419.5C 440.5,418.833 440.5,418.167 440.5,417.5C 439.365,406.905 434.365,398.572 425.5,392.5C 424.906,390.59 424.573,388.59 424.5,386.5C 426.159,376.561 427.159,366.561 427.5,356.5C 428.331,341.672 428.831,326.672 429,311.5C 437.424,307.351 446.257,304.351 455.5,302.5 Z"/></g>
<g><path style="opacity:1" fill="#53afc4" d="M 234.5,295.5 C 235.268,296.263 235.768,297.263 236,298.5C 236.556,305.843 237.223,313.177 238,320.5C 239,322.833 240,325.167 241,327.5C 246.56,333.724 253.227,338.39 261,341.5C 261.303,350.969 266.137,355.969 275.5,356.5C 275.5,356.833 275.5,357.167 275.5,357.5C 261.116,357.315 246.783,357.982 232.5,359.5C 234.562,358.224 236.896,357.39 239.5,357C 235.783,353.615 231.783,350.615 227.5,348C 225.112,345.95 223.112,343.616 221.5,341C 225.529,331.245 229.363,321.412 233,311.5C 234.271,306.246 234.771,300.913 234.5,295.5 Z"/></g>
<g><path style="opacity:1" fill="#51b0c5" d="M 203.5,363.5 C 198.395,364.121 193.395,365.121 188.5,366.5C 183.235,362.521 177.901,358.521 172.5,354.5C 168.471,348.97 164.638,343.303 161,337.5C 159.721,327.197 158.721,316.863 158,306.5C 163.528,318.375 169.528,330.041 176,341.5C 184.777,349.457 193.944,356.791 203.5,363.5 Z"/></g>
<g><path style="opacity:1" fill="#f9b8a9" d="M 389.5,357.5 C 386.314,358.597 383.314,359.93 380.5,361.5C 374.136,360.663 371.636,356.996 373,350.5C 377.167,347 381.333,343.5 385.5,340C 390.44,338.959 395.106,339.626 399.5,342C 401.628,345.13 404.128,347.963 407,350.5C 407.483,351.448 407.649,352.448 407.5,353.5C 404.813,353.336 402.146,353.503 399.5,354C 401.002,354.583 402.335,355.416 403.5,356.5C 398.88,357.493 394.214,357.827 389.5,357.5 Z"/></g>
<g><path style="opacity:1" fill="#51afc4" d="M 154.5,376.5 C 146.152,379.842 138.152,384.009 130.5,389C 125.177,389.499 119.844,389.666 114.5,389.5C 108.11,389.569 102.11,388.069 96.5,385C 94.5313,383.5 93.198,381.667 92.5,379.5C 93.5782,361.846 93.2448,344.179 91.5,326.5C 94.9176,325.371 97.751,323.371 100,320.5C 100.333,327.833 100.667,335.167 101,342.5C 101.961,347.918 104.127,352.751 107.5,357C 123.236,363.626 138.903,370.126 154.5,376.5 Z"/></g>
<g><path style="opacity:1" fill="#4aa1b5" d="M 427.5,356.5 C 427.159,366.561 426.159,376.561 424.5,386.5C 424.573,388.59 424.906,390.59 425.5,392.5C 424.475,392.897 424.308,393.563 425,394.5C 432.708,400.62 437.875,408.287 440.5,417.5C 440.5,418.167 440.5,418.833 440.5,419.5C 439.918,422.313 438.918,424.98 437.5,427.5C 352.448,440.175 267.448,453.175 182.5,466.5C 161.845,462.671 142.845,454.837 125.5,443C 120.51,438.856 116.51,434.023 113.5,428.5C 211.542,413.661 309.542,398.494 407.5,383C 395.798,377.647 383.798,373.147 371.5,369.5C 374.226,367.464 377.226,365.797 380.5,364.5C 382.656,362.872 382.656,361.872 380.5,361.5C 383.314,359.93 386.314,358.597 389.5,357.5C 388.395,359.713 388.395,361.88 389.5,364C 398.076,368.455 406.742,372.622 415.5,376.5C 417.202,368.938 417.869,361.271 417.5,353.5C 417.336,350.813 417.503,348.146 418,345.5C 420.615,341.217 423.615,337.217 427,333.5C 427.5,341.159 427.666,348.826 427.5,356.5 Z"/></g>
<g><path style="opacity:1" fill="#3b8090" d="M 275.5,357.5 C 288.375,357.147 301.041,357.813 313.5,359.5C 313.739,361.467 313.406,363.301 312.5,365C 251.137,374.394 189.804,383.894 128.5,393.5C 128.953,392.542 129.619,391.708 130.5,391C 124.984,390.827 119.651,390.327 114.5,389.5C 119.844,389.666 125.177,389.499 130.5,389C 138.152,384.009 146.152,379.842 154.5,376.5C 165.449,371.929 176.783,368.595 188.5,366.5C 193.395,365.121 198.395,364.121 203.5,363.5C 205.5,363.167 207.5,362.833 209.5,362.5C 211.042,361.699 212.708,361.366 214.5,361.5C 220.521,360.997 226.521,360.331 232.5,359.5C 246.783,357.982 261.116,357.315 275.5,357.5 Z"/></g>
<g><path style="opacity:1" fill="#418ea0" d="M 313.5,359.5 C 313.833,359.5 314.167,359.5 314.5,359.5C 314.091,364.692 314.758,369.692 316.5,374.5C 249.67,385.471 182.67,396.137 115.5,406.5C 118.833,401.167 123.167,396.833 128.5,393.5C 189.804,383.894 251.137,374.394 312.5,365C 313.406,363.301 313.739,361.467 313.5,359.5 Z"/></g>
<g><path style="opacity:1" fill="#479aae" d="M 371.5,369.5 C 383.798,373.147 395.798,377.647 407.5,383C 309.542,398.494 211.542,413.661 113.5,428.5C 112.687,426.739 111.687,425.072 110.5,423.5C 109.624,416.96 111.291,411.294 115.5,406.5C 182.67,396.137 249.67,385.471 316.5,374.5C 318.671,376.5 321.004,378.334 323.5,380C 340.663,381.778 356.663,378.278 371.5,369.5 Z"/></g>
<g><path style="opacity:1" fill="#232021" d="M 92.5,379.5 C 93.198,381.667 94.5313,383.5 96.5,385C 102.11,388.069 108.11,389.569 114.5,389.5C 119.651,390.327 124.984,390.827 130.5,391C 129.619,391.708 128.953,392.542 128.5,393.5C 123.167,396.833 118.833,401.167 115.5,406.5C 111.291,411.294 109.624,416.96 110.5,423.5C 110.804,426.522 111.304,429.522 112,432.5C 113.777,435.059 115.277,437.726 116.5,440.5C 105.804,434.823 95.8036,428.156 86.5,420.5C 86.4477,413.794 86.9477,407.128 88,400.5C 89.6624,393.519 91.1624,386.519 92.5,379.5 Z"/></g>
<g><path style="opacity:0.41" fill="#2a5966" d="M 425.5,392.5 C 434.365,398.572 439.365,406.905 440.5,417.5C 437.875,408.287 432.708,400.62 425,394.5C 424.308,393.563 424.475,392.897 425.5,392.5 Z"/></g>
<g><path style="opacity:0.967" fill="#67dffb" d="M 440.5,419.5 C 440.219,422.817 440.219,425.983 440.5,429C 432.327,445.042 419.161,456.542 401,463.5C 399.665,465.605 397.998,466.271 396,465.5C 395,466.5 394,467.5 393,468.5C 391.333,468.5 389.667,468.5 388,468.5C 387.147,470.125 386.147,470.458 385,469.5C 382.721,471.562 380.388,472.895 378,473.5C 376.413,472.273 375.079,472.606 374,474.5C 372.605,473.185 371.605,473.519 371,475.5C 368.911,475.255 366.911,475.255 365,475.5C 363.961,476.244 363.461,477.244 363.5,478.5C 317.11,486.915 270.443,488.748 223.5,484C 191.611,480.531 161.611,471.198 133.5,456C 127.039,451.705 121.372,446.539 116.5,440.5C 115.277,437.726 113.777,435.059 112,432.5C 111.304,429.522 110.804,426.522 110.5,423.5C 111.687,425.072 112.687,426.739 113.5,428.5C 116.51,434.023 120.51,438.856 125.5,443C 142.845,454.837 161.845,462.671 182.5,466.5C 205.297,472.543 228.63,476.043 252.5,477C 294.451,479.126 335.785,475.126 376.5,465C 394.958,459.936 411.958,451.936 427.5,441C 431.95,437.242 435.283,432.742 437.5,427.5C 438.918,424.98 439.918,422.313 440.5,419.5 Z"/></g>
<g><path style="opacity:1" fill="#4ea9be" d="M 437.5,427.5 C 435.283,432.742 431.95,437.242 427.5,441C 411.958,451.936 394.958,459.936 376.5,465C 335.785,475.126 294.451,479.126 252.5,477C 228.63,476.043 205.297,472.543 182.5,466.5C 267.448,453.175 352.448,440.175 437.5,427.5 Z"/></g>
</svg>
