<?xml version="1.0" encoding="UTF-8"?>
<svg version="1.1" xmlns="http://www.w3.org/2000/svg" width="500" height="500">
<path d="M0 0 C0.77103058 -0.00570007 1.54206116 -0.01140015 2.3364563 -0.01727295 C3.9651759 -0.02667458 5.59391411 -0.03323756 7.22265625 -0.03710938 C9.65400797 -0.04671187 12.08447475 -0.07773742 14.515625 -0.109375 C44.57744267 -0.3116912 70.43920233 8.01413006 92.5703125 28.515625 C106.76685858 41.65930626 121.72971042 51.06240387 139.2578125 59.203125 C140.0739502 59.58936035 140.89008789 59.9755957 141.73095703 60.37353516 C147.11825874 62.79897276 151.92625713 63.91889942 157.8203125 64.203125 C158.73941406 64.24953125 159.65851563 64.2959375 160.60546875 64.34375 C161.35699219 64.37984375 162.10851562 64.4159375 162.8828125 64.453125 C168.03184076 64.96722455 171.98604534 66.69246607 175.8203125 70.203125 C176.284375 71.5025 176.284375 71.5025 176.7578125 72.828125 C177.5488365 75.32435963 177.5488365 75.32435963 179.56762695 75.9309082 C180.307146 76.14062256 181.04666504 76.35033691 181.80859375 76.56640625 C203.07153069 83.20200686 223.80486269 98.47268636 235.0625 117.68359375 C239.60559135 126.77987222 243.00610494 136.78235245 242.8828125 147.015625 C242.86927734 148.47935547 242.86927734 148.47935547 242.85546875 149.97265625 C242.83806641 151.07673828 242.83806641 151.07673828 242.8203125 152.203125 C243.58061768 152.2124707 244.34092285 152.22181641 245.12426758 152.23144531 C248.62773083 152.28570896 252.12993802 152.36924565 255.6328125 152.453125 C256.82841797 152.46730469 258.02402344 152.48148438 259.25585938 152.49609375 C271.36098474 152.82593368 280.97186192 155.7052734 289.8203125 164.203125 C298.01333968 173.209079 301.2429194 181.8434022 301.09375 194.015625 C300.3126979 203.12046086 295.98731318 211.54056176 289.8203125 218.203125 C281.11035661 225.26812998 273.27090949 228.49108156 262.13110352 228.52197266 C260.87135963 228.53704109 260.87135963 228.53704109 259.58616638 228.55241394 C256.83219029 228.58310877 254.07831081 228.60024274 251.32421875 228.6171875 C249.40607378 228.63591018 247.48793695 228.65548441 245.56980896 228.6758728 C240.53769746 228.72708373 235.50555928 228.76676843 230.47332764 228.80401611 C225.33176129 228.8441251 220.19030484 228.89518594 215.04882812 228.9453125 C204.97273357 229.04194103 194.89657681 229.1263875 184.8203125 229.203125 C183.55536897 231.72727011 182.291059 234.25172932 181.02709961 236.77636719 C180.67325951 237.48227997 180.3194194 238.18819275 179.95485687 238.91549683 C177.77440788 243.27216321 175.62734275 247.64273579 173.51171875 252.03125 C162.53889597 274.65560915 162.53889597 274.65560915 154.8203125 283.203125 C154.005625 284.14800781 153.1909375 285.09289062 152.3515625 286.06640625 C136.40466938 303.39692686 111.76485292 309.44095532 88.90234375 310.49047852 C84.82023302 310.61243142 80.74180064 310.62586265 76.65820312 310.59423828 C74.188245 310.57807876 71.71991106 310.59425191 69.25 310.61328125 C42.04606001 310.64918881 18.8383143 303.1300225 -0.984375 284.14453125 C-22.69089087 263.71527981 -44.52675236 258.43305509 -73.66503906 257.91308594 C-105.41251578 257.34297951 -131.4020843 253.63675899 -156.1796875 232.203125 C-159.20126761 229.61187712 -161.42849238 227.86690484 -165.3046875 226.953125 C-174.94807731 223.93152953 -181.85284393 217.58161772 -186.80859375 208.91796875 C-190.91425721 200.78852116 -192.25067722 193.35903708 -191.1796875 184.203125 C-190.69184625 182.80748522 -190.18067053 181.41988483 -189.65234375 180.0390625 C-187.35228121 173.55135641 -188.06965636 167.0387263 -188.38476562 160.26171875 C-188.61173713 151.61465795 -187.0597677 144.46184824 -182.1640625 137.22265625 C-175.57932298 130.71849921 -168.61513236 126.95912532 -160.29833984 123.17089844 C-149.88430468 118.41389966 -140.10857671 113.47179888 -131.1796875 106.203125 C-130.3753125 105.56246094 -129.5709375 104.92179687 -128.7421875 104.26171875 C-116.19300522 93.66329077 -106.85374146 79.63285465 -97.57763672 66.21972656 C-94.2287176 61.38876744 -90.81836662 56.60224184 -87.36669922 51.84423828 C-86.21363944 50.25006554 -85.07340837 48.64663836 -83.93359375 47.04296875 C-65.59682213 22.08887989 -42.88173203 5.80577758 -11.96020508 0.66821289 C-7.96013586 0.17611526 -4.02337322 0.02375265 0 0 Z " fill="#68DEFE" transform="translate(194.1796875,57.796875)"/>
<path d="M0 0 C2.13197599 -0.00407251 4.26394987 -0.00941818 6.3959198 -0.01593018 C12.14776535 -0.02952623 17.89944823 -0.02433779 23.65129638 -0.01479292 C29.68927281 -0.00715915 35.72723599 -0.01425194 41.76521301 -0.01895142 C51.89851362 -0.02439692 62.03174846 -0.01724772 72.16503906 -0.00292969 C83.86218852 0.01340768 95.55918117 0.00809549 107.25632685 -0.0084089 C117.32380263 -0.02204236 127.39123133 -0.02393473 137.45871335 -0.0160929 C143.46105444 -0.01142832 149.4633219 -0.01075832 155.46565819 -0.02070236 C161.10714466 -0.02939729 166.74842967 -0.02330395 172.38989449 -0.00601959 C174.45419354 -0.00206881 176.51850968 -0.00316452 178.58280182 -0.00980759 C193.84699793 -0.05438374 206.04542619 0.12851952 217.51489258 11.27490234 C224.66977402 18.87789745 226.17707278 25.45612941 225.92114258 35.84912109 C225.08457685 44.36517223 222.02680948 51.66853291 215.57348633 57.38818359 C206.65084771 64.56551488 196.03850032 65.84357849 184.92451477 65.74894714 C183.2443274 65.75279206 183.2443274 65.75279206 181.53019685 65.75671464 C177.80530024 65.76162617 174.08081582 65.74520276 170.35595703 65.72875977 C167.67455641 65.72791292 164.99318045 65.72825789 162.31178284 65.73008728 C156.553534 65.73165467 150.79538773 65.72230165 145.03716469 65.70537376 C136.71192249 65.68091544 128.3867295 65.67317153 120.06145527 65.66940979 C106.55184707 65.66285598 93.04229344 65.64292399 79.53271484 65.61450195 C66.41520459 65.58693359 53.29770919 65.56571363 40.18017578 65.55297852 C39.37060294 65.55219035 38.5610301 65.55140217 37.72692475 65.55059012 C33.66523445 65.5466748 29.60354403 65.54288372 25.54185355 65.53915441 C-8.11430842 65.50809187 -41.77040434 65.45528537 -75.42651367 65.38818359 C-75.27024342 62.83864373 -75.1131407 60.28915965 -74.95556641 57.73970032 C-74.91176598 57.02370053 -74.86796555 56.30770074 -74.82283783 55.57000399 C-74.47457836 49.951198 -74.02587083 44.34771338 -73.48901367 38.74365234 C-73.40401611 37.84117264 -73.31901855 36.93869293 -73.23144531 36.00886536 C-73.05459807 34.1396578 -72.87646256 32.27057167 -72.69702148 30.40161133 C-72.42261137 27.53491717 -72.15486027 24.66764776 -71.88745117 21.80029297 C-71.71336821 19.96887506 -71.5389037 18.13749336 -71.36401367 16.30615234 C-71.28481689 15.45313034 -71.20562012 14.60010834 -71.12402344 13.72123718 C-70.80627226 10.45597286 -70.46765232 7.51159955 -69.42651367 4.38818359 C-68.46986816 4.37360107 -67.51322266 4.35901855 -66.52758789 4.34399414 C-62.90777993 4.28511239 -59.28853723 4.20790505 -55.66918945 4.12573242 C-54.11589879 4.09289838 -52.56250066 4.064744 -51.0090332 4.04174805 C-48.74929814 4.00742111 -46.4905128 3.95509322 -44.23120117 3.89990234 C-43.55975067 3.89351242 -42.88830017 3.8871225 -42.19650269 3.88053894 C-37.74797178 3.75097936 -33.78217612 2.99214617 -29.4712677 1.88542175 C-19.68816012 -0.23539566 -9.97004082 -0.03218804 0 0 Z " fill="#69E1FC" transform="translate(263.426513671875,215.61181640625)"/>
<path d="M0 0 C1.96243904 -0.00043808 1.96243904 -0.00043808 3.96452332 -0.00088501 C7.52591631 -0.00145521 11.08717262 0.0102448 14.64853406 0.02426291 C18.38009768 0.0368261 22.11166496 0.03794515 25.84324646 0.04031372 C32.8978374 0.04651215 39.95236583 0.06290064 47.00692934 0.0830127 C55.04325202 0.10542286 63.07957781 0.11637796 71.115924 0.12640357 C87.63648258 0.14726845 104.15697841 0.18241234 120.67749023 0.22705078 C120.70254639 1.10441895 120.72760254 1.98178711 120.75341797 2.88574219 C120.84894408 6.16222269 120.94815266 9.43854976 121.04980469 12.71484375 C121.09293274 14.12886243 121.13462192 15.5429258 121.17480469 16.95703125 C121.23304774 18.99769519 121.29658164 21.03813873 121.36108398 23.07861328 C121.3977417 24.30402832 121.43439941 25.52944336 121.47216797 26.79199219 C121.66439955 30.0080426 122.11854538 33.05802811 122.67749023 36.22705078 C123.11047198 45.67209453 122.96371826 54.9986997 120.67749023 64.22705078 C118.99592363 65.90861739 116.92010354 65.35673454 114.61329651 65.36076355 C113.51570511 65.36502853 112.41811371 65.36929352 111.28726196 65.37368774 C110.0722702 65.37323456 108.85727844 65.37278137 107.60546875 65.37231445 C106.33391434 65.37567307 105.06235992 65.37903168 103.75227356 65.38249207 C100.2517682 65.39135699 96.75128726 65.39367142 93.25077176 65.39430785 C91.06183635 65.39501777 88.87290718 65.39715112 86.68397331 65.39980507 C79.04093913 65.40907169 71.39792242 65.41313893 63.75488281 65.41235352 C56.64377095 65.41175464 49.53273542 65.4222656 42.42164284 65.43809718 C36.31110993 65.45121349 30.2006018 65.45653559 24.09005493 65.45589811 C20.44337185 65.45564401 16.79675635 65.45844504 13.15008736 65.46907616 C9.07136039 65.48063998 4.99280145 65.47598539 0.9140625 65.4699707 C-0.28271118 65.47559021 -1.47948486 65.48120972 -2.71252441 65.48699951 C-15.3699832 65.43972169 -24.40709198 63.64988762 -34.01000977 55.16455078 C-39.42050917 49.45622572 -42.56626526 41.83581248 -42.76000977 33.97705078 C-42.1753111 24.08458142 -39.32012061 15.67037409 -31.88500977 8.91455078 C-22.0558587 0.48712213 -12.52035626 -0.07375488 0 0 Z " fill="#68E0FC" transform="translate(50.322509765625,215.77294921875)"/>
<path d="M0 0 C0.86882812 -0.03996094 1.73765625 -0.07992187 2.6328125 -0.12109375 C11.29416685 1.37116369 18.52322242 7.04840351 25.375 12.25 C26.61491699 13.178125 26.61491699 13.178125 27.87988281 14.125 C36.10338316 20.30477104 44.11142236 26.68656292 51.875 33.4375 C50.85931653 35.62512594 49.8316145 37.49382308 48.35546875 39.41015625 C43.22980869 46.42919997 42.94434717 56.10724479 43.875 64.4375 C44.77276674 68.13526358 45.79645906 71.78872312 46.875 75.4375 C48.01227539 75.35185791 49.14955078 75.26621582 50.32128906 75.17797852 C54.64516005 74.85304622 58.96927319 74.53143298 63.29345703 74.21069336 C65.14540993 74.07289069 66.99730094 73.93425299 68.84912109 73.79467773 C79.60980743 72.98426172 90.36283559 72.28926397 101.14250183 71.7883606 C106.02698089 71.55359891 110.86942438 71.20984981 115.72753906 70.63598633 C155.88912636 65.89308566 155.88912636 65.89308566 172.875 78.4375 C173.88990278 79.42237174 174.893937 80.418915 175.875 81.4375 C175.25416377 81.44081015 174.63332754 81.44412029 173.99367809 81.44753075 C158.8960722 81.52870691 143.79857564 81.62078154 128.7011137 81.72502708 C121.40012907 81.77517564 114.0991558 81.82161824 106.7980957 81.859375 C100.43542012 81.89228835 94.07283208 81.93211583 87.71025306 81.98029006 C84.34047142 82.0055617 80.9707479 82.02734092 77.60089684 82.04084396 C73.84146854 82.05764473 70.0823234 82.08666511 66.32299805 82.11865234 C65.20234451 82.12081253 64.08169098 82.12297272 62.92707825 82.12519836 C61.3937233 82.14194359 61.3937233 82.14194359 59.82939148 82.1590271 C58.49509614 82.16732324 58.49509614 82.16732324 57.13384533 82.17578697 C54.59340896 82.29643408 54.59340896 82.29643408 51.875 84.4375 C41.27540878 87.72176009 30.96572904 87.81068167 20 87.625 C18.42579426 87.60990399 16.85157428 87.5962244 15.27734375 87.58398438 C11.47620095 87.55141804 7.67576494 87.49991782 3.875 87.4375 C3.79983154 88.43265625 3.72466309 89.4278125 3.6472168 90.453125 C1.10817227 123.84733338 1.10817227 123.84733338 -0.6875 138.25 C-0.85922729 139.64895508 -0.85922729 139.64895508 -1.03442383 141.07617188 C-2.80487117 154.59732042 -2.80487117 154.59732042 -6.1875 159.3125 C-12.96725328 164.21700237 -20.16073692 163.6678872 -28.125 162.4375 C-27.71920146 156.7563204 -25.82833575 154.5021368 -22.125 150.4375 C-16.4372854 141.90592811 -16.90423614 126.41516689 -18.625 116.57958984 C-19.47749459 111.22236063 -19.31577631 105.851786 -19.3125 100.4375 C-19.31241943 99.20249756 -19.31233887 97.96749512 -19.31225586 96.69506836 C-19.23481359 84.03122017 -18.95299693 70.84501806 -16.125 58.4375 C-17.73249827 61.14386875 -19.33538459 63.8529418 -20.9375 66.5625 C-21.38931641 67.32304687 -21.84113281 68.08359375 -22.30664062 68.8671875 C-22.74814453 69.61484375 -23.18964844 70.3625 -23.64453125 71.1328125 C-24.04776611 71.81359863 -24.45100098 72.49438477 -24.86645508 73.19580078 C-26.38309802 75.89721988 -27.7564301 78.6586249 -29.125 81.4375 C-33.62498618 81.46672653 -38.12494765 81.48437482 -42.625 81.5 C-43.8934375 81.50837891 -45.161875 81.51675781 -46.46875 81.52539062 C-52.78583499 81.54184137 -58.88310372 81.43841014 -65.125 80.4375 C-64.94921875 78.60546875 -64.94921875 78.60546875 -64.125 76.4375 C-59.04865135 73.22910928 -53.13048392 70.92443113 -47.125 70.4375 C-46.95556885 69.83091553 -46.7861377 69.22433105 -46.61157227 68.59936523 C-44.81591218 62.3722961 -42.63752953 56.44425356 -40.0625 50.5 C-39.67255859 49.59902588 -39.28261719 48.69805176 -38.88085938 47.76977539 C-18.06760134 0.44773939 -18.06760134 0.44773939 0 0 Z " fill="#242122" transform="translate(190.125,132.5625)"/>
<path d="M0 0 C2.13197599 -0.00407251 4.26394987 -0.00941818 6.3959198 -0.01593018 C12.14776535 -0.02952623 17.89944823 -0.02433779 23.65129638 -0.01479292 C29.68927281 -0.00715915 35.72723599 -0.01425194 41.76521301 -0.01895142 C51.89851362 -0.02439692 62.03174846 -0.01724772 72.16503906 -0.00292969 C83.86218852 0.01340768 95.55918117 0.00809549 107.25632685 -0.0084089 C117.32380263 -0.02204236 127.39123133 -0.02393473 137.45871335 -0.0160929 C143.46105444 -0.01142832 149.4633219 -0.01075832 155.46565819 -0.02070236 C161.10714466 -0.02939729 166.74842967 -0.02330395 172.38989449 -0.00601959 C174.45419354 -0.00206881 176.51850968 -0.00316452 178.58280182 -0.00980759 C193.84699793 -0.05438374 206.04542619 0.12851952 217.51489258 11.27490234 C224.66977402 18.87789745 226.17707278 25.45612941 225.92114258 35.84912109 C225.08457685 44.36517223 222.02680948 51.66853291 215.57348633 57.38818359 C206.65084771 64.56551488 196.03850032 65.84357849 184.92451477 65.74894714 C183.2443274 65.75279206 183.2443274 65.75279206 181.53019685 65.75671464 C177.80530024 65.76162617 174.08081582 65.74520276 170.35595703 65.72875977 C167.67455641 65.72791292 164.99318045 65.72825789 162.31178284 65.73008728 C156.553534 65.73165467 150.79538773 65.72230165 145.03716469 65.70537376 C136.71192249 65.68091544 128.3867295 65.67317153 120.06145527 65.66940979 C106.55184707 65.66285598 93.04229344 65.64292399 79.53271484 65.61450195 C66.41520459 65.58693359 53.29770919 65.56571363 40.18017578 65.55297852 C39.37060294 65.55219035 38.5610301 65.55140217 37.72692475 65.55059012 C33.66523445 65.5466748 29.60354403 65.54288372 25.54185355 65.53915441 C-8.11430842 65.50809187 -41.77040434 65.45528537 -75.42651367 65.38818359 C-75.42651367 63.40818359 -75.42651367 61.42818359 -75.42651367 59.38818359 C-74.52075561 59.38579524 -73.61499754 59.38340689 -72.68179226 59.38094616 C-50.63958402 59.32180229 -28.59748518 59.24625606 -6.55539608 59.15246868 C4.10400974 59.107509 14.76338214 59.06809469 25.42285156 59.04174805 C34.71397552 59.01876942 44.00499372 58.98537281 53.2960338 58.93948203 C58.21527101 58.91554808 63.13440348 58.8968204 68.05369759 58.89056969 C72.68547984 58.88451966 77.31699405 58.86452263 81.94867706 58.83390808 C83.6469658 58.82512657 85.34528956 58.82140551 87.04360008 58.82317543 C89.36674191 58.82483185 91.6890702 58.80809847 94.01210022 58.78691101 C95.31090653 58.78230205 96.60971285 58.77769308 97.94787693 58.77294445 C104.4953583 58.07810552 110.91112975 55.10604442 115.57348633 50.38818359 C120.18949563 42.9526016 122.48712899 36.14392578 121.57348633 27.38818359 C119.70375464 21.0270312 116.36821785 14.70966641 110.58129883 11.16943359 C105.16076534 8.38967283 100.86736352 7.26148553 94.72090149 7.22996521 C93.6696254 7.22255824 93.6696254 7.22255824 92.5971114 7.21500164 C90.24329152 7.19961544 87.88949894 7.19126299 85.53564453 7.18286133 C83.85049193 7.17328369 82.16534175 7.16327367 80.48019409 7.15286255 C75.89995469 7.12579509 71.31970497 7.10479548 66.73942971 7.08486056 C61.95478188 7.06301238 57.17016594 7.03561798 52.38554382 7.00880432 C43.32271514 6.95886164 34.25986876 6.91392865 25.19700545 6.87078196 C14.88030339 6.82142305 4.56363332 6.76649993 -5.75303781 6.71110237 C-26.97749997 6.59725813 -48.20199266 6.4904244 -69.42651367 6.38818359 C-69.42651367 5.72818359 -69.42651367 5.06818359 -69.42651367 4.38818359 C-68.46986816 4.37360107 -67.51322266 4.35901855 -66.52758789 4.34399414 C-62.90777993 4.28511239 -59.28853723 4.20790505 -55.66918945 4.12573242 C-54.11589879 4.09289838 -52.56250066 4.064744 -51.0090332 4.04174805 C-48.74929814 4.00742111 -46.4905128 3.95509322 -44.23120117 3.89990234 C-43.55975067 3.89351242 -42.88830017 3.8871225 -42.19650269 3.88053894 C-37.74797178 3.75097936 -33.78217612 2.99214617 -29.4712677 1.88542175 C-19.68816012 -0.23539566 -9.97004082 -0.03218804 0 0 Z " fill="#FBFEFE" transform="translate(263.426513671875,215.61181640625)"/>
<path d="M0 0 C1.60332791 -0.08121924 3.20784026 -0.13929134 4.8125 -0.1875 C6.15248047 -0.23970703 6.15248047 -0.23970703 7.51953125 -0.29296875 C10.47419737 0.05600756 11.12022275 0.78849735 13 3 C13.804375 3.391875 14.60875 3.78375 15.4375 4.1875 C19.06205933 6.7512127 20.56840896 9.84603912 22 14 C22.25 17.5 22.25 17.5 22 20 C22.66 18.68 23.32 17.36 24 16 C24.66 16 25.32 16 26 16 C26.33 16.99 26.66 17.98 27 19 C30.37081613 12.4509858 32.70048208 7.42511009 32 0 C34.9453125 1.453125 34.9453125 1.453125 38 4 C38.89018074 6.908219 38.88503463 9.72456036 38.875 12.75 C38.9059375 13.93916016 38.9059375 13.93916016 38.9375 15.15234375 C38.98445818 17.10110815 38.99574383 19.05067457 39 21 C39.66 21 40.32 21 41 21 C41.28335205 21.59643311 41.5667041 22.19286621 41.85864258 22.80737305 C45.07269527 29.41956007 48.74581716 35.61204987 52.6875 41.8125 C53.84098264 43.62913915 54.99085738 45.44807531 56.13671875 47.26953125 C56.63905029 48.05948486 57.14138184 48.84943848 57.65893555 49.66333008 C61.29757189 56.00328793 61.8387529 61.78073396 61 69 C59.19196596 72.07365786 58.13960536 73.43019732 55 75 C39.86316903 76.93241907 24.70018541 78.59269481 11.8359375 69.19921875 C10.90007812 68.47347656 9.96421875 67.74773437 9 67 C5.73797379 65.00187294 3.24461762 64.74316057 -0.55859375 64.734375 C-1.65494141 64.73034668 -2.75128906 64.72631836 -3.88085938 64.72216797 C-5.64139648 64.73594482 -5.64139648 64.73594482 -7.4375 64.75 C-8.65888672 64.75531738 -9.88027344 64.76063477 -11.13867188 64.76611328 C-18.95982962 64.84694419 -26.64583047 65.27576174 -34.41479492 66.14526367 C-44.85806116 67.28534091 -55.34444334 67.75420581 -65.83203125 68.30224609 C-67.28908593 68.37944191 -68.7461179 68.45706753 -70.203125 68.53515625 C-70.90220474 68.57256424 -71.60128448 68.60997223 -72.32154846 68.64851379 C-76.57849498 68.88764219 -80.78465016 69.28343932 -85.01416016 69.8059082 C-88.69227731 70.16539961 -92.37077066 70.10456177 -96.0625 70.0625 C-96.83271484 70.05798828 -97.60292969 70.05347656 -98.39648438 70.04882812 C-100.2643578 70.03722643 -102.13219026 70.01929999 -104 70 C-108.67307803 59.58988421 -109.91688851 49.14228784 -106.015625 38.21875 C-103.75631379 33.28302397 -101.46185289 30.12275412 -96.421875 27.82421875 C-88.01338043 25.03216735 -79.19284281 23.49494052 -70.50390625 21.83203125 C-69.72805176 21.6820166 -68.95219727 21.53200195 -68.15283203 21.37744141 C-66.28989858 21.05082595 -64.40842718 20.83350251 -62.52734375 20.63671875 C-59.89644037 20.28478627 -59.89644037 20.28478627 -58.91015625 18.25 C-58.60980469 17.5075 -58.30945313 16.765 -58 16 C-51.10227243 7.86355009 -43.60459719 1.76095077 -32.703125 0.796875 C-25.89581529 0.66679902 -20.26493934 1.20148057 -14.94921875 5.7578125 C-13.23322259 7.45661431 -11.59146585 9.18473427 -10 11 C-11.02396197 13.75682069 -12.06395172 16.09711187 -13.6875 18.5625 C-15.19511808 20.83179411 -15.19511808 20.83179411 -14.8359375 22.98046875 C-13.73186658 25.64778027 -12.41907337 26.33195808 -9.9375 27.75 C-9.20402344 28.17796875 -8.47054687 28.6059375 -7.71484375 29.046875 C-7.14894531 29.36140625 -6.58304687 29.6759375 -6 30 C-6.125 33.25 -6.125 33.25 -7 37 C-10.0625 39.4375 -10.0625 39.4375 -13 41 C-11.515 41.495 -11.515 41.495 -10 42 C-5.61128215 36.17561115 -1.37994792 30.26034626 2.5625 24.125 C3.24441406 23.07570312 3.92632812 22.02640625 4.62890625 20.9453125 C6.20090513 18.1369078 6.20090513 18.1369078 5.9375 15.32421875 C4.84607748 12.61840042 3.72273607 11.47413911 1.4375 9.6875 C0.79683594 9.17574219 0.15617187 8.66398438 -0.50390625 8.13671875 C-1.24447266 7.57404297 -1.24447266 7.57404297 -2 7 C-1.34 4.69 -0.68 2.38 0 0 Z " fill="#FDFDFD" transform="translate(341,138)"/>
<path d="M0 0 C1.96243904 -0.00043808 1.96243904 -0.00043808 3.96452332 -0.00088501 C7.52591631 -0.00145521 11.08717262 0.0102448 14.64853406 0.02426291 C18.38009768 0.0368261 22.11166496 0.03794515 25.84324646 0.04031372 C32.8978374 0.04651215 39.95236583 0.06290064 47.00692934 0.0830127 C55.04325202 0.10542286 63.07957781 0.11637796 71.115924 0.12640357 C87.63648258 0.14726845 104.15697841 0.18241234 120.67749023 0.22705078 C120.67749023 2.20705078 120.67749023 4.18705078 120.67749023 6.22705078 C119.97364952 6.22851734 119.26980881 6.2299839 118.54463959 6.2314949 C101.40066395 6.26858323 84.25690383 6.3276247 67.11309052 6.41095352 C58.82237941 6.45072446 50.53176295 6.4831268 42.2409668 6.49804688 C35.01278459 6.51107352 27.78481082 6.53806388 20.55674601 6.58166385 C16.73122527 6.6042561 12.9059614 6.61996282 9.08036804 6.61893463 C5.4752576 6.61818667 1.87071447 6.6361908 -1.73424911 6.66821861 C-3.67928889 6.68072135 -5.62442403 6.67366411 -7.56948853 6.66590881 C-16.72538232 6.77458446 -23.63430281 8.53884382 -30.32250977 15.22705078 C-34.99331766 22.38542775 -37.28557123 28.63975273 -36.32250977 37.22705078 C-34.62808711 43.43379464 -32.34687366 48.06050511 -27.32250977 52.22705078 C-26.51813477 52.94892578 -25.71375977 53.67080078 -24.88500977 54.41455078 C-20.33462239 57.63311746 -15.90024534 58.47524673 -10.39993286 58.50552368 C-8.65845222 58.52226891 -8.65845222 58.52226891 -6.88179016 58.53935242 C-5.62231064 58.5415126 -4.36283112 58.54367279 -3.06518555 58.54589844 C-1.71455795 58.55520475 -0.36393607 58.56537447 0.98667908 58.57633972 C4.64115382 58.60357462 8.29559014 58.61876973 11.95013952 58.63176775 C15.77386205 58.64742687 19.59750647 58.6742082 23.4211731 58.69979858 C30.65642595 58.74653721 37.89169359 58.78330506 45.12702 58.81647146 C53.36647029 58.85472764 61.60584203 58.90412862 69.84522605 58.95445561 C86.78925725 59.05770232 103.73333396 59.14698627 120.67749023 59.22705078 C120.72021124 60.89316983 120.71812856 62.56087963 120.67749023 64.22705078 C118.99592363 65.90861739 116.92010354 65.35673454 114.61329651 65.36076355 C113.51570511 65.36502853 112.41811371 65.36929352 111.28726196 65.37368774 C110.0722702 65.37323456 108.85727844 65.37278137 107.60546875 65.37231445 C106.33391434 65.37567307 105.06235992 65.37903168 103.75227356 65.38249207 C100.2517682 65.39135699 96.75128726 65.39367142 93.25077176 65.39430785 C91.06183635 65.39501777 88.87290718 65.39715112 86.68397331 65.39980507 C79.04093913 65.40907169 71.39792242 65.41313893 63.75488281 65.41235352 C56.64377095 65.41175464 49.53273542 65.4222656 42.42164284 65.43809718 C36.31110993 65.45121349 30.2006018 65.45653559 24.09005493 65.45589811 C20.44337185 65.45564401 16.79675635 65.45844504 13.15008736 65.46907616 C9.07136039 65.48063998 4.99280145 65.47598539 0.9140625 65.4699707 C-0.28271118 65.47559021 -1.47948486 65.48120972 -2.71252441 65.48699951 C-15.3699832 65.43972169 -24.40709198 63.64988762 -34.01000977 55.16455078 C-39.42050917 49.45622572 -42.56626526 41.83581248 -42.76000977 33.97705078 C-42.1753111 24.08458142 -39.32012061 15.67037409 -31.88500977 8.91455078 C-22.0558587 0.48712213 -12.52035626 -0.07375488 0 0 Z " fill="#F4FCFE" transform="translate(50.322509765625,215.77294921875)"/>
<path d="M0 0 C1.60332791 -0.08121924 3.20784026 -0.13929134 4.8125 -0.1875 C6.15248047 -0.23970703 6.15248047 -0.23970703 7.51953125 -0.29296875 C10.47419737 0.05600756 11.12022275 0.78849735 13 3 C13.804375 3.391875 14.60875 3.78375 15.4375 4.1875 C19.06205933 6.7512127 20.56840896 9.84603912 22 14 C22.25 17.5 22.25 17.5 22 20 C22.66 18.68 23.32 17.36 24 16 C24.66 16 25.32 16 26 16 C26.33 16.99 26.66 17.98 27 19 C30.37081613 12.4509858 32.70048208 7.42511009 32 0 C37.59899117 2.79949559 37.59899117 2.79949559 38.62109375 5.859375 C38.88939208 8.088315 38.9809443 10.25523874 39 12.5 C39.05607422 13.63888672 39.05607422 13.63888672 39.11328125 14.80078125 C39.24261361 18.687559 39.2312928 21.7227887 37 25 C32.24932244 25.33144262 29.95390153 24.56633131 26 22 C25.40832031 22.66386719 24.81664062 23.32773438 24.20703125 24.01171875 C10.15638261 39.71268828 10.15638261 39.71268828 5.2734375 40.36328125 C4.31695312 40.34652344 3.36046875 40.32976562 2.375 40.3125 C1.41335938 40.30863281 0.45171875 40.30476563 -0.5390625 40.30078125 C-3 40 -3 40 -5 38 C-4.62739714 34.933344 -3.39625243 32.80864496 -1.6796875 30.28515625 C-1.22722656 29.59873047 -0.77476562 28.91230469 -0.30859375 28.20507812 C0.64775813 26.77576203 1.61133375 25.35125318 2.58203125 23.93164062 C5.28857027 19.89440892 5.28857027 19.89440892 6.02734375 15.203125 C4.83911956 12.65499404 3.64514428 11.41347644 1.4375 9.6875 C0.79683594 9.17574219 0.15617187 8.66398438 -0.50390625 8.13671875 C-0.99761719 7.76160156 -1.49132812 7.38648438 -2 7 C-1.34 4.69 -0.68 2.38 0 0 Z " fill="#FAB2A2" transform="translate(341,138)"/>
<path d="M0 0 C4.91935778 4.49899696 5.56545577 9.66147107 5.97265625 16.03125 C5.49941222 21.94680043 2.78010517 26.57809848 -0.30859375 31.546875 C-0.63859375 30.226875 -0.96859375 28.906875 -1.30859375 27.546875 C-3.81942489 28.80229057 -4.17984821 30.04750988 -5.30859375 32.546875 C-6.30859375 29.546875 -6.30859375 29.546875 -6.68359375 27.296875 C-8.05956147 21.01260708 -8.05956147 21.01260708 -12.0625 16.2109375 C-13.76661682 15.24010731 -15.53477179 14.38358347 -17.30859375 13.546875 C-17.30859375 12.886875 -17.30859375 12.226875 -17.30859375 11.546875 C-18.07945312 11.55847656 -18.8503125 11.57007813 -19.64453125 11.58203125 C-21.14886719 11.59556641 -21.14886719 11.59556641 -22.68359375 11.609375 C-23.68132812 11.62097656 -24.6790625 11.63257813 -25.70703125 11.64453125 C-28.30859375 11.546875 -28.30859375 11.546875 -30.30859375 10.546875 C-30.60542685 6.76225298 -30.64834167 4.22637084 -28.93359375 0.796875 C-20.45823659 -6.46771686 -8.99861496 -5.78616578 0 0 Z " fill="#292424" transform="translate(368.30859375,126.453125)"/>
<path d="M0 0 C1.32 0 2.64 0 4 0 C3.4740625 0.86625 3.4740625 0.86625 2.9375 1.75 C1.80873705 4.45903108 1.92334825 5.30837061 3 8 C4.83613607 9.55467209 4.83613607 9.55467209 7.0625 10.75 C7.79597656 11.17796875 8.52945313 11.6059375 9.28515625 12.046875 C9.85105469 12.36140625 10.41695313 12.6759375 11 13 C10.875 16.25 10.875 16.25 10 20 C6.9375 22.4375 6.9375 22.4375 4 24 C4.99 24.33 5.98 24.66 7 25 C7.99 24.34 8.98 23.68 10 23 C8.53777748 26.41185254 6.85791087 28.62077735 4 31 C0.78515625 31.9765625 0.78515625 31.9765625 -2.9375 32.625 C-3.60136719 32.74270752 -4.26523437 32.86041504 -4.94921875 32.98168945 C-6.31237885 33.22020995 -7.67683624 33.45143289 -9.04248047 33.67529297 C-10.81499421 33.96931184 -12.5818134 34.29716681 -14.34765625 34.62890625 C-25.29429867 36.56864586 -39.80989467 38.62278882 -50 33 C-51.29296875 30.38671875 -51.29296875 30.38671875 -52 28 C-50.80375 28.495 -49.6075 28.99 -48.375 29.5 C-36.05899059 33.53521426 -17.47149217 31.47645883 -5 28 C-4.67 27.34 -4.34 26.68 -4 26 C-4.598125 25.896875 -5.19625 25.79375 -5.8125 25.6875 C-8.46104026 24.85510163 -9.4530279 24.32045815 -11 22 C-11.79092579 15.54476728 -9.85926765 12.48361945 -6.0625 7.625 C-5.59392578 6.99722656 -5.12535156 6.36945313 -4.64257812 5.72265625 C-1.39299242 1.39299242 -1.39299242 1.39299242 0 0 Z " fill="#FBB3A2" transform="translate(324,155)"/>
<path d="M0 0 C1.875 0.9375 1.875 0.9375 4 3 C4.64986775 5.14464802 5.02664618 7.28662085 5.43212891 9.49023438 C6.60547153 14.67594467 9.11889045 19.43919965 11.34179688 24.24609375 C14.65035043 31.70384968 14.65035043 31.70384968 13 36 C6.48173342 35.74454328 3.78924188 33.63388261 -0.5625 28.9375 C-1.40784302 28.05928589 -1.40784302 28.05928589 -2.27026367 27.16333008 C-6.20846265 23.01488052 -9.76028416 18.7207288 -13 14 C-12.34 13.360625 -11.68 12.72125 -11 12.0625 C-7.14346256 8.2170765 -3.59166578 4.09075581 0 0 Z " fill="#6ADEFE" transform="translate(367,159)"/>
<path d="M0 0 C4.47049977 0.65025451 6.58442102 2.55545941 9.99609375 5.3828125 C11.4375 7.5 11.4375 7.5 11.22070312 10.31298828 C10.39463065 13.67444406 9.28623112 15.76016166 7.34765625 18.609375 C6.72826172 19.52847656 6.10886719 20.44757813 5.47070312 21.39453125 C4.82037109 22.33683594 4.17003906 23.27914062 3.5 24.25 C2.85353516 25.20777344 2.20707031 26.16554687 1.54101562 27.15234375 C-3.20867102 34.14617102 -3.20867102 34.14617102 -5.5625 36.5 C-8.1875 36.125 -8.1875 36.125 -10.5625 35.5 C-9.985 35.0875 -9.4075 34.675 -8.8125 34.25 C-6.47589341 32.43263932 -4.44793936 30.78946209 -2.5625 28.5 C-2.22751699 25.83165034 -2.22751699 25.83165034 -2.5625 23.5 C-3.67625 22.88125 -4.79 22.2625 -5.9375 21.625 C-8.20156215 20.36718769 -9.70865142 19.35384858 -11.5625 17.5 C-11.21729609 13.65960653 -8.99421326 10.56237005 -7.0625 7.3125 C-6.4334375 6.24644531 -5.804375 5.18039063 -5.15625 4.08203125 C-2.99766382 0.58491001 -2.99766382 0.58491001 0 0 Z " fill="#282223" transform="translate(336.5625,144.5)"/>
<path d="M0 0 C0 3 0 3 -2.0625 5.58203125 C-5.47638156 8.39212791 -7.66802436 8.96703371 -12 9.6875 C-12.65935547 9.8006958 -13.31871094 9.9138916 -13.99804688 10.03051758 C-15.3501041 10.25959452 -16.70366986 10.47994414 -18.05859375 10.69140625 C-19.82540591 10.97224762 -21.58521245 11.29630139 -23.34375 11.625 C-34.28673176 13.57523437 -48.81252292 15.62133858 -59 10 C-60.29296875 7.38671875 -60.29296875 7.38671875 -61 5 C-59.205625 5.7425 -59.205625 5.7425 -57.375 6.5 C-45.05899059 10.53521426 -26.47149217 8.47645883 -14 5 C-13.67 4.34 -13.34 3.68 -13 3 C-11.00710487 2.70596629 -9.01185318 2.41955758 -7.0078125 2.21484375 C-3.16544254 1.90238623 -3.16544254 1.90238623 0 0 Z " fill="#C4C3C3" transform="translate(333,178)"/>
<path d="M0 0 C1.76320107 0.10189817 3.52996348 0.14629676 5.29606628 0.15821838 C6.94301231 0.17290161 6.94301231 0.17290161 8.62322998 0.18788147 C9.82804016 0.19363693 11.03285034 0.1993924 12.27416992 0.20532227 C14.1767733 0.22017166 14.1767733 0.22017166 16.11781311 0.23532104 C19.59684318 0.2623634 23.07588681 0.28337657 26.55496383 0.30332303 C30.19050172 0.32518671 33.82599786 0.35257353 37.46150208 0.37937927 C44.34624337 0.42930099 51.23100784 0.47424175 58.11579448 0.51740164 C65.95371101 0.56677846 73.79158564 0.62169494 81.62946165 0.67708123 C97.75293581 0.79089328 113.87644838 0.89773402 130 1 C130 1.33 130 1.66 130 2 C74.89 2 19.78 2 -37 2 C-37 1.34 -37 0.68 -37 0 C-32.21301863 -0.16769074 -27.42587122 -0.3282422 -22.63842773 -0.48217773 C-21.00978145 -0.53555204 -19.3811979 -0.59087782 -17.75268555 -0.64819336 C-15.41208422 -0.73023211 -13.07134712 -0.80525361 -10.73046875 -0.87890625 C-9.63813179 -0.91945885 -9.63813179 -0.91945885 -8.52372742 -0.96083069 C-5.36954376 -1.05398179 -3.02200236 -1.00733412 0 0 Z " fill="#E5F2F5" transform="translate(231,220)"/>
<path d="M0 0 C2.30089518 1.78133821 2.86901281 3.0830897 3.27734375 5.94140625 C3.4139842 8.90923674 3.34680579 11.3471891 1.9375 14 C-1.17909511 15.60856522 -3.56262469 15.42213381 -7 15 C-9.4375 13.4375 -9.4375 13.4375 -11 11 C-11.56288002 7.05983987 -11.60396028 4.94217804 -9.4375 1.5625 C-6.07240983 -0.59460908 -3.91795996 -0.56988508 0 0 Z " fill="#F0FCFE" transform="translate(247,242)"/>
<path d="M0 0 C4.19408231 1.4862147 7.62667323 3.58278016 11.3125 6.0625 C12.38113281 6.77535156 13.44976562 7.48820313 14.55078125 8.22265625 C15.76314453 9.10244141 15.76314453 9.10244141 17 10 C17 10.33 17 10.66 17 11 C15.69804687 11.13277344 14.39609375 11.26554688 13.0546875 11.40234375 C11.32811487 11.58063114 9.60155293 11.75902202 7.875 11.9375 C7.0190625 12.02451172 6.163125 12.11152344 5.28125 12.20117188 C0.82280819 12.66416391 -3.58673994 13.19693137 -8 14 C-5.64593858 9.0664883 -3.13615289 4.48021842 0 0 Z " fill="#67DAFB" transform="translate(185,172)"/>
<path d="M0 0 C1.60875 -0.04125 3.2175 -0.0825 4.875 -0.125 C5.77992188 -0.14820313 6.68484375 -0.17140625 7.6171875 -0.1953125 C10 0 10 0 12 2 C11.835 3.0725 11.67 4.145 11.5 5.25 C10.96837111 9.23721667 11.48062927 11.3356353 13 15 C11.35 14.67 9.7 14.34 8 14 C7.67 12.35 7.34 10.7 7 9 C6.01 9 5.02 9 4 9 C4 10.98 4 12.96 4 15 C2.68 15 1.36 15 0 15 C0 10.05 0 5.1 0 0 Z " fill="#E6FAFE" transform="translate(222,242)"/>
<path d="M0 0 C3.63 0 7.26 0 11 0 C11 0.99 11 1.98 11 3 C8.69 3 6.38 3 4 3 C4 3.66 4 4.32 4 5 C4.78375 4.95875 5.5675 4.9175 6.375 4.875 C9 5 9 5 11 7 C11.25 10 11.25 10 11 13 C9 15 9 15 5.375 15.125 C4.26125 15.08375 3.1475 15.0425 2 15 C1.34 13.68 0.68 12.36 0 11 C2.31 11 4.62 11 7 11 C7 10.34 7 9.68 7 9 C4.69 9 2.38 9 0 9 C0 6.03 0 3.06 0 0 Z " fill="#EFFBFE" transform="translate(327,242)"/>
<path d="M0 0 C3.63 0 7.26 0 11 0 C11 0.99 11 1.98 11 3 C8.69 3 6.38 3 4 3 C4 3.99 4 4.98 4 6 C5.98 6 7.96 6 10 6 C10 6.99 10 7.98 10 9 C8.02 9 6.04 9 4 9 C4 9.99 4 10.98 4 12 C6.31 12 8.62 12 11 12 C11 12.99 11 13.98 11 15 C7.37 15 3.74 15 0 15 C0 10.05 0 5.1 0 0 Z " fill="#F5FDFE" transform="translate(267,242)"/>
<path d="M0 0 C6.8359375 -0.1953125 6.8359375 -0.1953125 9 0 C11 2 11 2 11.25 5 C11 8 11 8 9 10 C5.875 10.125 5.875 10.125 3 10 C3 11.65 3 13.3 3 15 C2.01 15 1.02 15 0 15 C0 10.05 0 5.1 0 0 Z " fill="#F6FDFE" transform="translate(209,242)"/>
<path d="M0 0 C1.670625 0.061875 1.670625 0.061875 3.375 0.125 C4.035 1.445 4.695 2.765 5.375 4.125 C3.065 3.795 0.755 3.465 -1.625 3.125 C-1.625 3.785 -1.625 4.445 -1.625 5.125 C-0.67625 5.434375 0.2725 5.74375 1.25 6.0625 C4.375 7.125 4.375 7.125 6.375 8.125 C6.5625 10.5 6.5625 10.5 6.375 13.125 C2.70153229 15.57397847 0.71143601 15.44037716 -3.625 15.125 C-4.285 14.465 -4.945 13.805 -5.625 13.125 C-5.625 12.135 -5.625 11.145 -5.625 10.125 C-2.95833333 10.79166667 -0.29166667 11.45833333 2.375 12.125 C0.02222731 9.40073689 -2.24996331 8.3108237 -5.625 7.125 C-5.75 4.75 -5.75 4.75 -5.625 2.125 C-3.625 0.125 -3.625 0.125 0 0 Z " fill="#EFFCFE" transform="translate(285.625,241.875)"/>
<path d="M0 0 C3.0625 0.25 3.0625 0.25 6.0625 2.25 C6.0625 2.91 6.0625 3.57 6.0625 4.25 C3.4225 3.92 0.7825 3.59 -1.9375 3.25 C-1.05157985 5.60001566 -1.05157985 5.60001566 2.0625 6.3125 C3.0525 6.621875 4.0425 6.93125 5.0625 7.25 C6.0625 8.25 6.0625 8.25 6.25 10.6875 C6.0625 13.25 6.0625 13.25 4.0625 15.25 C2.1875 15.515625 2.1875 15.515625 0.0625 15.5 C-0.63875 15.50515625 -1.34 15.5103125 -2.0625 15.515625 C-3.9375 15.25 -3.9375 15.25 -5.9375 13.25 C-5.9375 12.26 -5.9375 11.27 -5.9375 10.25 C-4.6175 10.25 -3.2975 10.25 -1.9375 10.25 C-1.9375 10.91 -1.9375 11.57 -1.9375 12.25 C-0.6175 12.25 0.7025 12.25 2.0625 12.25 C2.0625 11.26 2.0625 10.27 2.0625 9.25 C1.093125 9.105625 0.12375 8.96125 -0.875 8.8125 C-3.9375 8.25 -3.9375 8.25 -4.9375 7.25 C-5.125 4.8125 -5.125 4.8125 -4.9375 2.25 C-2.9375 0.25 -2.9375 0.25 0 0 Z " fill="#F2FCFE" transform="translate(298.9375,241.75)"/>
<path d="M0 0 C3.4375 1 3.4375 1 5.375 3.0625 C5.725625 3.701875 6.07625 4.34125 6.4375 5 C4.7875 5 3.1375 5 1.4375 5 C1.4375 4.34 1.4375 3.68 1.4375 3 C0.1175 3.33 -1.2025 3.66 -2.5625 4 C-2.5625 6.31 -2.5625 8.62 -2.5625 11 C0.0775 10.67 2.7175 10.34 5.4375 10 C5.0625 11.9375 5.0625 11.9375 4.4375 14 C1.59666359 15.42041821 -0.41727278 15.31452272 -3.5625 15 C-5.9375 13.4375 -5.9375 13.4375 -7.5625 11 C-8.12895882 7.03478823 -8.13840314 4.92144502 -6 1.5 C-3.5625 0 -3.5625 0 0 0 Z " fill="#F4FCFE" transform="translate(259.5625,242)"/>
<path d="M0 0 C3.96 0 7.92 0 12 0 C11.10013508 4.49932462 10.2422184 6.26296933 8 10 C7.29329272 12.69254991 7.29329272 12.69254991 7 15 C5.68 15 4.36 15 3 15 C3.43820891 10.44262737 3.85041169 7.42346555 7 4 C4.69 3.67 2.38 3.34 0 3 C0 2.01 0 1.02 0 0 Z " fill="#F3FCFE" transform="translate(313,242)"/>
<path d="M0 0 C0.33 0.66 0.66 1.32 1 2 C2.65 2 4.3 2 6 2 C7.125 7.75 7.125 7.75 6 10 C3.6875 10.25 3.6875 10.25 1 10 C-0.8125 8 -0.8125 8 -2 6 C-3.65 7.65 -5.3 9.3 -7 11 C-5.5140084 6.40693504 -3.14985318 3.56430755 0 0 Z " fill="#DAF7FE" transform="translate(355,247)"/>
<path d="M0 0 C-2.18424102 6.21668598 -2.18424102 6.21668598 -5 8 C-6.97424248 8.06472926 -8.95210915 8.11932273 -10.92578125 8.0390625 C-13.69355847 7.98693864 -16.29305481 8.45861096 -19 9 C-14.40072531 3.29055556 -7.38792065 0 0 0 Z " fill="#DAD9D9" transform="translate(321,158)"/>
<path d="M0 0 C3.53571429 0.53571429 3.53571429 0.53571429 5 2 C5.1875 4.4375 5.1875 4.4375 5 7 C4.34 7.66 3.68 8.32 3 9 C1.68 9 0.36 9 -1 9 C-1.625 5.625 -1.625 5.625 -2 2 C-1.34 1.34 -0.68 0.68 0 0 Z " fill="#72E3FD" transform="translate(242,245)"/>
<path d="M0 0 C1.66611905 -0.042721 3.33382885 -0.04063832 5 0 C6 1 6 1 6.125 4 C6 7 6 7 5 8 C3.33382885 8.04063832 1.66611905 8.042721 0 8 C-1.125 2.25 -1.125 2.25 0 0 Z " fill="#D9F7FE" transform="translate(347,242)"/>
<path d="M0 0 C0.33 0.99 0.66 1.98 1 3 C-0.40445835 5.2636564 -2.1967913 7.0208685 -4 9 C-5.65 8.67 -7.3 8.34 -9 8 C-8.443125 7.608125 -7.88625 7.21625 -7.3125 6.8125 C-4.6564795 4.7307542 -2.35135049 2.41666578 0 0 Z " fill="#433939" transform="translate(335,172)"/>
<path d="M0 0 C0.66 0.99 1.32 1.98 2 3 C1.125 5.6875 1.125 5.6875 0 8 C-0.66 7.34 -1.32 6.68 -2 6 C-3.65 7.65 -5.3 9.3 -7 11 C-5.5140084 6.40693504 -3.14985318 3.56430755 0 0 Z " fill="#C3F3FE" transform="translate(355,247)"/>
<path d="M0 0 C2.31 0 4.62 0 7 0 C7 1.98 7 3.96 7 6 C6.67 5.01 6.34 4.02 6 3 C4.02 3 2.04 3 0 3 C0 2.01 0 1.02 0 0 Z " fill="#7BE5FD" transform="translate(271,245)"/>
<path d="M0 0 C2.475 0.495 2.475 0.495 5 1 C4.67 1.99 4.34 2.98 4 4 C2.68 4 1.36 4 0 4 C0 2.68 0 1.36 0 0 Z " fill="#7FE5FD" transform="translate(212,245)"/>
</svg>
