<?xml version="1.0" encoding="UTF-8"?>
<svg version="1.1" xmlns="http://www.w3.org/2000/svg" width="500" height="500">
<path d="M0 0 C0.74073761 0.00182281 1.48147522 0.00364563 2.24465942 0.00552368 C13.78748939 0.05317963 24.92167865 0.662623 36.1875 3.3125 C37.35442383 3.57788574 37.35442383 3.57788574 38.54492188 3.84863281 C59.75081508 8.76384985 78.956042 16.69733363 96.91015625 29.078125 C97.99167969 29.81546875 99.07320313 30.5528125 100.1875 31.3125 C100.94604782 31.83396103 101.70459564 32.35542206 102.48612976 32.89268494 C105.66027321 34.5609852 108.12287862 34.91399843 111.68676758 35.26391602 C112.98193802 35.3973793 114.27710846 35.53084259 115.61152649 35.66835022 C117.01835382 35.80111596 118.42518894 35.93379926 119.83203125 36.06640625 C121.28558191 36.21302947 122.73900598 36.36091259 124.19230652 36.50999451 C128.01375409 36.89937689 131.83641132 37.27506916 135.65960693 37.64685059 C141.76750589 38.24226919 147.8736584 38.85484413 153.97916222 39.47428703 C156.10113993 39.68705545 158.22378046 39.8917773 160.34663391 40.09559631 C178.89080677 41.94785922 178.89080677 41.94785922 182.6875 46.1875 C186.64218878 51.75494859 185.84544599 57.91016765 184.86863327 64.44604492 C183.98433758 69.51480785 182.91462432 74.54337186 181.82340813 79.57104492 C181.2034978 82.42727638 180.59851158 85.28633299 179.9969635 88.14648438 C178.9363428 93.17756032 177.86290687 98.20579714 176.78509521 103.23321533 C175.05450836 111.30624698 173.33467508 119.38147483 171.63189888 127.4604187 C171.03504722 130.27615771 170.42718416 133.08936746 169.81858826 135.90258789 C169.45402376 137.62245807 169.08990909 139.34242369 168.72631836 141.0625 C168.55440979 141.84278061 168.38250122 142.62306122 168.2053833 143.42698669 C167.44354747 147.0828018 167.0258163 149.75541209 168.1875 153.3125 C169.34742328 154.89686406 169.34742328 154.89686406 170.84765625 156.30078125 C171.38970703 156.83823975 171.93175781 157.37569824 172.49023438 157.92944336 C173.07095703 158.48897705 173.65167969 159.04851074 174.25 159.625 C174.84490234 160.20967041 175.43980469 160.79434082 176.05273438 161.39672852 C179.0149677 164.28764583 182.01501189 167.08920352 185.1875 169.75 C204.17430389 186.00719995 219.799279 208.41168484 224.1875 233.3125 C226.34544021 268.46076856 215.25053529 298.68688202 192.1875 325.3125 C174.22232681 345.23979585 174.22232681 345.23979585 164.8125 352.5 C164.2158252 352.96212891 163.61915039 353.42425781 163.00439453 353.90039062 C161.07392392 355.38268963 159.13324194 356.85031239 157.1875 358.3125 C156.53458984 358.80443848 155.88167969 359.29637695 155.20898438 359.80322266 C126.39903611 381.3125 126.39903611 381.3125 118.1875 381.3125 C118.11273438 381.9415625 118.03796875 382.570625 117.9609375 383.21875 C116.96914368 389.67513333 115.20786848 394.90312971 110.1875 399.3125 C105.04846048 402.07109178 101.45619636 402.60184966 95.6875 402.0625 C93.71066085 401.89095611 91.73380954 401.71954794 89.75683594 401.54956055 C87.77336945 401.36655542 85.79262127 401.153936 83.81347656 400.92895508 C74.49579626 400.03209513 66.92646582 401.05389965 57.9375 403.5 C55.32598067 404.16131497 52.71413351 404.81613513 50.09765625 405.45703125 C49.44239456 405.61844604 48.78713287 405.77986084 48.11201477 405.94616699 C37.29726186 408.55436581 26.22052293 409.96398973 15.1875 411.3125 C14.56213348 411.39838379 13.93676697 411.48426758 13.29244995 411.57275391 C6.52607844 412.43507872 -0.20129517 412.49142858 -7.015625 412.515625 C-8.28807068 412.52132507 -9.56051636 412.52702515 -10.871521 412.53289795 C-13.56786647 412.5423207 -16.26410158 412.54922904 -18.96044922 412.55273438 C-22.98031042 412.5591755 -26.9997904 412.59329779 -31.01953125 412.625 C-54.26736973 412.72139987 -77.32271482 411.13775797 -100.125 406.4375 C-102.06403198 406.04896851 -102.06403198 406.04896851 -104.04223633 405.65258789 C-113.19411553 403.76842839 -122.0564233 401.59336572 -130.8125 398.3125 C-132.34003906 397.74789062 -132.34003906 397.74789062 -133.8984375 397.171875 C-136.92414849 395.9806502 -139.86526125 394.68637247 -142.8125 393.3125 C-143.3988623 393.04099121 -143.98522461 392.76948242 -144.58935547 392.48974609 C-154.5478844 387.79438137 -162.04470981 382.05671571 -169.8125 374.3125 C-170.46605469 373.76464844 -171.11960937 373.21679688 -171.79296875 372.65234375 C-182.94700248 363.08080451 -187.42406559 347.23532499 -189.8125 333.3125 C-190.03679687 332.02085937 -190.03679687 332.02085937 -190.265625 330.703125 C-190.56259194 328.56183709 -190.72442282 326.47230554 -190.8125 324.3125 C-190.85246094 323.37921875 -190.89242187 322.4459375 -190.93359375 321.484375 C-191.38492857 299.92650022 -185.76306904 279.02613921 -180.93359375 258.1796875 C-176.35202132 238.91903583 -176.35202132 238.91903583 -173.8125 219.3125 C-173.75368652 218.57563965 -173.69487305 217.8387793 -173.63427734 217.07958984 C-172.71310517 205.07518513 -172.84013968 193.14773953 -173.25 181.125 C-176.22204411 93.24731244 -176.22204411 93.24731244 -143.94555664 58.65551758 C-142.57223386 57.2037057 -141.19247066 55.75799445 -139.8125 54.3125 C-139.07128906 53.5184375 -138.33007812 52.724375 -137.56640625 51.90625 C-103.37368604 16.27053426 -48.28427722 -0.24894779 0 0 Z " fill="#68DEFE" transform="translate(241.8125,57.6875)"/>
<path d="M0 0 C13.11199811 10.04809144 24.02897154 24.40148276 26.69140625 41.0625 C27.68990287 52.30728806 27.88976528 64.06751408 24.34765625 74.890625 C23.49857775 77.32252794 23.49857775 77.32252794 23.69140625 81.0625 C24.53960937 80.629375 25.3878125 80.19625 26.26171875 79.75 C34.74853746 75.72109266 42.11552336 73.40537892 51.69140625 75.0625 C55.06640625 77.0625 55.06640625 77.0625 56.69140625 80.0625 C57.58940556 84.22518838 57.40680882 86.91030641 55.13671875 90.56640625 C52.0685023 93.69833965 48.95328049 95.19940831 45.00390625 97 C34.24450692 101.30602889 34.24450692 101.30602889 26.81640625 109.21484375 C26.63715865 113.29832805 27.79594859 116.60718062 29.12890625 120.4375 C29.40041504 121.22898437 29.67192383 122.02046875 29.95166016 122.8359375 C38.05456357 145.57325838 52.97076953 163.20218164 74.69140625 174.0625 C74.11049726 177.98363569 72.43458584 180.24713148 69.69140625 183.0625 C64.24658875 185.87183112 59.31623249 186.71753138 53.25390625 187.25 C52.42697266 187.33185547 51.60003906 187.41371094 50.74804688 187.49804688 C48.73013743 187.69633855 46.71088213 187.88085402 44.69140625 188.0625 C44.46066406 188.72636719 44.22992188 189.39023437 43.9921875 190.07421875 C41.00970079 198.14933098 37.56433688 202.40131915 29.8515625 206.265625 C25.56644701 207.84639093 21.44358952 208.10626386 16.91796875 208.0625 C3.30740168 207.9927085 -7.29346923 210.62460833 -19.79296875 215.93359375 C-32.79448613 221.27072121 -51.20233252 222.96901638 -64.68359375 218.4375 C-70.24358504 215.93057961 -75.010225 212.36086875 -79.30859375 208.0625 C-82.07838647 207.82772143 -84.7842902 207.6940309 -87.55859375 207.625 C-99.9642066 207.11543505 -113.53048959 206.0867416 -122.80859375 196.9375 C-125.86992948 193.13978892 -125.81583186 189.73766118 -125.51953125 185.00390625 C-125.44992188 184.36324219 -125.3803125 183.72257813 -125.30859375 183.0625 C-126.52546875 183.145 -127.74234375 183.2275 -128.99609375 183.3125 C-139.24877 183.28020811 -148.31778226 179.25692751 -156.30859375 173.0625 C-154.82934825 169.67479787 -152.90025622 167.36758899 -150.37109375 164.6875 C-144.63827735 158.42932904 -139.45940936 151.79971115 -134.30859375 145.0625 C-133.61894531 144.16917969 -132.92929688 143.27585937 -132.21875 142.35546875 C-127.99463349 136.73195168 -124.2369986 130.86338455 -120.55859375 124.875 C-119.86830078 123.75206543 -119.86830078 123.75206543 -119.1640625 122.60644531 C-116.29165805 117.86446566 -113.72686336 113.05159361 -111.30859375 108.0625 C-115.23789887 102.25905477 -120.84473967 99.25256207 -126.66601562 95.61132812 C-132.5586964 91.82770957 -137.28906215 88.4809295 -139.37109375 81.5 C-139.30859375 78.0625 -139.30859375 78.0625 -137.87109375 75.1875 C-134.43214233 72.33568663 -131.65466909 71.70742849 -127.30859375 72.0625 C-118.75348164 74.02002565 -111.01322431 77.96429226 -103.30859375 82.0625 C-103.76436321 78.4163443 -104.29396199 75.11275448 -105.32421875 71.57421875 C-108.67599066 58.33548496 -107.92496274 41.52767004 -102.30859375 29.0625 C-101.90769531 28.06734375 -101.50679687 27.0721875 -101.09375 26.046875 C-97.34153165 17.56359873 -91.81214718 11.50055001 -85.30859375 5.0625 C-84.64988281 4.381875 -83.99117188 3.70125 -83.3125 3 C-60.82779019 -18.66268816 -24.58143078 -16.60230551 0 0 Z " fill="#FEFEFE" transform="translate(278.30859375,152.9375)"/>
<path d="M0 0 C0.79470703 0.08290283 1.58941406 0.16580566 2.40820312 0.2512207 C8.06838505 0.88088505 8.06838505 0.88088505 9.1875 2 C9.3299478 5.33327842 9.22972103 8.66453893 9.1875 12 C10.12251343 12.07238892 10.12251343 12.07238892 11.07641602 12.14624023 C17.7554161 12.68211959 24.4226116 13.30901097 31.08984375 13.97265625 C32.90558984 14.15178511 34.72134522 14.33081988 36.53710938 14.50976562 C39.33228555 14.78533947 42.12721857 15.06272486 44.92163086 15.34594727 C55.37717388 16.40298108 65.66617913 17.34073692 76.1875 17 C76.661875 15.865625 77.13625 14.73125 77.625 13.5625 C79.1875 10 79.1875 10 80.1875 9 C82.74558146 9.03949532 85.2617348 9.1458032 87.8125 9.3125 C88.57071045 9.36172607 89.3289209 9.41095215 90.11010742 9.46166992 C95.24921899 9.81931744 100.38071255 10.2349295 105.5 10.8125 C106.69238281 10.94269531 107.88476562 11.07289062 109.11328125 11.20703125 C112.72789336 12.1393899 113.87293981 13.11496698 116.1875 16 C117.82390235 24.56015451 115.35642634 33.8686898 113.625 42.25 C113.3549377 43.59800572 113.08558527 44.94615382 112.81689453 46.29443359 C110.57337858 57.46232146 108.12634361 68.58719342 105.65625 79.70678711 C103.84653393 87.86880194 102.18356914 96.04151668 100.67529297 104.26416016 C99.35054365 111.38240493 97.78244926 118.43791912 96.1875 125.5 C94.37215945 133.54177847 92.63228797 141.58203758 91.125 149.6875 C88.49745193 163.81310124 85.54678674 177.86777406 82.453125 191.8984375 C82.30365417 192.57638367 82.15418335 193.25432983 82.00018311 193.95281982 C81.38828116 196.72729375 80.77637437 199.5017665 80.16394043 202.27612305 C78.18675651 211.24645522 76.33316905 220.2269615 74.67553711 229.26245117 C73.13255983 237.55462528 71.25681926 245.76727831 69.39819336 253.9934082 C67.86802503 260.80934903 66.45031458 267.62972712 65.1875 274.5 C63.51635123 283.58868839 61.53155773 292.59149805 59.46875 301.59887695 C58.14269266 307.45410312 56.92599557 313.30253872 55.90234375 319.21875 C55.69665771 320.38768799 55.49097168 321.55662598 55.27905273 322.76098633 C54.89614245 324.97895821 54.5311641 327.20013202 54.18774414 329.42456055 C52.79980484 337.40473334 49.99933052 342.61170621 43.9375 348 C34.83346455 351.31055835 23.03185162 348.30450876 13.5625 347.3125 C11.80969129 347.13242665 10.05684188 346.95274904 8.30395508 346.7734375 C4.55956778 346.38933652 0.81555224 346.00184042 -2.92822266 345.61181641 C-8.91370591 344.98842485 -14.90019339 344.37500695 -20.88671875 343.76171875 C-26.99850545 343.13545181 -33.10961916 342.50401486 -39.21875 341.85229492 C-40.21500397 341.7460228 -41.21125793 341.63975067 -42.23770142 341.53025818 C-44.22256196 341.3184786 -46.2074051 341.10653574 -48.19223022 340.89442444 C-53.74816848 340.30610938 -59.30559742 339.7621722 -64.87071228 339.26824951 C-68.13745395 338.9752262 -71.40170031 338.65896691 -74.66586304 338.33862305 C-76.15948496 338.19816395 -77.65419581 338.06876608 -79.14981079 337.95141602 C-91.74731591 336.9577917 -91.74731591 336.9577917 -95.703125 332.703125 C-99.78826311 326.54436123 -98.43042567 320.07714501 -97.0390625 313.1484375 C-96.38662898 310.29885317 -95.67777258 307.46579144 -94.95703125 304.6328125 C-93.72092427 299.74500017 -92.72006269 294.82156481 -91.75 289.875 C-91.5034668 288.62348145 -91.5034668 288.62348145 -91.25195312 287.34667969 C-90.92797883 285.69776671 -90.60488343 284.04868079 -90.28271484 282.39941406 C-89.55395093 278.68067482 -88.80801174 274.96541094 -88.0625 271.25 C-87.69898438 269.43242188 -87.69898438 269.43242188 -87.328125 267.578125 C-87.15796875 266.72734375 -86.9878125 265.8765625 -86.8125 265 C-83.42277106 266.62377744 -80.39906354 268.56720821 -77.30078125 270.68359375 C-69.94931177 274.57283271 -63.17590621 275.45612633 -54.9375 275.3125 C-53.56271484 275.31733398 -53.56271484 275.31733398 -52.16015625 275.32226562 C-42.21380491 275.24532479 -33.63095048 273.56132002 -24.47851562 269.67407227 C-13.04254206 264.82450712 -3.16222483 262.98883471 9.21875 263.09765625 C16.26509447 263.12529426 21.95893658 261.33155718 28.1875 258 C29.1775 257.67 30.1675 257.34 31.1875 257 C32.31040827 254.60446236 33.12859553 252.35160504 33.56640625 249.73828125 C34.3421754 246.70839043 34.93160919 245.21148351 37.1875 243 C40.8094816 241.93207954 44.52693522 241.73722769 48.28515625 241.60473633 C54.02039927 241.37520612 58.39382873 240.2708479 63.1875 237 C64.88562138 235.2078501 64.88562138 235.2078501 65.6875 233.25 C66.1825 232.1775 66.6775 231.105 67.1875 230 C66.30578125 229.74347656 65.4240625 229.48695313 64.515625 229.22265625 C46.91141092 222.75538042 32.89376889 204.53522923 25.13232422 188.14160156 C23.43205035 184.28764745 21.99133988 180.35806319 20.625 176.375 C20.36122559 175.61703125 20.09745117 174.8590625 19.82568359 174.078125 C17.50198771 166.88964375 17.50198771 166.88964375 19.1875 163 C22.91971506 159.27485353 27.48665303 157.18818227 32.1875 154.9375 C41.52166954 151.02742015 41.52166954 151.02742015 48.1875 144 C48.65404373 141.24056454 48.86356593 138.72555712 48.1875 136 C46.05075835 133.10670867 44.80978715 132.12794689 41.26171875 131.3984375 C31.37295932 131.33000318 24.04465392 133.83192757 15.1875 138 C15.30484513 136.66597118 15.43192176 135.3327986 15.5625 134 C15.63210938 133.2575 15.70171875 132.515 15.7734375 131.75 C16.1875 129 16.1875 129 17.19921875 125.41015625 C21.43285062 108.88196455 18.65405072 91.02495004 10.12597656 76.49707031 C-1.02185509 58.5812576 -16.4968979 49.88961036 -36.5625 44.75 C-37.635 44.5025 -38.7075 44.255 -39.8125 44 C-38.88119865 34.48742195 -36.93128964 25.30964219 -34.8125 16 C-34.5753125 14.94167969 -34.338125 13.88335937 -34.09375 12.79296875 C-32.61390389 7.05856508 -30.21660782 3.01154111 -25.8125 -1 C-19.43490588 -4.18879706 -7.13452443 -0.762071 0 0 Z " fill="#30312E" transform="translate(285.8125,97)"/>
<path d="M0 0 C1.66294428 3.32588856 2.811407 6.45475288 3.90185547 9.99023438 C11.52280263 34.46371494 25.54161904 52.33201781 48 65 C48.66 65.33 49.32 65.66 50 66 C49.41909101 69.92113569 47.74317959 72.18463148 45 75 C39.5551825 77.80933112 34.62482624 78.65503138 28.5625 79.1875 C27.73556641 79.26935547 26.90863281 79.35121094 26.05664062 79.43554688 C24.03873118 79.63383855 22.01947588 79.81835402 20 80 C19.76925781 80.66386719 19.53851563 81.32773437 19.30078125 82.01171875 C16.31829454 90.08683098 12.87293063 94.33881915 5.16015625 98.203125 C0.87504076 99.78389093 -3.24781673 100.04376386 -7.7734375 100 C-21.38400457 99.9302085 -31.98487548 102.56210833 -44.484375 107.87109375 C-53.42110277 111.53962365 -62.40904897 112.39192272 -72 112.375 C-72.95898193 112.37338867 -73.91796387 112.37177734 -74.90600586 112.37011719 C-84.16734699 112.20947493 -92.11788559 110.64480012 -99 104 C-97.845 103.7525 -96.69 103.505 -95.5 103.25 C-84.4526158 100.40093776 -75.7857887 93.82935113 -69.65429688 84.13232422 C-58.58788481 65.23857801 -59.32249884 43.97169579 -63 23 C-63.19078125 21.89140625 -63.3815625 20.7828125 -63.578125 19.640625 C-64.03143515 17.08913642 -64.50297843 14.54326994 -65 12 C-62.59935896 14.40064104 -61.92641671 16.41068501 -60.71484375 19.58203125 C-60.27100342 20.7321167 -59.82716309 21.88220215 -59.36987305 23.06713867 C-59.13634125 23.67834564 -58.90280945 24.28955261 -58.66220093 24.91928101 C-57.44054011 28.11076508 -56.19674149 31.29358258 -54.953125 34.4765625 C-54.7035051 35.11593246 -54.45388519 35.75530243 -54.19670105 36.41404724 C-51.93149465 42.20239559 -49.6013234 47.95961363 -47.1875 53.6875 C-46.85161865 54.50387939 -46.5157373 55.32025879 -46.16967773 56.16137695 C-43.34612071 62.78637903 -40.11346628 69.92435582 -34 74 C-29.43026525 74.51593779 -27.18055413 74.76873292 -23.3125 72.25 C-15.77831114 61.66141025 -13.6137627 49.29946609 -13.6875 36.5625 C-13.68878906 35.61963135 -13.69007813 34.6767627 -13.69140625 33.70532227 C-13.7999216 25.60397292 -14.86175205 17.82287028 -16.34375 9.87109375 C-17 6 -17 6 -17 1 C-8.585 0.505 -8.585 0.505 0 0 Z " fill="#E2F7FD" transform="translate(303,261)"/>
<path d="M0 0 C13.31333898 -0.55472246 13.31333898 -0.55472246 18.83203125 3.26953125 C21.36237108 5.70505741 22.82674719 7.8775077 23.36856079 11.38787842 C23.39964012 20.9498463 21.4648924 29.90514586 19.4609375 39.203125 C19.07170198 41.05340218 18.68358561 42.90391507 18.29647827 44.75463867 C17.45146051 48.7832805 16.59892657 52.81023233 15.74060059 56.83605957 C14.34277701 63.39308691 12.96164747 69.95356457 11.58300781 76.51464844 C10.06835934 83.71909501 8.55239373 90.92325494 7.03100586 98.12628174 C2.82649924 118.03520824 -1.33341874 137.9532203 -5.4765625 157.875 C-5.63552954 158.63932138 -5.79449658 159.40364276 -5.9582808 160.19112539 C-7.25121174 166.40762445 -8.54406794 172.62413906 -9.83664668 178.84071136 C-12.2674484 190.53147771 -14.70221411 202.22141201 -17.14038086 213.91064453 C-17.29917249 214.67196096 -17.45796411 215.43327738 -17.62156761 216.217664 C-18.88388183 222.26966136 -20.14634549 228.32162754 -21.40885901 234.37358332 C-25.05220326 251.83855822 -28.68864928 269.30490188 -32.3031311 286.77587891 C-33.71891263 293.6185782 -35.1398633 300.46019931 -36.56294441 307.30138397 C-37.62423851 312.40523475 -38.6787097 317.51042504 -39.72750759 322.61685753 C-40.35033468 325.64064762 -40.9799742 328.66298595 -41.6117878 331.68490982 C-42.02487644 333.67083372 -42.42961539 335.6584889 -42.83396912 337.64620972 C-43.07849319 338.80855133 -43.32301727 339.97089294 -43.57495117 341.16845703 C-43.77980637 342.15975616 -43.98466156 343.1510553 -44.19572449 344.1723938 C-45.6967469 349.4495659 -48.17199179 354.06565823 -52 358 C-57.46256933 360.9197673 -61.3443485 361.31744155 -67.4375 360.6875 C-68.16904297 360.62626953 -68.90058594 360.56503906 -69.65429688 360.50195312 C-71.43761042 360.35042975 -73.21907951 360.17745066 -75 360 C-72.57020715 357.57020715 -70.08317076 356.5790554 -66.97265625 355.1953125 C-60.96844321 351.55711608 -60.09609432 344.33560035 -58.48492432 338.0032959 C-57.18765922 332.64409703 -56.14302407 327.23416668 -55.10769653 321.81973267 C-54.37003511 317.96684602 -53.61085748 314.11820383 -52.8515625 310.26953125 C-52.69742386 309.48702499 -52.54328522 308.70451874 -52.38447571 307.89830017 C-50.88745597 300.34460421 -49.23790905 292.8286839 -47.5625 285.3125 C-44.87870758 273.23883707 -42.39775118 261.13359521 -40 249 C-37.36794847 235.68097819 -34.59395837 222.40847047 -31.64453125 209.15625 C-29.27707576 198.4671146 -27.12244382 187.74017504 -25 177 C-22.36793225 163.68098156 -19.59395842 150.40847069 -16.64453125 137.15625 C-14.2770745 126.46710894 -12.12264886 115.74013833 -10 105 C-7.59749059 92.84707741 -5.11730502 80.71991533 -2.4375 68.625 C-0.09830034 58.03091088 2.23009055 47.43521792 4.46139526 36.81781006 C4.77413508 35.33636029 5.09005712 33.85557804 5.40945435 32.37554932 C8.96067258 18.48514159 8.96067258 18.48514159 6 5 C4.13657278 2.81249848 2.4355616 1.62370773 0 0 Z " fill="#4BA4B8" transform="translate(404,99)"/>
<path d="M0 0 C1.10855347 0.09933838 1.10855347 0.09933838 2.23950195 0.20068359 C8.11472901 0.84126978 11.52862039 2.34238316 15.375 6.8125 C17.43626149 10.85867996 17.78395671 13.68047038 17.0625 18.125 C15.05953332 23.80007225 11.44899821 27.43175089 6.0625 30.125 C-4.53414214 30.77132002 -15.24112846 30.00758853 -25.8288269 29.43228149 C-27.3099913 29.35285354 -28.79138538 29.27759183 -30.27297974 29.20663452 C-32.39390028 29.10296227 -34.51311662 28.98150515 -36.6328125 28.85546875 C-38.4893042 28.75335083 -38.4893042 28.75335083 -40.38330078 28.64916992 C-45.16388269 27.94413425 -49.41572119 26.74823074 -52.8125 23.125 C-55.47786778 18.38656839 -55.9146096 13.41702562 -54.9375 8.125 C-44.67803489 -8.51568738 -16.93912919 -1.68536397 0 0 Z " fill="#67E0FA" transform="translate(285.9375,385.875)"/>
<path d="M0 0 C0.33 0 0.66 0 1 0 C1.12617769 7.44448398 1.12617769 7.44448398 0.50219727 10.19165039 C-0.10033671 13.5610954 -0.12974102 16.74848604 -0.1328125 20.171875 C-0.13376923 20.85372864 -0.13472595 21.53558228 -0.13571167 22.23809814 C-0.13638978 23.6769622 -0.13456132 25.11582938 -0.13037109 26.5546875 C-0.12505079 28.72923877 -0.13031143 30.90358037 -0.13671875 33.078125 C-0.13980321 40.12359013 0.08684304 47.00392343 1 54 C1.10330915 57.01249471 1.04787308 59.98399586 1 63 C-11.75693586 63.52346089 -23.74468831 62.52808078 -35 56 C-33.824375 54.63875 -33.824375 54.63875 -32.625 53.25 C-31.79935547 52.27740234 -31.79935547 52.27740234 -30.95703125 51.28515625 C-29.57656568 49.67323538 -28.17610702 48.07833263 -26.76171875 46.49609375 C-14.80660099 32.78679603 -6.12713104 17.0914708 0 0 Z " fill="#E3F8FE" transform="translate(194,297)"/>
<path d="M0 0 C10.44546995 9.95127567 15.10480021 23.56180923 15.54345703 37.70678711 C15.71006424 64.87871422 15.71006424 64.87871422 8.953125 73.66015625 C7.03984164 75.36650648 5.23366835 76.75304922 3 78 C-0.89325923 76.70224692 -3.56532028 75.37109499 -6 72 C-5.90443006 67.79492265 -4.35114326 64.34739388 -2.828125 60.47265625 C0.84509378 49.50497942 2.19546562 38.00434399 2.1875 26.5 C2.18814453 25.53690918 2.18878906 24.57381836 2.18945312 23.58154297 C2.13084533 15.58024699 1.37479936 7.88054632 0 0 Z " fill="#E1F6FC" transform="translate(290,165)"/>
<path d="M0 0 C3.72975427 1.15283314 5.35163561 1.75988138 7.4375 5.0625 C7.37707505 8.50672213 7.03843625 10.96667507 5.375 14 C2.16438264 15.76066113 -1.06245202 15.81603146 -4.5625 15.0625 C-7.29330856 12.67304251 -8.33150145 11.08916021 -9.125 7.5625 C-7.97031025 2.43054557 -5.18967453 0.09104692 0 0 Z " fill="#3A3A38" transform="translate(255.5625,195.9375)"/>
<path d="M0 0 C2.5881216 2.25417042 2.94242643 3.60520979 3.4375 7 C3 10 3 10 1.4375 12.375 C-1.93510779 14.62340519 -4.02512383 14.56783945 -8 14 C-10.4375 12.4375 -10.4375 12.4375 -12 10 C-12.5625 6.5 -12.5625 6.5 -12 3 C-8.33340589 -1.4443565 -5.38867153 -1.59664341 0 0 Z " fill="#383835" transform="translate(221,197)"/>
<path d="M0 0 C2.5625 0.1875 2.5625 0.1875 4.5625 2.1875 C4.02678571 5.72321429 4.02678571 5.72321429 2.5625 7.1875 C0.89632885 7.22813832 -0.77138095 7.230221 -2.4375 7.1875 C-2.81883299 5.1960944 -3.15075582 3.19470923 -3.4375 1.1875 C-2.4375 0.1875 -2.4375 0.1875 0 0 Z " fill="#F3FCFE" transform="translate(147.4375,125.8125)"/>
<path d="M0 0 C2.5 0.125 2.5 0.125 3.5 1.125 C3.625 3.625 3.625 3.625 3.5 6.125 C2.5 7.125 2.5 7.125 0 7.25 C-2.5 7.125 -2.5 7.125 -3.5 6.125 C-3.625 3.625 -3.625 3.625 -3.5 1.125 C-2.5 0.125 -2.5 0.125 0 0 Z " fill="#F6FDFE" transform="translate(128.5,125.875)"/>
<path d="M0 0 C2.625 0.375 2.625 0.375 5 1 C5.625 2.875 5.625 2.875 6 5 C5.34 5.66 4.68 6.32 4 7 C1.375 6.625 1.375 6.625 -1 6 C-1.625 4.125 -1.625 4.125 -2 2 C-1.34 1.34 -0.68 0.68 0 0 Z " fill="#F8FDFE" transform="translate(165,126)"/>
<path d="M0 0 C1.65 0.33 3.3 0.66 5 1 C4.67 2.32 4.34 3.64 4 5 C2.35 4.67 0.7 4.34 -1 4 C-0.67 2.68 -0.34 1.36 0 0 Z " fill="#EDFBFE" transform="translate(282,399)"/>
<path d="M0 0 C1.98 0.495 1.98 0.495 4 1 C3.67 2.65 3.34 4.3 3 6 C1.68 5.67 0.36 5.34 -1 5 C-0.67 3.35 -0.34 1.7 0 0 Z " fill="#EDFBFE" transform="translate(246,395)"/>
<path d="M0 0 C2.0625 0.4375 2.0625 0.4375 4 1 C3.67 2.65 3.34 4.3 3 6 C2.01 6 1.02 6 0 6 C-0.38218767 4.34385343 -0.71395102 2.67542976 -1 1 C-0.67 0.67 -0.34 0.34 0 0 Z " fill="#EEFBFE" transform="translate(264,397)"/>
</svg>
