<?xml version="1.0" encoding="UTF-8"?>
<!DOCTYPE svg PUBLIC "-//W3C//DTD SVG 1.1//EN" "http://www.w3.org/Graphics/SVG/1.1/DTD/svg11.dtd">
<svg xmlns="http://www.w3.org/2000/svg" version="1.1" width="500px" height="500px" style="shape-rendering:geometricPrecision; text-rendering:geometricPrecision; image-rendering:optimizeQuality; fill-rule:evenodd; clip-rule:evenodd" xmlns:xlink="http://www.w3.org/1999/xlink">
<g><path style="opacity:0.296" fill="#69e2fe" d="M 354.5,404.5 C 354.5,387.167 354.5,369.833 354.5,352.5C 354.5,319.833 354.5,287.167 354.5,254.5C 360.256,246.4 363.089,237.4 363,227.5C 362.292,226.619 361.458,225.953 360.5,225.5C 361.662,219.202 362.162,212.869 362,206.5C 359.619,205.565 357.119,205.232 354.5,205.5C 354.776,184.144 354.443,162.811 353.5,141.5C 348.435,141.781 343.435,141.448 338.5,140.5C 337.5,170.493 337.167,200.493 337.5,230.5C 337.802,233.059 337.468,235.393 336.5,237.5C 336.667,186.832 336.5,136.166 336,85.5C 333.968,80.1334 330.135,76.9668 324.5,76C 272.167,75.3333 219.833,75.3333 167.5,76C 163.388,77.7786 160.222,80.6119 158,84.5C 157.5,160.833 157.333,237.166 157.5,313.5C 157.672,314.492 157.338,315.158 156.5,315.5C 156.5,305.167 156.5,294.833 156.5,284.5C 156.5,270.833 156.5,257.167 156.5,243.5C 156.5,217.833 156.5,192.167 156.5,166.5C 151.238,166.195 146.072,166.529 141,167.5C 140.5,199.498 140.333,231.498 140.5,263.5C 140.5,275.5 140.5,287.5 140.5,299.5C 140.5,321.5 140.5,343.5 140.5,365.5C 140.17,383.674 140.503,401.674 141.5,419.5C 144.451,428.95 150.785,434.783 160.5,437C 207.832,437.5 255.165,437.667 302.5,437.5C 271.43,462.269 236.097,471.436 196.5,465C 156.571,457.288 124.071,437.455 99,405.5C 71.664,368.793 56.664,327.46 54,281.5C 51.6656,243.18 55.4989,205.514 65.5,168.5C 60.1206,167.844 54.7873,167.011 49.5,166C 47.1853,164.891 45.6853,163.057 45,160.5C 44.3333,145.167 44.3333,129.833 45,114.5C 45.3459,112.152 46.5125,110.319 48.5,109C 73.0791,107.353 97.7458,107.02 122.5,108C 125,109.167 126.833,111 128,113.5C 132.081,112.029 136.081,110.362 140,108.5C 140.333,99.5 140.667,90.5 141,81.5C 143.404,72.7627 148.904,66.9294 157.5,64C 173.833,63.6667 190.167,63.3333 206.5,63C 220.607,50.1077 236.274,39.441 253.5,31C 274.597,23.8493 296.264,21.516 318.5,24C 361.837,30.3363 387.003,55.1697 394,98.5C 396.351,120.133 398.351,141.799 400,163.5C 402.665,182.493 408.998,200.16 419,216.5C 431.263,234.682 442.263,253.682 452,273.5C 467.701,311.998 460.535,345.498 430.5,374C 423.826,379.341 416.493,383.675 408.5,387C 390.252,392.225 372.252,398.059 354.5,404.5 Z"/></g>
<g><path style="opacity:1" fill="#fefefe" d="M 336.5,237.5 C 336.5,240.5 336.5,243.5 336.5,246.5C 336.5,249.5 336.5,252.5 336.5,255.5C 327.043,266.795 317.376,277.961 307.5,289C 306.167,289.667 304.833,289.667 303.5,289C 294.445,283.81 285.445,278.643 276.5,273.5C 275.789,269.618 273.456,267.118 269.5,266C 261.841,265.5 254.174,265.334 246.5,265.5C 241.974,261.28 240.307,255.947 241.5,249.5C 252.117,249.727 257.951,244.393 259,233.5C 260.05,228.552 260.55,223.552 260.5,218.5C 264.708,216.632 268.375,213.965 271.5,210.5C 289.833,210.5 308.167,210.5 326.5,210.5C 326.5,204.5 326.5,198.5 326.5,192.5C 326.5,167.5 326.5,142.5 326.5,117.5C 301.328,117.169 276.328,117.502 251.5,118.5C 251.5,139.167 251.5,159.833 251.5,180.5C 248.956,180.104 246.789,180.771 245,182.5C 243.961,180.254 242.794,178.087 241.5,176C 230.622,172.772 223.289,176.439 219.5,187C 217.833,187.333 216.167,187.667 214.5,188C 209.097,192.474 203.931,197.308 199,202.5C 196.134,201.1 193.134,200.1 190,199.5C 186.432,200.108 184.599,202.275 184.5,206C 185.549,209.434 186.882,212.767 188.5,216C 184.145,219.877 181.811,224.71 181.5,230.5C 182.233,235.311 183.567,239.977 185.5,244.5C 184.473,249.694 181.473,253.194 176.5,255C 182.838,256.52 188.338,255.02 193,250.5C 193.333,251.167 193.667,251.833 194,252.5C 196.488,250.257 199.154,248.257 202,246.5C 203.072,243.782 204.238,241.115 205.5,238.5C 209.549,243.899 214.549,244.899 220.5,241.5C 218.568,249.627 216.235,257.627 213.5,265.5C 201.464,265.224 189.464,265.724 177.5,267C 175.68,267.2 174.347,268.034 173.5,269.5C 172.853,270.274 172.52,271.274 172.5,272.5C 173.505,276.512 174.505,280.512 175.5,284.5C 169.747,294.342 163.747,304.009 157.5,313.5C 157.333,237.166 157.5,160.833 158,84.5C 160.222,80.6119 163.388,77.7786 167.5,76C 219.833,75.3333 272.167,75.3333 324.5,76C 330.135,76.9668 333.968,80.1334 336,85.5C 336.5,136.166 336.667,186.832 336.5,237.5 Z"/></g>
<g><path style="opacity:1" fill="#70e3fd" d="M 221.5,83.5 C 238.503,83.3334 255.503,83.5001 272.5,84C 276.5,87.3333 276.5,90.6667 272.5,94C 255.5,94.6667 238.5,94.6667 221.5,94C 216.272,90.5116 216.272,87.0116 221.5,83.5 Z"/></g>
<g><path style="opacity:1" fill="#89e7fd" d="M 251.5,118.5 C 276.328,117.502 301.328,117.169 326.5,117.5C 326.5,142.5 326.5,167.5 326.5,192.5C 325.094,192.027 324.427,191.027 324.5,189.5C 325.498,166.006 325.831,142.339 325.5,118.5C 300.833,118.5 276.167,118.5 251.5,118.5 Z"/></g>
<g><path style="opacity:1" fill="#68e0fb" d="M 251.5,118.5 C 276.167,118.5 300.833,118.5 325.5,118.5C 325.831,142.339 325.498,166.006 324.5,189.5C 319.412,182.277 312.745,176.944 304.5,173.5C 304.027,172.094 303.027,171.427 301.5,171.5C 298.039,169.585 296.372,166.585 296.5,162.5C 302.574,154.208 305.407,144.875 305,134.5C 303.5,133 302,131.5 300.5,130C 295.595,128.047 290.595,126.38 285.5,125C 284.478,122.684 282.978,122.184 281,123.5C 280.751,122.376 280.251,121.376 279.5,120.5C 278.167,121.167 276.833,121.833 275.5,122.5C 274.808,121.975 274.308,121.308 274,120.5C 268.657,124.743 267.157,130.077 269.5,136.5C 268.626,144.152 268.459,151.818 269,159.5C 271.722,165.892 276.555,168.225 283.5,166.5C 284.226,170.26 282.893,172.927 279.5,174.5C 278.508,174.328 277.842,174.662 277.5,175.5C 271.536,176.487 266.536,179.153 262.5,183.5C 260.278,183.178 258.444,183.845 257,185.5C 255.188,183.7 253.355,182.033 251.5,180.5C 251.5,159.833 251.5,139.167 251.5,118.5 Z"/></g>
<g><path style="opacity:1" fill="#49424a" d="M 296.5,162.5 C 295.5,162.5 294.5,162.5 293.5,162.5C 293.869,158.106 294.535,153.773 295.5,149.5C 293.167,149.5 290.833,149.5 288.5,149.5C 288.756,147.208 288.423,145.041 287.5,143C 283.719,141.173 279.719,140.173 275.5,140C 273.308,139.074 271.308,137.907 269.5,136.5C 267.157,130.077 268.657,124.743 274,120.5C 274.308,121.308 274.808,121.975 275.5,122.5C 276.833,121.833 278.167,121.167 279.5,120.5C 280.251,121.376 280.751,122.376 281,123.5C 282.978,122.184 284.478,122.684 285.5,125C 290.595,126.38 295.595,128.047 300.5,130C 302,131.5 303.5,133 305,134.5C 305.407,144.875 302.574,154.208 296.5,162.5 Z"/></g>
<g><path style="opacity:1" fill="#fdfefe" d="M 66.5,124.5 C 76.1724,124.334 85.8391,124.5 95.5,125C 97.7179,126.721 99.3846,128.888 100.5,131.5C 103.4,129.049 106.734,127.715 110.5,127.5C 110.5,134.167 110.5,140.833 110.5,147.5C 106.525,146.682 102.859,145.016 99.5,142.5C 99.3083,146.05 97.6416,148.55 94.5,150C 84.7328,150.947 75.0661,150.613 65.5,149C 64.8742,148.25 64.3742,147.416 64,146.5C 63.3333,140.5 63.3333,134.5 64,128.5C 64.6622,127.016 65.4955,125.683 66.5,124.5 Z"/></g>
<g><path style="opacity:1" fill="#c6f4ff" d="M 175.5,124.5 C 195.833,124.5 216.167,124.5 236.5,124.5C 236.5,128.833 236.5,133.167 236.5,137.5C 216.167,137.5 195.833,137.5 175.5,137.5C 175.5,133.167 175.5,128.833 175.5,124.5 Z"/></g>
<g><path style="opacity:1" fill="#ecb8a9" d="M 269.5,136.5 C 271.308,137.907 273.308,139.074 275.5,140C 279.719,140.173 283.719,141.173 287.5,143C 288.423,145.041 288.756,147.208 288.5,149.5C 290.833,149.5 293.167,149.5 295.5,149.5C 294.535,153.773 293.869,158.106 293.5,162.5C 294.5,162.5 295.5,162.5 296.5,162.5C 296.372,166.585 298.039,169.585 301.5,171.5C 296.598,179.438 289.932,181.272 281.5,177C 280.619,176.292 279.953,175.458 279.5,174.5C 282.893,172.927 284.226,170.26 283.5,166.5C 276.555,168.225 271.722,165.892 269,159.5C 268.459,151.818 268.626,144.152 269.5,136.5 Z"/></g>
<g><path style="opacity:1" fill="#c6f4ff" d="M 175.5,149.5 C 195.833,149.5 216.167,149.5 236.5,149.5C 236.5,153.833 236.5,158.167 236.5,162.5C 216.167,162.5 195.833,162.5 175.5,162.5C 175.5,158.167 175.5,153.833 175.5,149.5 Z"/></g>
<g><path style="opacity:0.98" fill="#64daf4" d="M 354.5,205.5 C 350.435,206.131 346.435,207.131 342.5,208.5C 340.826,215.958 339.159,223.291 337.5,230.5C 337.167,200.493 337.5,170.493 338.5,140.5C 343.435,141.448 348.435,141.781 353.5,141.5C 354.443,162.811 354.776,184.144 354.5,205.5 Z"/></g>
<g><path style="opacity:1" fill="#c8f4fd" d="M 304.5,173.5 C 312.745,176.944 319.412,182.277 324.5,189.5C 324.427,191.027 325.094,192.027 326.5,192.5C 326.5,198.5 326.5,204.5 326.5,210.5C 308.167,210.5 289.833,210.5 271.5,210.5C 274.055,207.228 274.055,203.894 271.5,200.5C 275.151,191.472 272.151,185.805 262.5,183.5C 266.536,179.153 271.536,176.487 277.5,175.5C 287.036,185.09 296.036,184.424 304.5,173.5 Z"/></g>
<g><path style="opacity:1" fill="#494149" d="M 251.5,180.5 C 253.355,182.033 255.188,183.7 257,185.5C 258.444,183.845 260.278,183.178 262.5,183.5C 272.151,185.805 275.151,191.472 271.5,200.5C 274.055,203.894 274.055,207.228 271.5,210.5C 268.375,213.965 264.708,216.632 260.5,218.5C 260.666,214.486 260.499,210.486 260,206.5C 257.125,205.196 254.125,204.196 251,203.5C 248.964,206.392 246.797,209.226 244.5,212C 241.077,213.904 237.41,214.737 233.5,214.5C 232.203,219.655 228.87,221.488 223.5,220C 210.932,216.792 209.265,220.126 218.5,230C 219.448,230.483 220.448,230.649 221.5,230.5C 221.756,234.269 221.423,237.936 220.5,241.5C 214.549,244.899 209.549,243.899 205.5,238.5C 204.238,241.115 203.072,243.782 202,246.5C 199.154,248.257 196.488,250.257 194,252.5C 193.667,251.833 193.333,251.167 193,250.5C 188.338,255.02 182.838,256.52 176.5,255C 181.473,253.194 184.473,249.694 185.5,244.5C 183.567,239.977 182.233,235.311 181.5,230.5C 181.811,224.71 184.145,219.877 188.5,216C 186.882,212.767 185.549,209.434 184.5,206C 184.599,202.275 186.432,200.108 190,199.5C 193.134,200.1 196.134,201.1 199,202.5C 203.931,197.308 209.097,192.474 214.5,188C 216.167,187.667 217.833,187.333 219.5,187C 223.289,176.439 230.622,172.772 241.5,176C 242.794,178.087 243.961,180.254 245,182.5C 246.789,180.771 248.956,180.104 251.5,180.5 Z"/></g>
<g><path style="opacity:1" fill="#5eb9cf" d="M 301.5,171.5 C 303.027,171.427 304.027,172.094 304.5,173.5C 296.036,184.424 287.036,185.09 277.5,175.5C 277.842,174.662 278.508,174.328 279.5,174.5C 279.953,175.458 280.619,176.292 281.5,177C 289.932,181.272 296.598,179.438 301.5,171.5 Z"/></g>
<g><path style="opacity:1" fill="#eaa496" d="M 260.5,218.5 C 260.55,223.552 260.05,228.552 259,233.5C 257.951,244.393 252.117,249.727 241.5,249.5C 240.307,255.947 241.974,261.28 246.5,265.5C 247.758,270.493 246.092,274.327 241.5,277C 229.612,279.561 220.279,275.727 213.5,265.5C 216.235,257.627 218.568,249.627 220.5,241.5C 221.423,237.936 221.756,234.269 221.5,230.5C 220.448,230.649 219.448,230.483 218.5,230C 209.265,220.126 210.932,216.792 223.5,220C 228.87,221.488 232.203,219.655 233.5,214.5C 237.41,214.737 241.077,213.904 244.5,212C 246.797,209.226 248.964,206.392 251,203.5C 254.125,204.196 257.125,205.196 260,206.5C 260.499,210.486 260.666,214.486 260.5,218.5 Z"/></g>
<g><path style="opacity:1" fill="#4a424a" d="M 354.5,205.5 C 357.119,205.232 359.619,205.565 362,206.5C 362.162,212.869 361.662,219.202 360.5,225.5C 356.985,224.081 353.319,223.414 349.5,223.5C 349.281,224.675 349.614,225.675 350.5,226.5C 352.833,227.667 355.167,228.833 357.5,230C 346.225,228.072 345.225,229.739 354.5,235C 352.833,235.333 351.167,235.667 349.5,236C 352.052,237.771 354.385,239.771 356.5,242C 356.241,243.261 355.574,244.261 354.5,245C 350.75,245.649 347.083,246.482 343.5,247.5C 341.097,247.552 338.764,247.219 336.5,246.5C 336.5,243.5 336.5,240.5 336.5,237.5C 337.468,235.393 337.802,233.059 337.5,230.5C 339.159,223.291 340.826,215.958 342.5,208.5C 346.435,207.131 350.435,206.131 354.5,205.5 Z"/></g>
<g><path style="opacity:1" fill="#66d2ed" d="M 199.5,206.5 C 201.275,210.413 203.275,214.413 205.5,218.5C 204.132,220.637 203.132,222.97 202.5,225.5C 195.861,220.058 194.861,213.725 199.5,206.5 Z"/></g>
<g><path style="opacity:1" fill="#eaa596" d="M 360.5,225.5 C 361.458,225.953 362.292,226.619 363,227.5C 363.089,237.4 360.256,246.4 354.5,254.5C 347.759,262.976 341.759,271.976 336.5,281.5C 329.413,291.1 322.08,300.6 314.5,310C 310.833,310.667 307.167,310.667 303.5,310C 293.334,307.012 283.334,303.845 273.5,300.5C 274.368,291.491 275.368,282.491 276.5,273.5C 285.445,278.643 294.445,283.81 303.5,289C 304.833,289.667 306.167,289.667 307.5,289C 317.376,277.961 327.043,266.795 336.5,255.5C 339.55,253.451 341.883,250.784 343.5,247.5C 347.083,246.482 350.75,245.649 354.5,245C 355.574,244.261 356.241,243.261 356.5,242C 354.385,239.771 352.052,237.771 349.5,236C 351.167,235.667 352.833,235.333 354.5,235C 345.225,229.739 346.225,228.072 357.5,230C 355.167,228.833 352.833,227.667 350.5,226.5C 349.614,225.675 349.281,224.675 349.5,223.5C 353.319,223.414 356.985,224.081 360.5,225.5 Z"/></g>
<g><path style="opacity:0.98" fill="#60d1e9" d="M 156.5,243.5 C 151.5,243.5 146.5,243.5 141.5,243.5C 141.824,250.354 141.491,257.021 140.5,263.5C 140.333,231.498 140.5,199.498 141,167.5C 146.072,166.529 151.238,166.195 156.5,166.5C 156.5,192.167 156.5,217.833 156.5,243.5 Z"/></g>
<g><path style="opacity:1" fill="#d58c80" d="M 223.5,235.5 C 225.494,239.685 228.161,243.518 231.5,247C 233.909,248.707 236.575,249.54 239.5,249.5C 240.003,254.172 240.169,258.839 240,263.5C 238.274,264.576 236.441,264.743 234.5,264C 226.724,256.147 223.057,246.647 223.5,235.5 Z"/></g>
<g><path style="opacity:1" fill="#71c8dc" d="M 336.5,246.5 C 338.764,247.219 341.097,247.552 343.5,247.5C 341.883,250.784 339.55,253.451 336.5,255.5C 336.5,252.5 336.5,249.5 336.5,246.5 Z"/></g>
<g><path style="opacity:0.985" fill="#5bc6de" d="M 156.5,243.5 C 156.5,257.167 156.5,270.833 156.5,284.5C 151.482,284.387 146.482,284.053 141.5,283.5C 141.821,289.026 141.488,294.36 140.5,299.5C 140.5,287.5 140.5,275.5 140.5,263.5C 141.491,257.021 141.824,250.354 141.5,243.5C 146.5,243.5 151.5,243.5 156.5,243.5 Z"/></g>
<g><path style="opacity:1" fill="#68ddf8" d="M 213.5,265.5 C 220.279,275.727 229.612,279.561 241.5,277C 246.092,274.327 247.758,270.493 246.5,265.5C 254.174,265.334 261.841,265.5 269.5,266C 273.456,267.118 275.789,269.618 276.5,273.5C 275.368,282.491 274.368,291.491 273.5,300.5C 272.114,306.32 270.947,312.32 270,318.5C 266.447,325.606 263.447,332.939 261,340.5C 260.501,344.486 260.334,348.486 260.5,352.5C 239.789,345.559 225.456,352.225 217.5,372.5C 216.883,372.611 216.383,372.944 216,373.5C 215.333,364.167 215.333,354.833 216,345.5C 218.304,343.932 220.804,342.765 223.5,342C 227.32,341.765 230.987,340.932 234.5,339.5C 236.5,334.167 238.5,328.833 240.5,323.5C 231.896,321.677 223.229,320.177 214.5,319C 208.178,317.008 203.345,313.175 200,307.5C 197.842,302.841 196.009,298.175 194.5,293.5C 194.245,290.984 193.411,288.65 192,286.5C 189.289,282.288 185.789,278.954 181.5,276.5C 179.451,273.45 176.784,271.117 173.5,269.5C 174.347,268.034 175.68,267.2 177.5,267C 189.464,265.724 201.464,265.224 213.5,265.5 Z"/></g>
<g><path style="opacity:1" fill="#59a7b9" d="M 173.5,269.5 C 176.784,271.117 179.451,273.45 181.5,276.5C 179.975,279.563 177.975,282.23 175.5,284.5C 174.505,280.512 173.505,276.512 172.5,272.5C 172.52,271.274 172.853,270.274 173.5,269.5 Z"/></g>
<g><path style="opacity:1" fill="#eba597" d="M 181.5,276.5 C 185.789,278.954 189.289,282.288 192,286.5C 193.411,288.65 194.245,290.984 194.5,293.5C 193.105,297.29 191.438,300.957 189.5,304.5C 183.861,314.437 178.194,324.437 172.5,334.5C 179.844,343.838 187.511,352.838 195.5,361.5C 196.568,364.075 198.235,366.242 200.5,368C 205.735,370.785 211.068,373.285 216.5,375.5C 216.5,377.167 216.5,378.833 216.5,380.5C 213.14,380.384 209.807,380.051 206.5,379.5C 206.261,386.358 208.761,392.024 214,396.5C 214.483,397.448 214.649,398.448 214.5,399.5C 204.366,400.094 196.366,396.428 190.5,388.5C 194.987,382.379 194.32,376.879 188.5,372C 187.552,371.517 186.552,371.351 185.5,371.5C 175.772,361.775 166.438,351.775 157.5,341.5C 156.488,340.128 155.488,338.795 154.5,337.5C 152.948,335.058 151.948,332.391 151.5,329.5C 152.61,324.618 154.277,319.951 156.5,315.5C 157.338,315.158 157.672,314.492 157.5,313.5C 163.747,304.009 169.747,294.342 175.5,284.5C 177.975,282.23 179.975,279.563 181.5,276.5 Z"/></g>
<g><path style="opacity:1" fill="#fefefe" d="M 336.5,281.5 C 336.5,322.833 336.5,364.167 336.5,405.5C 335.318,412.923 330.985,416.923 323.5,417.5C 307.833,417.5 292.167,417.5 276.5,417.5C 275.14,412.057 273.473,406.723 271.5,401.5C 282.54,384.269 280.54,368.769 265.5,355C 263.807,354.153 262.14,353.32 260.5,352.5C 260.334,348.486 260.501,344.486 261,340.5C 263.447,332.939 266.447,325.606 270,318.5C 270.947,312.32 272.114,306.32 273.5,300.5C 283.334,303.845 293.334,307.012 303.5,310C 307.167,310.667 310.833,310.667 314.5,310C 322.08,300.6 329.413,291.1 336.5,281.5 Z"/></g>
<g><path style="opacity:1" fill="#5ec2d9" d="M 354.5,254.5 C 354.5,287.167 354.5,319.833 354.5,352.5C 353.505,341.012 353.172,329.345 353.5,317.5C 348.167,317.5 342.833,317.5 337.5,317.5C 337.5,332.5 337.5,347.5 337.5,362.5C 337.829,377.01 337.496,391.343 336.5,405.5C 336.5,364.167 336.5,322.833 336.5,281.5C 341.759,271.976 347.759,262.976 354.5,254.5 Z"/></g>
<g><path style="opacity:1" fill="#4faac0" d="M 382.5,316.5 C 383.036,313.302 382.369,310.635 380.5,308.5C 390.598,301.584 400.598,294.418 410.5,287C 412.055,285.711 413.721,285.044 415.5,285C 404.934,296.069 393.934,306.569 382.5,316.5 Z"/></g>
<g><path style="opacity:1" fill="#fdfdfd" d="M 189.5,304.5 C 196.604,314.452 201.604,325.452 204.5,337.5C 200.924,345.312 197.924,353.312 195.5,361.5C 187.511,352.838 179.844,343.838 172.5,334.5C 178.194,324.437 183.861,314.437 189.5,304.5 Z"/></g>
<g><path style="opacity:1" fill="#326b79" d="M 379.5,309.5 C 380.833,316.167 380.833,322.833 379.5,329.5C 378.514,327.574 377.514,325.574 376.5,323.5C 377.833,319.5 377.833,315.5 376.5,311.5C 377.29,310.599 378.29,309.932 379.5,309.5 Z"/></g>
<g><path style="opacity:1" fill="#20444d" d="M 376.5,311.5 C 377.833,315.5 377.833,319.5 376.5,323.5C 375.044,320.753 373.711,317.92 372.5,315C 373.202,313.144 374.536,311.977 376.5,311.5 Z"/></g>
<g><path style="opacity:1" fill="#5ec5de" d="M 194.5,293.5 C 196.009,298.175 197.842,302.841 200,307.5C 203.345,313.175 208.178,317.008 214.5,319C 223.229,320.177 231.896,321.677 240.5,323.5C 238.5,328.833 236.5,334.167 234.5,339.5C 230.987,340.932 227.32,341.765 223.5,342C 220.804,342.765 218.304,343.932 216,345.5C 215.333,354.833 215.333,364.167 216,373.5C 216.383,372.944 216.883,372.611 217.5,372.5C 217.443,373.609 217.11,374.609 216.5,375.5C 211.068,373.285 205.735,370.785 200.5,368C 198.235,366.242 196.568,364.075 195.5,361.5C 197.924,353.312 200.924,345.312 204.5,337.5C 201.604,325.452 196.604,314.452 189.5,304.5C 191.438,300.957 193.105,297.29 194.5,293.5 Z"/></g>
<g><path style="opacity:1" fill="#438fa1" d="M 379.5,309.5 C 379.5,308.833 379.833,308.5 380.5,308.5C 382.369,310.635 383.036,313.302 382.5,316.5C 382.196,317.15 381.863,317.817 381.5,318.5C 383.389,319.604 385.055,320.937 386.5,322.5C 384.748,325.672 382.748,328.672 380.5,331.5C 379.702,331.043 379.369,330.376 379.5,329.5C 380.833,322.833 380.833,316.167 379.5,309.5 Z"/></g>
<g><path style="opacity:0.97" fill="#58bcd2" d="M 156.5,284.5 C 156.5,294.833 156.5,305.167 156.5,315.5C 154.277,319.951 152.61,324.618 151.5,329.5C 151.948,332.391 152.948,335.058 154.5,337.5C 150.366,338.485 146.032,338.818 141.5,338.5C 141.827,347.682 141.493,356.682 140.5,365.5C 140.5,343.5 140.5,321.5 140.5,299.5C 141.488,294.36 141.821,289.026 141.5,283.5C 146.482,284.053 151.482,284.387 156.5,284.5 Z"/></g>
<g><path style="opacity:1" fill="#fefefe" d="M 157.5,341.5 C 166.438,351.775 175.772,361.775 185.5,371.5C 174.686,372.963 172.019,378.463 177.5,388C 180.447,390.164 183.781,390.998 187.5,390.5C 187.175,397.687 187.509,404.687 188.5,411.5C 188.5,413.5 188.5,415.5 188.5,417.5C 182.167,417.5 175.833,417.5 169.5,417.5C 162.51,416.51 158.51,412.51 157.5,405.5C 157.5,384.167 157.5,362.833 157.5,341.5 Z"/></g>
<g><path style="opacity:1" fill="#54b8ce" d="M 354.5,352.5 C 354.5,369.833 354.5,387.167 354.5,404.5C 354.5,405.167 354.5,405.833 354.5,406.5C 353.504,392.01 353.171,377.343 353.5,362.5C 348.167,362.5 342.833,362.5 337.5,362.5C 337.5,347.5 337.5,332.5 337.5,317.5C 342.833,317.5 348.167,317.5 353.5,317.5C 353.172,329.345 353.505,341.012 354.5,352.5 Z"/></g>
<g><path style="opacity:1" fill="#474048" d="M 260.5,352.5 C 262.14,353.32 263.807,354.153 265.5,355C 280.54,368.769 282.54,384.269 271.5,401.5C 254.384,416.748 237.884,416.081 222,399.5C 220.487,396.473 218.987,393.473 217.5,390.5C 216.676,387.236 216.342,383.902 216.5,380.5C 216.5,378.833 216.5,377.167 216.5,375.5C 217.11,374.609 217.443,373.609 217.5,372.5C 225.456,352.225 239.789,345.559 260.5,352.5 Z"/></g>
<g><path style="opacity:1" fill="#58b5ca" d="M 154.5,337.5 C 155.488,338.795 156.488,340.128 157.5,341.5C 157.5,362.833 157.5,384.167 157.5,405.5C 156.507,397.016 156.174,388.349 156.5,379.5C 151.527,378.836 146.527,378.503 141.5,378.5C 141.5,392.167 141.5,405.833 141.5,419.5C 140.503,401.674 140.17,383.674 140.5,365.5C 141.493,356.682 141.827,347.682 141.5,338.5C 146.032,338.818 150.366,338.485 154.5,337.5 Z"/></g>
<g><path style="opacity:1" fill="#73def8" d="M 185.5,371.5 C 186.552,371.351 187.552,371.517 188.5,372C 194.32,376.879 194.987,382.379 190.5,388.5C 189.883,388.611 189.383,388.944 189,389.5C 188.5,396.826 188.334,404.159 188.5,411.5C 187.509,404.687 187.175,397.687 187.5,390.5C 183.781,390.998 180.447,390.164 177.5,388C 172.019,378.463 174.686,372.963 185.5,371.5 Z"/></g>
<g><path style="opacity:1" fill="#6ddffa" d="M 305.5,371.5 C 318.313,371.124 321.98,376.624 316.5,388C 305.092,392.592 299.925,388.759 301,376.5C 302.193,374.503 303.693,372.836 305.5,371.5 Z"/></g>
<g><path style="opacity:1" fill="#66d2ec" d="M 239.5,372.5 C 248.653,371.443 257.32,372.943 265.5,377C 267.045,378.822 267.712,380.989 267.5,383.5C 267.167,385.167 266.833,386.833 266.5,388.5C 263.227,389.585 259.894,389.752 256.5,389C 255.643,388.311 254.977,387.478 254.5,386.5C 255.485,384.902 255.651,383.235 255,381.5C 250.677,379.285 246.177,378.952 241.5,380.5C 241.574,388.915 237.574,391.748 229.5,389C 225.008,383.307 226.008,378.64 232.5,375C 235.104,374.61 237.438,373.776 239.5,372.5 Z"/></g>
<g><path style="opacity:1" fill="#4ea9be" d="M 337.5,362.5 C 342.833,362.5 348.167,362.5 353.5,362.5C 353.171,377.343 353.504,392.01 354.5,406.5C 356.606,422.152 350.273,432.318 335.5,437C 324.505,437.5 313.505,437.667 302.5,437.5C 255.165,437.667 207.832,437.5 160.5,437C 150.785,434.783 144.451,428.95 141.5,419.5C 141.5,405.833 141.5,392.167 141.5,378.5C 146.527,378.503 151.527,378.836 156.5,379.5C 156.174,388.349 156.507,397.016 157.5,405.5C 158.51,412.51 162.51,416.51 169.5,417.5C 220.833,418.833 272.167,418.833 323.5,417.5C 330.985,416.923 335.318,412.923 336.5,405.5C 337.496,391.343 337.829,377.01 337.5,362.5 Z"/></g>
<g><path style="opacity:1" fill="#63cae2" d="M 216.5,380.5 C 216.342,383.902 216.676,387.236 217.5,390.5C 216.312,399.076 216.645,407.743 218.5,416.5C 237.822,417.5 257.155,417.833 276.5,417.5C 292.167,417.5 307.833,417.5 323.5,417.5C 272.167,418.833 220.833,418.833 169.5,417.5C 175.833,417.5 182.167,417.5 188.5,417.5C 188.5,415.5 188.5,413.5 188.5,411.5C 188.334,404.159 188.5,396.826 189,389.5C 189.383,388.944 189.883,388.611 190.5,388.5C 196.366,396.428 204.366,400.094 214.5,399.5C 214.649,398.448 214.483,397.448 214,396.5C 208.761,392.024 206.261,386.358 206.5,379.5C 209.807,380.051 213.14,380.384 216.5,380.5 Z"/></g>
<g><path style="opacity:1" fill="#69dcf7" d="M 217.5,390.5 C 218.987,393.473 220.487,396.473 222,399.5C 237.884,416.081 254.384,416.748 271.5,401.5C 273.473,406.723 275.14,412.057 276.5,417.5C 257.155,417.833 237.822,417.5 218.5,416.5C 216.645,407.743 216.312,399.076 217.5,390.5 Z"/></g>
</svg>
