<?xml version="1.0" encoding="UTF-8"?>
<svg version="1.1" xmlns="http://www.w3.org/2000/svg" width="500" height="500">
<path d="M0 0 C1.1376329 -0.00511093 2.27526581 -0.01022186 3.44737244 -0.01548767 C7.191613 -0.02933817 10.93566857 -0.0284304 14.67993164 -0.02612305 C17.29252694 -0.03001221 19.9051216 -0.03434733 22.51771545 -0.03910828 C27.98741281 -0.0473029 33.45705847 -0.04642531 38.92675781 -0.04101562 C45.23090995 -0.03497612 51.53483888 -0.04729288 57.83895296 -0.06858569 C63.92690148 -0.08838494 70.01474628 -0.09136855 76.10272408 -0.08785057 C78.68262824 -0.08836293 81.26253604 -0.09358453 83.84242058 -0.10366249 C87.45371434 -0.11603975 91.0644953 -0.10922705 94.67578125 -0.09765625 C95.73424255 -0.10529999 96.79270386 -0.11294373 97.88323975 -0.12081909 C104.50350857 -0.07408715 111.82043773 0.1868327 117.07504177 4.71631908 C117.53375699 5.18932099 117.99247221 5.6623229 118.46508789 6.1496582 C121.8173541 9.28614635 125.44907264 10.46154883 129.77758789 11.7121582 C165.98788238 22.18087701 196.59325182 44.93513098 216.40258789 77.2746582 C217.01166992 78.26127441 217.01166992 78.26127441 217.63305664 79.26782227 C233.63575883 105.56352466 242.2614521 135.10227205 247.40258789 165.2746582 C247.55501953 166.15669922 247.70745117 167.03874023 247.86450195 167.94750977 C252.5307309 196.23715266 252.91969669 227.28357115 246.40258789 255.2746582 C246.2047168 256.12656738 246.0068457 256.97847656 245.80297852 257.85620117 C237.73967965 291.3684716 216.95262261 319.51417361 187.68188477 337.8894043 C148.01445011 361.99748315 104.34560092 368.91686992 58.59008789 368.7121582 C57.19683892 368.7100398 55.80358929 368.70831694 54.41033936 368.70697021 C33.32911172 368.6732963 12.41194361 367.72855469 -8.61334229 366.12133789 C-25.08850136 364.86719054 -41.50534005 364.04268837 -58.02319336 363.66918945 C-58.94445511 363.64823967 -59.86571686 363.62728989 -60.81489563 363.60570526 C-69.98886935 363.40101656 -79.16307744 363.22557419 -88.33829594 363.08760929 C-91.76417754 363.03406539 -95.18984265 362.97069239 -98.61553001 362.90601158 C-100.94813379 362.86618373 -103.28054723 362.8413599 -105.61335754 362.81733704 C-113.23473379 362.69883807 -120.63865783 362.1432968 -128.16699219 360.91357422 C-128.88716113 360.79654868 -129.60733007 360.67952314 -130.34932232 360.55895138 C-156.9751114 355.82367869 -180.12661328 337.86963812 -195.37963867 316.03881836 C-217.23395417 283.79078379 -227.95279578 243.56949639 -220.62475586 204.9230957 C-216.5267481 185.48497368 -208.07806706 166.97000114 -194.59741211 152.2746582 C-193.86780273 151.42774414 -193.13819336 150.58083008 -192.38647461 149.70825195 C-175.52065988 130.32735959 -154.58199323 119.82428049 -131.59741211 109.2746582 C-130.7040918 108.85684082 -129.81077148 108.43902344 -128.89038086 108.00854492 C-128.09245117 107.64132324 -127.29452148 107.27410156 -126.47241211 106.89575195 C-125.78920898 106.57920654 -125.10600586 106.26266113 -124.40209961 105.93652344 C-122.59741211 105.2746582 -122.59741211 105.2746582 -119.59741211 105.2746582 C-119.43241211 104.5940332 -119.26741211 103.9134082 -119.09741211 103.2121582 C-116.14735484 97.43496272 -111.10280353 93.52949569 -105.03491211 91.3371582 C-102.07845982 90.4759089 -100.36221059 90.29208054 -97.22241211 90.5246582 C-87.47595779 89.85248894 -78.76070984 80.31390066 -71.59741211 74.2746582 C-69.82841538 72.83489867 -68.05756682 71.39741157 -66.28491211 69.9621582 C-62.00129539 66.46071401 -57.78954992 62.88433345 -53.59741211 59.2746582 C-49.22585358 55.51581196 -44.84434378 51.77177844 -40.40991211 48.0871582 C-39.12020508 47.01401367 -39.12020508 47.01401367 -37.80444336 45.91918945 C-35.59741211 44.2746582 -35.59741211 44.2746582 -32.59741211 43.2746582 C-32.62359619 42.56970215 -32.64978027 41.86474609 -32.67675781 41.13842773 C-32.78176837 37.89240509 -32.84606497 34.64674118 -32.90991211 31.3996582 C-32.97275391 29.73676758 -32.97275391 29.73676758 -33.03686523 28.0402832 C-33.14931535 20.39367518 -32.05455219 14.60888244 -27.59741211 8.2746582 C-19.63143356 0.3929495 -10.70245721 -0.02500218 0 0 Z " fill="#69DEFE" transform="translate(236.597412109375,68.725341796875)"/>
<path d="M0 0 C1.10408203 0.02707031 2.20816406 0.05414063 3.34570312 0.08203125 C6.04506085 0.15214444 8.74020423 0.25034716 11.4375 0.375 C11.685 1.4475 11.9325 2.52 12.1875 3.625 C13.48498771 7.51746312 14.28396179 8.87977373 17.4375 11.375 C20.07043457 11.9568012 20.07043457 11.9568012 22.98461914 11.8449707 C24.65138451 11.84935905 24.65138451 11.84935905 26.3518219 11.85383606 C28.1441349 11.82757393 28.1441349 11.82757393 29.97265625 11.80078125 C31.81796181 11.79584908 31.81796181 11.79584908 33.70054626 11.79081726 C36.30049937 11.78039481 38.90042914 11.76044243 41.50024414 11.73168945 C45.488108 11.68763138 49.47481619 11.67025763 53.46289062 11.65820312 C55.98698788 11.64477851 58.51107771 11.6298554 61.03515625 11.61328125 C62.23205582 11.60589432 63.42895538 11.59850739 64.66212463 11.59089661 C65.77014938 11.57806137 66.87817413 11.56522614 68.01977539 11.55200195 C68.99588272 11.54215775 69.97199005 11.53231354 70.97767639 11.52217102 C73.57397773 11.47339908 73.57397773 11.47339908 76.4375 10.375 C77.46450444 8.04608904 77.46450444 8.04608904 78.125 5.3125 C78.37636719 4.39339844 78.62773437 3.47429687 78.88671875 2.52734375 C79.06847656 1.81707031 79.25023437 1.10679688 79.4375 0.375 C82.93721199 0.2576206 86.43640955 0.18736039 89.9375 0.125 C90.91976562 0.09148437 91.90203125 0.05796875 92.9140625 0.0234375 C100.42073078 -0.07665141 105.71775963 1.16510821 111.4609375 6.12109375 C112.12996094 6.95833984 112.12996094 6.95833984 112.8125 7.8125 C113.50472656 8.64587891 113.50472656 8.64587891 114.2109375 9.49609375 C116.74754063 13.38178198 117.68945697 16.84050694 117.6328125 21.45703125 C117.62781738 22.2972583 117.62282227 23.13748535 117.61767578 24.00317383 C117.59946777 25.05400146 117.58125977 26.1048291 117.5625 27.1875 C117.52125 30.549375 117.48 33.91125 117.4375 37.375 C127.9975 37.375 138.5575 37.375 149.4375 37.375 C149.4375 79.945 149.4375 122.515 149.4375 166.375 C121.4375 166.375 121.4375 166.375 117.4375 165.375 C117.44194122 166.66237564 117.44638245 167.94975128 117.45095825 169.27613831 C117.49152046 181.4147671 117.5214922 193.55338212 117.54112434 205.69206333 C117.55155674 211.93251434 117.56570615 218.17291058 117.58837891 224.41333008 C117.61012646 230.43686905 117.62207272 236.46035538 117.62725449 242.48393059 C117.63094678 244.78080003 117.6381569 247.07766662 117.64896011 249.37451363 C117.66350026 252.59422127 117.66547686 255.81371201 117.66455078 259.03344727 C117.67174133 259.98075714 117.67893188 260.92806702 117.68634033 261.90408325 C117.6608917 270.09309065 116.57641748 276.40370346 110.65161133 282.44824219 C101.59632426 290.32830896 88.94088719 288.84587963 77.75 288.625 C75.96942121 288.60489695 74.18882042 288.58665294 72.40820312 288.5703125 C68.08408352 288.52663478 63.76103976 288.45782033 59.4375 288.375 C59.46255615 287.59866211 59.4876123 286.82232422 59.51342773 286.02246094 C60.20623921 264.05986582 60.64486257 242.09524932 61 220.125 C61.0111018 219.43834763 61.0222036 218.75169525 61.03364182 218.04423523 C61.17166638 209.48787642 61.30620646 200.93146476 61.4375 192.375 C62.0975 192.375 62.7575 192.375 63.4375 192.375 C63.64246094 191.52035156 63.84742188 190.66570312 64.05859375 189.78515625 C64.32800781 188.68042969 64.59742188 187.57570313 64.875 186.4375 C65.14183594 185.33535156 65.40867187 184.23320312 65.68359375 183.09765625 C66.4375 180.375 66.4375 180.375 67.4375 179.375 C69.62340788 179.24153208 71.81152811 179.14372642 74 179.0625 C80.22362199 178.65647369 84.26294831 177.85787133 89.4375 174.375 C93.06963695 169.11383153 92.16807502 161.48956211 91.4375 155.375 C90.27993716 150.76090066 88.50867081 146.64932799 86.4375 142.375 C85.8909375 141.22773438 85.344375 140.08046875 84.78125 138.8984375 C81.05340052 131.38282485 76.62457282 124.30460616 72 117.3125 C71.48695313 116.51505371 70.97390625 115.71760742 70.4453125 114.89599609 C65.39047065 107.45397051 58.91331086 103.34933196 50.875 99.5 C50.02808594 99.09007812 49.18117188 98.68015625 48.30859375 98.2578125 C47.69113281 97.96648437 47.07367188 97.67515625 46.4375 97.375 C46.4375 94.735 46.4375 92.095 46.4375 89.375 C46.99179687 89.12105469 47.54609375 88.86710937 48.1171875 88.60546875 C48.84164062 88.26128906 49.56609375 87.91710937 50.3125 87.5625 C51.03179687 87.22605469 51.75109375 86.88960938 52.4921875 86.54296875 C56.35921309 84.22120037 57.18548181 80.46492608 58.4375 76.375 C58.63472656 75.75238281 58.83195312 75.12976563 59.03515625 74.48828125 C59.82188871 70.35602631 58.73696283 66.3171204 57.4375 62.375 C56.24165278 60.55744858 56.24165278 60.55744858 54.8125 59.0625 C52.4375 56.375 52.4375 56.375 52.125 53.5 C52.228125 52.79875 52.33125 52.0975 52.4375 51.375 C50.1275 51.375 47.8175 51.375 45.4375 51.375 C45.4375 50.715 45.4375 50.055 45.4375 49.375 C40.81931789 49.48567539 37.3701886 49.80396616 33.375 52.25 C30.89311058 56.25304745 31.34821518 58.74108836 31.58984375 63.33203125 C31.36049629 67.91309977 29.51642301 71.50462465 27.6171875 75.625 C26.18452946 78.96470616 25.68307179 81.77328037 25.4375 85.375 C26.345 85.601875 27.2525 85.82875 28.1875 86.0625 C31.9493577 87.58171176 33.31911177 88.95298825 35.4375 92.375 C35.4375 93.695 35.4375 95.015 35.4375 96.375 C34.62925781 96.55675781 33.82101562 96.73851562 32.98828125 96.92578125 C31.91964844 97.17714844 30.85101563 97.42851562 29.75 97.6875 C28.69425781 97.93113281 27.63851562 98.17476563 26.55078125 98.42578125 C23.45838282 99.36863297 21.16293397 100.67100713 18.4375 102.375 C17.7775 102.375 17.1175 102.375 16.4375 102.375 C16.4375 103.035 16.4375 103.695 16.4375 104.375 C15.7775 104.375 15.1175 104.375 14.4375 104.375 C13.73625 103.323125 13.035 102.27125 12.3125 101.1875 C9.15333085 96.56592614 4.86956199 93.47242105 -0.48046875 91.76171875 C-8.24687223 90.31917852 -14.98670179 90.88015059 -21.5625 95.375 C-23.23335766 96.70307764 -24.90042585 98.0359462 -26.5625 99.375 C-26.67854734 88.43065651 -26.76729331 77.48646032 -26.82156086 66.54162598 C-26.84761179 61.45900683 -26.88292751 56.37680982 -26.93969727 51.29443359 C-26.99417773 46.38607659 -27.0239544 41.47812465 -27.03688622 36.56948853 C-27.04609735 34.70042549 -27.06408477 32.83138366 -27.09115028 30.9624939 C-27.1276546 28.33649462 -27.13243656 25.71215123 -27.13012695 23.0859375 C-27.14810333 22.31988693 -27.16607971 21.55383636 -27.18460083 20.76457214 C-27.11978964 13.91694948 -24.25578393 9.15539559 -19.54711914 4.29443359 C-13.12211771 -0.16353974 -7.6665318 -0.36045177 0 0 Z " fill="#DDF7FE" transform="translate(238.5625,77.625)"/>
<path d="M0 0 C1.32 0 2.64 0 4 0 C4.0936371 14.31710098 4.16380742 28.63415415 4.20724869 42.95149899 C4.22810101 49.60003188 4.25637607 56.24830389 4.30175781 62.89672852 C4.3452986 69.3158069 4.36915486 75.73468736 4.37950897 82.15390205 C4.38688547 84.5998604 4.40129001 87.04580822 4.42292023 89.49168205 C4.45206259 92.92429681 4.45595133 96.3560993 4.45410156 99.78881836 C4.46848267 100.79439285 4.48286377 101.79996735 4.49768066 102.83601379 C4.45221812 110.66031661 2.67143916 116.66070105 -2.25 122.8125 C-9.22503845 128.36082604 -15.02035367 129.57941098 -23.84375 129.390625 C-24.85344849 129.38496521 -25.86314697 129.37930542 -26.90344238 129.37347412 C-30.10279377 129.351228 -33.30099175 129.30105313 -36.5 129.25 C-38.67967123 129.22991982 -40.85936016 129.21167172 -43.0390625 129.1953125 C-48.35976316 129.1514021 -53.67979914 129.08460904 -59 129 C-58.9836853 130.32608276 -58.9836853 130.32608276 -58.96704102 131.67895508 C-58.95858154 132.84322021 -58.95012207 134.00748535 -58.94140625 135.20703125 C-58.92509155 136.93530151 -58.92509155 136.93530151 -58.90844727 138.69848633 C-59.00754471 142.27207248 -59.58075399 145.3786278 -60.515625 148.80859375 C-61.07016664 151.31744747 -61.11193048 153.68441483 -61.1875 156.25 C-61.43592328 159.04367234 -61.64965324 160.54584679 -63.37109375 162.77734375 C-66.6279527 165.39588736 -68.50512843 166 -72.75 166 C-77.49477352 164.54006969 -77.49477352 164.54006969 -79 162 C-78.6828368 158.828368 -77.22070812 155.92969949 -76 153 C-76.99 153 -77.98 153 -79 153 C-79.33970765 150.50072231 -79.67188032 148.00080405 -80 145.5 C-80.09539062 144.80390625 -80.19078125 144.1078125 -80.2890625 143.390625 C-80.9161622 138.55299871 -81.08789528 133.87818804 -81 129 C-83.64 129 -86.28 129 -89 129 C-88.98839844 129.845625 -88.97679687 130.69125 -88.96484375 131.5625 C-88.91510313 137.81560618 -89.03059754 143.82005931 -90 150 C-90.99 150 -91.98 150 -93 150 C-92.896875 151.093125 -92.79375 152.18625 -92.6875 153.3125 C-92.8421875 155.1378125 -92.8421875 155.1378125 -93 157 C-95.4375 158.875 -95.4375 158.875 -98 160 C-98.33 160.33 -98.66 160.66 -99 161 C-102.95355026 161.44926708 -104.55622323 161.30871428 -107.875 159 C-108.57625 158.34 -109.2775 157.68 -110 157 C-109.84402344 156.37351562 -109.68804687 155.74703125 -109.52734375 155.1015625 C-109.33269531 154.28429687 -109.13804687 153.46703125 -108.9375 152.625 C-108.74027344 151.81289063 -108.54304688 151.00078125 -108.33984375 150.1640625 C-107.77890681 147.95838716 -107.77890681 147.95838716 -109 146 C-109.23274209 143.12089412 -109.41972757 140.25853505 -109.5625 137.375 C-109.62727539 136.17230469 -109.62727539 136.17230469 -109.69335938 134.9453125 C-109.79951457 132.9637489 -109.90026855 130.98189729 -110 129 C-110.65484375 129.02618408 -111.3096875 129.05236816 -111.984375 129.0793457 C-114.98933325 129.18412664 -117.99390599 129.24857941 -121 129.3125 C-122.54494141 129.3753418 -122.54494141 129.3753418 -124.12109375 129.43945312 C-131.10955331 129.55073433 -135.61380094 128.56165526 -141 124 C-148.13880003 116.86119997 -149.33892429 109.83157655 -149.4168396 100.12522888 C-149.41076691 98.87605179 -149.40469421 97.62687469 -149.3984375 96.33984375 C-149.40130768 95.03600235 -149.40417786 93.73216095 -149.40713501 92.3888092 C-149.41153545 89.6411766 -149.40520072 86.89383838 -149.39111328 84.14624023 C-149.37400529 80.64042501 -149.38388651 77.13529817 -149.40183067 73.62950802 C-149.41533041 70.262066 -149.40585582 66.89480527 -149.3984375 63.52734375 C-149.40451019 62.27614243 -149.41058289 61.0249411 -149.4168396 59.73582458 C-149.36537966 53.3423238 -149.02438154 48.6598859 -146 43 C-145.03193584 37.06823433 -146.29808892 33.29124254 -149 28 C-149.2530182 25.27633353 -149.14191757 22.74373977 -149 20 C-145.5795679 22.7805064 -144.12684834 24.24169484 -143.38768005 28.66047668 C-143.36776222 30.09619587 -143.37497976 31.5324546 -143.40405273 32.96801758 C-143.3999942 33.75569016 -143.39593567 34.54336273 -143.39175415 35.35490417 C-143.38624688 37.06000089 -143.39221751 38.76516519 -143.40841484 40.47019386 C-143.43387375 43.17427125 -143.42902391 45.87682695 -143.41651917 48.58097839 C-143.39578097 54.32498655 -143.41543407 60.068523 -143.4375 65.8125 C-143.45864044 72.46075068 -143.46308595 79.10850947 -143.43699837 85.75675011 C-143.43365126 88.41141478 -143.45481513 91.06512839 -143.47740173 93.71968079 C-143.47488855 95.36105553 -143.47132661 97.00242911 -143.46655273 98.64379883 C-143.47943832 99.37394196 -143.49232391 100.10408508 -143.50559998 100.85635376 C-143.44636966 107.00109793 -141.55951561 112.40745838 -137.18359375 116.83984375 C-136.60738281 117.20207031 -136.03117188 117.56429687 -135.4375 117.9375 C-134.85871094 118.31777344 -134.27992188 118.69804687 -133.68359375 119.08984375 C-130.71374095 120.69535582 -128.08103168 121.15200552 -124.76953125 121.31640625 C-123.96708984 121.35830078 -123.16464844 121.40019531 -122.33789062 121.44335938 C-121.50451172 121.48267578 -120.67113281 121.52199219 -119.8125 121.5625 C-118.5450293 121.62727539 -118.5450293 121.62727539 -117.25195312 121.69335938 C-115.16815567 121.79931518 -113.08409897 121.9001502 -111 122 C-111.14209669 119.3122562 -111.2885723 116.62486698 -111.4375 113.9375 C-111.47681641 113.18533203 -111.51613281 112.43316406 -111.55664062 111.65820312 C-111.59853516 110.91376953 -111.64042969 110.16933594 -111.68359375 109.40234375 C-111.73858032 108.38901978 -111.73858032 108.38901978 -111.79467773 107.35522461 C-111.9794639 104.87705319 -111.9794639 104.87705319 -112.50927734 101.96142578 C-113.16093999 96.70078993 -113.16250811 91.51079673 -113.16796875 86.21484375 C-113.17296135 84.51492027 -113.17296135 84.51492027 -113.17805481 82.78065491 C-113.18310537 80.38608199 -113.18546371 77.99150207 -113.18530273 75.59692383 C-113.18747808 71.97399959 -113.2056234 68.35138563 -113.22460938 64.72851562 C-113.30684928 33.16473117 -113.30684928 33.16473117 -107.375 26.125 C-106.27751033 25.05438762 -105.16189454 24.0003477 -104 23 C-99.85324715 23.88388836 -95.74871877 24.77397169 -91.6875 26 C-83.64846932 28.18007612 -75.81264397 29.17803553 -67.5 29.1875 C-66.81752197 29.18830566 -66.13504395 29.18911133 -65.43188477 29.18994141 C-62.12309229 29.15290729 -59.18273671 28.87368389 -56 28 C-55.97641516 35.26086921 -55.9588576 42.52172965 -55.94818783 49.78262997 C-55.94305667 53.15727077 -55.93556229 56.53186455 -55.92456055 59.90649414 C-55.85770958 80.97241482 -55.92251135 102.0189408 -58 123 C-52.78903116 122.95546509 -47.57923042 122.88524038 -42.36889648 122.79248047 C-40.60108806 122.76447367 -38.83315914 122.74315955 -37.06518555 122.72900391 C-21.06343316 122.99910736 -21.06343316 122.99910736 -7.02026367 116.30957031 C-0.78283098 109.91723608 -0.70042804 102.11144482 -0.68115234 93.65844727 C-0.67110672 92.64305374 -0.6610611 91.62766022 -0.65071106 90.58149719 C-0.61995215 87.24313902 -0.60286406 83.90486079 -0.5859375 80.56640625 C-0.56722001 78.24469824 -0.54764616 75.92299699 -0.5272522 73.6013031 C-0.47598656 67.50387564 -0.43633092 61.40642613 -0.39910889 55.30889893 C-0.35903441 49.08152844 -0.30795775 42.85424921 -0.2578125 36.62695312 C-0.16111908 24.41803291 -0.07669314 12.20906109 0 0 Z " fill="#252223" transform="translate(356,243)"/>
<path d="M0 0 C1.22589844 0.01353516 1.22589844 0.01353516 2.4765625 0.02734375 C3.10304688 0.03894531 3.72953125 0.05054687 4.375 0.0625 C4.375 0.7225 4.375 1.3825 4.375 2.0625 C7.84 1.5675 7.84 1.5675 11.375 1.0625 C12.375 4.0625 12.375 4.0625 12.625 6.375 C13.22270347 9.31124729 13.22270347 9.31124729 15.875 11.75 C18.90350225 15.12085468 19.15527005 18.38896915 19.52734375 22.79296875 C19.375 25.0625 19.375 25.0625 17.375 28.0625 C16.9728125 29.7640625 16.9728125 29.7640625 16.5625 31.5 C15.19181532 35.61205405 14.04167929 36.8454381 10.375 39.0625 C7.5625 39.8125 7.5625 39.8125 5.375 40.0625 C5.39632401 44.17103627 5.39632401 44.17103627 6.375 48.0625 C8.65733953 50.05532817 11.25795164 51.03448031 14.0625 52.125 C23.72372279 56.03696009 28.18071027 62.33364644 33.6875 70.9375 C34.15607422 71.66710937 34.62464844 72.39671875 35.10742188 73.1484375 C38.39685675 78.34743605 41.47032203 83.63954338 44.375 89.0625 C44.73634033 89.7313623 45.09768066 90.40022461 45.4699707 91.08935547 C49.33398212 98.4913323 51.80228217 105.4124984 51.75 113.8125 C51.76160156 115.69195312 51.76160156 115.69195312 51.7734375 117.609375 C51.27942044 121.89085618 50.11853309 124.56929786 46.82421875 127.390625 C40.3280304 130.78996081 33.59712299 130.85963138 26.375 131.0625 C26.27703125 131.66578125 26.1790625 132.2690625 26.078125 132.890625 C25.16925541 137.74837628 24.54272653 140.9979952 20.375 144.0625 C12.97386819 148.82406732 0.68465501 146.32860054 -7.5625 144.6875 C-9.91995001 144.16030654 -12.2745444 143.62004993 -14.625 143.0625 C-16.35380434 142.68583313 -18.08291128 142.31054855 -19.8125 141.9375 C-22.42581057 141.3377238 -25.0262394 140.71939292 -27.625 140.0625 C-31.59685616 144.167966 -34.33376501 147.09218261 -34.625 153.0625 C-35.285 151.7425 -35.945 150.4225 -36.625 149.0625 C-37.511875 149.3925 -38.39875 149.7225 -39.3125 150.0625 C-42.33423347 150.97472143 -44.50873706 151.24580958 -47.625 151.0625 C-47.08875 150.815 -46.5525 150.5675 -46 150.3125 C-32.19878242 143.04870127 -27.98021289 131.95710642 -22.625 118.0625 C-23.56601562 117.77890625 -24.50703125 117.4953125 -25.4765625 117.203125 C-29.29605142 115.81938956 -30.57019487 114.53986253 -32.625 111.0625 C-33.25589739 107.27711567 -32.87165599 105.54553464 -31.125 102.125 C-28.625 100.0625 -28.625 100.0625 -26.63085938 100.07983398 C-24.62890625 100.40738932 -22.62695312 100.73494466 -20.625 101.0625 C-22.1743133 73.09894803 -22.1743133 73.09894803 -35.4921875 49.0234375 C-37.14715546 47.58155554 -38.81412043 46.29963555 -40.625 45.0625 C-41.429375 44.44375 -42.23375 43.825 -43.0625 43.1875 C-43.578125 42.81625 -44.09375 42.445 -44.625 42.0625 C-37.27408586 42.51255597 -33.09208364 45.34238214 -28.1875 50.75 C-26.625 53.0625 -26.625 53.0625 -26.625 55.0625 C-25.965 55.0625 -25.305 55.0625 -24.625 55.0625 C-24.625 54.4025 -24.625 53.7425 -24.625 53.0625 C-18.32781864 48.94043201 -13.15671922 47.23546224 -5.625 47.0625 C-7.10596977 42.53247482 -8.07316035 40.0021196 -12.3125 37.625 C-13.405625 37.109375 -14.49875 36.59375 -15.625 36.0625 C-16.19898573 31.01142553 -15.26234899 27.93639866 -13.125 23.3125 C-10.7370623 18.01114528 -10.40091542 14.15143544 -10.70703125 8.41796875 C-10.625 6.0625 -10.625 6.0625 -8.75 2.9375 C-5.65800764 0.20927145 -4.03152357 -0.05759319 0 0 Z " fill="#68E0FC" transform="translate(279.625,126.9375)"/>
<path d="M0 0 C1.10408203 0.02707031 2.20816406 0.05414063 3.34570312 0.08203125 C6.04506085 0.15214444 8.74020423 0.25034716 11.4375 0.375 C11.685 1.4475 11.9325 2.52 12.1875 3.625 C13.48498771 7.51746312 14.28396179 8.87977373 17.4375 11.375 C20.07043457 11.9568012 20.07043457 11.9568012 22.98461914 11.8449707 C24.65138451 11.84935905 24.65138451 11.84935905 26.3518219 11.85383606 C28.1441349 11.82757393 28.1441349 11.82757393 29.97265625 11.80078125 C31.81796181 11.79584908 31.81796181 11.79584908 33.70054626 11.79081726 C36.30049937 11.78039481 38.90042914 11.76044243 41.50024414 11.73168945 C45.488108 11.68763138 49.47481619 11.67025763 53.46289062 11.65820312 C55.98698788 11.64477851 58.51107771 11.6298554 61.03515625 11.61328125 C62.23205582 11.60589432 63.42895538 11.59850739 64.66212463 11.59089661 C65.77014938 11.57806137 66.87817413 11.56522614 68.01977539 11.55200195 C68.99588272 11.54215775 69.97199005 11.53231354 70.97767639 11.52217102 C73.57397773 11.47339908 73.57397773 11.47339908 76.4375 10.375 C77.46450444 8.04608904 77.46450444 8.04608904 78.125 5.3125 C78.37636719 4.39339844 78.62773437 3.47429687 78.88671875 2.52734375 C79.06847656 1.81707031 79.25023437 1.10679688 79.4375 0.375 C82.93721199 0.2576206 86.43640955 0.18736039 89.9375 0.125 C90.91976562 0.09148437 91.90203125 0.05796875 92.9140625 0.0234375 C100.43744935 -0.07687432 105.82501251 1.1258177 111.49609375 6.2265625 C111.95113281 6.81179687 112.40617188 7.39703125 112.875 8 C113.34808594 8.59039062 113.82117188 9.18078125 114.30859375 9.7890625 C120.36261647 18.29402176 116.4375 22.59919079 116.4375 37.375 C83.1075 37.375 49.7775 37.375 15.4375 37.375 C15.4375 59.155 15.4375 80.935 15.4375 103.375 C10.4375 99.375 10.4375 99.375 8.125 96.8125 C2.55317546 91.75898472 -3.48870624 90.80446722 -10.8828125 91.01953125 C-17.32041428 91.87349883 -21.62877837 95.400136 -26.5625 99.375 C-26.67854734 88.43065651 -26.76729331 77.48646032 -26.82156086 66.54162598 C-26.84761179 61.45900683 -26.88292751 56.37680982 -26.93969727 51.29443359 C-26.99417773 46.38607659 -27.0239544 41.47812465 -27.03688622 36.56948853 C-27.04609735 34.70042549 -27.06408477 32.83138366 -27.09115028 30.9624939 C-27.1276546 28.33649462 -27.13243656 25.71215123 -27.13012695 23.0859375 C-27.14810333 22.31988693 -27.16607971 21.55383636 -27.18460083 20.76457214 C-27.11978964 13.91694948 -24.25578393 9.15539559 -19.54711914 4.29443359 C-13.12211771 -0.16353974 -7.6665318 -0.36045177 0 0 Z " fill="#FEFEFE" transform="translate(238.5625,77.625)"/>
<path d="M0 0 C7.59 0 15.18 0 23 0 C23.13564457 14.07364582 23.24568483 28.14685628 23.31087303 42.2210083 C23.3421628 48.75647298 23.38459478 55.29146658 23.45263672 61.82666016 C23.51790999 68.13553486 23.55372375 74.44395695 23.56926346 80.75314331 C23.58033524 83.15810266 23.60195616 85.5630377 23.63438034 87.96780396 C23.67804705 91.34105628 23.68392947 94.71244724 23.68115234 98.0859375 C23.702724 99.07640579 23.72429565 100.06687408 23.746521 101.08735657 C23.68487981 108.02379677 21.87693091 112.05243394 17 117 C10.26869628 122.44233066 3.35021491 123.30367385 -4.99609375 123.1953125 C-6.24641136 123.19106766 -6.24641136 123.19106766 -7.52198792 123.18673706 C-10.1606436 123.17562289 -12.79894848 123.15053515 -15.4375 123.125 C-17.23632319 123.11495885 -19.03515175 123.10583499 -20.83398438 123.09765625 C-25.22278955 123.07571235 -29.61133548 123.04124387 -34 123 C-33.97494385 122.22366211 -33.9498877 121.44732422 -33.92407227 120.64746094 C-33.23126079 98.68486582 -32.79263743 76.72024932 -32.4375 54.75 C-32.4263982 54.06334763 -32.4152964 53.37669525 -32.40385818 52.66923523 C-32.26583362 44.11287642 -32.13129354 35.55646476 -32 27 C-31.34 27 -30.68 27 -30 27 C-29.79503906 26.14535156 -29.59007812 25.29070312 -29.37890625 24.41015625 C-29.10949219 23.30542969 -28.84007812 22.20070313 -28.5625 21.0625 C-28.29566406 19.96035156 -28.02882813 18.85820312 -27.75390625 17.72265625 C-27 15 -27 15 -26 14 C-23.81409212 13.86653208 -21.62597189 13.76872642 -19.4375 13.6875 C-13.21387801 13.28147369 -9.17455169 12.48287133 -4 9 C-2.7918658 6.94474423 -2.7918658 6.94474423 -2 5 C-1.34 5 -0.68 5 0 5 C0 3.35 0 1.7 0 0 Z " fill="#FDFDFD" transform="translate(332,243)"/>
<path d="M0 0 C39.93 0 79.86 0 121 0 C121 21.45 121 42.9 121 65 C117.99924573 63.49962287 116.05578059 62.37960453 113.56640625 60.3125 C112.92356689 59.78309814 112.28072754 59.25369629 111.6184082 58.70825195 C110.9399585 58.14452881 110.26150879 57.58080566 109.5625 57 C108.13116323 55.82565808 106.69885745 54.65249632 105.265625 53.48046875 C104.55083984 52.89571777 103.83605469 52.3109668 103.09960938 51.70849609 C100.02925856 49.21008738 96.93411871 46.74647502 93.8125 44.3125 C92.80832031 43.52488281 91.80414063 42.73726562 90.76953125 41.92578125 C87.78510924 39.69640625 87.78510924 39.69640625 83 38 C80.36 40.64 77.72 43.28 75 46 C79.03906342 50.79459977 79.03906342 50.79459977 83.375 55.3125 C85 57 85 57 85 59 C83.515 59.495 83.515 59.495 82 60 C71.44 49.44 60.88 38.88 50 28 C45.7870524 29.68517904 42.67684111 31.43476202 39 34 C38.01 33.505 38.01 33.505 37 33 C37.17789063 32.44054687 37.35578125 31.88109375 37.5390625 31.3046875 C38.38379548 27.0810226 37.33224401 23.04156717 36 19 C34.80415278 17.18244858 34.80415278 17.18244858 33.375 15.6875 C31 13 31 13 30.6875 10.125 C30.790625 9.42375 30.89375 8.7225 31 8 C28.69 8 26.38 8 24 8 C24 7.34 24 6.68 24 6 C19.38181789 6.11067539 15.9326886 6.42896616 11.9375 8.875 C9.45561058 12.87804745 9.91071518 15.36608836 10.15234375 19.95703125 C9.92299629 24.53809977 8.07892301 28.12962465 6.1796875 32.25 C4.74702946 35.58970616 4.24557179 38.39828037 4 42 C4.9075 42.226875 5.815 42.45375 6.75 42.6875 C10.5118577 44.20671176 11.88161177 45.57798825 14 49 C14 50.32 14 51.64 14 53 C9.38 53.99 4.76 54.98 0 56 C0 37.52 0 19.04 0 0 Z " fill="#FDFEFE" transform="translate(260,121)"/>
<path d="M0 0 C8.40446289 3.87898287 13.5243958 11.99856378 17.00390625 20.26953125 C20.62756043 30.20260683 21.19700706 40.51484643 21 51 C19.824375 51.1546875 19.824375 51.1546875 18.625 51.3125 C15.66954819 51.77595022 15.66954819 51.77595022 14 55 C13.49957854 57.91538029 13.49957854 57.91538029 14 61 C14.721875 61.7425 15.44375 62.485 16.1875 63.25 C18 66 18 66 17.80859375 68.18359375 C15.11137841 78.06310823 10.0957581 86.89958241 1.09375 92.1015625 C-2.55832756 93.66868533 -6.10587225 93.53101742 -10 93 C-18.70431516 88.82192872 -23.59927328 80.88589775 -26.93359375 72.1484375 C-29.83012252 63.59678112 -31.39909182 56.04608135 -31 47 C-27.04 47 -23.08 47 -19 47 C-19 47.99 -19 48.98 -19 50 C-18.01 50 -17.02 50 -16 50 C-15.84144531 50.66386719 -15.68289062 51.32773438 -15.51953125 52.01171875 C-14.06169642 57.52893896 -12.88651848 61.59080106 -8 65 C-5 65.91666667 -5 65.91666667 -2 65 C3.65287826 59.98949427 4.57070411 54.57695459 5.25390625 47.29296875 C5.53819822 40.73591203 4.50484477 35.60052515 1 30 C-1.23832998 27.61726163 -2.31028711 27.12069976 -5.5 26.5625 C-8.80770496 27.14134837 -9.88609813 28.44873913 -12 31 C-14.12508244 34.18762365 -14.5020163 36.26512223 -15 40 C-13.68 40.33 -12.36 40.66 -11 41 C-9.02 38.525 -9.02 38.525 -7 36 C-4.625 36.3125 -4.625 36.3125 -2 37 C0.97757056 41.46635583 0.48923544 45.76365188 0 51 C-1.1875 54.1875 -1.1875 54.1875 -3 56 C-5.5 56.625 -5.5 56.625 -8 56 C-9.90062874 53.536222 -10.91508542 51.24342179 -11.9375 48.3125 C-12.81292798 45.84462837 -12.81292798 45.84462837 -15.125 44.6875 C-15.74375 44.460625 -16.3625 44.23375 -17 44 C-17.33 44.66 -17.66 45.32 -18 46 C-22.29 45.34 -26.58 44.68 -31 44 C-31.45269878 29.96633783 -27.97118631 16.74129799 -18.73828125 5.84765625 C-13.08836346 -0.15776199 -7.99874245 -1.14951987 0 0 Z " fill="#6DE2FC" transform="translate(234,177)"/>
<path d="M0 0 C0.33 0 0.66 0 1 0 C1 6.93 1 13.86 1 21 C11.56 21 22.12 21 33 21 C33 63.57 33 106.14 33 150 C5 150 5 150 1 149 C1 183.32 1 217.64 1 253 C0.67 253 0.34 253 0 253 C0 218.68 0 184.36 0 149 C-7.59 149 -15.18 149 -23 149 C-23 150.65 -23 152.3 -23 154 C-23.33 154 -23.66 154 -24 154 C-24.04898438 153.02160156 -24.09796875 152.04320312 -24.1484375 151.03515625 C-24.26058594 149.06869141 -24.26058594 149.06869141 -24.375 147.0625 C-24.47941406 145.13083984 -24.47941406 145.13083984 -24.5859375 143.16015625 C-25.00103179 138.15115688 -25.00103179 138.15115688 -27 130 C-9.51 130 7.98 130 26 130 C26 96.01 26 62.02 26 27 C-13.93 27 -53.86 27 -95 27 C-94.67 45.81 -94.34 64.62 -94 84 C-96.97 84.99 -96.97 84.99 -100 86 C-100 86.66 -100 87.32 -100 88 C-100.66 87.67 -101.32 87.34 -102 87 C-101.67 65.22 -101.34 43.44 -101 21 C-67.67 21 -34.34 21 0 21 C0 14.07 0 7.14 0 0 Z " fill="#C0F0FB" transform="translate(355,94)"/>
<path d="M0 0 C0.92232422 0.63228516 0.92232422 0.63228516 1.86328125 1.27734375 C3.07564453 2.09912109 3.07564453 2.09912109 4.3125 2.9375 C5.11300781 3.48277344 5.91351563 4.02804687 6.73828125 4.58984375 C10.62099563 7.01067258 13.76159073 7.1614046 18.25 7.1875 C19.89742187 7.20876953 19.89742187 7.20876953 21.578125 7.23046875 C25.28604151 6.98073465 28.45002047 6.06473012 32 5 C31.99666908 6.21696312 31.99666908 6.21696312 31.99327087 7.45851135 C31.97319131 15.12344171 31.95798685 22.78835922 31.94818783 30.45330906 C31.94298063 34.39344472 31.93592245 38.33355854 31.92456055 42.27368164 C31.91365456 46.07973888 31.90770688 49.88577518 31.90512276 53.69184685 C31.90328237 55.14022081 31.89968863 56.5885937 31.89426994 58.03695869 C31.88695702 60.07357336 31.88601335 62.11010273 31.88647461 64.14672852 C31.88314369 65.88213646 31.88314369 65.88213646 31.87974548 67.65260315 C32.00585388 71.16294829 32.46119544 74.53131411 33 78 C33.07066856 79.46610674 33.10903427 80.93457893 33.09765625 82.40234375 C33.09443359 83.14677734 33.09121094 83.89121094 33.08789062 84.65820312 C33.07532227 85.78645508 33.07532227 85.78645508 33.0625 86.9375 C33.05798828 87.71673828 33.05347656 88.49597656 33.04882812 89.29882812 C33.03716908 91.19925268 33.01923877 93.09963706 33 95 C30.12442297 95.08138426 27.25117738 95.14067851 24.375 95.1875 C23.56675781 95.21263672 22.75851563 95.23777344 21.92578125 95.26367188 C14.58709186 95.35316809 9.32928679 93.18904241 4 88 C0.53666803 82.6485962 -0.58004807 78.04748904 -0.45410156 71.74804688 C-0.45468567 70.96659302 -0.45526978 70.18513916 -0.45587158 69.38000488 C-0.45310972 66.82578349 -0.42211004 64.27276465 -0.390625 61.71875 C-0.38315581 59.93657061 -0.37746608 58.15438295 -0.37347412 56.37219238 C-0.35827112 51.70313462 -0.31903596 47.03458211 -0.2746582 42.36572266 C-0.23358981 37.59284294 -0.21543849 32.81988084 -0.1953125 28.046875 C-0.15253599 18.69769584 -0.08435003 9.34889009 0 0 Z " fill="#FEFEFE" transform="translate(212,270)"/>
<path d="M0 0 C1.16499527 -0.01007584 2.32999054 -0.02015167 3.5302887 -0.03053284 C7.37803776 -0.05900714 11.22539434 -0.06488952 15.07324219 -0.06811523 C17.07580652 -0.07531936 19.07837094 -0.08252895 21.08093238 -0.09049648 C27.37738878 -0.11488916 33.67371661 -0.12225314 39.97021484 -0.12011719 C46.44494335 -0.11831713 52.91892017 -0.14993429 59.3934586 -0.19734818 C64.96909681 -0.23670999 70.54449076 -0.2526632 76.12026668 -0.25075096 C79.44298549 -0.24998971 82.76489007 -0.26113492 86.08750153 -0.29028511 C89.79984699 -0.31980237 93.5102775 -0.31100805 97.22265625 -0.29296875 C98.30871658 -0.30982727 99.39477692 -0.32668579 100.51374817 -0.34405518 C108.07569022 -0.25105623 113.48264677 1.58801355 119.37011719 6.43579102 C123.55325291 11.65607455 125.50338954 16.24731675 125.46777344 22.97875977 C125.46455078 24.0519043 125.46132813 25.12504883 125.45800781 26.23071289 C125.44962891 27.35026367 125.44125 28.46981445 125.43261719 29.62329102 C125.42810547 30.75444336 125.42359375 31.8855957 125.41894531 33.05102539 C125.40715217 35.84600028 125.39069369 38.64086922 125.37011719 41.43579102 C124.05011719 41.43579102 122.73011719 41.43579102 121.37011719 41.43579102 C121.36077148 40.8415332 121.35142578 40.24727539 121.34179688 39.63500977 C121.28758726 36.90114456 121.2040444 34.16889902 121.12011719 31.43579102 C121.1059375 30.5012207 121.09175781 29.56665039 121.07714844 28.60375977 C120.83935276 21.80280334 119.70896935 16.0398332 114.95922852 10.9128418 C110.40626867 6.88049066 106.07417939 5.23242478 100.06933594 5.02172852 C99.09287109 4.98305664 98.11640625 4.94438477 97.11035156 4.90454102 C96.10294922 4.87360352 95.09554687 4.84266602 94.05761719 4.81079102 C92.51750977 4.7527832 92.51750977 4.7527832 90.94628906 4.69360352 C88.42107454 4.59964204 85.89586127 4.51397562 83.37011719 4.43579102 C83.27730469 6.01360352 83.27730469 6.01360352 83.18261719 7.62329102 C82.16597243 12.39370104 81.34732716 13.60359001 77.37011719 16.43579102 C73.18643049 17.19109652 69.04945593 17.13613107 64.80761719 17.09985352 C63.58357178 17.10463715 62.35952637 17.10942078 61.09838867 17.11434937 C58.51284499 17.11774879 55.92725835 17.10854365 53.34179688 17.08764648 C49.38411623 17.06088567 45.4292721 17.08739726 41.47167969 17.11938477 C38.95865259 17.11608068 36.44562726 17.10967448 33.93261719 17.09985352 C32.74917725 17.10997467 31.5657373 17.12009583 30.34643555 17.13052368 C21.22237488 17.00034395 21.22237488 17.00034395 18.14746094 13.95678711 C17.26767578 12.70889404 17.26767578 12.70889404 16.37011719 11.43579102 C15.87511719 10.94079102 15.87511719 10.94079102 15.37011719 10.43579102 C15.32930936 8.43620738 15.32757362 6.43533848 15.37011719 4.43579102 C11.5561421 4.42946377 7.74587001 4.48955687 3.93261719 4.56079102 C2.86333984 4.55821289 1.7940625 4.55563477 0.69238281 4.55297852 C-6.71443465 4.73418506 -12.32213241 5.99627596 -17.62988281 11.43579102 C-21.28976451 16.8400566 -22.20724609 20.57224858 -22.11230469 27.02978516 C-22.11621719 27.85997665 -22.1201297 28.69016815 -22.12416077 29.54551697 C-22.1301105 31.33679003 -22.1270116 33.12811174 -22.11573792 34.91935921 C-22.09841074 37.75731965 -22.10601825 40.59426738 -22.11999512 43.43223572 C-22.14528324 49.45432395 -22.13983554 55.4761713 -22.12988281 61.49829102 C-22.1183468 68.48286103 -22.11952486 75.46693679 -22.15394592 82.45144463 C-22.16102868 85.24241342 -22.14437934 88.03259496 -22.12683105 90.82350159 C-22.13253961 92.53940248 -22.13935722 94.25530016 -22.14746094 95.97119141 C-22.13614639 96.74278595 -22.12483185 97.51438049 -22.11317444 98.30935669 C-22.17382947 103.69263171 -23.30645955 106.39511895 -26.62988281 110.43579102 C-26.95988281 110.43579102 -27.28988281 110.43579102 -27.62988281 110.43579102 C-27.699454 98.56141355 -27.75273036 86.68708474 -27.78531933 74.81254482 C-27.80096196 69.29845915 -27.82217482 63.78451312 -27.85620117 58.27050781 C-27.88884433 52.94721673 -27.90674638 47.62405981 -27.91451454 42.30067635 C-27.92004912 40.27173819 -27.93085683 38.24280721 -27.94707298 36.21392632 C-27.96891296 33.36771768 -27.97184697 30.52206046 -27.97045898 27.67578125 C-27.98124481 26.84068024 -27.99203064 26.00557922 -28.00314331 25.14517212 C-27.96555632 18.00212907 -26.14167057 12.64222682 -21.31738281 7.18579102 C-20.764375 6.54125977 -20.21136719 5.89672852 -19.64160156 5.23266602 C-13.62026474 -0.14561542 -7.67322873 -0.00953446 0 0 Z " fill="#2A2A2C" transform="translate(234.6298828125,73.564208984375)"/>
<path d="M0 0 C1.22589844 0.01353516 1.22589844 0.01353516 2.4765625 0.02734375 C3.41628906 0.04474609 3.41628906 0.04474609 4.375 0.0625 C4.375 0.7225 4.375 1.3825 4.375 2.0625 C7.84 1.5675 7.84 1.5675 11.375 1.0625 C12.375 4.0625 12.375 4.0625 12.625 6.375 C13.22270347 9.31124729 13.22270347 9.31124729 15.875 11.75 C18.90350225 15.12085468 19.15527005 18.38896915 19.52734375 22.79296875 C19.375 25.0625 19.375 25.0625 17.375 28.0625 C17.106875 29.196875 16.83875 30.33125 16.5625 31.5 C15.19181532 35.61205405 14.04167929 36.8454381 10.375 39.0625 C7.9 39.5575 7.9 39.5575 5.375 40.0625 C5.375 44.3525 5.375 48.6425 5.375 53.0625 C2.58636993 54.45681504 0.45421132 54.31910094 -2.625 54.0625 C-4.57626051 51.13560924 -5.02831169 49.53166132 -5.75 46.1875 C-6.82146534 42.3096499 -6.82146534 42.3096499 -9.59765625 39.54296875 C-10.32855469 39.15753906 -11.05945313 38.77210938 -11.8125 38.375 C-13.9296875 37.2421875 -13.9296875 37.2421875 -15.625 36.0625 C-17.19828442 30.13242797 -14.14782491 25.58322829 -11.72265625 20.19921875 C-10.29195768 16.11078119 -10.47902787 12.68841048 -10.70703125 8.41796875 C-10.625 6.0625 -10.625 6.0625 -8.75 2.9375 C-5.65800764 0.20927145 -4.03152357 -0.05759319 0 0 Z " fill="#272222" transform="translate(279.625,126.9375)"/>
<path d="M0 0 C6.43744134 3.88675704 8.54457936 9.36144841 11.25 16.125 C13.57092907 28.11646686 12.52533566 40.52752073 6 51 C3.22154297 54.73107086 1.0712956 56.30040483 -3.4375 57.125 C-7.0829519 57.32483374 -7.99532162 57.00273641 -11.3125 55.0625 C-17.10515545 49.26984455 -20.09664364 40.62988483 -20.125 32.5625 C-20.08375 31.386875 -20.0425 30.21125 -20 29 C-19.34 29 -18.68 29 -18 29 C-18 29.99 -18 30.98 -18 32 C-17.01 32 -16.02 32 -15 32 C-14.84144531 32.66386719 -14.68289062 33.32773438 -14.51953125 34.01171875 C-13.06169642 39.52893896 -11.88651848 43.59080106 -7 47 C-4 47.91666667 -4 47.91666667 -1 47 C4.65287826 41.98949427 5.57070411 36.57695459 6.25390625 29.29296875 C6.53819822 22.73591203 5.50484477 17.60052515 2 12 C-0.23832998 9.61726163 -1.31028711 9.12069976 -4.5 8.5625 C-7.80770496 9.14134837 -8.88609813 10.44873913 -11 13 C-13.12508244 16.18762365 -13.5020163 18.26512223 -14 22 C-12.68 22.33 -11.36 22.66 -10 23 C-8.68 21.35 -7.36 19.7 -6 18 C-3.625 18.3125 -3.625 18.3125 -1 19 C1.97757056 23.46635583 1.48923544 27.76365188 1 33 C-0.1875 36.1875 -0.1875 36.1875 -2 38 C-4.5 38.625 -4.5 38.625 -7 38 C-8.89359114 35.54534482 -9.92169237 33.21045176 -11 30.3125 C-11.8891283 27.68136031 -11.8891283 27.68136031 -15 26 C-16.65549531 25.61500109 -18.3222433 25.27206865 -20 25 C-20.74678888 16.4119279 -17.20471119 8.71575637 -12 2 C-7.95450863 -0.69699425 -4.75100828 -0.77285237 0 0 Z " fill="#F7FDFE" transform="translate(233,195)"/>
<path d="M0 0 C8.40446289 3.87898287 13.5243958 11.99856378 17.00390625 20.26953125 C20.62756043 30.20260683 21.19700706 40.51484643 21 51 C19.35 51 17.7 51 16 51 C15.98582031 49.86304688 15.97164062 48.72609375 15.95703125 47.5546875 C15.62973757 34.80271548 14.11779253 21.75391759 5 12 C0.62554503 8.9778143 -3.61751545 7.06391573 -9 8 C-16.20472588 11.89055198 -19.89021563 17.66272986 -23 25 C-23.93577826 28.13410409 -24.61285282 31.29337402 -25.25 34.5 C-25.42273438 35.32242188 -25.59546875 36.14484375 -25.7734375 36.9921875 C-26.19216021 38.99275154 -26.59750873 40.9961073 -27 43 C-28.32 43 -29.64 43 -31 43 C-31.5037708 29.3981883 -27.63078039 16.33966273 -18.73828125 5.84765625 C-13.08836346 -0.15776199 -7.99874245 -1.14951987 0 0 Z " fill="#F6FDFE" transform="translate(234,177)"/>
<path d="M0 0 C0.91136719 0.47179687 1.82273437 0.94359375 2.76171875 1.4296875 C6.12002648 3.05820343 9.4089969 4.01423444 13 5 C14 6 14 6 14.09765625 8.28515625 C14.08605469 9.20167969 14.07445312 10.11820313 14.0625 11.0625 C14.05347656 11.98160156 14.04445313 12.90070313 14.03515625 13.84765625 C14.02355469 14.55792969 14.01195312 15.26820313 14 16 C14.99 15.67 15.98 15.34 17 15 C16.45276317 18.37462715 15.9451 20.08235 14 23 C13.61500109 24.65549531 13.27206865 26.3222433 13 28 C13.66 28 14.32 28 15 28 C15 31.96 15 35.92 15 40 C12.21136993 41.39431504 10.07921132 41.25660094 7 41 C5.04873949 38.07310924 4.59668831 36.46916132 3.875 33.125 C2.80353466 29.2471499 2.80353466 29.2471499 0.02734375 26.48046875 C-2.14654911 25.28838931 -2.14654911 25.28838931 -4.35546875 24.42578125 C-6 23 -6 23 -6.42578125 19.8828125 C-5.93224424 15.38211719 -4.69317381 11.73060579 -3 7.5625 C-2.71382813 6.83095703 -2.42765625 6.09941406 -2.1328125 5.34570312 C-1.43239577 3.55964046 -0.71766189 1.77920344 0 0 Z " fill="#C04A37" transform="translate(270,140)"/>
<path d="M0 0 C3.5 0.75 3.5 0.75 6.5 3.375 C8.5 6.75 8.5 6.75 8.6875 9.5625 C6.98097763 14.1431653 4.3494771 17.80846442 1.5 21.75 C0.860625 22.78125 0.22125 23.8125 -0.4375 24.875 C-2.5 26.75 -2.5 26.75 -5.6875 26.9375 C-13.00777521 24.65741428 -19.37899516 20.26384636 -23.5 13.75 C-24.125 10.125 -24.125 10.125 -23.5 6.75 C-21.375 4.25 -21.375 4.25 -18.5 2.75 C-14.21406558 2.83746805 -11.69055597 3.92758511 -8.5 6.75 C-7.819375 5.76 -7.13875 4.77 -6.4375 3.75 C-4.18814016 1.07370783 -3.6365281 0.77925602 0 0 Z " fill="#FBFEFE" transform="translate(174.5,217.25)"/>
<path d="M0 0 C1.32 0 2.64 0 4 0 C4.14695313 1.16015625 4.29390625 2.3203125 4.4453125 3.515625 C5.83315405 13.49481568 7.84834322 21.24648848 13 30 C13.34933594 30.74121094 13.69867188 31.48242188 14.05859375 32.24609375 C15.2959064 34.5512945 16.61747296 35.03209839 19 36 C19.66 36.33 20.32 36.66 21 37 C26.0201735 37.82280852 29.97975956 37.50700638 34.25 34.625 C40.03407544 29.77421163 42.29521256 22.83507097 45 16 C46.32 16.99 47.64 17.98 49 19 C46.56437228 29.04162306 42.67376654 37.96607545 34 44 C29.69070294 46.49020855 25.88189862 46.66571345 21 46 C12.29568484 41.82192872 7.40072672 33.88589775 4.06640625 25.1484375 C1.19731051 16.67777388 -0.53598257 8.97274527 0 0 Z " fill="#F8FDFE" transform="translate(203,224)"/>
<path d="M0 0 C5.20904906 1.05946761 10.19409886 2.35360692 15.25 4 C21.75807137 6.05922447 28.23697187 7.15877228 35 8 C33.68138801 17.09148265 33.68138801 17.09148265 31.125 20.5 C26.31191104 23.89747456 22.60500872 24.259479 16.75 24.125 C16.00492187 24.11597656 15.25984375 24.10695313 14.4921875 24.09765625 C12.66131941 24.07418358 10.83061762 24.03831525 9 24 C10.32 23.67 11.64 23.34 13 23 C13.24944224 19.76458743 13.09979439 17.06964833 12 14 C9.59592992 11.81985912 7.14863714 10.23769502 4.34765625 8.60546875 C1.82795238 6.88234348 0.98104328 5.85343447 0 3 C0 2.01 0 1.02 0 0 Z " fill="#5EC9E2" transform="translate(271,249)"/>
<path d="M0 0 C1.11503906 0.14179688 2.23007812 0.28359375 3.37890625 0.4296875 C4.49136719 0.55601562 5.60382813 0.68234375 6.75 0.8125 C7.80316406 0.97492188 8.85632813 1.13734375 9.94140625 1.3046875 C10.85277344 1.44390625 11.76414062 1.583125 12.703125 1.7265625 C14.94140625 2.3046875 14.94140625 2.3046875 17.31640625 4.4296875 C19.45844067 8.2194407 18.99942321 10.14819229 17.94140625 14.3046875 C17.30049911 15.6505925 16.63902453 16.98728439 15.94140625 18.3046875 C13.56515448 18.41352346 11.19396649 18.49235446 8.81640625 18.5546875 C8.15125 18.58820313 7.48609375 18.62171875 6.80078125 18.65625 C1.65965073 18.75705648 -1.12538807 17.54929041 -5.05859375 14.3046875 C-7.40028139 10.79215604 -7.55483052 9.43999394 -7.05859375 5.3046875 C-4.12366777 0.41078683 -4.12366777 0.41078683 0 0 Z " fill="#BF4C39" transform="translate(254.05859375,226.6953125)"/>
<path d="M0 0 C2.359375 0.82421875 2.359375 0.82421875 4.359375 2.38671875 C6.29048322 3.992589 6.29048322 3.992589 8.796875 4.26171875 C12.1498581 3.68925822 13.76041702 1.94442131 16.359375 -0.17578125 C17.349375 0.15421875 18.339375 0.48421875 19.359375 0.82421875 C19.65677643 5.88004303 19.45056491 8.76414842 16.359375 12.82421875 C9.4769838 16.5309387 1.09391694 18.15599418 -6.640625 16.82421875 C-9.828125 14.82421875 -9.828125 14.82421875 -11.640625 12.82421875 C-11.13196403 8.56044299 -9.89522877 6.48770903 -6.890625 3.44921875 C-6.21515625 2.74023438 -5.5396875 2.03125 -4.84375 1.30078125 C-2.640625 -0.17578125 -2.640625 -0.17578125 0 0 Z " fill="#FCFDFD" transform="translate(275.640625,404.17578125)"/>
<path d="M0 0 C2.125 0.75 2.125 0.75 4 2.3125 C6.87900938 4.26006517 8.71808382 4.18492547 12.125 3.75 C13.75014468 2.29166642 13.75014468 2.29166642 15.125 0.75 C16.445 0.75 17.765 0.75 19.125 0.75 C19.72650376 7.84774436 19.72650376 7.84774436 17.25 11.5625 C10.23038816 16.47622829 1.58517227 18.0421485 -6.875 16.75 C-10.0625 14.75 -10.0625 14.75 -11.875 12.75 C-11.72325965 7.74256861 -8.97292829 5.47452403 -5.56640625 2.203125 C-2.59870462 -0.34649395 -2.59870462 -0.34649395 0 0 Z " fill="#FCFDFE" transform="translate(244.875,399.25)"/>
<path d="M0 0 C6.8041755 5.50124828 13.12900122 11.69350182 18 19 C17.625 21.1875 17.625 21.1875 17 23 C14.27076612 23.0270817 11.54180363 23.04687847 8.8125 23.0625 C8.04357422 23.07087891 7.27464844 23.07925781 6.48242188 23.08789062 C2.51473211 23.10491934 -1.12571234 22.98604115 -5 22 C-4.54702053 19.45727525 -4.08779821 16.91594018 -3.625 14.375 C-3.49867188 13.66214844 -3.37234375 12.94929687 -3.2421875 12.21484375 C-2.46899424 8.00094047 -1.46604985 4.04119829 0 0 Z " fill="#5ECBE4" transform="translate(290,213)"/>
<path d="M0 0 C1.32 0 2.64 0 4 0 C4 2.97 4 5.94 4 9 C6.31 9 8.62 9 11 9 C11.22226864 10.76913824 11.42733873 12.54044371 11.625 14.3125 C11.79902344 15.79169922 11.79902344 15.79169922 11.9765625 17.30078125 C12 20 12 20 10 23 C3.52698786 24.22722535 -2.12236422 22.61228257 -8 20 C-8.28762958 16.95112645 -8.44801527 14.03776206 -8 11 C-5.6875 9.4375 -5.6875 9.4375 -3 8 C-1.65625457 5.38599522 -0.87925157 2.8228603 0 0 Z " fill="#FAFEFE" transform="translate(136,170)"/>
<path d="M0 0 C3.48395472 -0.56780751 6.53600286 -0.75916338 10 0 C12.99002646 2.60116537 15.10655422 5.52659285 17 9 C17 9.66 17 10.32 17 11 C18.32 11 19.64 11 21 11 C21 11.66 21 12.32 21 13 C33.21 13 45.42 13 58 13 C58 13.66 58 14.32 58 15 C56.65421875 14.95117676 56.65421875 14.95117676 55.28125 14.90136719 C51.91663019 14.80838828 48.56026872 14.77033168 45.19482422 14.76806641 C43.7455922 14.75613724 42.29636118 14.7230168 40.84814453 14.66748047 C35.98110374 14.48970434 31.68611845 14.57171445 27 16 C24.18861779 18.94079838 22.47338524 21.70544779 20.67578125 25.34570312 C19 28 19 28 16.4375 28.76855469 C14.17466126 28.75132955 12.19232551 28.54808138 10 28 C13.53613714 23.21224044 17.14483704 18.53548584 21 14 C19.824375 14.13277344 18.64875 14.26554688 17.4375 14.40234375 C13.76713671 14.40153459 12.07065962 13.67071959 9.375 11.19140625 C8.228855 10.00178678 7.10401009 8.79132242 6 7.5625 C5.41605469 6.95083984 4.83210938 6.33917969 4.23046875 5.70898438 C0 1.22587639 0 1.22587639 0 0 Z " fill="#5ECBE5" transform="translate(85,209)"/>
<path d="M0 0 C5.93611634 0.36343569 9.68919398 1.83852906 14 6 C26.69386184 21.45609583 29.52959127 40.64049695 29 60 C27.02 60 25.04 60 23 60 C23.02320313 59.07960937 23.04640625 58.15921875 23.0703125 57.2109375 C23.32053374 39.65970515 21.34698077 19.68485613 8.42578125 6.37890625 C7.01078685 5.17776491 5.50811777 4.08191057 4 3 C3.21625 2.401875 2.4325 1.80375 1.625 1.1875 C1.08875 0.795625 0.5525 0.40375 0 0 Z " fill="#5FCBE4" transform="translate(235,169)"/>
<path d="M0 0 C4.75 0.75 4.75 0.75 7 3 C7 8.96570171 3.63155536 12.62436449 0 17 C-5.22652218 15.63114895 -8.27070062 13.81602728 -12 10 C-13.0625 6.875 -13.0625 6.875 -13 4 C-11.8125 2.0625 -11.8125 2.0625 -10 1 C-7.02667109 1.28774151 -4.61190363 2.60076591 -2 4 C-1.34 2.68 -0.68 1.36 0 0 Z " fill="#F7FDFE" transform="translate(124,256)"/>
<path d="M0 0 C1.04651163 8.55481728 1.04651163 8.55481728 -1.3125 11.8125 C-4.592004 14.38925314 -6.51515027 15 -10.75 15 C-15.49477352 13.54006969 -15.49477352 13.54006969 -17 11 C-16.8125 9.1875 -16.8125 9.1875 -16 7 C-15.649375 5.9275 -15.29875 4.855 -14.9375 3.75 C-14.4734375 2.38875 -14.4734375 2.38875 -14 1 C-12.22932584 0.83165067 -10.45845388 0.66538091 -8.6875 0.5 C-7.70136719 0.4071875 -6.71523438 0.314375 -5.69921875 0.21875 C-3 0 -3 0 0 0 Z " fill="#BF4C3A" transform="translate(294,394)"/>
<path d="M0 0 C4.93731454 1.46290801 4.93731454 1.46290801 6.375 4 C6.87073337 7.89504791 6.95516848 10.09493717 4.8125 13.4375 C1.43282196 15.60396028 -0.68483987 15.56288002 -4.625 15 C-7.0625 13.375 -7.0625 13.375 -8.625 11 C-9.1875 8.0625 -9.1875 8.0625 -8.625 5 C-5.91953265 1.14675862 -4.77773264 0 0 0 Z " fill="#DEF9FF" transform="translate(360.625,135)"/>
<path d="M0 0 C0.66 0 1.32 0 2 0 C2 2.31 2 4.62 2 7 C4.97 7.495 4.97 7.495 8 8 C8.25 15.625 8.25 15.625 6 19 C4.56208484 18.85831863 3.1246763 18.71148957 1.6875 18.5625 C0.88699219 18.48128906 0.08648437 18.40007812 -0.73828125 18.31640625 C-3 18 -3 18 -6 17 C-7.13771518 11.74900686 -7.13771518 11.74900686 -7 9 C-4.6875 6.8125 -4.6875 6.8125 -2 5 C-0.66701026 2.38181544 -0.66701026 2.38181544 0 0 Z " fill="#F6FDFE" transform="translate(192,271)"/>
<path d="M0 0 C6.93 0.495 6.93 0.495 14 1 C14.43898615 6.35563104 14.43898615 6.35563104 14 9 C11.5625 10.9375 11.5625 10.9375 9 12 C8.67 12.33 8.34 12.66 8 13 C4.04644974 13.44926708 2.44377677 13.30871428 -0.875 11 C-1.57625 10.34 -2.2775 9.68 -3 9 C-2.01 6.03 -1.02 3.06 0 0 Z " fill="#C14E3B" transform="translate(249,391)"/>
<path d="M0 0 C0.495 0.99 0.495 0.99 1 2 C-2.3 2 -5.6 2 -9 2 C-9.391875 3.44375 -9.78375 4.8875 -10.1875 6.375 C-12.81434731 15.02526928 -16.37814513 21.58415923 -22.55078125 28.171875 C-24.51942504 30.65523158 -24.92175712 32.8702846 -25 36 C-25.66 34.68 -26.32 33.36 -27 32 C-28.3303125 32.495 -28.3303125 32.495 -29.6875 33 C-32.70923347 33.91222143 -34.88373706 34.18330958 -38 34 C-37.46375 33.7525 -36.9275 33.505 -36.375 33.25 C-22.54394062 25.97049507 -18.39826146 14.90928666 -13 1 C-6.565 0.505 -6.565 0.505 0 0 Z " fill="#63C5DC" transform="translate(270,244)"/>
<path d="M0 0 C0.33 0 0.66 0 1 0 C1.08302368 0.95869995 1.08302368 0.95869995 1.16772461 1.93676758 C1.42407777 4.89536578 1.68078741 7.85393296 1.9375 10.8125 C2.02451172 11.81732422 2.11152344 12.82214844 2.20117188 13.85742188 C2.78421061 20.57316432 3.38431904 27.2871717 4 34 C1.69 34 -0.62 34 -3 34 C-3.10224826 27.32659717 -2.72679789 20.82576752 -2.0625 14.1875 C-1.97548828 13.26001953 -1.88847656 12.33253906 -1.79882812 11.37695312 C-1.42043035 7.48926637 -1.03133396 3.77616101 0 0 Z " fill="#DEDEDE" transform="translate(271,332)"/>
<path d="M0 0 C3.33545619 2.73756666 4.86350532 4.19990668 5.60127258 8.52449036 C5.61565897 9.89495939 5.60270998 11.26589088 5.56762695 12.63598633 C5.56835709 13.38774139 5.56908722 14.13949646 5.56983948 14.91403198 C5.56636875 17.38744429 5.5275358 19.85894989 5.48828125 22.33203125 C5.4789512 24.05123364 5.47183599 25.77044935 5.46684265 27.4896698 C5.44778776 32.00602169 5.39870053 36.52156455 5.34332275 41.03759766 C5.29209737 45.64930274 5.26932162 50.26113906 5.24414062 54.87304688 C5.19057988 63.91571928 5.10528575 72.95779226 5 82 C4.67 82 4.34 82 4 82 C3.67 64.51 3.34 47.02 3 29 C2.34 29.33 1.68 29.66 1 30 C1.33 29.030625 1.66 28.06125 2 27.0625 C4.04974043 19.777811 3.41489255 14.68749791 0 8 C-0.2530182 5.27633353 -0.14191757 2.74373977 0 0 Z " fill="#565A5D" transform="translate(207,263)"/>
<path d="M0 0 C3.70006916 -0.37106711 5.38947523 -0.496179 8.3359375 1.8984375 C9.00882813 2.71570313 9.68171875 3.53296875 10.375 4.375 C11.06335938 5.18710938 11.75171875 5.99921875 12.4609375 6.8359375 C14 9 14 9 14 11 C11.03 11 8.06 11 5 11 C4.16151196 9.54462432 3.32936066 8.08559627 2.5 6.625 C1.80390625 5.40683594 1.80390625 5.40683594 1.09375 4.1640625 C0 2 0 2 0 0 Z " fill="#5ECBE4" transform="translate(104,209)"/>
<path d="M0 0 C0.66 0 1.32 0 2 0 C1.34 5.28 0.68 10.56 0 16 C-0.99 15.67 -1.98 15.34 -3 15 C-4.5547669 11.89046621 -4.28644437 9.43733239 -4 6 C-2.125 2.5625 -2.125 2.5625 0 0 Z " fill="#B45C4F" transform="translate(199,201)"/>
<path d="M0 0 C4.455 0.99 4.455 0.99 9 2 C9 2.66 9 3.32 9 4 C10.98 4.66 12.96 5.32 15 6 C10.92951542 8.71365639 10.92951542 8.71365639 8 9 C5.859375 7.890625 5.859375 7.890625 3.75 6.25 C3.04359375 5.71890625 2.3371875 5.1878125 1.609375 4.640625 C0 3 0 3 0 0 Z " fill="#BCF1FE" transform="translate(215,216)"/>
<path d="M0 0 C2.31 0 4.62 0 7 0 C6.40075776 4.19469571 5.42500059 8.00999834 4 12 C3.67 12 3.34 12 3 12 C2.01 8.04 1.02 4.08 0 0 Z " fill="#9F4B3E" transform="translate(272,166)"/>
<path d="M0 0 C2 1.4375 2 1.4375 4 4 C4.35442445 7.02824418 4.23347235 9.96485939 4 13 C1.78631706 10.78631706 0.13447079 9.06983375 -0.265625 5.88671875 C-0.25166986 3.92253213 -0.13286356 1.9597375 0 0 Z " fill="#2E3D43" transform="translate(207,263)"/>
<path d="M0 0 C0 1.32 0 2.64 0 4 C-2.64 4.33 -5.28 4.66 -8 5 C-3.22727273 0 -3.22727273 0 0 0 Z " fill="#D0F5FE" transform="translate(274,170)"/>
<path d="M0 0 C1.875 0.1875 1.875 0.1875 4 1 C5.25 3.5625 5.25 3.5625 6 6 C3.5625 5.25 3.5625 5.25 1 4 C0.1875 1.875 0.1875 1.875 0 0 Z " fill="#AAEEFD" transform="translate(215,216)"/>
</svg>
